<svg width="75" height="75" viewBox="0 0 75 75" fill="none" xmlns="http://www.w3.org/2000/svg">
<path fill-rule="evenodd" clip-rule="evenodd" d="M31.2989 4.09229C17.0506 4.09229 5.5 15.6429 5.5 29.8912C5.5 44.1395 17.0506 55.6901 31.2989 55.6901C45.5473 55.6901 57.0978 44.1395 57.0978 29.8912C57.0978 15.6429 45.5473 4.09229 31.2989 4.09229ZM2.5 29.8912C2.5 13.986 15.3937 1.09229 31.2989 1.09229C47.2041 1.09229 60.0978 13.986 60.0978 29.8912C60.0978 45.7964 47.2041 58.6901 31.2989 58.6901C15.3937 58.6901 2.5 45.7964 2.5 29.8912Z" fill="#454545"/>
<path fill-rule="evenodd" clip-rule="evenodd" d="M31.5 11.5923C21.2827 11.5923 13 19.875 13 30.0923C13 40.3096 21.2827 48.5923 31.5 48.5923C41.7173 48.5923 50 40.3096 50 30.0923C50 19.875 41.7173 11.5923 31.5 11.5923ZM10 30.0923C10 18.2182 19.6259 8.59229 31.5 8.59229C43.3741 8.59229 53 18.2182 53 30.0923C53 41.9664 43.3741 51.5923 31.5 51.5923C19.6259 51.5923 10 41.9664 10 30.0923Z" fill="#00B9FF"/>
<path fill-rule="evenodd" clip-rule="evenodd" d="M29.5 17.0923C29.5 15.9877 30.3954 15.0923 31.5 15.0923C39.8125 15.0923 46.5 21.7798 46.5 30.0923C46.5 31.1969 45.6046 32.0923 44.5 32.0923C43.3954 32.0923 42.5 31.1969 42.5 30.0923C42.5 23.9889 37.6034 19.0923 31.5 19.0923C30.3954 19.0923 29.5 18.1969 29.5 17.0923Z" fill="#00B9FF"/>
<path fill-rule="evenodd" clip-rule="evenodd" d="M54.5019 45.5132L72.1957 63.2069C74.6014 65.6126 74.6014 69.5956 72.1957 72.0013C69.79 74.407 65.807 74.407 63.4013 72.0013L45.6064 54.2065L47.7278 52.0851L65.5226 69.88C66.7568 71.1141 68.8402 71.1141 70.0744 69.88C71.3085 68.6459 71.3085 66.5624 70.0744 65.3282L52.3806 47.6345L54.5019 45.5132Z" fill="#454545"/>
</svg>
