<?xml version="1.0" encoding="utf-8"?>
<!-- Generator: Adobe Illustrator 19.2.0, SVG Export Plug-In . SVG Version: 6.00 Build 0)  -->
<svg version="1.1" id="Layer_1" xmlns="http://www.w3.org/2000/svg" xmlns:xlink="http://www.w3.org/1999/xlink" x="0px" y="0px"
	 width="41px" height="47px" viewBox="0 0 41 47" style="enable-background:new 0 0 41 47;" xml:space="preserve">
<style type="text/css">
	.st0{fill:#FFFFFF;}
	.st1{fill:#1E73B7;}
	.st2{fill:url(#SVGID_1_);}
</style>
<g>
	<path class="st0" d="M20,0C15.6,0.1,8.9,0.6,2.5,3.1C2.3,3.2,2.2,3.4,2.2,3.7c0,7.7,1.4,20.9,2.2,25.3c0,0,0,0.1,0,0.1
		C7.5,40.3,18.5,45.2,20.3,46c0.2,0.1,0.3,0.1,0.5,0c1.7-0.7,12.8-5.7,15.9-16.9c0,0,0,0,0-0.1c0.8-4.4,2.2-18.1,2.2-25.3
		c0-0.3-0.1-0.5-0.4-0.7C32.1,0.6,25.5,0.1,21,0c-0.1,0-0.3,0-0.5,0C20.4,0,20.2,0,20,0z"/>
	<path class="st1" d="M20.8,43.8C22.5,43,32.3,38.5,35,28.3c0,0,0,0,0-0.1c0.7-4,2-16.3,2-23.1c0-0.3-0.2-0.6-0.4-0.7
		c-5.6-2.1-12.3-2.6-16-2.6l-0.3,0c-2.1,0-10.4,0.5-16,2.6C4.1,4.6,3.9,4.9,3.9,5.2c0.1,6.5,1.3,19.1,2,23.1c0,0,0,0,0,0.1
		C8.8,38.5,18.5,43,20.2,43.8C20.4,43.9,20.6,43.9,20.8,43.8z"/>
	
		<linearGradient id="SVGID_1_" gradientUnits="userSpaceOnUse" x1="20.3012" y1="44.8178" x2="22.1982" y2="17.6882" gradientTransform="matrix(1 0 0 -1 0 47)">
		<stop  offset="0" style="stop-color:#60BCEC"/>
		<stop  offset="1" style="stop-color:#1E73B7"/>
	</linearGradient>
	<path class="st2" d="M20.4,2.2c-2.1,0-10.2,0.5-15.7,2.6C4.4,4.9,4.2,5.1,4.3,5.4c0.2,1.8,5.2,10,12.1,15.7
		c7.5,6.2,17.3,7.3,17.9,7.3c0.2,0,0.5-0.2,0.5-0.4c0.7-3.8,1.9-16,1.9-22.6c0-0.3-0.2-0.5-0.4-0.6c-5.5-2.1-12-2.6-15.7-2.6
		L20.4,2.2z"/>
	<path class="st0" d="M26.7,6.1c0.7-0.1,1.4-0.1,2.1,0c0.7,0.2,1.3,0.4,1.9,0.8c0.6,0.4,1,0.9,1.4,1.5c0.4,0.6,0.6,1.2,0.8,2
		c0.1,0.7,0.1,1.4,0,2.1c-0.2,0.7-0.4,1.3-0.8,1.9c-0.4,0.6-0.9,1.1-1.5,1.4c-0.6,0.4-1.2,0.6-2,0.8c-0.9,0.2-1.9,0.1-2.8-0.2
		c-0.9-0.3-1.6-0.9-2.3-1.6c-0.6-0.7-1-1.6-1.2-2.5c-0.1-0.7-0.1-1.4,0-2.1c0.2-0.7,0.4-1.3,0.8-1.9c0.4-0.6,0.9-1.1,1.5-1.4
		C25.4,6.5,26,6.2,26.7,6.1z M26.9,7c-0.8,0.1-1.5,0.5-2.1,1c-0.6,0.5-1,1.1-1.3,1.9c-0.3,0.7-0.3,1.5-0.2,2.3
		c0.2,1.1,0.7,2,1.6,2.7c0.2,0.1,0.3,0.3,0.5,0.4c1,0.6,2,0.8,3.1,0.6c0.8-0.1,1.5-0.5,2.1-1c0.6-0.5,1-1.1,1.3-1.9
		c0.3-0.7,0.3-1.5,0.2-2.3c-0.1-0.6-0.3-1.1-0.6-1.6c-0.3-0.5-0.7-0.9-1.2-1.2c-0.5-0.3-1-0.6-1.6-0.7C28.1,6.9,27.5,6.8,26.9,7z
		 M29.8,10.1l-0.2,0c-0.2,0-0.3,0-0.4-0.2c-0.3-0.6-0.8-0.9-1.5-0.9c-0.3,0-0.7,0.1-0.9,0.3c-0.3,0.2-0.5,0.4-0.6,0.8
		c-0.2,0.3-0.2,0.7-0.2,1.2c0,0.7,0.1,1.2,0.5,1.6c0.3,0.4,0.8,0.6,1.3,0.6c0.4,0,0.7-0.1,1.1-0.3c0.3-0.2,0.4-0.4,0.6-0.7
		c0.1-0.2,0.3-0.3,0.4-0.2l0.3,0.1c0.2,0.1,0.2,0.2,0.2,0.4c-0.1,0.3-0.2,0.5-0.4,0.7c-0.3,0.3-0.6,0.5-0.9,0.7
		c-0.4,0.1-0.7,0.2-1.2,0.2c-0.6,0-1.1-0.1-1.5-0.4c-0.4-0.3-0.7-0.6-1-1.1c-0.2-0.5-0.3-1-0.3-1.7c0-0.4,0.1-0.8,0.2-1.2
		c0.1-0.4,0.3-0.7,0.6-0.9c0.3-0.3,0.6-0.5,0.9-0.6c0.4-0.1,0.8-0.2,1.2-0.2c0.6,0,1.1,0.2,1.5,0.5C29.6,9,29.8,9.3,30,9.7
		C30.1,9.9,30,10.1,29.8,10.1z"/>
</g>
</svg>
