<svg width="14" height="37" viewBox="0 0 14 37" fill="none" xmlns="http://www.w3.org/2000/svg">
<path d="M8.69859 32.274C9.82931 30.2023 10.8006 28.1558 11.3774 25.9948C13.7239 17.2211 11.4456 9.61324 4.36907 3.2256C3.40823 2.37228 2.58496 1.41054 1.39999 0.813011C1.11674 0.676881 0.500586 0.62014 0.245347 0.892218C-0.0400334 1.19465 0.380203 1.44866 0.603169 1.6455C2.01767 3.00511 3.40106 4.38099 4.6007 5.89677C7.35549 9.41305 9.00896 13.316 9.33466 17.593C9.69513 22.3767 8.3617 26.8947 5.62013 31.0852C5.58999 31.1155 5.54285 31.1329 5.43542 31.211C5.48972 30.3587 5.48278 29.5531 5.39565 28.7529C5.35257 28.3599 5.27645 27.955 5.09097 27.6C4.97929 27.3814 4.85062 27.1498 4.52892 27.1577C4.22325 27.1646 4.0453 27.3889 3.96357 27.6067C3.74948 28.2436 3.51839 28.8676 3.36941 29.5142C2.976 31.2949 2.61563 33.0874 2.4336 34.896C2.24867 36.6623 2.69074 36.9997 4.55024 36.3913C6.89914 35.6361 9.0305 34.5282 10.9302 33.0967C11.3429 32.7714 12.0905 32.3948 11.7471 31.8527C11.3688 31.2705 10.6421 31.7164 10.0706 31.8405C9.59433 31.9438 9.15593 32.1295 8.69859 32.274Z" fill="#FFCE0D"/>
</svg>
