<svg width="56" height="81" viewBox="0 0 56 81" fill="none" xmlns="http://www.w3.org/2000/svg">
<path d="M43.5902 66.5835C43.7574 61.5609 43.6626 56.7087 42.7622 51.9233C39.1147 32.4903 28.2605 18.8863 9.9387 11.3513C7.46348 10.3563 4.93686 9.66803 2.29028 9.35688C1.66364 9.29599 0.714131 9.01705 0.501832 9.75704C0.262877 10.5808 1.23904 10.776 1.81237 11.0045C5.54856 12.6774 9.2438 14.4064 12.7362 16.5555C20.7878 21.5621 27.2205 28.1764 31.6192 36.5432C36.5323 45.9042 38.1875 56.0055 37.0391 66.507C37.0124 66.5909 36.9439 66.6613 36.822 66.8994C36.1581 65.1424 35.4265 63.5254 34.5569 61.9799C34.1292 61.2209 33.632 60.4629 32.9843 59.8877C32.59 59.5316 32.1538 59.1622 31.5872 59.4203C31.0482 59.6641 30.9311 60.2498 30.9798 60.7498C31.1666 62.1935 31.3115 63.6239 31.623 65.0381C32.511 68.9198 33.4685 72.8004 34.7583 76.5792C36.0053 80.2751 37.0948 80.6216 39.8677 77.9967C43.3825 74.708 46.1943 70.8726 48.3043 66.5602C48.7499 65.5945 49.7469 64.2735 48.6506 63.4403C47.4563 62.5529 46.5584 63.9977 45.65 64.6777C44.8929 65.2444 44.2768 65.9483 43.5902 66.5835Z" fill="#FFCE0D"/>
</svg>
