<?xml version="1.0" encoding="utf-8"?>
<!-- Generator: Adobe Illustrator 19.2.0, SVG Export Plug-In . SVG Version: 6.00 Build 0)  -->
<svg version="1.1" id="Layer_1" xmlns="http://www.w3.org/2000/svg" xmlns:xlink="http://www.w3.org/1999/xlink" x="0px" y="0px"
	 width="10px" height="24px" viewBox="0 0 10 24" style="enable-background:new 0 0 10 24;" xml:space="preserve">
<style type="text/css">
	.st0{fill:#FF4343;}
</style>
<path class="st0" d="M9.4,14.6l-2.2,0.7c-0.3,0.1-0.5-0.1-0.5-0.4V0.4C6.7,0.2,6.5,0,6.3,0L3.7,0C3.5,0,3.3,0.2,3.3,0.4v14.5
	c0,0.3-0.3,0.5-0.5,0.4l-2.2-0.7c-0.4-0.1-0.7,0.2-0.5,0.6l4.6,8.6c0.2,0.3,0.6,0.3,0.7,0l4.6-8.6C10.1,14.8,9.8,14.5,9.4,14.6z"/>
</svg>
