<svg width="52" height="61" viewBox="0 0 52 61" fill="none" xmlns="http://www.w3.org/2000/svg">
<path d="M41.5567 49.0888C41.0395 45.1239 40.3388 41.3266 39.0141 37.6857C33.6418 22.8992 23.3638 13.6195 8.00628 10.0687C5.93449 9.60709 3.86193 9.39286 1.74388 9.4902C1.24402 9.52329 0.462535 9.42686 0.391379 10.0352C0.310111 10.7129 1.10171 10.7401 1.58134 10.8455C4.73066 11.6766 7.85508 12.5571 10.8745 13.7936C17.8422 16.685 23.7466 21.0477 28.2801 27.0488C33.3459 33.7641 35.9494 41.4812 36.4034 49.8744C36.3932 49.9437 36.3485 50.0079 36.2836 50.2105C35.5355 48.9168 34.7524 47.7417 33.8701 46.6405C33.4363 46.0998 32.9481 45.5689 32.3654 45.2009C32.0099 44.9722 31.6197 44.7384 31.2081 45.0142C30.8164 45.2753 30.8001 45.7502 30.9028 46.1365C31.2359 47.2459 31.5343 48.3502 31.9614 49.4203C33.1597 52.3533 34.4124 55.2765 35.9128 58.0767C37.369 60.8175 38.2691 60.9489 40.1074 58.5301C42.4423 55.4943 44.1549 52.1201 45.2548 48.462C45.48 47.6463 46.0922 46.4804 45.124 45.9678C44.0717 45.4252 43.5533 46.6754 42.9278 47.3266C42.4066 47.8693 42.0137 48.5014 41.5567 49.0888Z" fill="#FFCE0D"/>
</svg>
