<svg width="117" height="33" viewBox="0 0 117 33" fill="none" xmlns="http://www.w3.org/2000/svg">
<g filter="url(#filter0_d)">
<rect width="114" height="30" fill="#FFCE0D"/>
</g>
<path d="M25.092 20V10.9H32.684V20H30.682V12.707H27.094V20H25.092Z" fill="black"/>
<path d="M43.7454 18.791C42.8267 19.701 41.6741 20.156 40.2874 20.156C38.9007 20.156 37.7481 19.701 36.8294 18.791C35.9194 17.881 35.4644 16.7673 35.4644 15.45C35.4644 14.1413 35.9237 13.032 36.8424 12.122C37.7697 11.2033 38.9267 10.744 40.3134 10.744C41.7001 10.744 42.8484 11.199 43.7584 12.109C44.6771 13.019 45.1364 14.1327 45.1364 15.45C45.1364 16.7587 44.6727 17.8723 43.7454 18.791ZM38.3374 17.478C38.8574 18.0327 39.5161 18.31 40.3134 18.31C41.1107 18.31 41.7651 18.037 42.2764 17.491C42.7877 16.9363 43.0434 16.256 43.0434 15.45C43.0434 14.6527 42.7834 13.9767 42.2634 13.422C41.7434 12.8673 41.0847 12.59 40.2874 12.59C39.4901 12.59 38.8357 12.8673 38.3244 13.422C37.8131 13.968 37.5574 14.644 37.5574 15.45C37.5574 16.2473 37.8174 16.9233 38.3374 17.478Z" fill="black"/>
<path d="M47.9123 20V10.9H52.1373C53.186 10.9 53.979 11.1687 54.5163 11.706C54.9323 12.122 55.1403 12.6463 55.1403 13.279C55.1403 14.137 54.7417 14.7913 53.9443 15.242C54.5077 15.4587 54.9323 15.7447 55.2183 16.1C55.5043 16.4467 55.6473 16.9147 55.6473 17.504C55.6473 18.3187 55.344 18.9383 54.7373 19.363C54.1307 19.7877 53.2987 20 52.2413 20H47.9123ZM49.8623 14.579H51.7083C52.6703 14.579 53.1513 14.2497 53.1513 13.591C53.1513 13.2877 53.0387 13.058 52.8133 12.902C52.588 12.7373 52.263 12.655 51.8383 12.655H49.8623V14.579ZM49.8623 18.245H52.2413C53.186 18.245 53.6583 17.907 53.6583 17.231C53.6583 16.5723 53.1643 16.243 52.1763 16.243H49.8623V18.245Z" fill="black"/>
<path d="M58.2942 20V10.9H60.2962V13.994H62.2332C63.2732 13.994 64.0878 14.2627 64.6772 14.8C65.2665 15.3287 65.5612 16.0437 65.5612 16.945C65.5612 17.881 65.2492 18.6263 64.6252 19.181C64.0098 19.727 63.1692 20 62.1032 20H58.2942ZM62.0642 15.71H60.2962V18.193H62.0772C63.0738 18.193 63.5722 17.7683 63.5722 16.919C63.5722 16.113 63.0695 15.71 62.0642 15.71ZM66.5752 20V10.9H68.5772V20H66.5752Z" fill="black"/>
<path d="M84.254 10.9V20H71.761V10.9H73.763V18.193H77V10.9H79.002V18.193H82.252V10.9H84.254Z" fill="black"/>
<path d="M87.4367 20V10.9H94.3007V12.681H89.4257V14.527H93.7157V16.308H89.4257V18.219H94.3657V20H87.4367Z" fill="black"/>
<path d="M97.1457 20V10.9H99.1477V14.501H102.84V10.9H104.842V20H102.84V16.347H99.1477V20H97.1457Z" fill="black"/>
<path fill-rule="evenodd" clip-rule="evenodd" d="M18.5174 9.64427C18.7793 9.80265 18.9543 10.0722 18.9923 10.376L19.4923 14.376C19.5608 14.924 19.1721 15.4238 18.624 15.4923C18.076 15.5608 17.5762 15.1721 17.5077 14.624L17.3798 13.6009L14.8682 17.9961C14.7348 18.2296 14.513 18.3995 14.2528 18.4675C13.9927 18.5355 13.7161 18.4958 13.4855 18.3575L11.7589 17.3215L9.3 20.6C8.96863 21.0418 8.34183 21.1314 7.9 20.8C7.45817 20.4686 7.36863 19.8418 7.7 19.4L10.7 15.4C11.0075 14.99 11.5751 14.8789 12.0145 15.1425L13.6386 16.117L15.7574 12.409L14.3511 12.9363C13.834 13.1303 13.2576 12.8682 13.0637 12.3511C12.8697 11.834 13.1318 11.2576 13.6489 11.0637L17.6489 9.56367C17.9355 9.4562 18.2555 9.4859 18.5174 9.64427Z" fill="black"/>
<defs>
<filter id="filter0_d" x="0" y="0" width="117" height="33" filterUnits="userSpaceOnUse" color-interpolation-filters="sRGB">
<feFlood flood-opacity="0" result="BackgroundImageFix"/>
<feColorMatrix in="SourceAlpha" type="matrix" values="0 0 0 0 0 0 0 0 0 0 0 0 0 0 0 0 0 0 127 0"/>
<feOffset dx="3" dy="3"/>
<feColorMatrix type="matrix" values="0 0 0 0 0 0 0 0 0 0 0 0 0 0 0 0 0 0 0.1 0"/>
<feBlend mode="normal" in2="BackgroundImageFix" result="effect1_dropShadow"/>
<feBlend mode="normal" in="SourceGraphic" in2="effect1_dropShadow" result="shape"/>
</filter>
</defs>
</svg>
