<?xml version="1.0" encoding="utf-8"?>
<!-- Generator: Adobe Illustrator 19.2.0, SVG Export Plug-In . SVG Version: 6.00 Build 0)  -->
<svg version="1.1" id="Layer_1" xmlns="http://www.w3.org/2000/svg" xmlns:xlink="http://www.w3.org/1999/xlink" x="0px" y="0px"
	 width="14px" height="16px" viewBox="0 0 14 16" style="enable-background:new 0 0 14 16;" xml:space="preserve">
<style type="text/css">
	.st0{fill:#00B9FF;}
</style>
<path class="st0" d="M8,1C5,1,2.5,3.5,2.5,6.5c0,1.3,0.5,2.5,1.2,3.4l-3,3.5c-0.4,0.4-0.3,1,0.1,1.4C1,14.9,1.3,15,1.5,15
	c0.3,0,0.6-0.1,0.8-0.4l3-3.5C6,11.7,7,11.9,8,11.9c3,0,5.5-2.5,5.5-5.5C13.5,3.5,11,1,8,1z M8,9.9c-1.9,0-3.5-1.6-3.5-3.5
	S6.1,3,8,3s3.5,1.6,3.5,3.5S9.9,9.9,8,9.9z"/>
</svg>
