<svg width="20" height="18" viewBox="0 0 20 18" fill="none" xmlns="http://www.w3.org/2000/svg">
<mask id="path-1-inside-1" fill="white">
<path d="M3.22378 12.3428C2.44273 11.5618 2.44274 10.2954 3.22378 9.51438L5.98814 6.75002L11.3239 1.41423C12.105 0.633184 13.3713 0.633182 14.1524 1.41423L15.3096 2.57145L17.2381 4.50002L18.3954 5.65723C19.1764 6.43828 19.1764 7.70461 18.3954 8.48566L13.0596 13.8214L11.7094 15.1716C10.1473 16.7337 7.61467 16.7337 6.05257 15.1716L3.22378 12.3428Z"/>
</mask>
<path d="M5.28103 7.45712L7.85246 10.0286L9.26668 8.61434L6.69525 6.04291L5.28103 7.45712ZM7.85246 10.0286L9.78103 11.9571L11.1952 10.5429L9.26668 8.61434L7.85246 10.0286ZM9.78103 11.9571L12.3525 14.5286L13.7667 13.1143L11.1952 10.5429L9.78103 11.9571ZM7.46679 13.7574L4.638 10.9286L1.80957 13.757L4.63836 16.5858L7.46679 13.7574ZM4.638 10.9286L7.40236 8.16423L4.57393 5.3358L1.80957 8.10016L4.638 10.9286ZM7.40236 8.16423L12.7381 2.82845L9.90971 1.91313e-05L4.57393 5.3358L7.40236 8.16423ZM16.9811 7.07145L11.6454 12.4072L14.4738 15.2357L19.8096 9.89987L16.9811 7.07145ZM11.6454 12.4072L10.2952 13.7574L13.1236 16.5858L14.4738 15.2357L11.6454 12.4072ZM12.7381 2.82844L13.8954 3.98566L16.7238 1.15723L15.5666 1.75297e-05L12.7381 2.82844ZM13.8954 3.98566L15.8239 5.91423L18.6524 3.0858L16.7238 1.15723L13.8954 3.98566ZM15.8239 5.91423L16.9811 7.07145L19.8096 4.24302L18.6524 3.0858L15.8239 5.91423ZM4.63836 16.5858C6.9815 18.9289 10.7805 18.9289 13.1236 16.5858L10.2952 13.7574C9.51416 14.5384 8.24783 14.5384 7.46679 13.7574L4.63836 16.5858ZM19.8096 9.89987C21.3717 8.33778 21.3717 5.80512 19.8096 4.24302L16.9811 7.07145H16.9811L19.8096 9.89987ZM12.7381 2.82845L12.7381 2.82844L15.5666 1.75297e-05C14.0045 -1.56208 11.4718 -1.56208 9.90971 1.91313e-05L12.7381 2.82845ZM4.638 10.9286L4.638 10.9286L1.80957 8.10016C0.247475 9.66226 0.24747 12.1949 1.80957 13.757L4.638 10.9286Z" fill="black" mask="url(#path-1-inside-1)"/>
<line x1="4.90625" y1="16.6368" x2="18.3616" y2="16.6368" stroke="black" stroke-width="2" stroke-linecap="round" stroke-linejoin="round"/>
<line x1="1.47115" y1="5.85819" x2="3.09902" y2="6.75207" stroke="black" stroke-width="2" stroke-linecap="round"/>
<line x1="4.85332" y1="2.96203" x2="5.30622" y2="4.7631" stroke="black" stroke-width="2" stroke-linecap="round"/>
</svg>
