<svg width="19" height="20" viewBox="0 0 19 20" fill="none" xmlns="http://www.w3.org/2000/svg">
<path d="M15.0325 4.99741C14.5028 4.98901 13.9731 4.99741 13.3846 4.99741C13.3846 4.64477 13.3846 4.35091 13.3846 4.06544C13.3846 2.79763 12.5943 2.0084 11.3163 2C8.57538 2 5.82604 2 3.08512 2C1.77351 2 1 2.77244 1 4.09063C1 6.9453 1 9.79998 1 12.6463C1 14.0484 1.7651 14.8124 3.18601 14.8124C3.65685 14.8124 4.12768 14.8124 4.62374 14.8124C4.62374 15.5849 4.62374 16.2986 4.62374 17.0038C4.63214 18.1793 5.43088 18.9937 6.59115 18.9937C9.40774 19.0021 12.2243 19.0021 15.0325 18.9937C16.2012 18.9937 16.9999 18.1793 16.9999 17.0038C16.9999 13.6622 16.9999 10.3205 16.9999 6.97889C17.0083 5.82022 16.2012 5.0142 15.0325 4.99741ZM4.62374 7.02926C4.62374 8.96037 4.62374 10.8915 4.62374 12.8226C4.62374 12.9737 4.62374 13.1248 4.62374 13.3179C4.00156 13.3179 3.42143 13.3431 2.8413 13.3095C2.53862 13.2928 2.45454 13.0325 2.45454 12.7554C2.45454 12.1005 2.45454 11.4372 2.45454 10.7823C2.45454 8.58254 2.45454 6.39116 2.45454 4.19138C2.45454 3.57847 2.57225 3.46092 3.19442 3.46092C5.85968 3.46092 8.51652 3.46092 11.1818 3.46092C11.8292 3.46092 11.9385 3.57847 11.9469 4.21657C11.9469 4.45166 11.9469 4.68675 11.9469 4.99741C11.7451 4.99741 11.5938 4.99741 11.4424 4.99741C9.84494 4.99741 8.24747 4.99741 6.65 4.99741C5.42247 5.0058 4.62374 5.80343 4.62374 7.02926ZM14.8391 17.5412C12.1487 17.5412 9.45819 17.5412 6.76771 17.5412C6.20439 17.5412 6.06987 17.3984 6.06987 16.8527C6.06987 15.2323 6.06987 13.6034 6.06987 11.983C6.06987 10.3709 6.06987 8.76726 6.06987 7.1552C6.06987 6.58427 6.18758 6.46672 6.7593 6.46672C9.44978 6.46672 12.1403 6.46672 14.8307 6.46672C15.4361 6.46672 15.5538 6.57587 15.5538 7.172C15.5538 10.3877 15.5538 13.6034 15.5538 16.8275C15.5622 17.4068 15.4193 17.5412 14.8391 17.5412Z" fill="#8C8C8C"/>
</svg>
