<svg width="100" height="20" viewBox="0 0 100 20" fill="none" xmlns="http://www.w3.org/2000/svg">
<rect width="100" height="20" rx="2" fill="#1073D8"/>
<path d="M22.7109 13.096C21.8895 13.096 21.2042 12.8187 20.6549 12.264C20.1109 11.704 19.8389 11.016 19.8389 10.2C19.8389 9.38933 20.1135 8.704 20.6629 8.144C21.2122 7.584 21.9109 7.304 22.7589 7.304C23.2442 7.304 23.6522 7.384 23.9829 7.544C24.3135 7.69867 24.6282 7.92267 24.9269 8.216L24.1909 9.064C23.9509 8.84533 23.7242 8.688 23.5109 8.592C23.3029 8.49067 23.0495 8.44 22.7509 8.44C22.2815 8.44 21.8922 8.61067 21.5829 8.952C21.2789 9.288 21.1269 9.704 21.1269 10.2C21.1269 10.6907 21.2789 11.1067 21.5829 11.448C21.8922 11.7893 22.2815 11.96 22.7509 11.96C23.0495 11.96 23.3082 11.9067 23.5269 11.8C23.7455 11.6933 23.9775 11.528 24.2229 11.304L25.0069 12.144C24.7029 12.4693 24.3722 12.7093 24.0149 12.864C23.6629 13.0187 23.2282 13.096 22.7109 13.096Z" fill="white"/>
<path d="M26.1531 13V7.4H27.3851V9.848L29.6571 7.4H31.1451L28.8651 9.776L31.2491 13H29.7691L28.0331 10.616L27.3851 11.288V13H26.1531Z" fill="white"/>
<path d="M37.0049 12.256C36.4395 12.816 35.7302 13.096 34.8769 13.096C34.0235 13.096 33.3142 12.816 32.7489 12.256C32.1889 11.696 31.9089 11.0107 31.9089 10.2C31.9089 9.39467 32.1915 8.712 32.7569 8.152C33.3275 7.58667 34.0395 7.304 34.8929 7.304C35.7462 7.304 36.4529 7.584 37.0129 8.144C37.5782 8.704 37.8609 9.38933 37.8609 10.2C37.8609 11.0053 37.5755 11.6907 37.0049 12.256ZM33.6769 11.448C33.9969 11.7893 34.4022 11.96 34.8929 11.96C35.3835 11.96 35.7862 11.792 36.1009 11.456C36.4155 11.1147 36.5729 10.696 36.5729 10.2C36.5729 9.70933 36.4129 9.29333 36.0929 8.952C35.7729 8.61067 35.3675 8.44 34.8769 8.44C34.3862 8.44 33.9835 8.61067 33.6689 8.952C33.3542 9.288 33.1969 9.704 33.1969 10.2C33.1969 10.6907 33.3569 11.1067 33.6769 11.448Z" fill="white"/>
<path d="M39.1137 13V7.4H43.7857V13H42.5537V8.512H40.3457V13H39.1137Z" fill="white"/>
<path d="M50.1134 7.4V13H48.8974V9.328L46.4494 13H45.2894V7.4H46.5054V11.072L48.9694 7.4H50.1134Z" fill="white"/>
<path d="M51.6212 13V7.4H53.9092C54.5706 7.4 55.0932 7.57867 55.4772 7.936C55.8612 8.29333 56.0532 8.76533 56.0532 9.352C56.0532 9.976 55.8399 10.4613 55.4132 10.808C54.9866 11.1493 54.4452 11.32 53.7892 11.32H52.8532V13H51.6212ZM52.8532 10.224H53.8292C54.1332 10.224 54.3706 10.144 54.5412 9.984C54.7172 9.824 54.8052 9.616 54.8052 9.36C54.8052 9.088 54.7172 8.88 54.5412 8.736C54.3652 8.58667 54.1199 8.512 53.8052 8.512H52.8532V10.224Z" fill="white"/>
<path d="M61.973 12.256C61.4077 12.816 60.6983 13.096 59.845 13.096C58.9917 13.096 58.2823 12.816 57.717 12.256C57.157 11.696 56.877 11.0107 56.877 10.2C56.877 9.39467 57.1597 8.712 57.725 8.152C58.2957 7.58667 59.0077 7.304 59.861 7.304C60.7143 7.304 61.421 7.584 61.981 8.144C62.5463 8.704 62.829 9.38933 62.829 10.2C62.829 11.0053 62.5437 11.6907 61.973 12.256ZM58.645 11.448C58.965 11.7893 59.3703 11.96 59.861 11.96C60.3517 11.96 60.7543 11.792 61.069 11.456C61.3837 11.1147 61.541 10.696 61.541 10.2C61.541 9.70933 61.381 9.29333 61.061 8.952C60.741 8.61067 60.3357 8.44 59.845 8.44C59.3543 8.44 58.9517 8.61067 58.637 8.952C58.3223 9.288 58.165 9.704 58.165 10.2C58.165 10.6907 58.325 11.1067 58.645 11.448Z" fill="white"/>
<path d="M64.0819 13V7.4H66.6819C67.3272 7.4 67.8152 7.56533 68.1459 7.896C68.4019 8.152 68.5299 8.47467 68.5299 8.864C68.5299 9.392 68.2845 9.79467 67.7939 10.072C68.1405 10.2053 68.4019 10.3813 68.5779 10.6C68.7539 10.8133 68.8419 11.1013 68.8419 11.464C68.8419 11.9653 68.6552 12.3467 68.2819 12.608C67.9085 12.8693 67.3965 13 66.7459 13H64.0819ZM65.2819 9.664H66.4179C67.0099 9.664 67.3059 9.46133 67.3059 9.056C67.3059 8.86933 67.2365 8.728 67.0979 8.632C66.9592 8.53067 66.7592 8.48 66.4979 8.48H65.2819V9.664ZM65.2819 11.92H66.7459C67.3272 11.92 67.6179 11.712 67.6179 11.296C67.6179 10.8907 67.3139 10.688 66.7059 10.688H65.2819V11.92Z" fill="white"/>
<path d="M69.5353 13L71.9353 7.36H73.0713L75.4713 13H74.1833L73.6713 11.744H71.3033L70.7913 13H69.5353ZM71.7433 10.656H73.2313L72.4873 8.84L71.7433 10.656Z" fill="white"/>
<path d="M77.7996 13V8.536H76.0956V7.4H80.7356V8.536H79.0316V13H77.7996Z" fill="white"/>
<path d="M81.8431 13V7.4H83.0751V9.304H84.2671C84.9071 9.304 85.4085 9.46933 85.7711 9.8C86.1338 10.1253 86.3151 10.5653 86.3151 11.12C86.3151 11.696 86.1231 12.1547 85.7391 12.496C85.3604 12.832 84.8431 13 84.1871 13H81.8431ZM84.1631 10.36H83.0751V11.888H84.1711C84.7845 11.888 85.0911 11.6267 85.0911 11.104C85.0911 10.608 84.7818 10.36 84.1631 10.36Z" fill="white"/>
<path d="M16 6.15C16 8.365 16 10.585 16 12.8C15.7523 13.495 15.4426 13.75 14.8328 13.75C14.5898 13.75 14.3421 13.75 14.0991 13.75C13.7847 13.75 13.4702 13.75 13.1463 13.75C13.1463 14.065 13.1463 14.345 13.1463 14.625C13.1463 15.425 12.9414 15.735 12.2411 16C10.464 16 8.68223 16 6.90519 16C6.42401 15.87 6.12387 15.555 6 15.05C6 12.415 6 9.785 6 7.15C6.10005 6.965 6.18104 6.765 6.30491 6.605C6.51453 6.34 6.80991 6.25 7.13387 6.25C7.70081 6.25 8.26775 6.25 8.85374 6.25C8.85374 5.94 8.85374 5.655 8.85374 5.375C8.85374 4.57 9.05384 4.265 9.75893 4C11.1548 4 12.5555 4 13.9514 4C14.2754 4.095 14.5183 4.305 14.747 4.56C14.9805 4.82 15.2234 5.075 15.4712 5.32C15.7094 5.55 15.9095 5.81 16 6.15ZM12.4269 5.115C11.6646 5.115 10.9452 5.115 10.2211 5.115C9.93997 5.115 9.91615 5.145 9.91615 5.45C9.91615 7.735 9.91615 10.015 9.91615 12.3C9.91615 12.615 9.93521 12.635 10.2449 12.635C11.698 12.635 13.151 12.635 14.6041 12.635C14.9281 12.635 14.9424 12.62 14.9424 12.285C14.9424 10.86 14.9424 9.435 14.9424 8.01C14.9424 7.93 14.9376 7.85 14.9328 7.75C14.3087 7.75 13.7084 7.75 13.1081 7.75C12.627 7.75 12.4364 7.545 12.4316 7.04C12.4269 6.405 12.4269 5.775 12.4269 5.115ZM12.0791 13.775C12.0314 13.76 12.0172 13.75 12.0029 13.75C11.3454 13.75 10.6879 13.75 10.0257 13.745C9.29681 13.745 8.85374 13.28 8.85374 12.52C8.85374 10.895 8.85374 9.27 8.85374 7.65C8.85374 7.56 8.85374 7.475 8.85374 7.365C8.3011 7.365 7.7818 7.365 7.25774 7.365C7.08623 7.365 7.05288 7.48 7.05288 7.635C7.05288 9.96 7.05765 12.28 7.05288 14.605C7.05288 14.825 7.13864 14.895 7.33873 14.89C7.76751 14.88 8.19628 14.885 8.62506 14.885C9.68271 14.885 10.7356 14.885 11.7932 14.885C11.9695 14.885 12.0886 14.85 12.0838 14.63C12.0743 14.35 12.0791 14.07 12.0791 13.775ZM13.4988 6.62C13.9895 6.62 14.4516 6.62 14.9852 6.62C14.9185 6.465 14.8995 6.32 14.8185 6.23C14.5183 5.89 14.2039 5.56 13.8752 5.245C13.7894 5.16 13.6465 5.14 13.4988 5.075C13.4988 5.635 13.4988 6.115 13.4988 6.62Z" fill="white"/>
</svg>
