<svg width="15" height="17" viewBox="0 0 15 17" fill="none" xmlns="http://www.w3.org/2000/svg">
<path d="M14.8891 1.91391C14.8891 0.900662 14.0027 0 13.0054 0C10.5677 0 8.13008 0 5.6924 0C4.91678 0 4.03035 0.562914 3.91955 1.35099C3.80875 2.13907 3.80875 2.92715 3.80875 3.71523C4.47357 3.71523 5.02758 3.71523 5.6924 3.71523C5.6924 3.2649 5.6924 2.81457 5.80321 2.36424C5.80321 2.02649 6.02481 1.91391 6.24642 1.91391C8.35168 1.91391 10.5677 1.91391 12.673 1.91391C13.0054 1.91391 13.227 2.13907 13.227 2.47682C13.227 2.92715 13.227 3.2649 13.227 3.71523C13.227 7.31788 13.227 10.9205 13.227 14.5232C13.227 15.0861 13.1162 15.1987 12.5622 15.1987C10.4569 15.1987 8.35168 15.1987 6.24642 15.1987C5.91401 15.1987 5.6924 14.9735 5.6924 14.6358C5.6924 14.1854 5.6924 13.7351 5.6924 13.2848C5.02758 13.2848 4.47357 13.2848 3.80875 13.2848C3.80875 13.9603 3.80875 14.6358 3.80875 15.3113C3.91955 16.0993 4.69517 16.8874 5.5816 17C8.13008 17 10.6786 17 13.227 17C14.1135 17 14.9999 16.0993 14.9999 15.1987C14.9999 10.6954 14.8891 6.30464 14.8891 1.91391Z" fill="#FFCE0D"/>
<path d="M5.0277 9.56954C4.80609 9.7947 4.47368 10.1325 4.14127 10.4702C3.80886 10.9205 3.80886 11.3709 4.14127 11.7086C4.47368 12.0464 5.0277 12.0464 5.36011 11.7086C5.91413 11.3709 6.24654 10.9205 6.68975 10.5828C7.13296 10.1325 7.57618 9.68212 8.01939 9.11921C8.3518 8.78146 8.3518 8.33113 8.13019 7.99338C7.24377 6.98013 6.24654 6.07947 5.36011 5.17881C5.1385 5.06623 4.80609 4.95364 4.58449 5.06623C3.91967 5.17881 3.69806 5.96689 4.14127 6.5298C4.47368 6.86755 4.80609 7.09272 5.1385 7.43046C5.1385 7.43046 5.1385 7.54305 5.0277 7.54305C4.9169 7.54305 4.80609 7.54305 4.69529 7.54305C3.47645 7.54305 2.14681 7.54305 0.927978 7.54305C0.484765 7.54305 0.152355 7.8808 0.0415512 8.21854C-0.0692521 8.55629 0.0415512 9.00662 0.373961 9.23179C0.595568 9.34437 0.927978 9.45695 1.14958 9.45695C2.47922 9.45695 3.80886 9.45695 5.0277 9.56954C5.0277 9.45695 5.1385 9.56954 5.0277 9.56954Z" fill="#FFCE0D"/>
</svg>
