<svg width="219" height="23" viewBox="0 0 219 23" fill="none" xmlns="http://www.w3.org/2000/svg">
<path d="M184 3H219L210.875 13L219 23H184V3Z" fill="#CF3737"/>
<path d="M35 3H0L8.125 13L0 23H35V3Z" fill="#CF3737"/>
<rect x="16" width="187" height="20" fill="#FF4343"/>
<path d="M31.089 14V6.30003H36.611V7.09203H31.958V9.45703H34.235C35.1003 9.45703 35.8043 9.6477 36.347 10.029C36.8897 10.403 37.161 10.9604 37.161 11.701C37.161 12.4417 36.9043 13.01 36.391 13.406C35.885 13.802 35.1957 14 34.323 14H31.089ZM31.958 13.208H34.257C35.6137 13.208 36.292 12.691 36.292 11.657C36.292 11.1804 36.1087 10.8247 35.742 10.59C35.3753 10.348 34.8657 10.227 34.213 10.227H31.958V13.208Z" fill="white"/>
<path d="M41.2201 14.132C40.4207 14.132 39.7461 13.857 39.1961 13.307C38.6534 12.7497 38.3821 12.0347 38.3821 11.162C38.3821 10.3334 38.6424 9.63303 39.1631 9.06103C39.6837 8.4817 40.3327 8.19203 41.1101 8.19203C41.9241 8.19203 42.5694 8.47803 43.0461 9.05003C43.5227 9.62203 43.7611 10.3407 43.7611 11.206C43.7611 11.316 43.7574 11.415 43.7501 11.503H39.2401C39.2987 12.0824 39.5151 12.5444 39.8891 12.889C40.2704 13.2264 40.7214 13.395 41.2421 13.395C41.9241 13.395 42.5217 13.1274 43.0351 12.592L43.5631 13.065C42.9251 13.7764 42.1441 14.132 41.2201 14.132ZM39.2401 10.821H42.9031C42.8517 10.271 42.6684 9.81636 42.3531 9.45703C42.0451 9.09036 41.6234 8.90703 41.0881 8.90703C40.6041 8.90703 40.1897 9.0867 39.8451 9.44603C39.5004 9.80536 39.2987 10.2637 39.2401 10.821Z" fill="white"/>
<path d="M47.8068 14.132C46.9855 14.132 46.2925 13.8424 45.7278 13.263C45.1705 12.6764 44.8918 11.976 44.8918 11.162C44.8918 10.348 45.1705 9.65136 45.7278 9.07203C46.2925 8.48536 46.9855 8.19203 47.8068 8.19203C48.6868 8.19203 49.4458 8.52936 50.0838 9.20403L49.5448 9.77603C49.0168 9.2187 48.4338 8.94003 47.7958 8.94003C47.2238 8.94003 46.7398 9.15636 46.3438 9.58903C45.9552 10.0144 45.7608 10.5387 45.7608 11.162C45.7608 11.778 45.9588 12.3024 46.3548 12.735C46.7582 13.1604 47.2568 13.373 47.8508 13.373C48.4595 13.373 49.0315 13.087 49.5668 12.515L50.1278 13.032C49.4678 13.7654 48.6942 14.132 47.8068 14.132Z" fill="white"/>
<path d="M51.528 14V8.31303H56.456V14H55.609V9.06103H52.375V14H51.528Z" fill="white"/>
<path d="M58.0743 14.088C57.8543 14.088 57.627 14.0587 57.3923 14L57.4913 13.274C57.66 13.3254 57.7956 13.351 57.8983 13.351C58.0596 13.351 58.1916 13.3327 58.2943 13.296C58.397 13.252 58.507 13.1457 58.6243 12.977C58.749 12.801 58.8443 12.5554 58.9103 12.24C58.9763 11.9247 59.0313 11.4774 59.0753 10.898C59.1266 10.3187 59.1523 9.6147 59.1523 8.78603V8.31303H63.1783V14H62.3313V9.06103H59.9553V9.19303C59.9553 10.0584 59.9223 10.7954 59.8563 11.404C59.7903 12.0127 59.706 12.4894 59.6033 12.834C59.508 13.1787 59.3723 13.4464 59.1963 13.637C59.0203 13.8277 58.848 13.9487 58.6793 14C58.518 14.0587 58.3163 14.088 58.0743 14.088Z" fill="white"/>
<path d="M66.7679 14.121C66.1886 14.121 65.6899 13.9634 65.2719 13.648C64.8539 13.3327 64.6449 12.8927 64.6449 12.328C64.6449 11.734 64.8649 11.2757 65.3049 10.953C65.7449 10.6304 66.3353 10.469 67.0759 10.469C67.6626 10.469 68.2419 10.5497 68.8139 10.711V10.535C68.8139 10.0364 68.6673 9.65503 68.3739 9.39103C68.0806 9.12703 67.6663 8.99503 67.1309 8.99503C66.5736 8.99503 65.9979 9.1307 65.4039 9.40203L65.1509 8.70903C65.8549 8.38636 66.5443 8.22503 67.2189 8.22503C68.0256 8.22503 68.6379 8.43403 69.0559 8.85203C69.4519 9.24803 69.6499 9.80536 69.6499 10.524V14H68.8139V13.153C68.3079 13.7984 67.6259 14.121 66.7679 14.121ZM66.9329 13.439C67.4609 13.439 67.9083 13.296 68.2749 13.01C68.6416 12.724 68.8249 12.3574 68.8249 11.91V11.382C68.2676 11.2207 67.7139 11.14 67.1639 11.14C66.6433 11.14 66.2363 11.2464 65.9429 11.459C65.6496 11.6644 65.5029 11.9467 65.5029 12.306C65.5029 12.6507 65.6386 12.9257 65.9099 13.131C66.1886 13.3364 66.5296 13.439 66.9329 13.439Z" fill="white"/>
<path d="M72.819 14V9.06103H70.784V8.31303H75.712V9.06103H73.677V14H72.819Z" fill="white"/>
<path d="M76.944 14V8.31303H77.791V10.766H81.069V8.31303H81.916V14H81.069V11.514H77.791V14H76.944Z" fill="white"/>
<path d="M88.5273 13.263C87.9553 13.8424 87.2476 14.132 86.4043 14.132C85.561 14.132 84.857 13.8424 84.2923 13.263C83.735 12.6837 83.4563 11.9834 83.4563 11.162C83.4563 10.348 83.7386 9.65136 84.3033 9.07203C84.8753 8.48536 85.583 8.19203 86.4263 8.19203C87.2696 8.19203 87.9736 8.4817 88.5383 9.06103C89.103 9.64036 89.3853 10.3407 89.3853 11.162C89.3853 11.976 89.0993 12.6764 88.5273 13.263ZM86.4263 13.373C87.035 13.373 87.5336 13.1604 87.9223 12.735C88.3183 12.3097 88.5163 11.7854 88.5163 11.162C88.5163 10.546 88.311 10.0217 87.9003 9.58903C87.497 9.15636 86.9983 8.94003 86.4043 8.94003C85.7956 8.94003 85.297 9.15636 84.9083 9.58903C84.5196 10.0144 84.3253 10.5387 84.3253 11.162C84.3253 11.778 84.527 12.3024 84.9303 12.735C85.3336 13.1604 85.8323 13.373 86.4263 13.373Z" fill="white"/>
<path d="M93.3815 15.419V13.252H93.9975C94.5035 12.328 94.7565 11.0117 94.7565 9.30303V8.31303H98.8045V13.252H99.6625L99.5305 15.419H98.8265V14H94.2285L94.0745 15.419H93.3815ZM94.8995 13.252H97.9575V9.06103H95.5705V9.85303C95.5705 11.283 95.3468 12.416 94.8995 13.252Z" fill="white"/>
<path d="M105.543 13.263C104.971 13.8424 104.263 14.132 103.42 14.132C102.577 14.132 101.873 13.8424 101.308 13.263C100.751 12.6837 100.472 11.9834 100.472 11.162C100.472 10.348 100.754 9.65136 101.319 9.07203C101.891 8.48536 102.599 8.19203 103.442 8.19203C104.285 8.19203 104.989 8.4817 105.554 9.06103C106.119 9.64036 106.401 10.3407 106.401 11.162C106.401 11.976 106.115 12.6764 105.543 13.263ZM103.442 13.373C104.051 13.373 104.549 13.1604 104.938 12.735C105.334 12.3097 105.532 11.7854 105.532 11.162C105.532 10.546 105.327 10.0217 104.916 9.58903C104.513 9.15636 104.014 8.94003 103.42 8.94003C102.811 8.94003 102.313 9.15636 101.924 9.58903C101.535 10.0144 101.341 10.5387 101.341 11.162C101.341 11.778 101.543 12.3024 101.946 12.735C102.349 13.1604 102.848 13.373 103.442 13.373Z" fill="white"/>
<path d="M112.256 14V7.14703L110.804 7.59803L110.595 6.89403L112.476 6.24503H113.114V14H112.256Z" fill="white"/>
<path d="M117.562 14.132C116.543 14.132 115.626 13.725 114.812 12.911L115.384 12.284C116.11 12.988 116.84 13.34 117.573 13.34C118.123 13.34 118.571 13.1787 118.915 12.856C119.26 12.5334 119.432 12.119 119.432 11.613C119.432 11.1364 119.253 10.7477 118.893 10.447C118.541 10.1464 118.083 9.99603 117.518 9.99603C116.99 9.99603 116.451 10.1427 115.901 10.436L115.318 10.051L115.538 6.30003H119.971V7.10303H116.297L116.132 9.56703C116.653 9.3397 117.159 9.22603 117.65 9.22603C118.42 9.22603 119.055 9.44236 119.553 9.87503C120.059 10.3004 120.312 10.876 120.312 11.602C120.312 12.35 120.056 12.9587 119.542 13.428C119.029 13.8974 118.369 14.132 117.562 14.132Z" fill="white"/>
<path d="M121.812 14V12.845H122.824V14H121.812Z" fill="white"/>
<path d="M129.942 12.977C129.341 13.747 128.556 14.132 127.588 14.132C126.62 14.132 125.835 13.7507 125.234 12.988C124.64 12.218 124.343 11.272 124.343 10.15C124.343 9.0427 124.644 8.10403 125.245 7.33403C125.854 6.5567 126.642 6.16803 127.61 6.16803C128.578 6.16803 129.359 6.55303 129.953 7.32303C130.547 8.0857 130.844 9.02803 130.844 10.15C130.844 11.2574 130.543 12.1997 129.942 12.977ZM125.905 12.405C126.345 13.0284 126.913 13.34 127.61 13.34C128.307 13.34 128.868 13.032 129.293 12.416C129.726 11.7927 129.942 11.0374 129.942 10.15C129.942 9.27736 129.722 8.52936 129.282 7.90603C128.849 7.27536 128.285 6.96003 127.588 6.96003C126.891 6.96003 126.327 7.2717 125.894 7.89503C125.461 8.51103 125.245 9.2627 125.245 10.15C125.245 11.0227 125.465 11.7744 125.905 12.405Z" fill="white"/>
<path d="M137.805 12.977C137.204 13.747 136.419 14.132 135.451 14.132C134.483 14.132 133.699 13.7507 133.097 12.988C132.503 12.218 132.206 11.272 132.206 10.15C132.206 9.0427 132.507 8.10403 133.108 7.33403C133.717 6.5567 134.505 6.16803 135.473 6.16803C136.441 6.16803 137.222 6.55303 137.816 7.32303C138.41 8.0857 138.707 9.02803 138.707 10.15C138.707 11.2574 138.407 12.1997 137.805 12.977ZM133.768 12.405C134.208 13.0284 134.777 13.34 135.473 13.34C136.17 13.34 136.731 13.032 137.156 12.416C137.589 11.7927 137.805 11.0374 137.805 10.15C137.805 9.27736 137.585 8.52936 137.145 7.90603C136.713 7.27536 136.148 6.96003 135.451 6.96003C134.755 6.96003 134.19 7.2717 133.757 7.89503C133.325 8.51103 133.108 9.2627 133.108 10.15C133.108 11.0227 133.328 11.7744 133.768 12.405Z" fill="white"/>
<path d="M145.669 12.977C145.067 13.747 144.283 14.132 143.315 14.132C142.347 14.132 141.562 13.7507 140.961 12.988C140.367 12.218 140.07 11.272 140.07 10.15C140.07 9.0427 140.37 8.10403 140.972 7.33403C141.58 6.5567 142.369 6.16803 143.337 6.16803C144.305 6.16803 145.086 6.55303 145.68 7.32303C146.274 8.0857 146.571 9.02803 146.571 10.15C146.571 11.2574 146.27 12.1997 145.669 12.977ZM141.632 12.405C142.072 13.0284 142.64 13.34 143.337 13.34C144.033 13.34 144.594 13.032 145.02 12.416C145.452 11.7927 145.669 11.0374 145.669 10.15C145.669 9.27736 145.449 8.52936 145.009 7.90603C144.576 7.27536 144.011 6.96003 143.315 6.96003C142.618 6.96003 142.053 7.2717 141.621 7.89503C141.188 8.51103 140.972 9.2627 140.972 10.15C140.972 11.0227 141.192 11.7744 141.632 12.405Z" fill="white"/>
<path d="M153.299 14.132C152.426 14.132 151.641 13.8497 150.945 13.285L151.374 12.658C151.953 13.1494 152.587 13.395 153.277 13.395C153.665 13.395 153.995 13.307 154.267 13.131C154.545 12.9477 154.685 12.6984 154.685 12.383C154.685 12.0897 154.56 11.8624 154.311 11.701C154.061 11.5324 153.709 11.448 153.255 11.448H152.496V10.755H153.266C153.64 10.755 153.944 10.667 154.179 10.491C154.413 10.3077 154.531 10.0694 154.531 9.77603C154.531 9.51936 154.413 9.31403 154.179 9.16003C153.951 9.00603 153.658 8.92903 153.299 8.92903C152.624 8.92903 152.048 9.1197 151.572 9.50103L151.154 8.90703C151.77 8.43036 152.503 8.19203 153.354 8.19203C153.984 8.19203 154.483 8.33503 154.85 8.62103C155.224 8.8997 155.411 9.2627 155.411 9.71003C155.411 10.3334 155.106 10.7697 154.498 11.019C155.202 11.2684 155.554 11.734 155.554 12.416C155.554 12.8927 155.348 13.2997 154.938 13.637C154.527 13.967 153.981 14.132 153.299 14.132Z" fill="white"/>
<path d="M157.124 14V8.31303H157.971V10.766H161.249V8.31303H162.096V14H161.249V11.514H157.971V14H157.124Z" fill="white"/>
<path d="M165.682 14.121C165.103 14.121 164.604 13.9634 164.186 13.648C163.768 13.3327 163.559 12.8927 163.559 12.328C163.559 11.734 163.779 11.2757 164.219 10.953C164.659 10.6304 165.249 10.469 165.99 10.469C166.577 10.469 167.156 10.5497 167.728 10.711V10.535C167.728 10.0364 167.581 9.65503 167.288 9.39103C166.995 9.12703 166.58 8.99503 166.045 8.99503C165.488 8.99503 164.912 9.1307 164.318 9.40203L164.065 8.70903C164.769 8.38636 165.458 8.22503 166.133 8.22503C166.94 8.22503 167.552 8.43403 167.97 8.85203C168.366 9.24803 168.564 9.80536 168.564 10.524V14H167.728V13.153C167.222 13.7984 166.54 14.121 165.682 14.121ZM165.847 13.439C166.375 13.439 166.822 13.296 167.189 13.01C167.556 12.724 167.739 12.3574 167.739 11.91V11.382C167.182 11.2207 166.628 11.14 166.078 11.14C165.557 11.14 165.15 11.2464 164.857 11.459C164.564 11.6644 164.417 11.9467 164.417 12.306C164.417 12.6507 164.553 12.9257 164.824 13.131C165.103 13.3364 165.444 13.439 165.847 13.439Z" fill="white"/>
<path d="M170.358 14V8.31303H171.205V11.591L174.318 8.31303H175.363L172.987 10.777L175.429 14H174.428L172.404 11.393L171.205 12.625V14H170.358Z" fill="white"/>
<path d="M181.318 13.263C180.746 13.8424 180.039 14.132 179.195 14.132C178.352 14.132 177.648 13.8424 177.083 13.263C176.526 12.6837 176.247 11.9834 176.247 11.162C176.247 10.348 176.53 9.65136 177.094 9.07203C177.666 8.48536 178.374 8.19203 179.217 8.19203C180.061 8.19203 180.765 8.4817 181.329 9.06103C181.894 9.64036 182.176 10.3407 182.176 11.162C182.176 11.976 181.89 12.6764 181.318 13.263ZM179.217 13.373C179.826 13.373 180.325 13.1604 180.713 12.735C181.109 12.3097 181.307 11.7854 181.307 11.162C181.307 10.546 181.102 10.0217 180.691 9.58903C180.288 9.15636 179.789 8.94003 179.195 8.94003C178.587 8.94003 178.088 9.15636 177.699 9.58903C177.311 10.0144 177.116 10.5387 177.116 11.162C177.116 11.778 177.318 12.3024 177.721 12.735C178.125 13.1604 178.623 13.373 179.217 13.373Z" fill="white"/>
<path d="M183.711 14V8.31303H186.461C187.025 8.31303 187.476 8.44136 187.814 8.69803C188.151 8.9547 188.32 9.29936 188.32 9.73203C188.32 10.3407 188.004 10.777 187.374 11.041C188.21 11.2684 188.628 11.7377 188.628 12.449C188.628 12.9257 188.441 13.3034 188.067 13.582C187.693 13.8607 187.19 14 186.56 14H183.711ZM184.558 13.274H186.45C186.853 13.274 187.172 13.1897 187.407 13.021C187.641 12.8524 187.759 12.6177 187.759 12.317C187.759 12.0384 187.634 11.822 187.385 11.668C187.143 11.514 186.794 11.437 186.34 11.437H184.558V13.274ZM184.558 10.755H186.307C186.659 10.755 186.937 10.678 187.143 10.524C187.355 10.3627 187.462 10.1354 187.462 9.84203C187.462 9.60003 187.363 9.4057 187.165 9.25903C186.967 9.11236 186.688 9.03903 186.329 9.03903H184.558V10.755Z" fill="white"/>
</svg>
