<svg width="38" height="47" viewBox="0 0 38 47" fill="none" xmlns="http://www.w3.org/2000/svg">
<g filter="url(#filter0_d)">
<path d="M18.1651 0.0056839C13.7286 0.116871 7.04616 0.633762 0.668037 3.06671C0.399985 3.16908 0.29541 3.43052 0.29541 3.71747C0.29541 11.4491 1.65457 24.618 2.4792 28.9704C2.48392 28.9969 2.48991 29.0205 2.49684 29.046C5.64354 40.273 16.6882 45.2388 18.4155 45.9535C18.5664 46.0155 18.7208 46.0155 18.872 45.9535C20.599 45.2388 31.643 40.273 34.7907 29.046C34.7973 29.0205 34.8036 28.9969 34.808 28.9704C35.6326 24.618 36.9924 10.8572 36.9924 3.71747C36.9924 3.43052 36.8875 3.16908 36.6195 3.06671C30.241 0.633762 23.5961 0.135773 19.1731 0.00537109C19.0572 0.00159073 18.8868 1.52588e-05 18.7129 1.52588e-05C18.5097 1.52588e-05 18.3003 0.00221634 18.1651 0.0056839Z" fill="white"/>
<path d="M18.9202 43.7951C20.6854 43.0401 30.3951 38.4751 33.1894 28.3329C33.1957 28.3102 33.201 28.2884 33.2054 28.2651C33.9523 24.2844 35.1804 11.9395 35.2387 5.17517C35.2412 4.88382 35.0632 4.61954 34.7908 4.51623C29.2253 2.39512 22.513 1.89587 18.7722 1.89587L18.5155 1.90249C16.4152 1.90249 8.14587 2.39544 2.49725 4.51717C2.22447 4.61954 2.04682 4.88507 2.04934 5.17643C2.1095 11.6979 3.33637 24.2866 4.08257 28.2651C4.08698 28.2884 4.09202 28.3105 4.09832 28.3329C6.89412 38.4751 16.6023 43.0401 18.3674 43.7951C18.5448 43.8707 18.7426 43.8707 18.9202 43.7951Z" fill="#1E73B7"/>
<path d="M18.5202 2.247C16.4598 2.247 8.34803 2.7305 2.80777 4.81192C2.53971 4.9124 2.38663 5.10044 2.4175 5.38487C2.60586 7.13871 7.61412 15.4045 14.5583 21.1196C22.1 27.327 31.827 28.4468 32.4393 28.4641C32.6535 28.4704 32.938 28.2805 32.9745 28.0855C33.6911 24.2559 34.8669 12.0925 34.9239 5.45701C34.9258 5.17163 34.7513 4.9124 34.4845 4.81098C29.0255 2.73019 22.4408 2.24038 18.7718 2.24038L18.5202 2.247Z" fill="url(#paint0_linear)"/>
<path d="M24.8624 6.0821C25.5756 5.95736 26.2758 5.97311 26.9634 6.12966C27.6507 6.28589 28.2769 6.56402 28.8445 6.96122C29.4105 7.35936 29.8839 7.85326 30.2654 8.44385C30.6446 9.03382 30.8985 9.68584 31.0239 10.3999C31.1476 11.1096 31.1332 11.8054 30.9801 12.4867C30.8279 13.168 30.5501 13.7986 30.1469 14.3782C29.7441 14.9581 29.2508 15.4371 28.6684 15.8167C28.0844 16.1956 27.428 16.4495 26.7013 16.5771C25.7548 16.7428 24.8379 16.6602 23.9477 16.332C23.0585 16.0025 22.3067 15.4784 21.6937 14.759C21.0807 14.0392 20.6895 13.1995 20.521 12.24C20.3944 11.5165 20.4114 10.8176 20.5689 10.1426C20.7283 9.46661 21.0108 8.84294 21.4168 8.26966C21.8241 7.69639 22.3224 7.21951 22.9127 6.83963C23.5023 6.45913 24.1531 6.20651 24.8624 6.0821ZM25.0149 6.95177C24.2252 7.09005 23.5304 7.41259 22.9259 7.9194C22.3211 8.42684 21.8798 9.04925 21.5995 9.786C21.3211 10.5234 21.2515 11.2907 21.391 12.0876C21.5778 13.1548 22.0966 14.044 22.9476 14.7602C23.1042 14.8919 23.2715 15.0107 23.4475 15.1155C24.4312 15.6998 25.465 15.8973 26.5492 15.7074C27.3464 15.5679 28.045 15.2437 28.6438 14.7344C29.2417 14.226 29.6792 13.5995 29.952 12.8571C30.2263 12.1131 30.2931 11.3455 30.1542 10.5524C30.0493 9.9542 29.8383 9.41054 29.5214 8.92168C29.2036 8.4322 28.8083 8.02146 28.3326 7.68852C27.8586 7.35621 27.3392 7.12344 26.77 6.99146C26.203 6.85916 25.6171 6.84625 25.0149 6.95177ZM27.9055 10.1467L27.7071 10.1914C27.5496 10.2276 27.3877 10.152 27.3114 10.0084C27.0132 9.4433 26.5079 9.15509 25.7948 9.14406C25.4477 9.13808 25.1355 9.22501 24.859 9.40424C24.583 9.58347 24.3682 9.84144 24.2111 10.1778C24.0558 10.5146 23.9745 10.913 23.9673 11.3751C23.9569 12.0523 24.1106 12.5856 24.4281 12.9746C24.7475 13.363 25.1894 13.5614 25.7548 13.5702C26.1312 13.5762 26.4846 13.4669 26.8147 13.2411C27.0648 13.07 27.2544 12.8366 27.3811 12.5396C27.4529 12.3727 27.6343 12.2826 27.8072 12.3371L28.0693 12.4208C28.2312 12.4719 28.315 12.6505 28.2551 12.8095C28.1518 13.0829 28.0082 13.3264 27.8242 13.5394C27.5741 13.8279 27.2711 14.0449 26.913 14.1926C26.5555 14.3397 26.1696 14.4106 25.7561 14.404C25.1951 14.3955 24.7049 14.2651 24.2822 14.0137C23.8598 13.7627 23.5354 13.3957 23.3102 12.9141C23.085 12.4334 22.9779 11.8696 22.9883 11.2255C22.9943 10.8066 23.0632 10.4216 23.1968 10.0707C23.3291 9.71923 23.5212 9.41306 23.7757 9.15036C24.0293 8.88893 24.3358 8.68986 24.6961 8.55378C25.0558 8.41865 25.4552 8.35408 25.8928 8.36101C26.4988 8.37046 27.0106 8.52354 27.4248 8.81931C27.7389 9.04421 27.9764 9.33683 28.1367 9.69812C28.2192 9.88428 28.1043 10.1016 27.9055 10.1467Z" fill="white"/>
</g>
<defs>
<filter id="filter0_d" x="0.29541" y="1.52588e-05" width="37.697" height="47" filterUnits="userSpaceOnUse" color-interpolation-filters="sRGB">
<feFlood flood-opacity="0" result="BackgroundImageFix"/>
<feColorMatrix in="SourceAlpha" type="matrix" values="0 0 0 0 0 0 0 0 0 0 0 0 0 0 0 0 0 0 127 0"/>
<feOffset dx="1" dy="1"/>
<feColorMatrix type="matrix" values="0 0 0 0 0 0 0 0 0 0 0 0 0 0 0 0 0 0 0.14 0"/>
<feBlend mode="normal" in2="BackgroundImageFix" result="effect1_dropShadow"/>
<feBlend mode="normal" in="SourceGraphic" in2="effect1_dropShadow" result="shape"/>
</filter>
<linearGradient id="paint0_linear" x1="18.445" y1="2.18236" x2="20.342" y2="29.3118" gradientUnits="userSpaceOnUse">
<stop stop-color="#60BCEC"/>
<stop offset="1" stop-color="#1E73B7"/>
</linearGradient>
</defs>
</svg>
