<svg width="75" height="75" viewBox="0 0 75 75" fill="none" xmlns="http://www.w3.org/2000/svg">
<path fill-rule="evenodd" clip-rule="evenodd" d="M18.4084 9.92908C18.643 9.69359 18.9617 9.56122 19.2941 9.56122H49.4704C51.9125 9.56122 53.8969 11.5606 53.8969 14.0002V69.8079C53.8969 72.2476 51.9125 74.2469 49.4704 74.2469H8.17646C5.73441 74.2469 3.75 72.2476 3.75 69.8079V25.1618C3.75 24.8311 3.88102 24.5139 4.11438 24.2796L18.4084 9.92908ZM19.8133 12.0612L6.25 25.6781V69.8079C6.25 70.8761 7.1244 71.7469 8.17646 71.7469H49.4704C50.5225 71.7469 51.3969 70.8761 51.3969 69.8079V14.0002C51.3969 12.932 50.5225 12.0612 49.4704 12.0612H19.8133Z" fill="#454545"/>
<path fill-rule="evenodd" clip-rule="evenodd" d="M59.7712 0.804534C61.1395 0.583498 62.264 1.06098 63.0871 1.68069C64.0902 2.43599 64.4929 3.60481 64.6728 4.50791C64.6793 4.54053 64.6845 4.5734 64.6884 4.60644L71.195 60.0512C71.4238 61.3067 70.8985 62.4336 70.3964 63.2739C69.6517 64.52 68.4321 64.9476 67.5048 65.1338C67.4723 65.1403 67.4395 65.1455 67.4065 65.1495L58.036 66.2656C57.3504 66.3473 56.7285 65.8577 56.6469 65.1722C56.5652 64.4867 57.0548 63.8648 57.7403 63.7832L67.0587 62.6732C67.6908 62.54 68.047 62.3316 68.2504 61.9914C68.6939 61.2493 68.7959 60.8022 68.7327 60.4851C68.7262 60.4525 68.7211 60.4196 68.7172 60.3866L62.2116 4.95012C62.0728 4.28591 61.8448 3.87472 61.5833 3.67785C61.1407 3.34458 60.6855 3.18623 60.1591 3.27431C60.1439 3.27685 60.1287 3.27911 60.1134 3.28109L30.5723 7.10792C29.8877 7.19661 29.2608 6.7135 29.1721 6.02886C29.0834 5.34423 29.5665 4.71732 30.2512 4.62863L59.7712 0.804534Z" fill="#454545"/>
<path fill-rule="evenodd" clip-rule="evenodd" d="M19.2941 9.56122C19.9844 9.56122 20.5441 10.1209 20.5441 10.8112V21.9727C20.5441 24.4124 18.5597 26.4118 16.1176 26.4118H5C4.30964 26.4118 3.75 25.8521 3.75 25.1618C3.75 24.4714 4.30964 23.9118 5 23.9118H16.1176C17.1697 23.9118 18.0441 23.041 18.0441 21.9727V10.8112C18.0441 10.1209 18.6037 9.56122 19.2941 9.56122Z" fill="#454545"/>
<path d="M12.2898 63.0922V55.4062L10.5818 55.8262L10.1338 54.0622L12.9478 53.2222H14.4178V63.0922H12.2898Z" fill="#454545"/>
<path d="M23.95 61.8182C23.138 62.7796 22.088 63.2602 20.8 63.2602C19.512 63.2602 18.4667 62.7796 17.664 61.8182C16.8614 60.8569 16.46 59.6482 16.46 58.1922C16.46 56.7456 16.866 55.5416 17.678 54.5802C18.49 53.6096 19.54 53.1242 20.828 53.1242C22.1067 53.1242 23.1474 53.6049 23.95 54.5662C24.762 55.5276 25.168 56.7362 25.168 58.1922C25.168 59.6389 24.762 60.8476 23.95 61.8182ZM19.26 60.4322C19.6614 61.0202 20.184 61.3142 20.828 61.3142C21.472 61.3142 21.9854 61.0249 22.368 60.4462C22.76 59.8582 22.956 59.1069 22.956 58.1922C22.956 57.2962 22.7554 56.5542 22.354 55.9662C21.9527 55.3689 21.4347 55.0702 20.8 55.0702C20.1654 55.0702 19.652 55.3642 19.26 55.9522C18.868 56.5309 18.672 57.2776 18.672 58.1922C18.672 59.0976 18.868 59.8442 19.26 60.4322Z" fill="#454545"/>
<path d="M34.1766 61.8182C33.3646 62.7796 32.3146 63.2602 31.0266 63.2602C29.7386 63.2602 28.6933 62.7796 27.8906 61.8182C27.0879 60.8569 26.6866 59.6482 26.6866 58.1922C26.6866 56.7456 27.0926 55.5416 27.9046 54.5802C28.7166 53.6096 29.7666 53.1242 31.0546 53.1242C32.3333 53.1242 33.3739 53.6049 34.1766 54.5662C34.9886 55.5276 35.3946 56.7362 35.3946 58.1922C35.3946 59.6389 34.9886 60.8476 34.1766 61.8182ZM29.4866 60.4322C29.8879 61.0202 30.4106 61.3142 31.0546 61.3142C31.6986 61.3142 32.2119 61.0249 32.5946 60.4462C32.9866 59.8582 33.1826 59.1069 33.1826 58.1922C33.1826 57.2962 32.9819 56.5542 32.5806 55.9662C32.1793 55.3689 31.6613 55.0702 31.0266 55.0702C30.3919 55.0702 29.8786 55.3642 29.4866 55.9522C29.0946 56.5309 28.8986 57.2776 28.8986 58.1922C28.8986 59.0976 29.0946 59.8442 29.4866 60.4322Z" fill="#454545"/>
<path d="M40.8752 57.4642C40.4272 57.9496 39.8532 58.1922 39.1532 58.1922C38.4532 58.1922 37.8838 57.9542 37.4452 57.4782C37.0065 56.9929 36.7872 56.3956 36.7872 55.6862C36.7872 54.9769 37.0112 54.3842 37.4592 53.9082C37.9072 53.4229 38.4812 53.1802 39.1812 53.1802C39.8812 53.1802 40.4505 53.4229 40.8892 53.9082C41.3278 54.3842 41.5472 54.9769 41.5472 55.6862C41.5472 56.3862 41.3232 56.9789 40.8752 57.4642ZM37.7672 63.0922L44.9212 53.2922H46.5872L39.4332 63.0922H37.7672ZM46.8952 62.4762C46.4472 62.9616 45.8732 63.2042 45.1732 63.2042C44.4732 63.2042 43.9038 62.9662 43.4652 62.4902C43.0265 62.0049 42.8072 61.4076 42.8072 60.6982C42.8072 59.9889 43.0312 59.3962 43.4792 58.9202C43.9272 58.4349 44.5012 58.1922 45.2012 58.1922C45.9012 58.1922 46.4705 58.4349 46.9092 58.9202C47.3478 59.3962 47.5672 59.9889 47.5672 60.6982C47.5672 61.3982 47.3432 61.9909 46.8952 62.4762ZM39.1812 56.9182C39.4612 56.9182 39.6805 56.8016 39.8392 56.5682C39.9978 56.3256 40.0772 56.0316 40.0772 55.6862C40.0772 55.3502 39.9885 55.0609 39.8112 54.8182C39.6432 54.5756 39.4238 54.4542 39.1532 54.4542C38.8732 54.4542 38.6538 54.5709 38.4952 54.8042C38.3365 55.0376 38.2572 55.3316 38.2572 55.6862C38.2572 56.0222 38.3412 56.3116 38.5092 56.5542C38.6865 56.7969 38.9105 56.9182 39.1812 56.9182ZM45.2012 61.9302C45.4812 61.9302 45.7005 61.8136 45.8592 61.5802C46.0178 61.3376 46.0972 61.0436 46.0972 60.6982C46.0972 60.3622 46.0085 60.0729 45.8312 59.8302C45.6632 59.5876 45.4438 59.4662 45.1732 59.4662C44.8932 59.4662 44.6738 59.5829 44.5152 59.8162C44.3565 60.0496 44.2772 60.3436 44.2772 60.6982C44.2772 61.0342 44.3612 61.3236 44.5292 61.5662C44.7065 61.8089 44.9305 61.9302 45.2012 61.9302Z" fill="#454545"/>
<path fill-rule="evenodd" clip-rule="evenodd" d="M26.9452 27.5457C27.7262 26.7647 28.9925 26.7647 29.7736 27.5457L36.883 34.6551C37.664 35.4362 37.664 36.7025 36.883 37.4836C36.1019 38.2646 34.8356 38.2646 34.0545 37.4836L30.3594 33.7884V43.1787C30.3594 44.2833 29.4639 45.1787 28.3594 45.1787C27.2548 45.1787 26.3594 44.2833 26.3594 43.1787V33.7884L22.6642 37.4836C21.8832 38.2646 20.6168 38.2646 19.8358 37.4836C19.0547 36.7025 19.0547 35.4362 19.8358 34.6551L26.9452 27.5457Z" fill="#FFCE0D"/>
</svg>
