<svg width="38" height="48" viewBox="0 0 38 48" fill="none" xmlns="http://www.w3.org/2000/svg">
<path d="M18.5103 0.00018692C13.9072 0.130989 6.98625 0.654186 0.391752 3.1721C0.0979371 3.2702 0 3.5645 0 3.8588C0 11.8703 1.40378 25.5717 2.25258 30.0843C2.25258 30.117 2.25258 30.1497 2.28522 30.1497C5.54983 41.7909 17.0086 46.9575 18.7715 47.7096C18.9347 47.775 19.0979 47.775 19.2285 47.7096C21.0241 46.9575 32.4502 41.8236 35.7148 30.1497C35.7148 30.117 35.7148 30.0843 35.7474 30.0843C36.5962 25.5717 38 11.2817 38 3.8588C38 3.5645 37.9021 3.30289 37.6082 3.1721C31.0137 0.654186 24.1254 0.130989 19.5223 0.00018692C19.3918 0.00018692 19.2285 0.00018692 19.0326 0.00018692C18.8694 0.00018692 18.6409 0.00018692 18.5103 0.00018692Z" fill="url(#paint0_linear)"/>
<path d="M19.2794 45.4616C21.1075 44.6768 31.1625 39.9353 34.068 29.4058C34.068 29.3731 34.068 29.3731 34.1007 29.3404C34.8842 25.2202 36.1574 12.4018 36.2227 5.37127C36.2227 5.07697 36.0268 4.78267 35.7656 4.68456C29.9873 2.49366 23.0337 1.97046 19.1488 1.97046H18.8876C16.7003 1.97046 8.14706 2.49366 2.27077 4.68456C1.97695 4.78267 1.81372 5.07697 1.81372 5.37127C1.87901 12.1402 3.15221 25.2202 3.93571 29.3404C3.93571 29.3731 3.93571 29.3731 3.93571 29.4058C6.80857 39.9353 16.8636 44.6768 18.6917 45.4616C18.8876 45.527 19.0835 45.527 19.2794 45.4616Z" fill="#1E73B7"/>
<path d="M18.8694 2.32184C16.7474 2.32184 8.32473 2.81235 2.57903 4.97055C2.28521 5.06865 2.15462 5.26485 2.18727 5.55915C2.38315 7.39036 7.57387 15.9578 14.756 21.9092C22.5584 28.3511 32.646 29.5283 33.299 29.5283C33.5275 29.5283 33.8213 29.3321 33.8539 29.1359C34.6048 25.1465 35.8127 12.5243 35.878 5.65726C35.878 5.36296 35.7148 5.10135 35.421 4.97055C29.7732 2.81235 22.9502 2.28915 19.1306 2.28915L18.8694 2.32184Z" fill="url(#paint1_linear)"/>
<path d="M25.4382 8.14812C26.189 8.01732 26.9072 8.05002 27.6254 8.21352C28.3437 8.37702 28.9966 8.67132 29.5842 9.06372C30.1718 9.48883 30.6615 9.97933 31.0533 10.6006C31.445 11.2219 31.7062 11.8759 31.8368 12.628C31.9674 13.3801 31.9347 14.0995 31.8041 14.7862C31.6409 15.5056 31.3471 16.1596 30.9553 16.7482C30.5309 17.3368 30.0413 17.86 29.421 18.2525C28.8007 18.6449 28.1478 18.9065 27.3969 19.0373C26.4175 19.2008 25.4708 19.1354 24.5567 18.7757C23.6426 18.4487 22.8591 17.8927 22.2062 17.1406C21.5859 16.3885 21.1615 15.5056 20.9983 14.5246C20.8677 13.7725 20.9004 13.0531 21.0636 12.3337C21.2268 11.647 21.5206 10.993 21.945 10.4044C22.3694 9.81583 22.8918 9.32533 23.4794 8.93292C24.0344 8.54052 24.6873 8.27892 25.4382 8.14812ZM25.6014 9.06372C24.7852 9.19452 24.067 9.52153 23.4468 10.0447C22.8265 10.5679 22.3694 11.2219 22.0756 11.974C21.7818 12.7261 21.7165 13.5436 21.8471 14.3611C22.043 15.4729 22.5653 16.3885 23.4468 17.1406C23.61 17.2714 23.7732 17.4022 23.9691 17.5003C24.9811 18.1217 26.0584 18.3179 27.1684 18.1217C27.9846 17.9909 28.7028 17.6311 29.3557 17.1079C29.976 16.5847 30.433 15.9307 30.7268 15.1459C31.0206 14.3611 31.0859 13.5763 30.9227 12.7588C30.8248 12.1375 30.5962 11.5816 30.2698 11.0584C29.9433 10.5352 29.5189 10.1101 29.0292 9.78313C28.5395 9.45613 28.0172 9.22723 27.4296 9.09643C26.8419 8.96562 26.2217 8.93292 25.6014 9.06372ZM28.6048 12.3664L28.3763 12.3991C28.2131 12.4318 28.0498 12.3664 27.9519 12.2029C27.6581 11.647 27.1358 11.3527 26.4175 11.32C26.0584 11.32 25.732 11.4181 25.4382 11.5816C25.1443 11.7778 24.9158 12.0394 24.7526 12.3991C24.5894 12.7588 24.4914 13.1512 24.4914 13.6417C24.4914 14.3284 24.6547 14.8843 24.9811 15.3094C25.3076 15.7018 25.7646 15.9307 26.3523 15.9307C26.744 15.9307 27.1031 15.8326 27.4622 15.6037C27.7234 15.4075 27.9193 15.1459 28.0498 14.8516C28.1151 14.6881 28.311 14.59 28.5069 14.6554L28.7681 14.7535C28.9313 14.8189 29.0292 14.9824 28.9639 15.1459C28.866 15.4402 28.7028 15.6691 28.5069 15.898C28.2457 16.1923 27.9193 16.4212 27.5602 16.5847C27.201 16.7482 26.7767 16.8136 26.3523 16.8136C25.7646 16.8136 25.2749 16.6828 24.8179 16.4212C24.3935 16.1596 24.0344 15.7672 23.8059 15.2767C23.5773 14.7862 23.4468 14.1976 23.4794 13.5109C23.4794 13.0858 23.5447 12.6607 23.7079 12.301C23.8385 11.9413 24.0344 11.6143 24.2956 11.3527C24.5567 11.0911 24.8832 10.8622 25.2423 10.7314C25.6014 10.6006 26.0258 10.5352 26.4828 10.5352C27.1031 10.5352 27.6254 10.6987 28.0825 11.0257C28.409 11.2546 28.6701 11.5489 28.8334 11.9413C28.9313 12.1048 28.8007 12.3337 28.6048 12.3664Z" fill="white"/>
<defs>
<linearGradient id="paint0_linear" x1="18.9956" y1="-0.00466267" x2="18.9956" y2="59.6891" gradientUnits="userSpaceOnUse">
<stop stop-color="#D7D7D7"/>
<stop offset="0.9987" stop-color="#BDBCBC"/>
<stop offset="1" stop-color="#BDBCBC"/>
</linearGradient>
<linearGradient id="paint1_linear" x1="18.7883" y1="2.25894" x2="21.2544" y2="37.4673" gradientUnits="userSpaceOnUse">
<stop stop-color="#60BCEC"/>
<stop offset="1" stop-color="#1E73B7"/>
</linearGradient>
</defs>
</svg>
