<svg width="38" height="48" viewBox="0 0 38 48" fill="none" xmlns="http://www.w3.org/2000/svg">
<path d="M18.5103 6.48499e-05C13.9072 0.130867 6.98625 0.654064 0.391752 3.17197C0.0979371 3.27007 0 3.56438 0 3.85868C0 11.8702 1.40378 25.5715 2.25258 30.0841C2.25258 30.1168 2.25258 30.1495 2.28522 30.1495C5.54983 41.7908 17.0086 46.9574 18.7715 47.7095C18.9347 47.7749 19.0979 47.7749 19.2285 47.7095C21.0241 46.9574 32.4502 41.8235 35.7148 30.1495C35.7148 30.1168 35.7148 30.0841 35.7474 30.0841C36.5962 25.5715 38 11.2816 38 3.85868C38 3.56438 37.9021 3.30277 37.6082 3.17197C31.0137 0.654064 24.1254 0.130867 19.5223 6.48499e-05C19.3918 6.48499e-05 19.2285 6.48499e-05 19.0326 6.48499e-05C18.8694 6.48499e-05 18.6409 6.48499e-05 18.5103 6.48499e-05Z" fill="#F08A00"/>
<path d="M19.2794 45.4614C21.1075 44.6766 31.1625 39.9351 34.068 29.4057C34.068 29.373 34.068 29.373 34.1007 29.3403C34.8842 25.2201 36.1574 12.4017 36.2227 5.37114C36.2227 5.07684 36.0268 4.78254 35.7656 4.68444C29.9873 2.49353 23.0337 1.97034 19.1488 1.97034H18.8876C16.7003 1.97034 8.14706 2.49353 2.27077 4.68444C1.97695 4.78254 1.81372 5.07684 1.81372 5.37114C1.87901 12.1401 3.15221 25.2201 3.93571 29.3403C3.93571 29.373 3.93571 29.373 3.93571 29.4057C6.80857 39.9351 16.8636 44.6766 18.6917 45.4614C18.8876 45.5268 19.0835 45.5268 19.2794 45.4614Z" fill="#1E73B7"/>
<path d="M18.8694 2.32172C16.7474 2.32172 8.32473 2.81222 2.57903 4.97043C2.28521 5.06853 2.15462 5.26473 2.18727 5.55903C2.38315 7.39024 7.57387 15.9577 14.756 21.9091C22.5584 28.351 32.646 29.5282 33.299 29.5282C33.5275 29.5282 33.8213 29.332 33.8539 29.1358C34.6048 25.1464 35.8127 12.5242 35.878 5.65713C35.878 5.36283 35.7148 5.10123 35.421 4.97043C29.7732 2.81222 22.9502 2.28902 19.1306 2.28902L18.8694 2.32172Z" fill="url(#paint0_linear)"/>
<path d="M25.4382 8.148C26.189 8.0172 26.9072 8.0499 27.6254 8.2134C28.3437 8.3769 28.9966 8.6712 29.5842 9.0636C30.1718 9.4887 30.6615 9.97921 31.0533 10.6005C31.445 11.2218 31.7062 11.8758 31.8368 12.6279C31.9674 13.38 31.9347 14.0994 31.8041 14.7861C31.6409 15.5055 31.3471 16.1595 30.9553 16.7481C30.5309 17.3367 30.0413 17.8599 29.421 18.2523C28.8007 18.6447 28.1478 18.9063 27.3969 19.0371C26.4175 19.2006 25.4708 19.1352 24.5567 18.7755C23.6426 18.4485 22.8591 17.8926 22.2062 17.1405C21.5859 16.3884 21.1615 15.5055 20.9983 14.5245C20.8677 13.7724 20.9004 13.053 21.0636 12.3336C21.2268 11.6469 21.5206 10.9929 21.945 10.4043C22.3694 9.81571 22.8918 9.3252 23.4794 8.9328C24.0344 8.5404 24.6873 8.2788 25.4382 8.148ZM25.6014 9.0636C24.7852 9.1944 24.067 9.5214 23.4468 10.0446C22.8265 10.5678 22.3694 11.2218 22.0756 11.9739C21.7818 12.726 21.7165 13.5435 21.8471 14.361C22.043 15.4728 22.5653 16.3884 23.4468 17.1405C23.61 17.2713 23.7732 17.4021 23.9691 17.5002C24.9811 18.1215 26.0584 18.3177 27.1684 18.1215C27.9846 17.9907 28.7028 17.631 29.3557 17.1078C29.976 16.5846 30.433 15.9306 30.7268 15.1458C31.0206 14.361 31.0859 13.5762 30.9227 12.7587C30.8248 12.1374 30.5962 11.5815 30.2698 11.0583C29.9433 10.5351 29.5189 10.11 29.0292 9.783C28.5395 9.456 28.0172 9.2271 27.4296 9.0963C26.8419 8.9655 26.2217 8.9328 25.6014 9.0636ZM28.6048 12.3663L28.3763 12.399C28.2131 12.4317 28.0498 12.3663 27.9519 12.2028C27.6581 11.6469 27.1358 11.3526 26.4175 11.3199C26.0584 11.3199 25.732 11.418 25.4382 11.5815C25.1443 11.7777 24.9158 12.0393 24.7526 12.399C24.5894 12.7587 24.4914 13.1511 24.4914 13.6416C24.4914 14.3283 24.6547 14.8842 24.9811 15.3093C25.3076 15.7017 25.7646 15.9306 26.3523 15.9306C26.744 15.9306 27.1031 15.8325 27.4622 15.6036C27.7234 15.4074 27.9193 15.1458 28.0498 14.8515C28.1151 14.688 28.311 14.5899 28.5069 14.6553L28.7681 14.7534C28.9313 14.8188 29.0292 14.9823 28.9639 15.1458C28.866 15.4401 28.7028 15.669 28.5069 15.8979C28.2457 16.1922 27.9193 16.4211 27.5602 16.5846C27.201 16.7481 26.7767 16.8135 26.3523 16.8135C25.7646 16.8135 25.2749 16.6827 24.8179 16.4211C24.3935 16.1595 24.0344 15.7671 23.8059 15.2766C23.5773 14.7861 23.4468 14.1975 23.4794 13.5108C23.4794 13.0857 23.5447 12.6606 23.7079 12.3009C23.8385 11.9412 24.0344 11.6142 24.2956 11.3526C24.5567 11.091 24.8832 10.8621 25.2423 10.7313C25.6014 10.6005 26.0258 10.5351 26.4828 10.5351C27.1031 10.5351 27.6254 10.6986 28.0825 11.0256C28.409 11.2545 28.6701 11.5488 28.8334 11.9412C28.9313 12.1047 28.8007 12.3336 28.6048 12.3663Z" fill="white"/>
<defs>
<linearGradient id="paint0_linear" x1="18.7883" y1="2.25882" x2="21.2544" y2="37.4672" gradientUnits="userSpaceOnUse">
<stop stop-color="#60BCEC"/>
<stop offset="1" stop-color="#1E73B7"/>
</linearGradient>
</defs>
</svg>
