<svg width="80" height="33" viewBox="0 0 80 33" fill="none" xmlns="http://www.w3.org/2000/svg">
<path d="M64.7619 0H15.2381C6.82233 0 0 7.23654 0 16.1633V16.1633C0 25.09 6.82233 32.3266 15.2381 32.3266H64.7619C73.1777 32.3266 80 25.09 80 16.1633C80 7.23654 73.1777 0 64.7619 0Z" fill="#8BD5F5"/>
<path d="M14.4402 14.4556C16.0836 14.4556 17.7164 14.4556 19.3598 14.4556C20.2076 14.4556 20.553 14.8221 20.553 15.7438C20.553 16.8321 20.553 17.9315 20.553 19.0198C20.553 19.9304 20.218 20.3079 19.3598 20.3301C18.6585 20.3524 17.9676 20.3301 17.2663 20.3301C14.7333 20.3301 12.2107 20.3301 9.67768 20.3301C8.53677 20.3301 8.25415 20.0192 8.25415 18.831C8.25415 17.8093 8.25415 16.7988 8.25415 15.7771C8.25415 14.7888 8.57864 14.4556 9.52068 14.4556C11.164 14.4556 12.8074 14.4556 14.4402 14.4556Z" fill="#1C1C19"/>
<path d="M14.4191 24.2616C12.6396 24.2616 10.8707 24.2616 9.09132 24.2616C8.50516 24.2616 8.2644 24.0617 8.2644 23.5952C8.2644 23.1288 8.51563 22.9067 9.08085 22.9067C12.6501 22.9067 16.2194 22.9067 19.7887 22.9067C20.3225 22.9067 20.6365 23.1622 20.6365 23.5841C20.6365 24.0061 20.333 24.2616 19.7992 24.2616C17.9988 24.2616 16.2089 24.2616 14.4191 24.2616Z" fill="#1C1C19"/>
<path d="M10.9855 22.273C10.3052 22.273 9.6248 22.273 8.95489 22.273C8.54669 22.273 8.285 22.0842 8.26407 21.6289C8.24313 21.1403 8.51529 20.9182 8.94442 20.9182C10.3052 20.9071 11.6554 20.9071 13.0161 20.9182C13.4348 20.9182 13.7279 21.1181 13.7384 21.5956C13.7384 22.0731 13.4662 22.273 13.0266 22.273C12.3462 22.273 11.6659 22.273 10.9855 22.273Z" fill="#1C1C19"/>
<path d="M14.3667 18.9194C12.9013 18.9194 11.4464 18.9083 9.98096 18.9305C9.60414 18.9416 9.5204 18.8083 9.53087 18.4308C9.56227 17.6756 9.5518 16.9205 9.53087 16.1542C9.53087 15.8877 9.60414 15.81 9.85536 15.81C12.8803 15.8211 15.9158 15.8211 18.9408 15.81C19.2025 15.81 19.2653 15.9099 19.2653 16.1653C19.2548 16.9427 19.2443 17.72 19.2653 18.4974C19.2757 18.8527 19.1711 18.9305 18.857 18.9194C17.3603 18.9083 15.8635 18.9194 14.3667 18.9194Z" fill="#8BD5F5"/>
<path d="M56.8423 15.8216C57.4494 15.8216 58.0563 15.8105 58.6738 15.8216C59.3229 15.8327 59.7625 16.2436 59.8149 16.9321C59.8358 17.2763 59.8358 17.6317 59.7834 17.9759C59.7103 18.5312 59.3021 18.9088 58.7785 18.9088C57.4912 18.9199 56.2036 18.9088 54.9163 18.9199C54.6336 18.9199 54.5709 18.8088 54.5709 18.5312C54.5814 17.7538 54.5918 16.9765 54.5709 16.1991C54.5603 15.866 54.686 15.7994 54.9685 15.7994C55.586 15.8327 56.2143 15.8216 56.8423 15.8216Z" fill="#8BD5F5"/>
<path d="M10.8085 9.30849C10.8085 9.69871 10.6975 9.98689 10.4755 10.173C10.2553 10.3592 9.92235 10.4523 9.47673 10.4523H8.38062V6.52692H10.5882V6.93232H8.81599V8.2023H9.39735C9.72686 8.2023 9.9949 8.24259 10.2015 8.32313C10.4081 8.40188 10.5609 8.51913 10.6599 8.67484C10.7589 8.83058 10.8085 9.0418 10.8085 9.30849ZM8.81599 10.0576H9.42808C9.75246 10.0576 9.98808 9.99941 10.1349 9.88306C10.2835 9.76671 10.3577 9.5752 10.3577 9.30849C10.3577 9.05432 10.2826 8.87352 10.1323 8.76613C9.9821 8.65874 9.72004 8.60504 9.34613 8.60504H8.81599V10.0576Z" fill="black"/>
<path d="M12.9136 6.52692H13.3208V8.70975C13.3208 9.11249 13.3088 9.47674 13.2849 9.80252H13.3054L15.4054 6.52692H15.8818V10.4523H15.472V8.29091C15.472 7.93111 15.4866 7.55345 15.5156 7.15788H15.4925L13.3899 10.4523H12.9136V6.52692Z" fill="black"/>
<path d="M20.594 7.6707C20.594 8.06806 20.4643 8.37414 20.2048 8.58892C19.9469 8.80194 19.5773 8.90843 19.0958 8.90843H18.6553V10.4523H18.22V6.52692H19.1906C20.1262 6.52692 20.594 6.90816 20.594 7.6707ZM18.6553 8.51644H19.0472C19.433 8.51644 19.7122 8.4511 19.8846 8.32044C20.0571 8.18976 20.1433 7.98035 20.1433 7.69217C20.1433 7.43262 20.0622 7.23932 19.9 7.11222C19.7378 6.98514 19.4851 6.9216 19.1419 6.9216H18.6553V8.51644Z" fill="black"/>
<path d="M23.7086 8.43321L22.2359 6.52692H22.7226L24.1797 8.42783V6.52692H24.5997V8.42783L26.0595 6.52692H26.5462L25.071 8.42783L26.5922 10.4523H26.0902L24.5997 8.46274V10.4523H24.1797V8.46274L22.6917 10.4523H22.1821L23.7086 8.43321Z" fill="black"/>
<path d="M30.7869 10.4523L30.3209 9.20379H28.8203L28.3591 10.4523H27.9187L29.3989 6.5108H29.7651L31.2378 10.4523H30.7869ZM30.1851 8.79299L29.7498 7.57673C29.6934 7.42278 29.6354 7.23395 29.5756 7.01021C29.538 7.18205 29.4843 7.37088 29.4143 7.57673L28.9738 8.79299H30.1851Z" fill="black"/>
<path d="M38.4315 10.4523H37.904L36.1729 8.46274V10.4523H35.7373V6.52692H36.1729V8.42783L37.8604 6.52692H38.36L36.7029 8.43321L38.4315 10.4523Z" fill="black"/>
<path d="M43.5103 8.48421C43.5103 9.11248 43.3583 9.60651 43.0543 9.96628C42.7521 10.3261 42.3312 10.506 41.7919 10.506C41.2403 10.506 40.8143 10.3297 40.5139 9.97703C40.215 9.62261 40.0657 9.12323 40.0657 8.47883C40.0657 7.83983 40.2159 7.34491 40.5163 6.99407C40.817 6.64146 41.2437 6.46515 41.797 6.46515C42.3348 6.46515 42.7548 6.64415 43.057 7.00213C43.3592 7.36011 43.5103 7.85414 43.5103 8.48421ZM40.5266 8.48421C40.5266 9.01584 40.6341 9.41945 40.8495 9.69512C41.0661 9.96897 41.3803 10.1059 41.7919 10.1059C42.2068 10.1059 42.5199 9.96897 42.7317 9.69512C42.9435 9.42124 43.0492 9.0176 43.0492 8.48421C43.0492 7.95618 42.9435 7.55613 42.7317 7.28404C42.5217 7.01019 42.2101 6.87326 41.797 6.87326C41.3821 6.87326 41.0661 7.01109 40.8495 7.28673C40.6341 7.56058 40.5266 7.95974 40.5266 8.48421Z" fill="black"/>
<path d="M48.5014 10.4523H48.066V8.60504H46.094V10.4523H45.6587V6.52692H46.094V8.19693H48.066V6.52692H48.5014V10.4523Z" fill="black"/>
<path d="M51.9949 10.4523H51.5596V6.93232H50.3738V6.52692H53.1807V6.93232H51.9949V10.4523Z" fill="black"/>
<path d="M57.1447 10.4523H55.0576V6.52692H57.1447V6.93232H55.493V8.19693H57.045V8.59967H55.493V10.0442H57.1447V10.4523Z" fill="black"/>
<path d="M62.1312 10.4523H61.6959V8.60504H59.7239V10.4523H59.2883V6.52692H59.7239V8.19693H61.6959V6.52692H62.1312V10.4523Z" fill="black"/>
<path d="M65.6245 10.4523H65.1892V6.93232H64.0034V6.52692H66.8103V6.93232H65.6245V10.4523Z" fill="black"/>
<path d="M71.0411 10.4523L70.5748 9.20379H69.0742L68.6131 10.4523H68.1726L69.6528 6.5108H70.0191L71.4917 10.4523H71.0411ZM70.439 8.79299L70.0037 7.57673C69.9475 7.42278 69.8893 7.23395 69.8297 7.01021C69.7922 7.18205 69.7384 7.37088 69.6684 7.57673L69.2277 8.79299H70.439Z" fill="black"/>
<path d="M39.0927 14.4116L40.0435 15.3045L32.2995 24.5827L31.3489 23.6898L39.0927 14.4116Z" fill="white"/>
<path d="M31.3259 15.3312L32.2719 14.4326L40.0664 23.6631L39.1204 24.5617L31.3259 15.3312Z" fill="white"/>
<path d="M26.1584 16.052H27.4284V24.403H26.1584V16.052Z" fill="white"/>
<path d="M30.8573 14.7048V16.0518H22.6033V14.7048H30.8573Z" fill="white"/>
<path d="M44.1899 16.052H45.4597V24.403H44.1899V16.052Z" fill="white"/>
<path d="M48.8888 14.7048V16.0518H40.6348V14.7048H48.8888Z" fill="white"/>
<path d="M49.5869 22.3822H49.5869C49.0609 22.3822 48.6345 22.8345 48.6345 23.3924V23.3924C48.6345 23.9503 49.0609 24.4026 49.5869 24.4026H49.5869C50.1129 24.4026 50.5393 23.9503 50.5393 23.3924V23.3924C50.5393 22.8345 50.1129 22.3822 49.5869 22.3822Z" fill="black"/>
<path d="M53.2058 14.7048H54.4758V24.4028H53.2058V14.7048Z" fill="black"/>
<path d="M56.5837 20.2204L57.5217 19.3125L61.3335 23.7437L60.3955 24.6514L56.5837 20.2204Z" fill="black"/>
<path fill-rule="evenodd" clip-rule="evenodd" d="M58.6663 16.0518H54.4758V19.015H58.6663C59.2271 19.015 59.682 18.5326 59.682 17.9375V17.1293C59.682 16.5342 59.2271 16.0518 58.6663 16.0518ZM53.2058 14.7048V20.362H58.6663C59.9285 20.362 60.9518 19.2765 60.9518 17.9375V17.1293C60.9518 15.7903 59.9285 14.7048 58.6663 14.7048H53.2058Z" fill="black"/>
<path fill-rule="evenodd" clip-rule="evenodd" d="M64.5076 14.7048V21.3048C64.5076 22.4207 65.3605 23.3253 66.4125 23.3253H68.0631C69.1151 23.3253 69.968 22.4207 69.968 21.3048V14.7048H71.2378V21.3048C71.2378 23.1646 69.8165 24.6722 68.0631 24.6722H66.4125C64.6591 24.6722 63.2378 23.1646 63.2378 21.3048V14.7048H64.5076Z" fill="black"/>
</svg>
