<svg width="84" height="11" viewBox="0 0 84 11" fill="none" xmlns="http://www.w3.org/2000/svg">
<path d="M2.08376 6.5608V10.1299H0V0H3.94526C4.70467 0 5.37148 0.139147 5.94567 0.417442C6.52449 0.695737 6.96903 1.09231 7.27927 1.60715C7.58952 2.11736 7.74465 2.69946 7.74465 3.35345C7.74465 4.34604 7.4043 5.1299 6.72361 5.70504C6.04754 6.27555 5.10985 6.5608 3.91053 6.5608H2.08376ZM2.08376 4.87016H3.94526C4.49629 4.87016 4.91536 4.74029 5.20246 4.48055C5.49419 4.2208 5.64005 3.84974 5.64005 3.36737C5.64005 2.87107 5.49419 2.46987 5.20246 2.16374C4.91073 1.85762 4.50787 1.69992 3.99388 1.69064H2.08376V4.87016Z" fill="#46A6FA"/>
<path d="M12.3283 4.78667L14.1689 0H16.4194L12.884 8.3558L12.5992 8.90543C12.0759 9.81917 11.2748 10.276 10.1959 10.276L9.46659 10.2482L9.44576 8.57148C9.55689 8.59003 9.73748 8.59931 9.98753 8.59931C10.2793 8.59931 10.5131 8.54829 10.6891 8.44625C10.8697 8.34421 11.0202 8.15636 11.1405 7.8827L11.3975 7.22175L7.84821 0H10.0917L12.3283 4.78667Z" fill="#46A6FA"/>
<path d="M20.3201 6.12944H19.1184V10.2691H17.0347V0.139147H19.1184V4.19529H20.07L22.5427 0.139147H25.0849L21.9662 4.93278L25.4114 10.2691H22.9248L20.3201 6.12944Z" fill="#333C47"/>
<path d="M33.6555 5.43371C33.6555 6.43093 33.4795 7.30524 33.1276 8.05664C32.7757 8.80803 32.271 9.38781 31.6134 9.79598C30.9605 10.2041 30.2104 10.4082 29.363 10.4082C28.5248 10.4082 27.777 10.2065 27.1194 9.80294C26.4619 9.39941 25.9525 8.82427 25.5914 8.07751C25.2302 7.32611 25.0473 6.4634 25.0426 5.48937V4.98844C25.0426 3.99121 25.2209 3.11458 25.5775 2.35855C25.9386 1.59788 26.4457 1.01578 27.0986 0.612249C27.7561 0.204083 28.5063 0 29.3491 0C30.1918 0 30.9397 0.204083 31.5926 0.612249C32.2501 1.01578 32.7572 1.59788 33.1137 2.35855C33.4749 3.11458 33.6555 3.98889 33.6555 4.98148V5.43371ZM31.544 4.97452C31.544 3.91236 31.3541 3.10531 30.9744 2.55336C30.5947 2.0014 30.0529 1.72543 29.3491 1.72543C28.6499 1.72543 28.1104 1.99908 27.7307 2.5464C27.351 3.08907 27.1588 3.88685 27.1542 4.93973V5.43371C27.1542 6.46804 27.344 7.27045 27.7237 7.84096C28.1034 8.41146 28.6499 8.69671 29.363 8.69671C30.0622 8.69671 30.5993 8.42306 30.9744 7.87574C31.3495 7.32379 31.5393 6.52138 31.544 5.46849V4.97452Z" fill="#333C47"/>
<path d="M42.754 10.2691H40.6702V5.92768H36.6069V10.2691H34.5231V0.139147H36.6069V4.244H40.6702V0.139147H42.754V10.2691Z" fill="#333C47"/>
<path d="M51.3384 1.82979H48.2406V10.2691H46.1568V1.82979H43.1006V0.139147H51.3384V1.82979Z" fill="#333C47"/>
<path d="M57.9711 5.87898H53.9703V8.59235H58.6657V10.2691H51.8865V0.139147H58.6518V1.82979H53.9703V4.244H57.9711V5.87898Z" fill="#333C47"/>
<path d="M62.5409 6.12944H61.3392V10.2691H59.2555V0.139147H61.3392V4.19529H62.2908L64.7635 0.139147H67.3057L64.187 4.93278L67.6322 10.2691H65.1456L62.5409 6.12944Z" fill="#333C47"/>
<path d="M75.5082 6.89475C75.4295 7.98474 75.0266 8.84282 74.2996 9.46898C73.5772 10.0951 72.6233 10.4082 71.4379 10.4082C70.1413 10.4082 69.1203 9.97223 68.3748 9.10024C67.6339 8.22361 67.2634 7.02231 67.2634 5.49632V4.87712C67.2634 3.90309 67.4348 3.04501 67.7774 2.30289C68.1201 1.56077 68.6086 0.992585 69.243 0.598334C69.882 0.199445 70.6229 0 71.4657 0C72.6326 0 73.5726 0.313082 74.2857 0.939245C74.9988 1.56541 75.4109 2.44436 75.5221 3.57609H73.4383C73.3874 2.9221 73.2045 2.44899 72.8896 2.15679C72.5793 1.85994 72.1047 1.71151 71.4657 1.71151C70.7711 1.71151 70.2502 1.96198 69.9029 2.46291C69.5602 2.9592 69.3842 3.73147 69.375 4.77971V5.54502C69.375 6.63965 69.5394 7.43975 69.8681 7.94532C70.2015 8.45089 70.7248 8.70367 71.4379 8.70367C72.0816 8.70367 72.5608 8.55757 72.8757 8.26536C73.1952 7.96851 73.3781 7.51164 73.4244 6.89475H75.5082Z" fill="#333C47"/>
<path d="M83.6342 1.82979H80.5364V10.2691H78.4526V1.82979H75.3964V0.139147H83.6342V1.82979Z" fill="#333C47"/>
</svg>
