<svg width="40" height="40" viewBox="0 0 40 40" fill="none" xmlns="http://www.w3.org/2000/svg">
<path d="M19.4177 0.000360469C8.73814 0.0651889 -0.0643698 9.20601 0.000354672 20.2269C0.0650791 31.2476 8.99704 40.0645 20.1297 39.9996C31.2622 39.9348 40 31.1181 40 19.9675C40 8.62255 31.0034 -0.0644681 19.4177 0.000360469ZM20.1944 36.3044C11.133 36.3692 3.62492 28.914 3.68965 19.9675C3.75437 10.9564 11.1977 3.69559 20.3238 3.69559C28.8675 3.69559 36.2459 11.1509 36.2459 19.9027C36.3108 28.914 29.1264 36.2395 20.1944 36.3044Z" fill="#E11E27"/>
<path d="M23.6904 14.1987C25.3733 16.4029 26.7971 15.8842 28.6095 14.9766C26.9914 10.2442 23.0433 8.16963 17.8653 9.20689C12.6226 10.309 9.83942 14.9766 10.3572 21.7836C10.7456 27.0347 14.4349 30.73 19.4186 30.9893C24.5965 31.2485 27.7034 29.0443 28.5447 24.312C27.5091 23.9878 26.4089 23.5988 25.2439 23.2099C24.6613 24.1175 24.2729 24.8305 23.7553 25.4789C21.4252 28.461 17.4769 28.2016 15.7941 24.8954C14.176 21.7836 14.1112 18.4125 15.6646 15.2359C17.2827 12.0593 21.5546 11.3462 23.6904 14.1987Z" fill="#E11E27"/>
</svg>
