<?xml version="1.0" encoding="utf-8"?>
<!-- Generator: Adobe Illustrator 19.2.0, SVG Export Plug-In . SVG Version: 6.00 Build 0)  -->
<svg version="1.1" id="Layer_1" xmlns="http://www.w3.org/2000/svg" xmlns:xlink="http://www.w3.org/1999/xlink" x="0px" y="0px"
	 width="150px" height="73px" viewBox="0 0 150 73" style="enable-background:new 0 0 150 73;" xml:space="preserve">
<style type="text/css">
	.st0{fill:#1E73B7;}
	.st1{fill:#8BD5F5;}
	.st2{fill:#1C1C19;}
	.st3{fill:#FFFFFF;}
</style>
<path class="st0" d="M19.1,62v-8.4h6.2v1.3h-4.8v2.2h4.2v1.3h-4.2v2.3h4.8V62H19.1z M26.5,55v-1.4h6.8V55h-2.7v7h-1.5v-7H26.5z
	 M34.3,62l3.1-4.3l-2.9-4.1h1.7l2.1,3l2.1-3H42l-2.9,4.1l3,4.3h-1.7l-2.2-3.2L36,62H34.3z"/>
<path d="M43,55v-1.4h6.8V55h-2.7v7h-1.5v-7H43z M50.7,62l3.7-8.5h1.4l3.7,8.5h-1.6l-0.8-2h-4l-0.9,2H50.7z M53.6,58.7h2.9l-1.5-3.4
	L53.6,58.7z M60.7,62v-6.3h1.4v2.6H65v-2.6h1.4V62H65v-2.6h-2.8V62H60.7z M67.6,56.9v-1.2h5.5v1.2h-2V62h-1.5v-5.1H67.6z M74.3,62
	v-6.3h1.4v4.2c1.1-1.6,2.1-3,3-4.2h1.4V62h-1.4v-4.2l-3,4.2H74.3z M81.9,62v-6.3h5.6V62h-1.5v-5.1h-2.7V62H81.9z M88.5,62l0.1-1.2
	c0.1,0,0.3,0,0.4,0c0.1,0,0.3,0,0.3,0c0.1,0,0.2-0.1,0.3-0.2c0.1-0.1,0.2-0.3,0.3-0.5c0.1-0.2,0.1-0.5,0.2-0.9
	c0.1-0.4,0.1-0.9,0.1-1.4c0-0.6,0-1.3,0-2.1H95V62h-1.5v-5.1h-2c0,0.6,0,1.2-0.1,1.7c0,0.5-0.1,0.9-0.1,1.3
	c-0.1,0.4-0.1,0.7-0.3,0.9c-0.1,0.3-0.2,0.5-0.3,0.6c-0.1,0.2-0.3,0.3-0.4,0.4C90.2,61.9,90,62,89.9,62c-0.2,0-0.3,0-0.6,0
	C89.1,62.1,88.8,62,88.5,62z M96.4,60.2c0-0.7,0.2-1.2,0.7-1.5c0.5-0.4,1.1-0.5,1.9-0.5c0.6,0,1.2,0.1,1.8,0.3v-0.1
	c0-0.4-0.1-0.8-0.4-1c-0.3-0.2-0.6-0.4-1.2-0.4c-0.6,0-1.2,0.1-1.8,0.4l-0.4-1.2c0.4-0.2,0.8-0.3,1.1-0.4c0.4-0.1,0.8-0.1,1.3-0.1
	c0.9,0,1.6,0.2,2.1,0.7c0.5,0.5,0.7,1.1,0.7,2V62h-1.4v-0.8c-0.5,0.6-1.2,0.9-2.1,0.9c-0.4,0-0.8-0.1-1.1-0.2
	c-0.3-0.1-0.6-0.4-0.8-0.7C96.5,60.9,96.4,60.6,96.4,60.2z M97.8,60.1c0,0.3,0.1,0.5,0.3,0.7c0.2,0.2,0.5,0.3,0.9,0.3
	c0.5,0,0.9-0.1,1.2-0.4c0.3-0.2,0.5-0.6,0.5-1v-0.4c-0.4-0.2-0.9-0.3-1.5-0.3c-0.5,0-0.8,0.1-1.1,0.3C98,59.5,97.8,59.8,97.8,60.1z
	 M103.9,62v-6.3h4.5v1.2h-3V62H103.9z M109.5,62v-6.3h1.4v4.2c1.1-1.6,2.1-3,3-4.2h1.4V62h-1.4v-4.2l-3,4.2H109.5z M116.7,60.2
	c0-0.7,0.2-1.2,0.7-1.5c0.5-0.4,1.1-0.5,1.9-0.5c0.6,0,1.2,0.1,1.8,0.3v-0.1c0-0.4-0.1-0.8-0.4-1c-0.3-0.2-0.7-0.4-1.2-0.4
	c-0.6,0-1.2,0.1-1.8,0.4l-0.4-1.2c0.4-0.2,0.8-0.3,1.1-0.4c0.4-0.1,0.8-0.1,1.3-0.1c0.9,0,1.6,0.2,2.1,0.7c0.5,0.5,0.7,1.1,0.7,2V62
	H121v-0.8c-0.5,0.6-1.2,0.9-2.1,0.9c-0.4,0-0.8-0.1-1.1-0.2c-0.3-0.1-0.6-0.4-0.8-0.7S116.7,60.6,116.7,60.2z M118.1,60.1
	c0,0.3,0.1,0.5,0.3,0.7c0.2,0.2,0.5,0.3,0.9,0.3c0.5,0,0.9-0.1,1.2-0.4c0.3-0.2,0.5-0.6,0.5-1v-0.4c-0.4-0.2-0.9-0.3-1.5-0.3
	c-0.5,0-0.8,0.1-1.1,0.3C118.3,59.5,118.1,59.8,118.1,60.1z M123.5,56.9v-1.2h5.5v1.2h-2V62h-1.5v-5.1H123.5z"/>
<path class="st1" d="M102.3,2H45.5C35.8,2,28,10.3,28,20.5v0c0,10.2,7.8,18.5,17.5,18.5h56.8c9.7,0,17.5-8.3,17.5-18.5
	C119.7,10.3,111.9,2,102.3,2z"/>
<path class="st2" d="M44.6,18.6c1.9,0,3.8,0,5.6,0c1,0,1.4,0.4,1.4,1.5c0,1.2,0,2.5,0,3.8c0,1-0.4,1.5-1.4,1.5c-0.8,0-1.6,0-2.4,0
	c-2.9,0-5.8,0-8.7,0c-1.3,0-1.6-0.4-1.6-1.7c0-1.2,0-2.3,0-3.5c0-1.1,0.4-1.5,1.5-1.5C40.8,18.6,42.7,18.6,44.6,18.6z"/>
<path class="st2" d="M44.5,29.8c-2,0-4.1,0-6.1,0c-0.7,0-0.9-0.2-0.9-0.8c0-0.5,0.3-0.8,0.9-0.8c4.1,0,8.2,0,12.3,0
	c0.6,0,1,0.3,1,0.8c0,0.5-0.3,0.8-1,0.8C48.6,29.8,46.6,29.8,44.5,29.8z"/>
<path class="st2" d="M40.6,27.5c-0.8,0-1.6,0-2.3,0c-0.5,0-0.8-0.2-0.8-0.7c0-0.6,0.3-0.8,0.8-0.8c1.6,0,3.1,0,4.7,0
	c0.5,0,0.8,0.2,0.8,0.8c0,0.5-0.3,0.8-0.8,0.8C42.2,27.5,41.4,27.5,40.6,27.5z"/>
<path class="st1" d="M44.5,23.7c-1.7,0-3.3,0-5,0c-0.4,0-0.5-0.1-0.5-0.6c0-0.9,0-1.7,0-2.6c0-0.3,0.1-0.4,0.4-0.4c3.5,0,7,0,10.4,0
	c0.3,0,0.4,0.1,0.4,0.4c0,0.9,0,1.8,0,2.7c0,0.4-0.1,0.5-0.5,0.5C47.9,23.7,46.2,23.7,44.5,23.7z"/>
<path d="M40.4,12.7c0,0.4-0.1,0.8-0.4,1c-0.3,0.2-0.6,0.3-1.1,0.3h-1.3V9.5h2.5V10h-2v1.5h0.7c0.4,0,0.7,0,0.9,0.1
	c0.2,0.1,0.4,0.2,0.5,0.4C40.3,12.1,40.4,12.4,40.4,12.7z M38.1,13.5h0.7c0.4,0,0.6-0.1,0.8-0.2c0.2-0.1,0.3-0.4,0.3-0.7
	c0-0.3-0.1-0.5-0.3-0.6c-0.2-0.1-0.5-0.2-0.9-0.2h-0.6V13.5z"/>
<path d="M42.8,9.5h0.5V12c0,0.5,0,0.9,0,1.3h0l2.4-3.8h0.5V14h-0.5v-2.5c0-0.4,0-0.8,0.1-1.3h0L43.4,14h-0.5V9.5z"/>
<path d="M51.6,10.8c0,0.5-0.1,0.8-0.4,1.1c-0.3,0.2-0.7,0.4-1.3,0.4h-0.5V14h-0.5V9.5H50C51.1,9.5,51.6,9.9,51.6,10.8z M49.4,11.8
	h0.4c0.4,0,0.8-0.1,1-0.2c0.2-0.1,0.3-0.4,0.3-0.7c0-0.3-0.1-0.5-0.3-0.7C50.6,10,50.3,9.9,50,9.9h-0.6V11.8z"/>
<path d="M55.2,11.7l-1.7-2.2h0.6l1.7,2.2V9.5h0.5v2.2l1.7-2.2h0.6l-1.7,2.2l1.7,2.3h-0.6l-1.7-2.3V14h-0.5v-2.3L54,14h-0.6
	L55.2,11.7z"/>
<path d="M63.3,14l-0.5-1.4h-1.7L60.5,14H60l1.7-4.5h0.4l1.7,4.5H63.3z M62.6,12.1l-0.5-1.4c-0.1-0.2-0.1-0.4-0.2-0.6
	c0,0.2-0.1,0.4-0.2,0.6l-0.5,1.4H62.6z"/>
<path d="M72.2,13.3h-0.6l-2-2.3v2.3h-0.5V8.8h0.5V11l1.9-2.2h0.6L70.2,11L72.2,13.3z"/>
<path d="M77.9,11.7c0,0.7-0.2,1.3-0.5,1.7C77,13.8,76.5,14,75.9,14c-0.6,0-1.1-0.2-1.5-0.6c-0.3-0.4-0.5-1-0.5-1.7
	c0-0.7,0.2-1.3,0.5-1.7c0.3-0.4,0.8-0.6,1.5-0.6c0.6,0,1.1,0.2,1.4,0.6C77.7,10.4,77.9,11,77.9,11.7z M74.5,11.7
	c0,0.6,0.1,1.1,0.4,1.4c0.2,0.3,0.6,0.5,1.1,0.5c0.5,0,0.8-0.2,1.1-0.5c0.2-0.3,0.4-0.8,0.4-1.4c0-0.6-0.1-1.1-0.4-1.4
	c-0.2-0.3-0.6-0.5-1.1-0.5c-0.5,0-0.8,0.2-1.1,0.5C74.6,10.7,74.5,11.1,74.5,11.7z"/>
<path d="M83.6,14h-0.5v-2.1h-2.3V14h-0.5V9.5h0.5v1.9h2.3V9.5h0.5V14z"/>
<path d="M87.6,14h-0.5v-4h-1.4V9.5H89V10h-1.4V14z"/>
<path d="M93.5,14h-2.4V9.5h2.4V10h-1.9v1.5h1.8v0.5h-1.8v1.7h1.9V14z"/>
<path d="M99.3,14h-0.5v-2.1h-2.3V14H96V9.5h0.5v1.9h2.3V9.5h0.5V14z"/>
<path d="M103.3,14h-0.5v-4h-1.4V9.5h3.2V10h-1.4V14z"/>
<path d="M109.5,14l-0.5-1.4h-1.7l-0.5,1.4h-0.5l1.7-4.5h0.4L110,14H109.5z M108.8,12.1l-0.5-1.4c-0.1-0.2-0.1-0.4-0.2-0.6
	c0,0.2-0.1,0.4-0.2,0.6l-0.5,1.4H108.8z"/>
<polygon class="st3" points="73.9,29.1 69.9,24.4 73.9,19.6 72.8,18.5 68.9,23.2 65,18.6 63.9,19.6 68,24.4 64,29.2 65,30.2 
	68.9,25.5 72.9,30.2 "/>
<polygon class="st3" points="63.4,18.9 53.9,18.9 53.9,20.4 58,20.4 58,30 59.5,30 59.5,20.4 63.4,20.4 "/>
<g>
	<rect x="78.7" y="20.4" class="st3" width="1.5" height="9.6"/>
	<rect x="74.6" y="18.9" class="st3" width="9.5" height="1.5"/>
</g>
<path d="M84.9,27.7L84.9,27.7c-0.6,0-1.1,0.5-1.1,1.2l0,0c0,0.6,0.5,1.2,1.1,1.2l0,0c0.6,0,1.1-0.5,1.1-1.2l0,0
	C86,28.2,85.5,27.7,84.9,27.7z"/>
<path d="M102,18.9v7.6c0,1.3,1,2.3,2.2,2.3h1.9c1.2,0,2.2-1,2.2-2.3v-7.6h1.5v7.6c0,2.1-1.6,3.9-3.6,3.9h-1.9c-2,0-3.6-1.7-3.6-3.9
	v-7.6H102z"/>
<path d="M97.3,30.3l1.1-1L95,25.4h0.3c1.4,0,2.6-1.2,2.6-2.8v-0.9c0-1.5-1.2-2.8-2.6-2.8h-4.8H89v6.5V30h1.5v-4.6H93L97.3,30.3z
	 M90.5,20.4h4.8c0.6,0,1.2,0.6,1.2,1.2v0.9c0,0.7-0.5,1.2-1.2,1.2h-4.8V20.4z"/>
</svg>
