<?xml version="1.0" encoding="utf-8"?>
<!-- Generator: Adobe Illustrator 19.2.0, SVG Export Plug-In . SVG Version: 6.00 Build 0)  -->
<svg version="1.1" id="Layer_1" xmlns="http://www.w3.org/2000/svg" xmlns:xlink="http://www.w3.org/1999/xlink" x="0px" y="0px"
	 width="150px" height="73px" viewBox="0 0 150 73" style="enable-background:new 0 0 150 73;" xml:space="preserve">
<style type="text/css">
	.st0{fill:#46A6FA;}
	.st1{fill:#333C47;}
	.st2{fill:#CE0020;}
	.st3{fill:#636468;}
	.st4{fill:url(#SVGID_1_);}
	.st5{fill:#1E73B7;}
	.st6{fill:url(#SVGID_2_);}
	.st7{fill:#FFFFFF;}
	.st8{fill:#8BD5F5;}
	.st9{fill:#1C1C19;}
</style>
<path d="M36.1,62v-8.4h3.8c1,0,1.7,0.2,2.2,0.7c0.4,0.4,0.6,0.8,0.6,1.4c0,0.8-0.4,1.5-1.2,1.9c0.5,0.2,0.9,0.4,1.2,0.8
	c0.3,0.3,0.4,0.8,0.4,1.3c0,0.7-0.3,1.3-0.8,1.7C41.7,61.8,40.9,62,40,62H36.1z M37.5,60.7H40c0.5,0,0.9-0.1,1.2-0.3
	c0.3-0.2,0.4-0.5,0.4-0.9c0-0.4-0.1-0.6-0.4-0.8c-0.3-0.2-0.7-0.3-1.3-0.3h-2.3V60.7z M37.5,57.1h2c0.5,0,0.9-0.1,1.2-0.3
	c0.3-0.2,0.4-0.5,0.4-0.9c0-0.3-0.1-0.6-0.4-0.8c-0.3-0.2-0.6-0.3-1.1-0.3h-2.1V57.1z M44.2,58.9L44.2,58.9c0-0.6,0.1-1.2,0.4-1.7
	c0.3-0.5,0.7-0.9,1.2-1.2c0.5-0.3,1.1-0.5,1.7-0.5c0.6,0,1.1,0.1,1.5,0.3c0.4,0.2,0.8,0.5,1.1,0.8l-0.9,1c-0.2-0.3-0.5-0.5-0.8-0.6
	c-0.3-0.1-0.6-0.2-0.9-0.2c-0.5,0-1,0.2-1.3,0.6c-0.3,0.4-0.5,0.9-0.5,1.4v0c0,0.6,0.2,1.1,0.5,1.5c0.4,0.4,0.8,0.6,1.4,0.6
	c0.3,0,0.6-0.1,0.9-0.2c0.3-0.1,0.5-0.3,0.8-0.6l0.9,0.9c-0.3,0.4-0.7,0.7-1.1,0.9c-0.4,0.2-0.9,0.3-1.5,0.3c-0.6,0-1.2-0.1-1.7-0.4
	c-0.5-0.3-0.9-0.7-1.2-1.2C44.4,60,44.2,59.5,44.2,58.9z M51,58.8c0-0.6,0.1-1.2,0.4-1.7c0.3-0.5,0.6-0.9,1.1-1.2
	c0.5-0.3,1-0.4,1.6-0.4c0.4,0,0.8,0.1,1.1,0.2c0.3,0.1,0.6,0.3,0.8,0.5c0.2,0.2,0.4,0.5,0.6,0.8c0.2,0.3,0.3,0.6,0.4,0.9
	c0.1,0.3,0.1,0.7,0.1,1.1c0,0.2,0,0.3,0,0.4h-4.7c0.1,0.5,0.3,0.9,0.6,1.2c0.3,0.3,0.7,0.4,1.2,0.4c0.3,0,0.7-0.1,0.9-0.2
	c0.3-0.1,0.5-0.3,0.8-0.6l0.9,0.8c-0.7,0.8-1.5,1.2-2.6,1.2c-0.6,0-1.2-0.1-1.7-0.4c-0.5-0.3-0.9-0.7-1.2-1.2
	C51.2,60.1,51,59.5,51,58.8z M52.5,58.4h3.3c-0.1-0.5-0.2-0.9-0.5-1.2c-0.3-0.3-0.6-0.5-1.1-0.5c-0.4,0-0.8,0.2-1.1,0.5
	C52.7,57.5,52.5,57.9,52.5,58.4z M61.9,58.9L61.9,58.9c0-0.6,0.1-1.2,0.4-1.7c0.3-0.5,0.7-0.9,1.2-1.2c0.5-0.3,1.1-0.5,1.7-0.5
	c0.6,0,1.1,0.1,1.5,0.3c0.4,0.2,0.8,0.5,1.1,0.8l-0.9,1c-0.2-0.3-0.5-0.5-0.8-0.6c-0.3-0.1-0.6-0.2-0.9-0.2c-0.5,0-1,0.2-1.3,0.6
	c-0.3,0.4-0.5,0.9-0.5,1.4v0c0,0.6,0.2,1.1,0.5,1.5c0.4,0.4,0.8,0.6,1.4,0.6c0.3,0,0.6-0.1,0.9-0.2c0.3-0.1,0.5-0.3,0.8-0.6l0.9,0.9
	c-0.3,0.4-0.7,0.7-1.1,0.9c-0.4,0.2-0.9,0.3-1.5,0.3c-0.6,0-1.2-0.1-1.7-0.4c-0.5-0.3-0.9-0.7-1.2-1.2C62,60,61.9,59.5,61.9,58.9z
	 M69,62v-6.3h1.4v4.2c1.1-1.6,2.1-3,3-4.2h1.4V62h-1.4v-4.2l-3,4.2H69z M76.3,58.9L76.3,58.9c0-0.6,0.1-1.2,0.4-1.7
	c0.3-0.5,0.7-0.9,1.2-1.2c0.5-0.3,1.1-0.5,1.7-0.5c0.6,0,1.1,0.1,1.5,0.3c0.4,0.2,0.8,0.5,1.1,0.8l-0.9,1c-0.2-0.3-0.5-0.5-0.8-0.6
	c-0.3-0.1-0.6-0.2-0.9-0.2c-0.5,0-1,0.2-1.3,0.6c-0.3,0.4-0.5,0.9-0.5,1.4v0c0,0.6,0.2,1.1,0.5,1.5c0.4,0.4,0.8,0.6,1.4,0.6
	c0.3,0,0.6-0.1,0.9-0.2c0.3-0.1,0.5-0.3,0.8-0.6l0.9,0.9c-0.3,0.4-0.7,0.7-1.1,0.9c-0.4,0.2-0.9,0.3-1.5,0.3c-0.6,0-1.2-0.1-1.7-0.4
	c-0.5-0.3-0.9-0.7-1.2-1.2C76.4,60,76.3,59.5,76.3,58.9z M82.7,56.9v-1.2h5.5v1.2h-2V62h-1.5v-5.1H82.7z M89.1,58.8
	c0-0.6,0.1-1.2,0.4-1.7c0.3-0.5,0.6-0.9,1.1-1.2c0.5-0.3,1-0.4,1.6-0.4c0.4,0,0.8,0.1,1.1,0.2c0.3,0.1,0.6,0.3,0.8,0.5
	c0.2,0.2,0.4,0.5,0.6,0.8c0.2,0.3,0.3,0.6,0.4,0.9c0.1,0.3,0.1,0.7,0.1,1.1c0,0.2,0,0.3,0,0.4h-4.7c0.1,0.5,0.3,0.9,0.6,1.2
	c0.3,0.3,0.7,0.4,1.2,0.4c0.3,0,0.7-0.1,0.9-0.2c0.3-0.1,0.5-0.3,0.8-0.6l0.9,0.8c-0.7,0.8-1.5,1.2-2.6,1.2c-0.6,0-1.2-0.1-1.7-0.4
	c-0.5-0.3-0.9-0.7-1.2-1.2C89.2,60.1,89.1,59.5,89.1,58.8z M90.5,58.4h3.3c-0.1-0.5-0.2-0.9-0.5-1.2c-0.3-0.3-0.6-0.5-1.1-0.5
	c-0.4,0-0.8,0.2-1.1,0.5C90.8,57.5,90.6,57.9,90.5,58.4z M96.7,62v-6.3h1.4l2,2.9l2-2.9h1.4V62H102v-4.2l-2,2.8l-2-2.8V62H96.7z
	 M105.3,62v-6.3h1.4v2.2h1.3c0.5,0,0.9,0.1,1.3,0.2c0.4,0.1,0.7,0.4,0.9,0.7c0.2,0.3,0.3,0.7,0.3,1.1c0,0.7-0.2,1.2-0.7,1.5
	c-0.4,0.4-1,0.6-1.8,0.6H105.3z M106.8,60.8h1.2c0.4,0,0.7-0.1,0.8-0.2c0.2-0.2,0.3-0.4,0.3-0.7c0-0.3-0.1-0.5-0.3-0.7
	c-0.2-0.2-0.5-0.2-0.9-0.2h-1.2V60.8z M111.6,62v-6.3h1.5V62H111.6z"/>
<path class="st0" d="M96.2,33.7v2H95V30h2.2c0.4,0,0.8,0.1,1.1,0.2c0.3,0.2,0.6,0.4,0.7,0.7c0.2,0.3,0.3,0.6,0.3,1
	c0,0.6-0.2,1-0.6,1.3c-0.4,0.3-0.9,0.5-1.6,0.5H96.2z M96.2,32.7h1c0.3,0,0.5-0.1,0.7-0.2c0.2-0.1,0.2-0.4,0.2-0.6
	c0-0.3-0.1-0.5-0.2-0.7C97.8,31,97.5,31,97.2,31h-1.1V32.7z"/>
<path class="st0" d="M101.9,32.7l1-2.7h1.3l-2,4.7l-0.2,0.3c-0.3,0.5-0.7,0.8-1.3,0.8l-0.4,0l0-0.9c0.1,0,0.2,0,0.3,0
	c0.2,0,0.3,0,0.4-0.1c0.1-0.1,0.2-0.2,0.3-0.3l0.1-0.4l-2-4.1h1.3L101.9,32.7z"/>
<path class="st1" d="M106.4,33.4h-0.7v2.3h-1.2v-5.7h1.2v2.3h0.5l1.4-2.3h1.4l-1.8,2.7l1.9,3h-1.4L106.4,33.4z"/>
<path class="st1" d="M113.9,33.1c0,0.6-0.1,1.1-0.3,1.5c-0.2,0.4-0.5,0.7-0.9,1c-0.4,0.2-0.8,0.3-1.3,0.3c-0.5,0-0.9-0.1-1.3-0.3
	c-0.4-0.2-0.7-0.5-0.9-1c-0.2-0.4-0.3-0.9-0.3-1.5v-0.3c0-0.6,0.1-1.1,0.3-1.5c0.2-0.4,0.5-0.8,0.9-1c0.4-0.2,0.8-0.3,1.3-0.3
	c0.5,0,0.9,0.1,1.3,0.3c0.4,0.2,0.7,0.6,0.9,1c0.2,0.4,0.3,0.9,0.3,1.5V33.1z M112.7,32.8c0-0.6-0.1-1.1-0.3-1.4
	c-0.2-0.3-0.5-0.5-0.9-0.5c-0.4,0-0.7,0.2-0.9,0.5c-0.2,0.3-0.3,0.8-0.3,1.3v0.3c0,0.6,0.1,1,0.3,1.4c0.2,0.3,0.5,0.5,0.9,0.5
	c0.4,0,0.7-0.2,0.9-0.5c0.2-0.3,0.3-0.8,0.3-1.4V32.8z"/>
<path class="st1" d="M119,35.8h-1.2v-2.4h-2.3v2.4h-1.2v-5.7h1.2v2.3h2.3v-2.3h1.2V35.8z"/>
<path class="st1" d="M123.9,31h-1.7v4.7h-1.2V31h-1.7v-1h4.6V31z"/>
<path class="st1" d="M127.6,33.3h-2.2v1.5h2.6v0.9h-3.8v-5.7h3.8v1h-2.6v1.4h2.2V33.3z"/>
<path class="st1" d="M130.1,33.4h-0.7v2.3h-1.2v-5.7h1.2v2.3h0.5l1.4-2.3h1.4l-1.8,2.7l1.9,3h-1.4L130.1,33.4z"/>
<path class="st1" d="M137.4,33.9c0,0.6-0.3,1.1-0.7,1.4c-0.4,0.4-0.9,0.5-1.6,0.5c-0.7,0-1.3-0.2-1.7-0.7c-0.4-0.5-0.6-1.2-0.6-2
	v-0.3c0-0.5,0.1-1,0.3-1.4c0.2-0.4,0.5-0.7,0.8-1c0.4-0.2,0.8-0.3,1.2-0.3c0.7,0,1.2,0.2,1.6,0.5c0.4,0.4,0.6,0.8,0.7,1.5h-1.2
	c0-0.4-0.1-0.6-0.3-0.8c-0.2-0.2-0.4-0.3-0.8-0.3c-0.4,0-0.7,0.1-0.9,0.4c-0.2,0.3-0.3,0.7-0.3,1.3v0.4c0,0.6,0.1,1.1,0.3,1.3
	c0.2,0.3,0.5,0.4,0.9,0.4c0.4,0,0.6-0.1,0.8-0.2c0.2-0.2,0.3-0.4,0.3-0.8H137.4z"/>
<path class="st1" d="M142,31h-1.7v4.7h-1.2V31h-1.7v-1h4.6V31z"/>
<path class="st2" d="M73,28.5c2.7,0,5.3,0,7.9,0c0-0.3,0.1-0.5,0.1-0.7c0-5.9,0-11.8,0-17.7c0-0.4-0.2-0.9-0.5-1.2
	c-2.2-2.3-4.5-4.6-6.8-6.9C68.8,2,63.9,2,59,2c0,2.4,0,7.6,0,8.6h1.8c0-0.8,0-4.9,0-6.9c0.4,0,0.6,0,0.8,0c3.4,0,6.8,0,10.2,0
	c0.7,0,0.9,0.2,0.9,0.9c0,2,0,4,0,6H73v0.1c2.1,0,4.1,0,6.2,0c0,5.4,0,10.7,0,16c-2,0-4.1,0-6.2,0L73,28.5z M74.5,8.9
	c0-1.1,0-2.2,0-3.3c1.1,1.1,2.2,2.2,3.3,3.3C76.8,8.9,75.6,8.9,74.5,8.9z"/>
<path class="st3" d="M73.9,29.3V18.7c0-0.3,0-0.7,0-1c0-0.4-0.2-0.9-0.5-1.2c-2.1-2.2-4.2-4.3-6.4-6.4c-0.2-0.2-0.6-0.4-1-0.4h-9.2
	v0c-1.4,0-2.8,0-3.7,0c-0.3,0-0.6,0-1,0.1c0,0.3-0.1,0.4-0.1,0.5c0,8.3,0,16.7,0,25c0,0.7,0.3,0.8,0.9,0.8c6.7,0,13.4,0,20.1,0
	c0.7,0,0.9-0.2,0.9-0.9C73.8,33.7,73.9,31.1,73.9,29.3z M67.3,13c1.2,1.2,2.3,2.4,3.5,3.5c-1,0-2.1,0-3.2,0c-0.1,0-0.3-0.2-0.3-0.4
	C67.3,15.1,67.3,14.1,67.3,13z M71.4,34.4c-2.8,0-5.7,0-8.5,0c-2.8,0-5.6,0-8.4,0c-0.7,0-0.9-0.2-0.9-1c0-7.1,0-14.2,0-21.3
	c0-0.7,0.2-1,0.9-1c3.4,0,6.8,0,10.2,0c0.7,0,0.9,0.3,0.9,1c0,1.7,0,3.3,0,5c0,0.7,0.2,1,1,1c1.6-0.1,3.2,0,4.8,0
	c0.7,0,0.9,0.2,0.9,0.9c0,4.8,0,9.6,0,14.4C72.3,34.2,72.1,34.4,71.4,34.4z"/>
<linearGradient id="SVGID_1_" gradientUnits="userSpaceOnUse" x1="25" y1="73" x2="25" y2="29.0151" gradientTransform="matrix(1 0 0 -1 0 74)">
	<stop  offset="0" style="stop-color:#D7D7D7"/>
	<stop  offset="0.9987" style="stop-color:#BDBCBC"/>
	<stop  offset="1" style="stop-color:#BDBCBC"/>
</linearGradient>
<path class="st4" d="M24.6,1c-3.4,0.1-8.5,0.5-13.4,2.3C11.1,3.4,11,3.6,11,3.8c0,5.9,1,16,1.7,19.3c0,0,0,0,0,0
	c2.4,8.6,10.8,12.4,12.1,12.9c0.1,0,0.2,0,0.3,0c1.3-0.6,9.7-4.3,12.1-12.9c0,0,0,0,0,0C38,19.8,39,9.3,39,3.8
	c0-0.2-0.1-0.4-0.3-0.5C33.9,1.5,28.8,1.1,25.4,1c-0.1,0-0.2,0-0.4,0C24.9,1,24.7,1,24.6,1z"/>
<path class="st5" d="M25.2,34.5c1.3-0.6,8.8-4.1,10.9-11.8c0,0,0,0,0,0c0.6-3,1.5-12.5,1.6-17.7c0-0.2-0.1-0.4-0.3-0.5
	c-4.3-1.6-9.4-2-12.2-2h-0.2c-1.6,0-7.9,0.4-12.2,2c-0.2,0.1-0.3,0.3-0.3,0.5c0,5,1,14.6,1.6,17.7c0,0,0,0,0,0
	c2.1,7.8,9.5,11.3,10.9,11.8C24.9,34.5,25.1,34.5,25.2,34.5z"/>
<linearGradient id="SVGID_2_" gradientUnits="userSpaceOnUse" x1="24.8517" y1="71.3406" x2="26.6688" y2="45.3976" gradientTransform="matrix(1 0 0 -1 0 74)">
	<stop  offset="0" style="stop-color:#60BCEC"/>
	<stop  offset="1" style="stop-color:#1E73B7"/>
</linearGradient>
<path class="st6" d="M24.9,2.7c-1.6,0-7.8,0.4-12,2c-0.2,0.1-0.3,0.2-0.3,0.4c0.1,1.3,4,7.7,9.3,12c5.7,4.7,13.2,5.6,13.7,5.6
	c0.2,0,0.4-0.1,0.4-0.3c0.6-2.9,1.4-12.2,1.5-17.3c0-0.2-0.1-0.4-0.3-0.5c-4.2-1.6-9.2-2-12-2L24.9,2.7z"/>
<path class="st7" d="M29.7,7c0.6-0.1,1.1-0.1,1.6,0c0.5,0.1,1,0.3,1.4,0.6c0.4,0.3,0.8,0.7,1.1,1.1s0.5,0.9,0.6,1.5
	c0.1,0.6,0.1,1.1,0,1.6c-0.1,0.5-0.3,1-0.6,1.4c-0.3,0.4-0.7,0.8-1.1,1.1c-0.5,0.3-0.9,0.5-1.5,0.6c-0.7,0.1-1.4,0.1-2.1-0.2
	c-0.7-0.2-1.3-0.7-1.7-1.2c-0.5-0.6-0.8-1.2-0.9-1.9c-0.1-0.6-0.1-1.1,0-1.6c0.1-0.5,0.3-1,0.6-1.4c0.3-0.4,0.7-0.8,1.1-1.1
	C28.7,7.3,29.2,7.1,29.7,7z M29.9,7.7c-0.6,0.1-1.1,0.3-1.6,0.7c-0.5,0.4-0.8,0.9-1,1.4C27,10.4,27,11,27.1,11.6
	c0.1,0.8,0.5,1.5,1.2,2c0.1,0.1,0.2,0.2,0.4,0.3c0.7,0.5,1.5,0.6,2.4,0.5c0.6-0.1,1.1-0.4,1.6-0.7c0.5-0.4,0.8-0.9,1-1.4
	c0.2-0.6,0.3-1.2,0.1-1.8c-0.1-0.5-0.2-0.9-0.5-1.3c-0.2-0.4-0.6-0.7-0.9-0.9C32,8,31.6,7.8,31.2,7.7C30.8,7.6,30.3,7.6,29.9,7.7z
	 M32.1,10.1l-0.2,0c-0.1,0-0.2,0-0.3-0.1c-0.2-0.4-0.6-0.6-1.1-0.7c-0.3,0-0.5,0.1-0.7,0.2c-0.2,0.1-0.4,0.3-0.5,0.6
	c-0.1,0.3-0.2,0.6-0.2,0.9c0,0.5,0.1,0.9,0.4,1.2c0.2,0.3,0.6,0.5,1,0.5c0.3,0,0.6-0.1,0.8-0.2c0.2-0.1,0.3-0.3,0.4-0.6
	c0-0.1,0.2-0.2,0.3-0.1l0.2,0.1c0.1,0,0.2,0.2,0.1,0.3c-0.1,0.2-0.2,0.4-0.3,0.6c-0.2,0.2-0.4,0.4-0.7,0.5c-0.3,0.1-0.6,0.2-0.9,0.2
	c-0.4,0-0.8-0.1-1.1-0.3c-0.3-0.2-0.6-0.5-0.7-0.8c-0.2-0.4-0.3-0.8-0.2-1.3c0-0.3,0-0.6,0.2-0.9c0.1-0.3,0.2-0.5,0.4-0.7
	c0.2-0.2,0.4-0.4,0.7-0.5c0.3-0.1,0.6-0.1,0.9-0.1c0.5,0,0.8,0.1,1.2,0.4c0.2,0.2,0.4,0.4,0.6,0.7C32.3,9.9,32.2,10.1,32.1,10.1z"/>
<path class="st8" d="M133.1,1h-30.7C97.2,1,93,5.5,93,11l0,0c0,5.5,4.2,10,9.4,10h30.7c5.2,0,9.4-4.5,9.4-10l0,0
	C142.5,5.5,138.3,1,133.1,1z"/>
<path class="st9" d="M101.9,9.9c1,0,2,0,3,0c0.5,0,0.7,0.2,0.7,0.8c0,0.7,0,1.4,0,2c0,0.6-0.2,0.8-0.7,0.8c-0.4,0-0.9,0-1.3,0
	c-1.6,0-3.1,0-4.7,0c-0.7,0-0.9-0.2-0.9-0.9c0-0.6,0-1.3,0-1.9c0-0.6,0.2-0.8,0.8-0.8C99.9,9.9,100.9,9.9,101.9,9.9z"/>
<path class="st9" d="M101.9,16c-1.1,0-2.2,0-3.3,0c-0.4,0-0.5-0.1-0.5-0.4c0-0.3,0.2-0.4,0.5-0.4c2.2,0,4.4,0,6.6,0
	c0.3,0,0.5,0.2,0.5,0.4c0,0.3-0.2,0.4-0.5,0.4C104.1,16,103,16,101.9,16z"/>
<path class="st9" d="M99.8,14.8c-0.4,0-0.8,0-1.3,0c-0.3,0-0.4-0.1-0.4-0.4c0-0.3,0.2-0.4,0.4-0.4c0.8,0,1.7,0,2.5,0
	c0.3,0,0.4,0.1,0.4,0.4c0,0.3-0.2,0.4-0.4,0.4C100.6,14.8,100.2,14.8,99.8,14.8z"/>
<path class="st8" d="M101.9,12.7c-0.9,0-1.8,0-2.7,0c-0.2,0-0.3-0.1-0.3-0.3c0-0.5,0-0.9,0-1.4c0-0.2,0-0.2,0.2-0.2
	c1.9,0,3.8,0,5.6,0c0.2,0,0.2,0.1,0.2,0.2c0,0.5,0,1,0,1.4c0,0.2-0.1,0.3-0.3,0.3C103.7,12.7,102.8,12.7,101.9,12.7z"/>
<path d="M99.7,6.8c0,0.2-0.1,0.4-0.2,0.5c-0.1,0.1-0.3,0.2-0.6,0.2h-0.7V5h1.4v0.3h-1.1v0.8h0.4c0.2,0,0.4,0,0.5,0.1
	c0.1,0,0.2,0.1,0.3,0.2C99.7,6.5,99.7,6.6,99.7,6.8z M98.5,7.2h0.4c0.2,0,0.3,0,0.4-0.1c0.1-0.1,0.1-0.2,0.1-0.4
	c0-0.2,0-0.3-0.1-0.3c-0.1-0.1-0.3-0.1-0.5-0.1h-0.3V7.2z"/>
<path d="M101,5h0.3v1.4c0,0.2,0,0.5,0,0.7h0l1.3-2h0.3v2.4h-0.3V6.1c0-0.2,0-0.5,0-0.7h0l-1.3,2H101V5z"/>
<path d="M105.7,5.7c0,0.2-0.1,0.4-0.2,0.6c-0.2,0.1-0.4,0.2-0.7,0.2h-0.3v1h-0.3V5h0.6C105.5,5,105.7,5.3,105.7,5.7z M104.5,6.3h0.2
	c0.2,0,0.4,0,0.5-0.1c0.1-0.1,0.2-0.2,0.2-0.4c0-0.2-0.1-0.3-0.2-0.4c-0.1-0.1-0.3-0.1-0.5-0.1h-0.3V6.3z"/>
<path d="M107.7,6.2L106.8,5h0.3l0.9,1.2V5h0.3v1.2l0.9-1.2h0.3l-0.9,1.2l0.9,1.3h-0.3l-0.9-1.2v1.2H108V6.2L107,7.5h-0.3L107.7,6.2z
	"/>
<path d="M112.1,7.5l-0.3-0.8h-0.9l-0.3,0.8h-0.3l0.9-2.4h0.2l0.9,2.4H112.1z M111.7,6.4l-0.3-0.8c0-0.1-0.1-0.2-0.1-0.4
	c0,0.1-0.1,0.2-0.1,0.4l-0.3,0.8H111.7z"/>
<path d="M116.8,7.1h-0.3l-1.1-1.2v1.2h-0.3V4.7h0.3v1.2l1-1.2h0.3l-1,1.2L116.8,7.1z"/>
<path d="M119.9,6.3c0,0.4-0.1,0.7-0.3,0.9c-0.2,0.2-0.4,0.3-0.8,0.3c-0.3,0-0.6-0.1-0.8-0.3c-0.2-0.2-0.3-0.5-0.3-0.9
	c0-0.4,0.1-0.7,0.3-0.9c0.2-0.2,0.4-0.3,0.8-0.3c0.3,0,0.6,0.1,0.8,0.3C119.8,5.6,119.9,5.9,119.9,6.3z M118.1,6.3
	c0,0.3,0.1,0.6,0.2,0.7c0.1,0.2,0.3,0.3,0.6,0.3c0.3,0,0.5-0.1,0.6-0.3c0.1-0.2,0.2-0.4,0.2-0.7c0-0.3-0.1-0.6-0.2-0.7
	c-0.1-0.2-0.3-0.3-0.6-0.3c-0.3,0-0.5,0.1-0.6,0.3C118.2,5.7,118.1,5.9,118.1,6.3z"/>
<path d="M123,7.5h-0.3V6.3h-1.2v1.1h-0.3V5h0.3v1h1.2V5h0.3V7.5z"/>
<path d="M125.2,7.5h-0.3V5.3h-0.7V5h1.7v0.3h-0.7V7.5z"/>
<path d="M128.4,7.5h-1.3V5h1.3v0.3h-1v0.8h1v0.2h-1v0.9h1V7.5z"/>
<path d="M131.5,7.5h-0.3V6.3H130v1.1h-0.3V5h0.3v1h1.2V5h0.3V7.5z"/>
<path d="M133.6,7.5h-0.3V5.3h-0.7V5h1.7v0.3h-0.7V7.5z"/>
<path d="M137,7.5l-0.3-0.8h-0.9l-0.3,0.8h-0.3l0.9-2.4h0.2l0.9,2.4H137z M136.6,6.4l-0.3-0.8c0-0.1-0.1-0.2-0.1-0.4
	c0,0.1-0.1,0.2-0.1,0.4l-0.3,0.8H136.6z"/>
<polygon class="st7" points="117.8,15.6 115.6,13.1 117.8,10.5 117.2,9.9 115.1,12.4 113,9.9 112.4,10.5 114.6,13.1 112.4,15.7 
	113,16.2 115.1,13.7 117.2,16.2 "/>
<g>
	<rect x="109.2" y="10.9" class="st7" width="0.8" height="5.2"/>
	<rect x="107" y="10.1" class="st7" width="5.1" height="0.8"/>
</g>
<g>
	<rect x="120.4" y="10.9" class="st7" width="0.8" height="5.2"/>
	<rect x="118.2" y="10.1" class="st7" width="5.1" height="0.8"/>
</g>
<path d="M123.7,14.9L123.7,14.9c-0.3,0-0.6,0.3-0.6,0.6l0,0c0,0.3,0.3,0.6,0.6,0.6h0c0.3,0,0.6-0.3,0.6-0.6l0,0
	C124.3,15.1,124,14.9,123.7,14.9z"/>
<path d="M132.9,10.1v4.1c0,0.7,0.5,1.3,1.2,1.3h1c0.7,0,1.2-0.6,1.2-1.3v-4.1h0.8v4.1c0,1.2-0.9,2.1-2,2.1h-1c-1.1,0-2-0.9-2-2.1
	v-4.1H132.9z"/>
<path d="M130.4,16.3l0.6-0.6l-1.8-2.1h0.1c0.8,0,1.4-0.7,1.4-1.5v-0.5c0-0.8-0.6-1.5-1.4-1.5h-2.6v0h-0.8v0v3.5v2.5h0.8v-2.5h1.4
	L130.4,16.3z M126.7,11h2.6c0.3,0,0.6,0.3,0.6,0.7v0.5c0,0.4-0.3,0.7-0.6,0.7h-2.6V11z"/>
</svg>
