<?xml version="1.0" encoding="utf-8"?>
<!-- Generator: Adobe Illustrator 19.2.0, SVG Export Plug-In . SVG Version: 6.00 Build 0)  -->
<svg version="1.1" id="Layer_1" xmlns="http://www.w3.org/2000/svg" xmlns:xlink="http://www.w3.org/1999/xlink" x="0px" y="0px"
	 width="150px" height="73px" viewBox="0 0 150 73" style="enable-background:new 0 0 150 73;" xml:space="preserve">
<style type="text/css">
	.st0{fill:#FFFFFF;}
	.st1{fill:#46A6FA;}
	.st2{fill:#333C47;}
	.st3{fill:#CE0020;}
	.st4{fill:#636468;}
</style>
<path class="st0" d="M70,11h71c2.2,0,4,1.8,4,4v12c0,2.2-1.8,4-4,4H70c-2.2,0-4-1.8-4-4V15C66,12.8,67.8,11,70,11z"/>
<path class="st1" d="M74.7,22.3v2.9H73V17h3.2c0.6,0,1.1,0.1,1.6,0.3c0.5,0.2,0.8,0.5,1.1,1c0.2,0.4,0.4,0.9,0.4,1.4
	c0,0.8-0.3,1.4-0.8,1.9c-0.5,0.5-1.3,0.7-2.3,0.7H74.7z M74.7,20.9h1.5c0.4,0,0.8-0.1,1-0.3c0.2-0.2,0.4-0.5,0.4-0.9
	c0-0.4-0.1-0.7-0.4-1c-0.2-0.2-0.6-0.4-1-0.4h-1.5V20.9z"/>
<path class="st1" d="M82.9,20.8l1.5-3.8h1.8l-2.8,6.7l-0.2,0.4c-0.4,0.7-1.1,1.1-1.9,1.1l-0.6,0l0-1.3c0.1,0,0.2,0,0.4,0
	c0.2,0,0.4,0,0.6-0.1c0.1-0.1,0.3-0.2,0.4-0.5l0.2-0.5L79.3,17h1.8L82.9,20.8z"/>
<path class="st2" d="M89.3,21.9h-1v3.3h-1.7v-8.1h1.7v3.2h0.8l2-3.2h2L90.6,21l2.8,4.3h-2L89.3,21.9z"/>
<path class="st2" d="M100,21.4c0,0.8-0.1,1.5-0.4,2.1c-0.3,0.6-0.7,1.1-1.2,1.4c-0.5,0.3-1.1,0.5-1.8,0.5c-0.7,0-1.3-0.2-1.8-0.5
	c-0.5-0.3-0.9-0.8-1.2-1.4c-0.3-0.6-0.4-1.3-0.4-2.1V21c0-0.8,0.1-1.5,0.4-2.1c0.3-0.6,0.7-1.1,1.2-1.4c0.5-0.3,1.1-0.5,1.8-0.5
	c0.7,0,1.3,0.2,1.8,0.5c0.5,0.3,0.9,0.8,1.2,1.4c0.3,0.6,0.4,1.3,0.4,2.1V21.4z M98.3,21c0-0.9-0.2-1.5-0.5-1.9s-0.7-0.7-1.3-0.7
	c-0.6,0-1,0.2-1.3,0.7c-0.3,0.4-0.5,1.1-0.5,1.9v0.4c0,0.8,0.2,1.5,0.5,1.9c0.3,0.5,0.7,0.7,1.3,0.7c0.6,0,1-0.2,1.3-0.7
	c0.3-0.4,0.5-1.1,0.5-1.9V21z"/>
<path class="st2" d="M107.2,25.2h-1.7v-3.5h-3.3v3.5h-1.7v-8.1h1.7v3.3h3.3v-3.3h1.7V25.2z"/>
<path class="st2" d="M114.1,18.5h-2.5v6.8H110v-6.8h-2.4v-1.4h6.6V18.5z"/>
<path class="st2" d="M119.4,21.7h-3.2v2.2h3.8v1.3h-5.4v-8.1h5.4v1.4h-3.8v1.9h3.2V21.7z"/>
<path class="st2" d="M123.1,21.9h-1v3.3h-1.7v-8.1h1.7v3.2h0.8l2-3.2h2l-2.5,3.8l2.8,4.3h-2L123.1,21.9z"/>
<path class="st2" d="M133.5,22.5c-0.1,0.9-0.4,1.6-1,2.1c-0.6,0.5-1.3,0.8-2.3,0.8c-1,0-1.9-0.3-2.5-1c-0.6-0.7-0.9-1.7-0.9-2.9
	v-0.5c0-0.8,0.1-1.5,0.4-2.1c0.3-0.6,0.7-1,1.2-1.4c0.5-0.3,1.1-0.5,1.8-0.5c0.9,0,1.7,0.3,2.3,0.8c0.6,0.5,0.9,1.2,1,2.1h-1.7
	c0-0.5-0.2-0.9-0.4-1.1c-0.2-0.2-0.6-0.4-1.1-0.4c-0.6,0-1,0.2-1.3,0.6c-0.3,0.4-0.4,1-0.4,1.9v0.6c0,0.9,0.1,1.5,0.4,1.9
	c0.3,0.4,0.7,0.6,1.3,0.6c0.5,0,0.9-0.1,1.2-0.4c0.3-0.2,0.4-0.6,0.4-1.1H133.5z"/>
<path class="st2" d="M140,18.5h-2.5v6.8h-1.7v-6.8h-2.4v-1.4h6.6V18.5z"/>
<path class="st3" d="M17.6,54.8l0.9-1.1c0.4,0.4,0.8,0.6,1.3,0.8c0.4,0.2,0.9,0.3,1.4,0.3c0.5,0,0.8-0.1,1.1-0.3
	c0.3-0.2,0.4-0.5,0.4-0.8c0-0.2,0-0.4-0.1-0.5c-0.1-0.1-0.3-0.3-0.6-0.4c-0.3-0.1-0.7-0.3-1.2-0.4c-0.5-0.1-0.9-0.2-1.2-0.4
	c-0.3-0.1-0.6-0.3-0.9-0.5c-0.3-0.2-0.4-0.4-0.6-0.7c-0.1-0.3-0.2-0.6-0.2-1c0-0.7,0.3-1.3,0.8-1.8c0.5-0.5,1.2-0.7,2.1-0.7
	c1.2,0,2.2,0.4,3,1.1L23,49.7c-0.8-0.6-1.5-0.9-2.3-0.9c-0.4,0-0.8,0.1-1,0.3s-0.4,0.4-0.4,0.7c0,0.2,0.1,0.4,0.2,0.6
	c0.1,0.1,0.3,0.3,0.6,0.4c0.3,0.1,0.7,0.2,1.2,0.4c0.9,0.2,1.6,0.5,2.1,0.9c0.4,0.4,0.7,0.9,0.7,1.6c0,0.8-0.3,1.4-0.8,1.8
	c-0.6,0.4-1.3,0.7-2.2,0.7C19.7,56.1,18.6,55.7,17.6,54.8z M25.1,50.9v-1.2h0.8v-1.7h1.5v1.7h1.7v1.2h-1.7V54c0,0.5,0.3,0.8,0.8,0.8
	c0.3,0,0.6-0.1,0.9-0.2v1.2c-0.4,0.2-0.8,0.3-1.3,0.3c-1.2,0-1.8-0.6-1.8-1.9v-3.3H25.1z M30.6,56v-6.3H32v1.4
	c0.2-0.5,0.5-0.9,0.9-1.2c0.3-0.3,0.8-0.4,1.2-0.4c0,0,0.1,0,0.1,0v1.5h-0.1c-0.7,0-1.2,0.2-1.6,0.6c-0.4,0.4-0.6,1-0.6,1.9V56H30.6
	z M35.5,48.7v-1.4h1.6v1.4H35.5z M35.6,56v-6.3H37V56H35.6z M38.9,56v-8.8h1.4v5.2l2.6-2.8h1.8l-2.5,2.6l2.6,3.8h-1.7l-1.9-2.7
	l-0.9,0.9V56H38.9z M45.3,52.8c0-0.6,0.1-1.2,0.4-1.7c0.3-0.5,0.6-0.9,1.1-1.2c0.5-0.3,1-0.4,1.6-0.4c0.4,0,0.8,0.1,1.1,0.2
	c0.3,0.1,0.6,0.3,0.8,0.5c0.2,0.2,0.4,0.5,0.6,0.8c0.2,0.3,0.3,0.6,0.4,0.9c0.1,0.3,0.1,0.7,0.1,1.1c0,0.2,0,0.3,0,0.4h-4.7
	c0.1,0.5,0.3,0.9,0.6,1.2c0.3,0.3,0.7,0.4,1.2,0.4c0.3,0,0.7-0.1,0.9-0.2c0.3-0.1,0.5-0.3,0.8-0.6l0.9,0.8c-0.7,0.8-1.5,1.2-2.6,1.2
	c-0.6,0-1.2-0.1-1.7-0.4c-0.5-0.3-0.9-0.7-1.2-1.2C45.4,54.1,45.3,53.5,45.3,52.8z M46.7,52.4H50c-0.1-0.5-0.2-0.9-0.5-1.2
	c-0.3-0.3-0.6-0.5-1.1-0.5c-0.4,0-0.8,0.2-1.1,0.5C47,51.5,46.8,51.9,46.7,52.4z"/>
<path d="M4.2,69v-8.4h3.3c1,0,1.8,0.3,2.3,0.8c0.6,0.5,0.9,1.2,0.9,2.1c0,0.6-0.2,1.1-0.5,1.6c-0.3,0.4-0.7,0.8-1.2,1
	c-0.5,0.2-1.1,0.3-1.7,0.3H5.7V69H4.2z M5.7,65h1.7c0.6,0,1-0.1,1.3-0.4c0.3-0.3,0.5-0.7,0.5-1.1c0-0.5-0.2-0.9-0.5-1.1
	c-0.3-0.3-0.8-0.4-1.3-0.4H5.7V65z M12.1,69v-8.8h1.5V69H12.1z M15,67.2c0-0.7,0.2-1.2,0.7-1.5c0.5-0.4,1.1-0.5,1.9-0.5
	c0.6,0,1.2,0.1,1.8,0.3v-0.1c0-0.4-0.1-0.8-0.4-1c-0.3-0.2-0.7-0.4-1.2-0.4c-0.6,0-1.2,0.1-1.8,0.4l-0.4-1.2
	c0.4-0.2,0.8-0.3,1.1-0.4c0.4-0.1,0.8-0.1,1.3-0.1c0.9,0,1.6,0.2,2.1,0.7c0.5,0.5,0.7,1.1,0.7,2V69h-1.4v-0.8
	c-0.5,0.6-1.2,0.9-2.1,0.9c-0.4,0-0.8-0.1-1.1-0.2c-0.3-0.1-0.6-0.4-0.8-0.7C15.1,67.9,15,67.6,15,67.2z M16.5,67.1
	c0,0.3,0.1,0.5,0.3,0.7C17,68,17.3,68,17.7,68c0.5,0,0.9-0.1,1.2-0.4c0.3-0.2,0.5-0.6,0.5-1v-0.4c-0.4-0.2-0.9-0.3-1.5-0.3
	c-0.5,0-0.8,0.1-1.1,0.3C16.6,66.5,16.5,66.8,16.5,67.1z M22.2,65.5c0-0.5,0.1-0.9,0.2-1.2c0.2-0.4,0.4-0.7,0.7-0.9
	c0.3-0.2,0.6-0.4,0.9-0.6c0.3-0.1,0.7-0.2,1.1-0.2c0.5,0,0.9,0.1,1.3,0.3c0.4,0.2,0.7,0.5,1,0.8v-0.9h1.5v5c0,1.1-0.3,1.8-0.8,2.4
	c-0.6,0.6-1.4,0.9-2.6,0.9c-1.1,0-2-0.3-2.8-0.8l0.5-1.1c0.7,0.4,1.5,0.7,2.3,0.7c0.6,0,1.1-0.2,1.5-0.5c0.3-0.3,0.5-0.8,0.5-1.4
	v-0.5c-0.3,0.4-0.6,0.7-1,0.9c-0.4,0.2-0.8,0.3-1.3,0.3c-0.4,0-0.7-0.1-1.1-0.2c-0.3-0.1-0.7-0.3-0.9-0.6c-0.3-0.2-0.5-0.6-0.6-0.9
	C22.3,66.4,22.2,66,22.2,65.5z M23.6,65.5c0,0.5,0.2,0.9,0.5,1.3c0.3,0.3,0.8,0.5,1.3,0.5c0.5,0,1-0.2,1.3-0.5
	c0.4-0.3,0.5-0.8,0.5-1.3c0-0.5-0.2-0.9-0.5-1.3c-0.4-0.3-0.8-0.5-1.3-0.5c-0.5,0-0.9,0.2-1.3,0.5C23.8,64.6,23.6,65,23.6,65.5z
	 M30.6,61.7v-1.4h1.6v1.4H30.6z M30.6,69v-6.3h1.5V69H30.6z M33.5,67.2c0-0.7,0.2-1.2,0.7-1.5c0.5-0.4,1.1-0.5,1.9-0.5
	c0.6,0,1.2,0.1,1.8,0.3v-0.1c0-0.4-0.1-0.8-0.4-1c-0.3-0.2-0.7-0.4-1.2-0.4c-0.6,0-1.2,0.1-1.8,0.4l-0.4-1.2
	c0.4-0.2,0.8-0.3,1.1-0.4c0.4-0.1,0.8-0.1,1.3-0.1c0.9,0,1.6,0.2,2.1,0.7c0.5,0.5,0.7,1.1,0.7,2V69h-1.4v-0.8
	c-0.5,0.6-1.2,0.9-2.1,0.9c-0.4,0-0.8-0.1-1.1-0.2c-0.3-0.1-0.6-0.4-0.8-0.7C33.7,67.9,33.5,67.6,33.5,67.2z M35,67.1
	c0,0.3,0.1,0.5,0.3,0.7c0.2,0.2,0.5,0.3,0.9,0.3c0.5,0,0.9-0.1,1.2-0.4c0.3-0.2,0.5-0.6,0.5-1v-0.4c-0.4-0.2-0.9-0.3-1.5-0.3
	c-0.5,0-0.8,0.1-1.1,0.3C35.1,66.5,35,66.8,35,67.1z M41,69v-6.3h1.4v1.4c0.2-0.5,0.5-0.9,0.9-1.2c0.3-0.3,0.8-0.4,1.2-0.4
	c0,0,0.1,0,0.1,0v1.5h-0.1c-0.7,0-1.2,0.2-1.6,0.6c-0.4,0.4-0.6,1-0.6,1.9V69H41z M46,61.7v-1.4h1.6v1.4H46z M46.1,69v-6.3h1.5V69
	H46.1z M48.9,68.2l0.6-1c0.7,0.5,1.4,0.8,2.1,0.8c0.3,0,0.5-0.1,0.7-0.2c0.2-0.1,0.3-0.3,0.3-0.5c0-0.1,0-0.2-0.1-0.2
	c0-0.1-0.1-0.1-0.2-0.2c-0.1-0.1-0.2-0.1-0.3-0.1c-0.1-0.1-0.2-0.1-0.3-0.1c-0.1,0-0.2-0.1-0.4-0.1c0,0,0,0-0.1,0l-0.1,0
	c-0.2-0.1-0.4-0.1-0.6-0.2c-0.2-0.1-0.3-0.1-0.5-0.2c-0.2-0.1-0.3-0.2-0.5-0.3c-0.1-0.1-0.2-0.3-0.3-0.5c-0.1-0.2-0.1-0.4-0.1-0.7
	c0-0.6,0.2-1.1,0.6-1.4c0.4-0.4,1-0.5,1.6-0.5c0.4,0,0.8,0.1,1.2,0.2c0.4,0.1,0.8,0.3,1.1,0.5l-0.6,1c-0.7-0.4-1.3-0.6-1.8-0.6
	c-0.3,0-0.5,0.1-0.7,0.2c-0.2,0.1-0.2,0.3-0.2,0.5c0,0.1,0,0.1,0,0.2c0,0.1,0.1,0.1,0.1,0.2c0.1,0.1,0.1,0.1,0.2,0.1
	c0.1,0,0.2,0.1,0.3,0.1c0.1,0,0.2,0.1,0.3,0.1c0.1,0,0.2,0.1,0.3,0.1c0,0,0,0,0.1,0c0,0,0.1,0,0.1,0c0.2,0.1,0.4,0.1,0.6,0.2
	c0.2,0.1,0.3,0.1,0.5,0.3c0.2,0.1,0.3,0.2,0.5,0.3c0.1,0.1,0.2,0.3,0.3,0.5s0.1,0.4,0.1,0.6c0,0.6-0.2,1.1-0.7,1.5
	c-0.4,0.3-1,0.5-1.7,0.5c-0.5,0-0.9-0.1-1.4-0.2C49.7,68.7,49.3,68.5,48.9,68.2z M55.4,69v-6.3h1.4v1c0.2-0.3,0.5-0.6,0.8-0.8
	c0.3-0.2,0.7-0.3,1.1-0.3c0.4,0,0.8,0.1,1.1,0.3c0.3,0.2,0.6,0.5,0.7,0.8c0.6-0.7,1.3-1.1,2.1-1.1c0.7,0,1.2,0.2,1.6,0.6
	c0.4,0.4,0.6,1,0.6,1.8v4h-1.5v-3.6c0-0.5-0.1-0.9-0.3-1.1c-0.2-0.3-0.5-0.4-0.9-0.4c-0.4,0-0.7,0.1-1,0.4c-0.2,0.3-0.4,0.7-0.4,1.2
	V69h-1.5v-3.6c0-0.5-0.1-0.9-0.3-1.1c-0.2-0.3-0.5-0.4-0.9-0.4c-0.4,0-0.7,0.1-1,0.4c-0.2,0.3-0.4,0.7-0.4,1.2V69H55.4z"/>
<path d="M74.1,62v-8.4h3.3c1,0,1.8,0.3,2.3,0.8c0.6,0.5,0.9,1.2,0.9,2.1c0,0.6-0.2,1.1-0.5,1.6c-0.3,0.4-0.7,0.8-1.2,1
	c-0.5,0.2-1.1,0.3-1.7,0.3h-1.7V62H74.1z M75.6,58h1.7c0.6,0,1-0.1,1.3-0.4c0.3-0.3,0.5-0.7,0.5-1.1c0-0.5-0.2-0.9-0.5-1.1
	c-0.3-0.3-0.8-0.4-1.3-0.4h-1.7V58z M81.3,55.7h1.5l1.8,4.7l1.6-4.7h1.5l-2.5,6.5c-0.3,0.6-0.5,1.1-0.9,1.4
	c-0.3,0.3-0.7,0.4-1.2,0.4c-0.5,0-1-0.1-1.5-0.4l0.5-1.1c0.3,0.2,0.6,0.2,0.8,0.2c0.2,0,0.4-0.1,0.5-0.2c0.1-0.1,0.3-0.3,0.4-0.6
	L81.3,55.7z M89.1,62v-6.3h1.4v3l2.8-3H95l-2.5,2.7l2.7,3.7h-1.7l-1.9-2.6l-1,1.1V62H89.1z M95.8,58.8c0-0.6,0.1-1.1,0.4-1.7
	c0.3-0.5,0.7-0.9,1.2-1.2c0.5-0.3,1.1-0.5,1.7-0.5c0.6,0,1.2,0.1,1.7,0.4c0.5,0.3,0.9,0.7,1.2,1.2c0.3,0.5,0.4,1.1,0.4,1.7
	c0,0.4-0.1,0.9-0.3,1.3c-0.2,0.4-0.4,0.8-0.7,1.1c-0.3,0.3-0.7,0.5-1.1,0.7s-0.9,0.3-1.4,0.3c-0.6,0-1.2-0.1-1.7-0.4
	c-0.5-0.3-0.9-0.7-1.2-1.2C96,60,95.8,59.4,95.8,58.8z M97.3,58.8c0,0.6,0.2,1,0.6,1.4c0.4,0.4,0.8,0.6,1.4,0.6c0.6,0,1-0.2,1.4-0.6
	c0.4-0.4,0.5-0.9,0.5-1.5c0-0.6-0.2-1-0.6-1.4c-0.4-0.4-0.8-0.6-1.4-0.6c-0.6,0-1,0.2-1.4,0.6C97.5,57.8,97.3,58.3,97.3,58.8z
	 M104.1,62v-6.3h1.4v2.6h2.8v-2.6h1.4V62h-1.4v-2.6h-2.8V62H104.1z M110.9,56.9v-1.2h5.5v1.2h-2V62H113v-5.1H110.9z M117.3,58.8
	c0-0.6,0.1-1.2,0.4-1.7c0.3-0.5,0.6-0.9,1.1-1.2c0.5-0.3,1-0.4,1.6-0.4c0.4,0,0.8,0.1,1.1,0.2c0.3,0.1,0.6,0.3,0.9,0.5
	c0.2,0.2,0.4,0.5,0.6,0.8c0.2,0.3,0.3,0.6,0.4,0.9c0.1,0.3,0.1,0.7,0.1,1.1c0,0.2,0,0.3,0,0.4h-4.7c0.1,0.5,0.3,0.9,0.6,1.2
	c0.3,0.3,0.7,0.4,1.2,0.4c0.3,0,0.7-0.1,0.9-0.2c0.3-0.1,0.5-0.3,0.8-0.6l0.9,0.8c-0.7,0.8-1.5,1.2-2.6,1.2c-0.6,0-1.2-0.1-1.7-0.4
	c-0.5-0.3-0.9-0.7-1.2-1.2C117.4,60.1,117.3,59.5,117.3,58.8z M118.7,58.4h3.3c-0.1-0.5-0.2-0.9-0.5-1.2c-0.3-0.3-0.6-0.5-1.1-0.5
	c-0.4,0-0.8,0.2-1.1,0.5C119,57.5,118.8,57.9,118.7,58.4z M124.9,62v-6.3h1.4v3l2.8-3h1.7l-2.5,2.7L131,62h-1.7l-1.9-2.6l-1,1.1V62
	H124.9z M131.6,58.9L131.6,58.9c0-0.6,0.1-1.2,0.4-1.7c0.3-0.5,0.7-0.9,1.2-1.2c0.5-0.3,1.1-0.5,1.7-0.5c0.6,0,1.1,0.1,1.5,0.3
	c0.4,0.2,0.8,0.5,1.1,0.8l-0.9,1c-0.2-0.3-0.5-0.5-0.8-0.6c-0.3-0.1-0.6-0.2-0.9-0.2c-0.5,0-1,0.2-1.3,0.6c-0.3,0.4-0.5,0.9-0.5,1.4
	v0c0,0.6,0.2,1.1,0.5,1.5c0.4,0.4,0.8,0.6,1.4,0.6c0.3,0,0.6-0.1,0.9-0.2c0.3-0.1,0.5-0.3,0.8-0.6l0.9,0.9c-0.3,0.4-0.7,0.7-1.1,0.9
	c-0.4,0.2-0.9,0.3-1.5,0.3c-0.6,0-1.2-0.1-1.7-0.4c-0.5-0.3-0.9-0.7-1.2-1.2C131.8,60,131.6,59.5,131.6,58.9z M138.1,56.9v-1.2h5.5
	v1.2h-2V62h-1.5v-5.1H138.1z"/>
<path class="st3" d="M43.7,32c3,0,5.9,0,8.8,0c0-0.3,0.1-0.6,0.1-0.8c0-6.6,0-13.2,0-19.7c0-0.4-0.3-1-0.6-1.3
	c-2.5-2.6-5.1-5.1-7.6-7.7c-5.4,0-10.9,0-16.3,0c0,2.7,0,8.5,0,9.6h2c0-0.9,0-5.4,0-7.7c0.4,0,0.7,0,0.9,0c3.8,0,7.6,0,11.4,0
	c0.8,0,1,0.2,1,1c0,2.2,0,4.4,0,6.7h0.3v0.1c2.4,0,4.6,0,7,0c0,6,0,11.9,0,17.8c-2.3,0-4.5,0-6.9,0L43.7,32z M45.3,10.2
	c0-1.3,0-2.5,0-3.7c1.2,1.3,2.5,2.5,3.6,3.7C47.9,10.2,46.6,10.2,45.3,10.2z"/>
<path class="st4" d="M44.6,32.9V21.1c0-0.4,0-0.7,0-1.1c0-0.4-0.2-1-0.5-1.3c-2.3-2.4-4.7-4.8-7.1-7.1c-0.3-0.3-0.7-0.4-1.1-0.5
	H25.6v0c-1.5,0-3.2,0-4.2,0c-0.4,0-0.7,0-1.1,0.1c0,0.3-0.1,0.4-0.1,0.6c0,9.3,0,18.6,0,27.9c0,0.8,0.4,0.9,1,0.9
	c7.5,0,14.9,0,22.4,0c0.8,0,1-0.2,1-1C44.6,37.8,44.6,34.9,44.6,32.9z M37.3,14.8c1.3,1.4,2.6,2.6,3.9,4c-1.1,0-2.3,0-3.5,0
	c-0.1,0-0.3-0.3-0.3-0.4C37.3,17.1,37.3,15.9,37.3,14.8z M41.9,38.6c-3.2,0-6.3,0-9.5,0c-3.1,0-6.3,0-9.4,0c-0.8,0-1-0.3-1-1.1
	c0-7.9,0-15.8,0-23.7c0-0.8,0.2-1.1,1-1.1c3.8,0,7.6,0,11.4,0c0.8,0,1,0.3,1,1.1c0,1.9,0,3.7,0,5.6c0,0.8,0.2,1.1,1.1,1.1
	c1.8-0.1,3.5,0,5.3,0c0.7,0,1,0.2,1,1c0,5.4,0,10.7,0,16.1C42.9,38.3,42.6,38.6,41.9,38.6z"/>
</svg>
