<?xml version="1.0" encoding="utf-8"?>
<!-- Generator: Adobe Illustrator 19.2.0, SVG Export Plug-In . SVG Version: 6.00 Build 0)  -->
<svg version="1.1" id="Layer_1" xmlns="http://www.w3.org/2000/svg" xmlns:xlink="http://www.w3.org/1999/xlink" x="0px" y="0px"
	 width="266px" height="50px" viewBox="0 0 266 50" style="enable-background:new 0 0 266 50;" xml:space="preserve">
<style type="text/css">
	.st0{fill:#CE0020;}
	.st1{fill:#636468;}
	.st2{fill:#46A6FA;}
	.st3{fill:#333C47;}
</style>
<path class="st0" d="M245.5,35.1c2.7,0,5.4,0,8.1,0c0-0.3,0.1-0.5,0.1-0.7c0-6,0-12.1,0-18.1c0-0.4-0.2-0.9-0.5-1.2
	c-2.3-2.4-4.6-4.7-7-7c-5,0-10,0-15,0c0,2.5,0,7.8,0,8.9h1.8c0-0.8,0-5,0-7.1c0.4,0,0.6,0,0.8,0c3.5,0,7,0,10.5,0
	c0.7,0,0.9,0.2,0.9,0.9c0,2,0,4.1,0,6.2h0.3v0.1c2.2,0,4.2,0,6.4,0c0,5.5,0,10.9,0,16.4c-2.1,0-4.2,0-6.3,0L245.5,35.1z M247,15.1
	c0-1.2,0-2.3,0-3.4c1.1,1.2,2.3,2.3,3.3,3.4C249.4,15.1,248.2,15.1,247,15.1z"/>
<path class="st1" d="M246.4,36V25.1c0-0.3,0-0.7,0-1c0-0.4-0.2-0.9-0.5-1.2c-2.2-2.2-4.3-4.4-6.6-6.5c-0.2-0.2-0.7-0.4-1-0.4h-9.4v0
	c-1.4,0-2.9,0-3.8,0c-0.3,0-0.7,0-1,0.1c0,0.3-0.1,0.4-0.1,0.6c0,8.5,0,17.1,0,25.6c0,0.7,0.3,0.8,0.9,0.8c6.8,0,13.7,0,20.6,0
	c0.7,0,0.9-0.2,0.9-0.9C246.4,40.5,246.4,37.8,246.4,36z M239.6,19.3c1.2,1.3,2.4,2.4,3.6,3.6c-1,0-2.1,0-3.3,0
	c-0.1,0-0.3-0.2-0.3-0.4C239.6,21.5,239.6,20.4,239.6,19.3z M243.9,41.2c-2.9,0-5.8,0-8.7,0c-2.9,0-5.7,0-8.6,0
	c-0.7,0-0.9-0.2-0.9-1c0-7.3,0-14.5,0-21.8c0-0.7,0.2-1,1-1c3.5,0,7,0,10.5,0c0.8,0,1,0.3,1,1c0,1.7,0,3.4,0,5.1c0,0.7,0.2,1,1,1
	c1.6-0.1,3.2,0,4.9,0c0.7,0,0.9,0.2,0.9,0.9c0,4.9,0,9.9,0,14.8C244.8,40.9,244.6,41.2,243.9,41.2z"/>
<path class="st2" d="M138.7,26.3v2.9H137V21h3.2c0.6,0,1.1,0.1,1.6,0.3c0.5,0.2,0.8,0.5,1.1,1c0.2,0.4,0.4,0.9,0.4,1.4
	c0,0.8-0.3,1.4-0.8,1.9c-0.5,0.5-1.3,0.7-2.3,0.7H138.7z M138.7,24.9h1.5c0.4,0,0.8-0.1,1-0.3c0.2-0.2,0.4-0.5,0.4-0.9
	c0-0.4-0.1-0.7-0.4-1c-0.2-0.2-0.6-0.4-1-0.4h-1.5V24.9z"/>
<path class="st2" d="M146.9,24.8l1.5-3.8h1.8l-2.8,6.7l-0.2,0.4c-0.4,0.7-1.1,1.1-1.9,1.1l-0.6,0l0-1.3c0.1,0,0.2,0,0.4,0
	c0.2,0,0.4,0,0.6-0.1c0.1-0.1,0.3-0.2,0.4-0.5l0.2-0.5l-2.8-5.8h1.8L146.9,24.8z"/>
<path class="st3" d="M153.3,25.9h-1v3.3h-1.7v-8.1h1.7v3.2h0.8l2-3.2h2l-2.5,3.8l2.8,4.3h-2L153.3,25.9z"/>
<path class="st3" d="M164,25.4c0,0.8-0.1,1.5-0.4,2.1c-0.3,0.6-0.7,1.1-1.2,1.4c-0.5,0.3-1.1,0.5-1.8,0.5c-0.7,0-1.3-0.2-1.8-0.5
	c-0.5-0.3-0.9-0.8-1.2-1.4c-0.3-0.6-0.4-1.3-0.4-2.1V25c0-0.8,0.1-1.5,0.4-2.1c0.3-0.6,0.7-1.1,1.2-1.4c0.5-0.3,1.1-0.5,1.8-0.5
	c0.7,0,1.3,0.2,1.8,0.5c0.5,0.3,0.9,0.8,1.2,1.4c0.3,0.6,0.4,1.3,0.4,2.1V25.4z M162.3,25c0-0.9-0.2-1.5-0.5-1.9s-0.7-0.7-1.3-0.7
	c-0.6,0-1,0.2-1.3,0.7c-0.3,0.4-0.5,1.1-0.5,1.9v0.4c0,0.8,0.2,1.5,0.5,1.9c0.3,0.5,0.7,0.7,1.3,0.7c0.6,0,1-0.2,1.3-0.7
	c0.3-0.4,0.5-1.1,0.5-1.9V25z"/>
<path class="st3" d="M171.2,29.2h-1.7v-3.5h-3.3v3.5h-1.7v-8.1h1.7v3.3h3.3v-3.3h1.7V29.2z"/>
<path class="st3" d="M178.1,22.5h-2.5v6.8H174v-6.8h-2.4v-1.4h6.6V22.5z"/>
<path class="st3" d="M183.4,25.7h-3.2v2.2h3.8v1.3h-5.4v-8.1h5.4v1.4h-3.8v1.9h3.2V25.7z"/>
<path class="st3" d="M187.1,25.9h-1v3.3h-1.7v-8.1h1.7v3.2h0.8l2-3.2h2l-2.5,3.8l2.8,4.3h-2L187.1,25.9z"/>
<path class="st3" d="M197.5,26.5c-0.1,0.9-0.4,1.6-1,2.1c-0.6,0.5-1.3,0.8-2.3,0.8c-1,0-1.9-0.3-2.5-1c-0.6-0.7-0.9-1.7-0.9-2.9
	v-0.5c0-0.8,0.1-1.5,0.4-2.1c0.3-0.6,0.7-1,1.2-1.4c0.5-0.3,1.1-0.5,1.8-0.5c0.9,0,1.7,0.3,2.3,0.8c0.6,0.5,0.9,1.2,1,2.1h-1.7
	c0-0.5-0.2-0.9-0.4-1.1c-0.2-0.2-0.6-0.4-1.1-0.4c-0.6,0-1,0.2-1.3,0.6c-0.3,0.4-0.4,1-0.4,1.9v0.6c0,0.9,0.1,1.5,0.4,1.9
	c0.3,0.4,0.7,0.6,1.3,0.6c0.5,0,0.9-0.1,1.2-0.4c0.3-0.2,0.4-0.6,0.4-1.1H197.5z"/>
<path class="st3" d="M204,22.5h-2.5v6.8h-1.7v-6.8h-2.4v-1.4h6.6V22.5z"/>
<path class="st0" d="M7.6,19.6l1-1.2c0.5,0.4,1,0.7,1.5,1c0.5,0.2,1,0.3,1.6,0.3c0.5,0,1-0.1,1.3-0.3c0.3-0.2,0.5-0.5,0.5-0.9
	c0-0.2-0.1-0.4-0.2-0.6c-0.1-0.2-0.3-0.3-0.7-0.5c-0.3-0.2-0.8-0.3-1.4-0.4c-0.6-0.1-1-0.3-1.4-0.4c-0.4-0.1-0.7-0.3-1-0.6
	c-0.3-0.2-0.5-0.5-0.7-0.8C8.1,14.7,8,14.4,8,13.9c0-0.8,0.3-1.5,0.9-2.1c0.6-0.5,1.4-0.8,2.4-0.8c1.4,0,2.5,0.4,3.6,1.2L14,13.6
	c-0.9-0.7-1.8-1-2.7-1c-0.5,0-0.9,0.1-1.2,0.3c-0.3,0.2-0.4,0.5-0.4,0.9c0,0.3,0.1,0.5,0.2,0.6c0.1,0.2,0.4,0.3,0.7,0.5
	c0.3,0.1,0.8,0.3,1.4,0.4c1.1,0.3,1.9,0.6,2.4,1.1c0.5,0.4,0.8,1,0.8,1.8c0,0.9-0.3,1.6-1,2.1c-0.6,0.5-1.5,0.8-2.5,0.8
	C10.1,21.1,8.8,20.6,7.6,19.6z M16.4,15.1v-1.5h0.9v-2h1.7v2h2v1.5h-2v3.6c0,0.6,0.3,0.9,0.9,0.9c0.4,0,0.7-0.1,1-0.3v1.4
	c-0.4,0.3-0.9,0.4-1.5,0.4c-1.4,0-2.1-0.7-2.1-2.2v-3.9H16.4z M22.8,21v-7.4h1.7v1.7c0.2-0.6,0.6-1,1-1.4c0.4-0.3,0.9-0.4,1.4-0.4
	c0,0,0.1,0,0.1,0v1.8H27c-0.8,0-1.4,0.3-1.8,0.8c-0.5,0.5-0.7,1.2-0.7,2.2V21H22.8z M28.6,12.5v-1.6h1.8v1.6H28.6z M28.6,21v-7.4
	h1.7V21H28.6z M32.6,21V10.8h1.7v6.1l3.1-3.3h2.1l-2.9,3l3,4.4h-2l-2.2-3.2l-1,1.1V21H32.6z M39.9,17.3c0-0.7,0.2-1.3,0.5-1.9
	c0.3-0.6,0.7-1.1,1.3-1.4c0.6-0.3,1.2-0.5,1.9-0.5c0.5,0,0.9,0.1,1.3,0.2c0.4,0.1,0.7,0.3,1,0.6c0.3,0.2,0.5,0.5,0.7,0.9
	c0.2,0.3,0.3,0.7,0.4,1.1c0.1,0.4,0.1,0.8,0.1,1.2c0,0.2,0,0.4,0,0.5h-5.4c0.1,0.6,0.3,1.1,0.7,1.4c0.4,0.3,0.9,0.5,1.4,0.5
	c0.4,0,0.8-0.1,1.1-0.2c0.3-0.1,0.6-0.4,0.9-0.7l1,0.9c-0.8,0.9-1.8,1.4-3,1.4c-0.7,0-1.4-0.2-1.9-0.5c-0.6-0.3-1-0.8-1.4-1.4
	C40.1,18.7,39.9,18.1,39.9,17.3z M41.6,16.8h3.8c-0.1-0.6-0.3-1-0.6-1.4c-0.3-0.4-0.8-0.5-1.3-0.5c-0.5,0-0.9,0.2-1.3,0.5
	C41.9,15.7,41.7,16.2,41.6,16.8z"/>
<path d="M53.2,21v-9.8h3.9c1.1,0,2,0.3,2.7,0.9c0.7,0.6,1,1.4,1,2.4c0,0.7-0.2,1.3-0.5,1.8c-0.4,0.5-0.8,0.9-1.4,1.1
	c-0.6,0.2-1.2,0.4-2,0.4h-1.9V21H53.2z M54.9,16.3h2c0.6,0,1.2-0.2,1.5-0.5c0.4-0.3,0.6-0.8,0.6-1.3c0-0.6-0.2-1-0.6-1.3
	c-0.4-0.3-0.9-0.5-1.5-0.5h-2V16.3z M62.4,21V10.8h1.7V21H62.4z M65.8,18.8c0-0.8,0.3-1.4,0.8-1.8c0.6-0.4,1.3-0.6,2.2-0.6
	c0.7,0,1.4,0.1,2,0.3v-0.1c0-0.5-0.2-0.9-0.5-1.2c-0.3-0.3-0.8-0.4-1.3-0.4c-0.7,0-1.4,0.2-2.1,0.5l-0.5-1.4
	c0.5-0.2,0.9-0.4,1.3-0.5c0.4-0.1,0.9-0.2,1.5-0.2c1.1,0,1.9,0.3,2.4,0.8c0.5,0.5,0.8,1.3,0.8,2.3V21h-1.7v-0.9
	c-0.6,0.7-1.4,1.1-2.4,1.1c-0.5,0-0.9-0.1-1.3-0.3c-0.4-0.2-0.7-0.4-1-0.8C66,19.8,65.8,19.3,65.8,18.8z M67.5,18.8
	c0,0.3,0.1,0.6,0.4,0.8c0.3,0.2,0.6,0.3,1,0.3c0.6,0,1-0.1,1.4-0.4c0.4-0.3,0.6-0.7,0.6-1.1v-0.4c-0.5-0.2-1.1-0.3-1.7-0.3
	c-0.5,0-0.9,0.1-1.2,0.3C67.7,18.1,67.5,18.4,67.5,18.8z M74.2,16.9c0-0.5,0.1-1,0.3-1.5c0.2-0.4,0.4-0.8,0.8-1.1
	c0.3-0.3,0.7-0.5,1.1-0.7s0.8-0.2,1.3-0.2c0.6,0,1.1,0.1,1.5,0.3c0.4,0.2,0.8,0.5,1.1,0.9v-1.1h1.7v5.9c0,1.2-0.3,2.2-0.9,2.8
	c-0.7,0.7-1.7,1-3,1c-1.2,0-2.3-0.3-3.3-0.9l0.6-1.3c0.8,0.5,1.7,0.8,2.6,0.8c0.8,0,1.3-0.2,1.7-0.6c0.4-0.4,0.6-1,0.6-1.7v-0.6
	c-0.3,0.4-0.7,0.8-1.1,1c-0.4,0.2-0.9,0.3-1.5,0.3c-0.4,0-0.9-0.1-1.3-0.2c-0.4-0.2-0.8-0.4-1.1-0.7c-0.3-0.3-0.6-0.7-0.8-1.1
	C74.3,17.9,74.2,17.5,74.2,16.9z M75.9,16.9c0,0.6,0.2,1.1,0.6,1.5c0.4,0.4,0.9,0.6,1.5,0.6c0.6,0,1.1-0.2,1.5-0.6
	c0.4-0.4,0.6-0.9,0.6-1.5s-0.2-1.1-0.6-1.5c-0.4-0.4-0.9-0.6-1.5-0.6c-0.6,0-1.1,0.2-1.5,0.6C76.1,15.8,75.9,16.3,75.9,16.9z
	 M84,12.5v-1.6h1.8v1.6H84z M84,21v-7.4h1.7V21H84z M87.4,18.8c0-0.8,0.3-1.4,0.8-1.8c0.6-0.4,1.3-0.6,2.2-0.6c0.7,0,1.4,0.1,2,0.3
	v-0.1c0-0.5-0.2-0.9-0.5-1.2c-0.3-0.3-0.8-0.4-1.3-0.4c-0.7,0-1.4,0.2-2.1,0.5l-0.5-1.4c0.5-0.2,0.9-0.4,1.3-0.5
	c0.4-0.1,0.9-0.2,1.5-0.2c1.1,0,1.9,0.3,2.4,0.8c0.5,0.5,0.8,1.3,0.8,2.3V21h-1.7v-0.9c-0.6,0.7-1.4,1.1-2.4,1.1
	c-0.5,0-0.9-0.1-1.3-0.3c-0.4-0.2-0.7-0.4-1-0.8C87.6,19.8,87.4,19.3,87.4,18.8z M89.1,18.8c0,0.3,0.1,0.6,0.4,0.8
	c0.3,0.2,0.6,0.3,1,0.3c0.6,0,1-0.1,1.4-0.4c0.4-0.3,0.6-0.7,0.6-1.1v-0.4c-0.5-0.2-1.1-0.3-1.7-0.3c-0.5,0-0.9,0.1-1.2,0.3
	C89.3,18.1,89.1,18.4,89.1,18.8z M96.2,21v-7.4h1.7v1.7c0.2-0.6,0.6-1,1-1.4c0.4-0.3,0.9-0.4,1.4-0.4c0,0,0.1,0,0.1,0v1.8h-0.1
	c-0.8,0-1.4,0.3-1.8,0.8c-0.5,0.5-0.7,1.2-0.7,2.2V21H96.2z M102,12.5v-1.6h1.8v1.6H102z M102,21v-7.4h1.7V21H102z M105.4,20
	l0.8-1.1c0.8,0.6,1.6,0.9,2.4,0.9c0.4,0,0.6-0.1,0.8-0.2c0.2-0.1,0.3-0.3,0.3-0.6c0-0.1,0-0.2-0.1-0.3c-0.1-0.1-0.1-0.2-0.2-0.2
	c-0.1-0.1-0.2-0.1-0.3-0.2c-0.1-0.1-0.3-0.1-0.4-0.2c-0.1,0-0.3-0.1-0.5-0.1c0,0-0.1,0-0.1,0l-0.1,0c-0.3-0.1-0.5-0.1-0.7-0.2
	c-0.2-0.1-0.4-0.2-0.6-0.3c-0.2-0.1-0.4-0.3-0.5-0.4c-0.1-0.1-0.3-0.3-0.3-0.6c-0.1-0.2-0.1-0.5-0.1-0.8c0-0.7,0.2-1.2,0.7-1.6
	c0.5-0.4,1.1-0.6,1.9-0.6c0.5,0,0.9,0.1,1.4,0.2c0.5,0.1,0.9,0.4,1.3,0.6l-0.7,1.2c-0.8-0.5-1.5-0.7-2.1-0.7c-0.3,0-0.6,0.1-0.8,0.2
	c-0.2,0.1-0.3,0.3-0.3,0.6c0,0.1,0,0.2,0,0.2c0,0.1,0.1,0.1,0.2,0.2c0.1,0.1,0.2,0.1,0.2,0.2c0.1,0,0.2,0.1,0.3,0.2
	c0.2,0.1,0.3,0.1,0.3,0.1c0.1,0,0.2,0.1,0.4,0.1c0,0,0,0,0.1,0c0,0,0.1,0,0.1,0c0.3,0.1,0.5,0.2,0.7,0.2c0.2,0.1,0.4,0.2,0.6,0.3
	c0.2,0.1,0.4,0.3,0.5,0.4c0.1,0.1,0.3,0.3,0.3,0.5c0.1,0.2,0.1,0.5,0.1,0.7c0,0.7-0.3,1.3-0.8,1.7c-0.5,0.4-1.2,0.6-2,0.6
	c-0.5,0-1.1-0.1-1.6-0.3C106.3,20.7,105.8,20.4,105.4,20z M113,21v-7.4h1.7v1.1c0.3-0.4,0.6-0.7,0.9-0.9c0.4-0.2,0.8-0.3,1.3-0.3
	c0.5,0,1,0.1,1.3,0.3c0.4,0.2,0.7,0.6,0.9,1c0.7-0.9,1.5-1.3,2.5-1.3c0.8,0,1.4,0.2,1.9,0.7c0.5,0.5,0.7,1.2,0.7,2.1V21h-1.7v-4.2
	c0-0.6-0.1-1-0.4-1.3c-0.3-0.3-0.6-0.5-1.1-0.5c-0.5,0-0.9,0.2-1.1,0.5c-0.3,0.3-0.4,0.8-0.4,1.4V21h-1.7v-4.2c0-0.6-0.1-1-0.4-1.3
	c-0.3-0.3-0.6-0.5-1.1-0.5c-0.5,0-0.9,0.2-1.1,0.5c-0.3,0.3-0.4,0.8-0.4,1.4V21H113z"/>
<path d="M8.3,39v-9.8h3.9c1.1,0,2,0.3,2.7,0.9c0.7,0.6,1,1.4,1,2.4c0,0.7-0.2,1.3-0.5,1.8c-0.4,0.5-0.8,0.9-1.4,1.1
	c-0.6,0.2-1.2,0.4-2,0.4H10V39H8.3z M10,34.3h2c0.6,0,1.2-0.2,1.5-0.5c0.4-0.3,0.6-0.8,0.6-1.3c0-0.6-0.2-1-0.6-1.3
	c-0.4-0.3-0.9-0.5-1.5-0.5h-2V34.3z M16.7,31.6h1.8l2.1,5.5l1.9-5.5h1.8l-2.9,7.6c-0.3,0.8-0.6,1.3-1,1.6c-0.4,0.3-0.8,0.5-1.4,0.5
	c-0.6,0-1.2-0.2-1.8-0.5l0.6-1.3c0.3,0.2,0.7,0.3,1,0.3c0.2,0,0.4-0.1,0.6-0.2c0.2-0.1,0.3-0.3,0.5-0.7L16.7,31.6z M25.8,39v-7.4
	h1.7v3.5l3.2-3.5h2l-2.9,3.1l3.1,4.3h-2l-2.2-3l-1.2,1.3V39H25.8z M33.6,35.3c0-0.7,0.2-1.3,0.5-1.9c0.3-0.6,0.8-1.1,1.4-1.4
	c0.6-0.4,1.3-0.5,2-0.5c0.7,0,1.4,0.2,2,0.5c0.6,0.3,1.1,0.8,1.4,1.4c0.3,0.6,0.5,1.2,0.5,1.9c0,0.5-0.1,1-0.3,1.5
	c-0.2,0.5-0.5,0.9-0.8,1.2c-0.3,0.3-0.8,0.6-1.3,0.8c-0.5,0.2-1,0.3-1.6,0.3c-0.7,0-1.4-0.2-2-0.5c-0.6-0.3-1.1-0.8-1.4-1.4
	C33.8,36.7,33.6,36,33.6,35.3z M35.3,35.3c0,0.7,0.2,1.2,0.6,1.7c0.4,0.5,1,0.7,1.6,0.7c0.7,0,1.2-0.2,1.6-0.7
	c0.4-0.5,0.6-1,0.6-1.7c0-0.7-0.2-1.2-0.6-1.7c-0.4-0.5-1-0.7-1.6-0.7c-0.7,0-1.2,0.2-1.6,0.7C35.5,34.1,35.3,34.6,35.3,35.3z
	 M43.3,39v-7.4h1.7v3h3.3v-3h1.7V39h-1.7v-3h-3.3v3H43.3z M51.2,33.1v-1.5h6.5v1.5h-2.4V39h-1.7v-5.9H51.2z M58.6,35.3
	c0-0.7,0.2-1.3,0.5-1.9c0.3-0.6,0.7-1.1,1.3-1.4c0.6-0.3,1.2-0.5,1.9-0.5c0.5,0,0.9,0.1,1.3,0.2c0.4,0.1,0.7,0.3,1,0.6
	c0.3,0.2,0.5,0.5,0.7,0.9c0.2,0.3,0.3,0.7,0.4,1.1c0.1,0.4,0.1,0.8,0.1,1.2c0,0.2,0,0.4,0,0.5h-5.4c0.1,0.6,0.3,1.1,0.7,1.4
	c0.4,0.3,0.9,0.5,1.4,0.5c0.4,0,0.8-0.1,1.1-0.2c0.3-0.1,0.6-0.4,0.9-0.7l1,0.9c-0.8,0.9-1.8,1.4-3,1.4c-0.7,0-1.4-0.2-1.9-0.5
	c-0.6-0.3-1-0.8-1.4-1.4C58.8,36.7,58.6,36.1,58.6,35.3z M60.3,34.8h3.8c-0.1-0.6-0.3-1-0.6-1.4c-0.3-0.4-0.8-0.5-1.3-0.5
	c-0.5,0-0.9,0.2-1.3,0.5C60.6,33.7,60.4,34.2,60.3,34.8z M67.5,39v-7.4h1.7v3.5l3.2-3.5h2l-2.9,3.1l3.1,4.3h-2l-2.2-3l-1.2,1.3V39
	H67.5z M75.4,35.3L75.4,35.3c0-0.7,0.2-1.4,0.5-1.9c0.3-0.6,0.8-1.1,1.4-1.4c0.6-0.4,1.2-0.5,2-0.5c0.7,0,1.2,0.1,1.7,0.3
	c0.5,0.2,0.9,0.5,1.3,0.9l-1.1,1.1c-0.3-0.3-0.6-0.5-0.9-0.7c-0.3-0.2-0.6-0.2-1-0.2c-0.6,0-1.1,0.2-1.5,0.7c-0.4,0.5-0.6,1-0.6,1.7
	v0c0,0.7,0.2,1.2,0.6,1.7c0.4,0.5,1,0.7,1.6,0.7c0.4,0,0.7-0.1,1-0.2c0.3-0.2,0.6-0.4,0.9-0.7l1,1c-0.4,0.5-0.8,0.8-1.3,1
	c-0.5,0.2-1,0.4-1.7,0.4c-0.7,0-1.4-0.2-2-0.5c-0.6-0.3-1-0.8-1.4-1.4C75.6,36.7,75.4,36,75.4,35.3z M82.9,33.1v-1.5h6.5v1.5H87V39
	h-1.7v-5.9H82.9z"/>
</svg>
