<?xml version="1.0" encoding="utf-8"?>
<!-- Generator: Adobe Illustrator 19.2.0, SVG Export Plug-In . SVG Version: 6.00 Build 0)  -->
<svg version="1.1" id="Layer_1" xmlns="http://www.w3.org/2000/svg" xmlns:xlink="http://www.w3.org/1999/xlink" x="0px" y="0px"
	 width="266px" height="50px" viewBox="0 0 266 50" style="enable-background:new 0 0 266 50;" xml:space="preserve">
<style type="text/css">
	.st0{fill:#8BD5F5;}
	.st1{fill:#1C1C19;}
	.st2{fill:#FFFFFF;}
	.st3{fill:#1E73B7;}
</style>
<path class="st0" d="M240.6,13h-36.4C198,13,193,18.3,193,24.9l0,0c0,6.6,5,11.9,11.2,11.9h36.4c6.2,0,11.2-5.3,11.2-11.9l0,0
	C251.7,18.3,246.7,13,240.6,13z"/>
<path class="st1" d="M203.6,23.6c1.2,0,2.4,0,3.6,0c0.6,0,0.9,0.3,0.9,0.9c0,0.8,0,1.6,0,2.4c0,0.7-0.2,0.9-0.9,1c-0.5,0-1,0-1.5,0
	c-1.9,0-3.7,0-5.6,0c-0.8,0-1-0.2-1-1.1c0-0.8,0-1.5,0-2.2c0-0.7,0.2-1,0.9-1C201.2,23.6,202.4,23.6,203.6,23.6z"/>
<path class="st1" d="M203.6,30.8c-1.3,0-2.6,0-3.9,0c-0.4,0-0.6-0.1-0.6-0.5c0-0.3,0.2-0.5,0.6-0.5c2.6,0,5.2,0,7.9,0
	c0.4,0,0.6,0.2,0.6,0.5c0,0.3-0.2,0.5-0.6,0.5C206.2,30.8,204.9,30.8,203.6,30.8z"/>
<path class="st1" d="M201.1,29.4c-0.5,0-1,0-1.5,0c-0.3,0-0.5-0.1-0.5-0.5c0-0.4,0.2-0.5,0.5-0.5c1,0,2,0,3,0c0.3,0,0.5,0.1,0.5,0.5
	c0,0.4-0.2,0.5-0.5,0.5C202.1,29.4,201.6,29.4,201.1,29.4z"/>
<path class="st0" d="M203.6,26.9c-1.1,0-2.1,0-3.2,0c-0.3,0-0.3-0.1-0.3-0.4c0-0.6,0-1.1,0-1.7c0-0.2,0.1-0.3,0.2-0.3
	c2.2,0,4.5,0,6.7,0c0.2,0,0.2,0.1,0.2,0.3c0,0.6,0,1.1,0,1.7c0,0.3-0.1,0.3-0.3,0.3C205.7,26.9,204.6,26.9,203.6,26.9z"/>
<path class="st0" d="M234.7,24.6c0.4,0,0.9,0,1.3,0c0.5,0,0.8,0.3,0.8,0.8c0,0.3,0,0.5,0,0.8c-0.1,0.4-0.4,0.7-0.7,0.7
	c-0.9,0-1.9,0-2.8,0c-0.2,0-0.3-0.1-0.3-0.3c0-0.6,0-1.1,0-1.7c0-0.2,0.1-0.3,0.3-0.3C233.8,24.6,234.3,24.6,234.7,24.6z"/>
<path d="M200.9,19.8c0,0.3-0.1,0.5-0.2,0.6c-0.2,0.1-0.4,0.2-0.7,0.2h-0.8v-2.9h1.6v0.3h-1.3V19h0.4c0.2,0,0.4,0,0.6,0.1
	c0.2,0.1,0.3,0.1,0.3,0.3C200.9,19.5,200.9,19.6,200.9,19.8z M199.5,20.4h0.4c0.2,0,0.4,0,0.5-0.1c0.1-0.1,0.2-0.2,0.2-0.4
	c0-0.2-0.1-0.3-0.2-0.4c-0.1-0.1-0.3-0.1-0.6-0.1h-0.4V20.4z"/>
<path d="M202.5,17.8h0.3v1.6c0,0.3,0,0.6,0,0.8h0l1.5-2.4h0.3v2.9h-0.3v-1.6c0-0.3,0-0.5,0-0.8h0l-1.5,2.4h-0.3V17.8z"/>
<path d="M208.1,18.6c0,0.3-0.1,0.5-0.3,0.7c-0.2,0.2-0.5,0.2-0.8,0.2h-0.3v1.1h-0.3v-2.9h0.7C207.8,17.8,208.1,18.1,208.1,18.6z
	 M206.7,19.3h0.3c0.3,0,0.5,0,0.6-0.1c0.1-0.1,0.2-0.2,0.2-0.5c0-0.2-0.1-0.3-0.2-0.4c-0.1-0.1-0.3-0.1-0.6-0.1h-0.4V19.3z"/>
<path d="M210.4,19.2l-1.1-1.4h0.4l1.1,1.4v-1.4h0.3v1.4l1.1-1.4h0.4l-1.1,1.4l1.1,1.5h-0.4l-1.1-1.5v1.5h-0.3v-1.5l-1.1,1.5h-0.4
	L210.4,19.2z"/>
<path d="M215.6,20.7l-0.3-0.9h-1.1l-0.3,0.9h-0.3l1.1-2.9h0.3l1.1,2.9H215.6z M215.2,19.5l-0.3-0.9c0-0.1-0.1-0.3-0.1-0.4
	c0,0.1-0.1,0.3-0.1,0.4l-0.3,0.9H215.2z"/>
<path d="M221.3,20.3h-0.4l-1.3-1.5v1.5h-0.3v-2.9h0.3v1.4l1.2-1.4h0.4l-1.2,1.4L221.3,20.3z"/>
<path d="M225,19.2c0,0.5-0.1,0.8-0.3,1.1c-0.2,0.3-0.5,0.4-0.9,0.4c-0.4,0-0.7-0.1-0.9-0.4c-0.2-0.3-0.3-0.6-0.3-1.1
	c0-0.5,0.1-0.8,0.3-1.1c0.2-0.3,0.5-0.4,0.9-0.4c0.4,0,0.7,0.1,0.9,0.4C224.8,18.4,225,18.8,225,19.2z M222.8,19.2
	c0,0.4,0.1,0.7,0.2,0.9c0.2,0.2,0.4,0.3,0.7,0.3c0.3,0,0.5-0.1,0.7-0.3c0.2-0.2,0.2-0.5,0.2-0.9c0-0.4-0.1-0.7-0.2-0.9
	c-0.2-0.2-0.4-0.3-0.7-0.3c-0.3,0-0.5,0.1-0.7,0.3C222.8,18.6,222.8,18.8,222.8,19.2z"/>
<path d="M228.6,20.7h-0.3v-1.4h-1.4v1.4h-0.3v-2.9h0.3V19h1.4v-1.2h0.3V20.7z"/>
<path d="M231.2,20.7h-0.3v-2.6H230v-0.3h2.1v0.3h-0.9V20.7z"/>
<path d="M235,20.7h-1.5v-2.9h1.5v0.3h-1.2V19h1.1v0.3h-1.1v1.1h1.2V20.7z"/>
<path d="M238.6,20.7h-0.3v-1.4h-1.4v1.4h-0.3v-2.9h0.3V19h1.4v-1.2h0.3V20.7z"/>
<path d="M241.2,20.7h-0.3v-2.6H240v-0.3h2.1v0.3h-0.9V20.7z"/>
<path d="M245.2,20.7l-0.3-0.9h-1.1l-0.3,0.9h-0.3l1.1-2.9h0.3l1.1,2.9H245.2z M244.7,19.5l-0.3-0.9c0-0.1-0.1-0.3-0.1-0.4
	c0,0.1-0.1,0.3-0.1,0.4l-0.3,0.9H244.7z"/>
<path class="st2" d="M221.7,23.6l0.7,0.7l-5.7,6.8l-0.7-0.7L221.7,23.6z"/>
<path class="st2" d="M216,24.3l0.7-0.7l5.7,6.8l-0.7,0.7L216,24.3z"/>
<path class="st2" d="M212.2,24.8h0.9v6.1h-0.9V24.8z"/>
<path class="st2" d="M215.7,23.8v1h-6.1v-1H215.7z"/>
<path class="st2" d="M225.5,24.8h0.9v6.1h-0.9V24.8z"/>
<path class="st2" d="M228.9,23.8v1h-6.1v-1H228.9z"/>
<path d="M229.4,29.4L229.4,29.4c-0.4,0-0.7,0.3-0.7,0.7l0,0c0,0.4,0.3,0.7,0.7,0.7l0,0c0.4,0,0.7-0.3,0.7-0.7l0,0
	C230.1,29.8,229.8,29.4,229.4,29.4z"/>
<path d="M232.1,23.8h0.9v7.1h-0.9V23.8z"/>
<path d="M234.6,27.8l0.7-0.7l2.8,3.3l-0.7,0.7L234.6,27.8z"/>
<path d="M236.1,24.8H233V27h3.1c0.4,0,0.7-0.4,0.7-0.8v-0.6C236.8,25.1,236.5,24.8,236.1,24.8z M232.1,23.8V28h4
	c0.9,0,1.7-0.8,1.7-1.8v-0.6c0-1-0.8-1.8-1.7-1.8H232.1z"/>
<path d="M240.4,23.8v4.8c0,0.8,0.6,1.5,1.4,1.5h1.2c0.8,0,1.4-0.7,1.4-1.5v-4.8h0.9v4.8c0,1.4-1,2.5-2.3,2.5h-1.2
	c-1.3,0-2.3-1.1-2.3-2.5v-4.8H240.4z"/>
<path class="st3" d="M6.3,21v-9.8h7.3v1.5H8v2.5h4.9v1.5H8v2.6h5.6V21H6.3z M14.9,12.8v-1.6h8v1.6h-3.1V21H18v-8.2H14.9z M24,21
	l3.6-5l-3.4-4.8h2l2.4,3.5l2.4-3.5h2L29.6,16l3.6,5h-2l-2.6-3.7L26,21H24z"/>
<path d="M34.2,12.8v-1.6h8v1.6h-3.1V21h-1.7v-8.2H34.2z M43.2,21l4.3-9.9h1.6l4.3,9.9h-1.8l-1-2.4h-4.6l-1,2.4H43.2z M46.6,17.1h3.4
	l-1.7-3.9L46.6,17.1z M54.9,21v-7.4h1.7v3h3.3v-3h1.7V21h-1.7v-3h-3.3v3H54.9z M62.8,15.1v-1.5h6.5v1.5h-2.4V21h-1.7v-5.9H62.8z
	 M70.7,21v-7.4h1.6v5c1.3-1.8,2.4-3.5,3.5-5h1.6V21h-1.6v-4.9L72.2,21H70.7z M79.5,21v-7.4h6.6V21h-1.7v-5.9h-3.2V21H79.5z M87.2,21
	l0.1-1.4c0.1,0,0.3,0.1,0.5,0.1c0.2,0,0.3,0,0.4-0.1c0.1,0,0.2-0.1,0.3-0.3c0.1-0.1,0.2-0.3,0.3-0.6c0.1-0.3,0.1-0.6,0.2-1.1
	c0.1-0.4,0.1-1,0.1-1.7c0-0.7,0-1.5,0-2.4h5.6V21h-1.7v-5.9h-2.3c0,0.8,0,1.4-0.1,2c0,0.6-0.1,1.1-0.2,1.5c-0.1,0.4-0.2,0.8-0.3,1.1
	c-0.1,0.3-0.3,0.5-0.4,0.7c-0.1,0.2-0.3,0.3-0.5,0.4C89.2,20.9,89,21,88.8,21c-0.2,0-0.4,0.1-0.7,0.1C87.9,21.1,87.6,21.1,87.2,21z
	 M96.5,18.8c0-0.8,0.3-1.4,0.8-1.8c0.6-0.4,1.3-0.6,2.2-0.6c0.7,0,1.4,0.1,2,0.3v-0.1c0-0.5-0.2-0.9-0.5-1.2
	c-0.3-0.3-0.8-0.4-1.3-0.4c-0.7,0-1.4,0.2-2.1,0.5l-0.5-1.4c0.5-0.2,0.9-0.4,1.3-0.5c0.4-0.1,0.9-0.2,1.5-0.2c1.1,0,1.9,0.3,2.4,0.8
	c0.5,0.5,0.8,1.3,0.8,2.3V21h-1.7v-0.9c-0.6,0.7-1.4,1.1-2.4,1.1c-0.5,0-0.9-0.1-1.3-0.3c-0.4-0.2-0.7-0.4-1-0.8
	C96.6,19.8,96.5,19.3,96.5,18.8z M98.1,18.8c0,0.3,0.1,0.6,0.4,0.8c0.3,0.2,0.6,0.3,1,0.3c0.6,0,1-0.1,1.4-0.4
	c0.4-0.3,0.6-0.7,0.6-1.1v-0.4c-0.5-0.2-1.1-0.3-1.7-0.3c-0.5,0-0.9,0.1-1.2,0.3C98.3,18.1,98.1,18.4,98.1,18.8z M105.2,21v-7.4h5.2
	v1.5h-3.5V21H105.2z M111.8,21v-7.4h1.6v5c1.3-1.8,2.4-3.5,3.5-5h1.6V21h-1.6v-4.9l-3.5,4.9H111.8z M120.1,18.8
	c0-0.8,0.3-1.4,0.8-1.8c0.6-0.4,1.3-0.6,2.2-0.6c0.7,0,1.4,0.1,2,0.3v-0.1c0-0.5-0.2-0.9-0.5-1.2c-0.3-0.3-0.8-0.4-1.3-0.4
	c-0.7,0-1.4,0.2-2.1,0.5l-0.5-1.4c0.5-0.2,0.9-0.4,1.3-0.5c0.4-0.1,0.9-0.2,1.5-0.2c1.1,0,1.9,0.3,2.4,0.8c0.5,0.5,0.8,1.3,0.8,2.3
	V21h-1.7v-0.9c-0.6,0.7-1.4,1.1-2.4,1.1c-0.5,0-0.9-0.1-1.3-0.3c-0.4-0.2-0.7-0.4-1-0.8C120.3,19.8,120.1,19.3,120.1,18.8z
	 M121.8,18.8c0,0.3,0.1,0.6,0.4,0.8c0.3,0.2,0.6,0.3,1,0.3c0.6,0,1-0.1,1.4-0.4c0.4-0.3,0.6-0.7,0.6-1.1v-0.4
	c-0.5-0.2-1.1-0.3-1.7-0.3c-0.5,0-0.9,0.1-1.2,0.3C122,18.1,121.8,18.4,121.8,18.8z M128.1,15.1v-1.5h6.5v1.5h-2.4V21h-1.7v-5.9
	H128.1z"/>
</svg>
