<?xml version="1.0" encoding="utf-8"?>
<!-- Generator: Adobe Illustrator 19.2.0, SVG Export Plug-In . SVG Version: 6.00 Build 0)  -->
<svg version="1.1" id="Layer_1" xmlns="http://www.w3.org/2000/svg" xmlns:xlink="http://www.w3.org/1999/xlink" x="0px" y="0px"
	 width="150px" height="73px" viewBox="0 0 150 73" style="enable-background:new 0 0 150 73;" xml:space="preserve">
<style type="text/css">
	.st0{fill:#1073D8;}
	.st1{fill:url(#SVGID_1_);}
	.st2{fill:#1E73B7;}
	.st3{fill:url(#SVGID_2_);}
	.st4{fill:#FFFFFF;}
</style>
<path d="M26.7,69l3.7-8.5h1.4l3.7,8.5h-1.6l-0.8-2h-4l-0.9,2H26.7z M29.6,65.7h2.9l-1.5-3.4L29.6,65.7z M36.7,69v-6.3h1.4v2.6H41
	v-2.6h1.4V69H41v-2.6h-2.8V69H36.7z M43.6,63.9v-1.2h5.5v1.2h-2V69h-1.5v-5.1H43.6z M50.3,69v-6.3h1.4v4.2c1.1-1.6,2.1-3,3-4.2h1.4
	V69h-1.4v-4.2l-3,4.2H50.3z M57.9,69v-6.3h5.6V69h-1.5v-5.1h-2.7V69H57.9z M64.5,69l0.1-1.2c0.1,0,0.3,0,0.4,0c0.1,0,0.3,0,0.3,0
	c0.1,0,0.2-0.1,0.3-0.2c0.1-0.1,0.2-0.3,0.3-0.5c0.1-0.2,0.1-0.5,0.2-0.9c0.1-0.4,0.1-0.9,0.1-1.4c0-0.6,0-1.3,0-2.1H71V69h-1.5
	v-5.1h-2c0,0.6,0,1.2-0.1,1.7c0,0.5-0.1,0.9-0.1,1.3c-0.1,0.4-0.1,0.7-0.3,0.9c-0.1,0.3-0.2,0.5-0.3,0.6c-0.1,0.2-0.3,0.3-0.4,0.4
	C66.2,68.9,66,69,65.9,69c-0.2,0-0.3,0-0.6,0C65.1,69.1,64.8,69,64.5,69z M72.4,67.2c0-0.7,0.2-1.2,0.7-1.5c0.5-0.4,1.1-0.5,1.9-0.5
	c0.6,0,1.2,0.1,1.8,0.3v-0.1c0-0.4-0.1-0.8-0.4-1c-0.3-0.2-0.7-0.4-1.2-0.4c-0.6,0-1.2,0.1-1.8,0.4L73,63.1c0.4-0.2,0.8-0.3,1.1-0.4
	c0.4-0.1,0.8-0.1,1.3-0.1c0.9,0,1.6,0.2,2.1,0.7c0.5,0.5,0.7,1.1,0.7,2V69h-1.4v-0.8c-0.5,0.6-1.2,0.9-2.1,0.9
	c-0.4,0-0.8-0.1-1.1-0.2c-0.3-0.1-0.6-0.4-0.8-0.7C72.5,67.9,72.4,67.6,72.4,67.2z M73.8,67.1c0,0.3,0.1,0.5,0.3,0.7
	s0.5,0.3,0.9,0.3c0.5,0,0.9-0.1,1.2-0.4c0.3-0.2,0.5-0.6,0.5-1v-0.4c-0.4-0.2-0.9-0.3-1.5-0.3c-0.5,0-0.8,0.1-1.1,0.3
	C74,66.5,73.8,66.8,73.8,67.1z M79.9,69v-6.3h4.5v1.2h-3V69H79.9z M85.5,69v-6.3h1.4v4.2c1.1-1.6,2.1-3,3-4.2h1.4V69h-1.4v-4.2
	l-3,4.2H85.5z M92.7,67.2c0-0.7,0.2-1.2,0.7-1.5c0.5-0.4,1.1-0.5,1.9-0.5c0.6,0,1.2,0.1,1.8,0.3v-0.1c0-0.4-0.1-0.8-0.4-1
	c-0.3-0.2-0.7-0.4-1.2-0.4c-0.6,0-1.2,0.1-1.8,0.4l-0.4-1.2c0.4-0.2,0.8-0.3,1.1-0.4c0.4-0.1,0.8-0.1,1.3-0.1c0.9,0,1.6,0.2,2.1,0.7
	c0.5,0.5,0.7,1.1,0.7,2V69H97v-0.8c-0.5,0.6-1.2,0.9-2.1,0.9c-0.4,0-0.8-0.1-1.1-0.2c-0.3-0.1-0.6-0.4-0.8-0.7
	C92.8,67.9,92.7,67.6,92.7,67.2z M94.1,67.1c0,0.3,0.1,0.5,0.3,0.7C94.7,68,95,68,95.4,68c0.5,0,0.9-0.1,1.2-0.4
	c0.3-0.2,0.5-0.6,0.5-1v-0.4c-0.4-0.2-0.9-0.3-1.5-0.3c-0.5,0-0.8,0.1-1.1,0.3C94.3,66.5,94.1,66.8,94.1,67.1z M99.5,63.9v-1.2h5.5
	v1.2h-2V69h-1.5v-5.1H99.5z M106.1,69v-1.6h1.6V69H106.1z M109.6,69v-8.4h3.3c1,0,1.8,0.3,2.3,0.8c0.6,0.5,0.9,1.2,0.9,2.1
	c0,0.6-0.2,1.1-0.5,1.6c-0.3,0.4-0.7,0.8-1.2,1c-0.5,0.2-1.1,0.3-1.7,0.3H111V69H109.6z M111,65h1.7c0.6,0,1-0.1,1.3-0.4
	c0.3-0.3,0.5-0.7,0.5-1.1c0-0.5-0.2-0.9-0.5-1.1c-0.3-0.3-0.8-0.4-1.3-0.4H111V65z M116.8,62.7h1.5l1.8,4.7l1.6-4.7h1.5l-2.5,6.5
	c-0.3,0.6-0.5,1.1-0.9,1.4c-0.3,0.3-0.7,0.4-1.2,0.4c-0.5,0-1-0.1-1.5-0.4l0.5-1.1c0.3,0.2,0.6,0.2,0.8,0.2c0.2,0,0.4-0.1,0.5-0.2
	c0.1-0.1,0.3-0.3,0.4-0.6L116.8,62.7z"/>
<path class="st0" d="M21.7,55l3.7-8.5h1.4l3.7,8.5h-1.6L28,53h-4l-0.9,2H21.7z M24.6,51.7h2.9L26,48.3L24.6,51.7z M31.7,55v-6.3h1.4
	v2.6H36v-2.6h1.4V55H36v-2.6h-2.8V55H31.7z M38.6,49.9v-1.2h5.5v1.2h-2V55h-1.5v-5.1H38.6z M45.3,55v-6.3h1.4v4.2
	c1.1-1.6,2.1-3,3-4.2H51V55h-1.4v-4.2l-3,4.2H45.3z M52.9,55v-6.3h5.6V55h-1.5v-5.1h-2.7V55H52.9z M59.4,55l0.1-1.2
	c0.1,0,0.3,0,0.4,0c0.1,0,0.3,0,0.3,0c0.1,0,0.2-0.1,0.3-0.2c0.1-0.1,0.2-0.3,0.3-0.5c0.1-0.2,0.1-0.5,0.2-0.9
	c0.1-0.4,0.1-0.9,0.1-1.4c0-0.6,0-1.3,0-2.1H66V55h-1.5v-5.1h-2c0,0.6,0,1.2-0.1,1.7c0,0.5-0.1,0.9-0.1,1.3
	c-0.1,0.4-0.1,0.7-0.3,0.9c-0.1,0.3-0.2,0.5-0.3,0.6c-0.1,0.2-0.3,0.3-0.4,0.4C61.2,54.9,61,55,60.9,55c-0.2,0-0.3,0-0.6,0
	C60.1,55.1,59.8,55,59.4,55z M67.4,53.2c0-0.7,0.2-1.2,0.7-1.5c0.5-0.4,1.1-0.5,1.9-0.5c0.6,0,1.2,0.1,1.8,0.3v-0.1
	c0-0.4-0.1-0.8-0.4-1c-0.3-0.2-0.7-0.4-1.2-0.4c-0.6,0-1.2,0.1-1.8,0.4l-0.4-1.2c0.4-0.2,0.8-0.3,1.1-0.4c0.4-0.1,0.8-0.1,1.3-0.1
	c0.9,0,1.6,0.2,2.1,0.7c0.5,0.5,0.7,1.1,0.7,2V55h-1.4v-0.8c-0.5,0.6-1.2,0.9-2.1,0.9c-0.4,0-0.8-0.1-1.1-0.2
	c-0.3-0.1-0.6-0.4-0.8-0.7C67.5,53.9,67.4,53.6,67.4,53.2z M68.8,53.1c0,0.3,0.1,0.5,0.3,0.7C69.4,54,69.7,54,70,54
	c0.5,0,0.9-0.1,1.2-0.4c0.3-0.2,0.5-0.6,0.5-1v-0.4c-0.4-0.2-0.9-0.3-1.5-0.3c-0.5,0-0.8,0.1-1.1,0.3S68.8,52.8,68.8,53.1z M74.9,55
	v-6.3h4.5v1.2h-3V55H74.9z M80.5,55v-6.3h1.4v4.2c1.1-1.6,2.1-3,3-4.2h1.4V55h-1.4v-4.2l-3,4.2H80.5z M87.7,53.2
	c0-0.7,0.2-1.2,0.7-1.5c0.5-0.4,1.1-0.5,1.9-0.5c0.6,0,1.2,0.1,1.8,0.3v-0.1c0-0.4-0.1-0.8-0.4-1c-0.3-0.2-0.7-0.4-1.2-0.4
	c-0.6,0-1.2,0.1-1.8,0.4l-0.4-1.2c0.4-0.2,0.8-0.3,1.1-0.4c0.4-0.1,0.8-0.1,1.3-0.1c0.9,0,1.6,0.2,2.1,0.7c0.5,0.5,0.7,1.1,0.7,2V55
	H92v-0.8c-0.5,0.6-1.2,0.9-2.1,0.9c-0.4,0-0.8-0.1-1.1-0.2c-0.3-0.1-0.6-0.4-0.8-0.7C87.8,53.9,87.7,53.6,87.7,53.2z M89.1,53.1
	c0,0.3,0.1,0.5,0.3,0.7C89.7,54,90,54,90.3,54c0.5,0,0.9-0.1,1.2-0.4c0.3-0.2,0.5-0.6,0.5-1v-0.4c-0.4-0.2-0.9-0.3-1.5-0.3
	c-0.5,0-0.8,0.1-1.1,0.3C89.2,52.5,89.1,52.8,89.1,53.1z M94.5,49.9v-1.2h5.5v1.2h-2V55h-1.5v-5.1H94.5z M101.1,55v-1.6h1.6V55
	H101.1z M104.5,55v-8.4h3.8c1,0,1.7,0.2,2.2,0.7c0.4,0.4,0.6,0.8,0.6,1.4c0,0.8-0.4,1.5-1.2,1.9c0.5,0.2,0.9,0.4,1.2,0.8
	c0.3,0.3,0.4,0.8,0.4,1.3c0,0.7-0.3,1.3-0.8,1.7c-0.6,0.4-1.3,0.6-2.3,0.6H104.5z M106,53.7h2.4c0.5,0,0.9-0.1,1.2-0.3
	c0.3-0.2,0.4-0.5,0.4-0.9c0-0.4-0.1-0.6-0.4-0.8c-0.3-0.2-0.7-0.3-1.3-0.3H106V53.7z M106,50.1h2c0.5,0,0.9-0.1,1.2-0.3
	c0.3-0.2,0.4-0.5,0.4-0.9c0-0.3-0.1-0.6-0.4-0.8c-0.3-0.2-0.6-0.3-1.1-0.3H106V50.1z M112.4,46.6h1.7l2.6,4.9l2.3-4.9h1.6l-3.3,6.6
	c-0.3,0.7-0.7,1.2-1.2,1.5c-0.4,0.3-0.9,0.5-1.5,0.5c-0.6,0-1.1-0.1-1.6-0.4l0.6-1.1c0.3,0.2,0.6,0.3,1,0.3c0.2,0,0.4-0.1,0.7-0.2
	c0.2-0.1,0.5-0.4,0.7-0.7L112.4,46.6z M121.3,53.8l0.8-1c0.8,0.7,1.7,1.1,2.8,1.1c0.5,0,0.8-0.1,1.2-0.3c0.3-0.2,0.5-0.5,0.5-0.9
	c0-0.4-0.2-0.7-0.5-0.9c-0.4-0.2-0.8-0.3-1.4-0.3h-0.9v-1.2h0.9c0.5,0,1-0.1,1.3-0.3c0.3-0.2,0.5-0.5,0.5-0.9c0-0.4-0.1-0.6-0.4-0.8
	c-0.3-0.2-0.7-0.3-1.1-0.3c-0.5,0-0.9,0.1-1.3,0.2c-0.4,0.2-0.7,0.4-1.1,0.7l-0.8-1c0.4-0.4,0.9-0.7,1.4-0.9
	c0.5-0.2,1.1-0.3,1.8-0.3c0.9,0,1.6,0.2,2.1,0.6c0.6,0.4,0.8,1,0.8,1.6c0,0.9-0.5,1.6-1.4,2c0.5,0.2,0.9,0.4,1.2,0.7
	c0.3,0.3,0.4,0.8,0.4,1.3c0,0.7-0.3,1.3-0.9,1.8c-0.6,0.5-1.3,0.7-2.2,0.7c-0.8,0-1.5-0.1-2.1-0.3C122.3,54.6,121.8,54.2,121.3,53.8
	z"/>
<linearGradient id="SVGID_1_" gradientUnits="userSpaceOnUse" x1="74.6791" y1="74" x2="74.6792" y2="27.8814" gradientTransform="matrix(1 0 0 -1 0 74)">
	<stop  offset="0" style="stop-color:#D7D7D7"/>
	<stop  offset="0.9987" style="stop-color:#BDBCBC"/>
	<stop  offset="1" style="stop-color:#BDBCBC"/>
</linearGradient>
<path class="st1" d="M74.3,0c-3.6,0.1-8.9,0.5-14,2.5C60.1,2.5,60,2.8,60,3c0,6.2,1.1,16.8,1.7,20.3c0,0,0,0.1,0,0.1
	c2.5,9,11.4,13,12.7,13.6c0.1,0.1,0.3,0.1,0.4,0c1.4-0.6,10.2-4.5,12.7-13.6c0,0,0-0.1,0-0.1c0.7-3.5,1.7-14.5,1.7-20.3
	c0-0.2-0.1-0.4-0.3-0.5C84,0.5,78.6,0.1,75.1,0c-0.1,0-0.2,0-0.4,0C74.6,0,74.4,0,74.3,0z"/>
<path class="st2" d="M74.9,35.1c1.4-0.6,9.2-4.3,11.4-12.4c0,0,0,0,0-0.1C87,19.5,87.9,9.6,88,4.1c0-0.2-0.2-0.5-0.4-0.5
	c-4.5-1.7-9.8-2.1-12.8-2.1h-0.2c-1.7,0-8.3,0.4-12.8,2.1c-0.2,0.1-0.4,0.3-0.4,0.5c0.1,5.2,1,15.3,1.6,18.5c0,0,0,0,0,0.1
	c2.2,8.1,10,11.8,11.4,12.4C74.6,35.2,74.7,35.2,74.9,35.1z"/>
<linearGradient id="SVGID_2_" gradientUnits="userSpaceOnUse" x1="74.5237" y1="72.2598" x2="76.429" y2="45.0583" gradientTransform="matrix(1 0 0 -1 0 74)">
	<stop  offset="0" style="stop-color:#60BCEC"/>
	<stop  offset="1" style="stop-color:#1E73B7"/>
</linearGradient>
<path class="st3" d="M74.6,1.8c-1.6,0-8.1,0.4-12.6,2c-0.2,0.1-0.3,0.2-0.3,0.5c0.2,1.4,4.2,8,9.7,12.6c6,5,13.8,5.9,14.3,5.9
	c0.2,0,0.4-0.2,0.4-0.3c0.6-3.1,1.5-12.8,1.6-18.1c0-0.2-0.1-0.4-0.4-0.5C83,2.2,77.7,1.8,74.8,1.8L74.6,1.8z"/>
<path class="st4" d="M79.7,6.3c0.6-0.1,1.1-0.1,1.7,0.1s1.1,0.4,1.5,0.7c0.5,0.3,0.8,0.7,1.1,1.2c0.3,0.5,0.5,1,0.6,1.6
	c0.1,0.6,0.1,1.1,0,1.7c-0.1,0.6-0.4,1.1-0.7,1.5c-0.3,0.5-0.7,0.9-1.2,1.2c-0.5,0.3-1,0.5-1.6,0.6c-0.8,0.1-1.5,0.1-2.2-0.2
	c-0.7-0.3-1.3-0.7-1.8-1.3c-0.5-0.6-0.8-1.3-0.9-2c-0.1-0.6-0.1-1.1,0.1-1.7C76.4,9,76.6,8.5,77,8c0.3-0.5,0.7-0.8,1.2-1.1
	C78.6,6.6,79.1,6.4,79.7,6.3z M79.8,7c-0.6,0.1-1.2,0.4-1.7,0.8c-0.5,0.4-0.8,0.9-1.1,1.5c-0.2,0.6-0.3,1.2-0.2,1.8
	c0.2,0.9,0.6,1.6,1.2,2.1c0.1,0.1,0.3,0.2,0.4,0.3c0.8,0.5,1.6,0.6,2.5,0.5c0.6-0.1,1.2-0.4,1.7-0.8c0.5-0.4,0.8-0.9,1.1-1.5
	c0.2-0.6,0.3-1.2,0.2-1.8c-0.1-0.5-0.3-0.9-0.5-1.3c-0.3-0.4-0.6-0.7-1-1C82,7.3,81.6,7.1,81.2,7C80.7,6.9,80.3,6.9,79.8,7z
	 M82.1,9.6l-0.2,0c-0.1,0-0.3,0-0.3-0.2C81.4,9,81,8.8,80.4,8.7c-0.3,0-0.5,0.1-0.8,0.2c-0.2,0.2-0.4,0.4-0.5,0.6
	c-0.1,0.3-0.2,0.6-0.2,1c0,0.5,0.1,1,0.4,1.3c0.3,0.3,0.6,0.5,1.1,0.5c0.3,0,0.6-0.1,0.9-0.3c0.2-0.2,0.4-0.4,0.5-0.6
	c0.1-0.1,0.2-0.2,0.4-0.2l0.2,0.1c0.1,0.1,0.2,0.2,0.2,0.3c-0.1,0.2-0.2,0.4-0.4,0.6c-0.2,0.2-0.5,0.4-0.7,0.5
	C81,12.9,80.7,13,80.4,13c-0.5,0-0.8-0.1-1.2-0.3c-0.3-0.2-0.6-0.5-0.8-0.9c-0.2-0.4-0.3-0.8-0.3-1.4c0-0.3,0.1-0.7,0.2-0.9
	c0.1-0.3,0.3-0.5,0.5-0.7c0.2-0.2,0.5-0.4,0.7-0.5c0.3-0.1,0.6-0.2,1-0.2c0.5,0,0.9,0.1,1.2,0.4c0.3,0.2,0.5,0.4,0.6,0.7
	C82.4,9.4,82.3,9.5,82.1,9.6z"/>
</svg>
