<?xml version="1.0" encoding="utf-8"?>
<!-- Generator: Adobe Illustrator 19.2.0, SVG Export Plug-In . SVG Version: 6.00 Build 0)  -->
<svg version="1.1" id="Layer_1" xmlns="http://www.w3.org/2000/svg" xmlns:xlink="http://www.w3.org/1999/xlink" x="0px" y="0px"
	 width="266px" height="50px" viewBox="0 0 266 50" style="enable-background:new 0 0 266 50;" xml:space="preserve">
<style type="text/css">
	.st0{fill:#1073D8;}
	.st1{fill:url(#SVGID_1_);}
	.st2{fill:#1E73B7;}
	.st3{fill:url(#SVGID_2_);}
	.st4{fill:#FFFFFF;}
</style>
<path d="M7.7,39l4.3-9.9h1.6l4.3,9.9h-1.8l-1-2.4h-4.6l-1,2.4H7.7z M11.1,35.1h3.4l-1.7-3.9L11.1,35.1z M19.4,39v-7.4h1.7v3h3.3v-3
	H26V39h-1.7v-3h-3.3v3H19.4z M27.3,33.1v-1.5h6.5v1.5h-2.4V39h-1.7v-5.9H27.3z M35.2,39v-7.4h1.6v5c1.3-1.8,2.4-3.5,3.5-5h1.6V39
	h-1.6v-4.9L36.8,39H35.2z M44,39v-7.4h6.6V39h-1.7v-5.9h-3.2V39H44z M51.7,39l0.1-1.4c0.1,0,0.3,0.1,0.5,0.1c0.2,0,0.3,0,0.4-0.1
	c0.1,0,0.2-0.1,0.3-0.3c0.1-0.1,0.2-0.3,0.3-0.6c0.1-0.3,0.1-0.6,0.2-1.1c0.1-0.4,0.1-1,0.1-1.7c0-0.7,0-1.5,0-2.4h5.6V39h-1.7v-5.9
	h-2.3c0,0.8,0,1.4-0.1,2c0,0.6-0.1,1.1-0.2,1.5c-0.1,0.4-0.2,0.8-0.3,1.1c-0.1,0.3-0.3,0.5-0.4,0.7c-0.1,0.2-0.3,0.3-0.5,0.4
	c-0.2,0.1-0.4,0.2-0.6,0.2c-0.2,0-0.4,0.1-0.7,0.1C52.4,39.1,52.1,39.1,51.7,39z M61,36.8c0-0.8,0.3-1.4,0.8-1.8
	c0.6-0.4,1.3-0.6,2.2-0.6c0.7,0,1.4,0.1,2,0.3v-0.1c0-0.5-0.2-0.9-0.5-1.2c-0.3-0.3-0.8-0.4-1.3-0.4c-0.7,0-1.4,0.2-2.1,0.5
	l-0.5-1.4c0.5-0.2,0.9-0.4,1.3-0.5c0.4-0.1,0.9-0.2,1.5-0.2c1.1,0,1.9,0.3,2.4,0.8c0.5,0.5,0.8,1.3,0.8,2.3V39H66v-0.9
	c-0.6,0.7-1.4,1.1-2.4,1.1c-0.5,0-0.9-0.1-1.3-0.3c-0.4-0.2-0.7-0.4-1-0.8C61.1,37.8,61,37.3,61,36.8z M62.7,36.8
	c0,0.3,0.1,0.6,0.4,0.8c0.3,0.2,0.6,0.3,1,0.3c0.6,0,1-0.1,1.4-0.4c0.4-0.3,0.6-0.7,0.6-1.1v-0.4c-0.5-0.2-1.1-0.3-1.7-0.3
	c-0.5,0-0.9,0.1-1.2,0.3C62.8,36.1,62.7,36.4,62.7,36.8z M69.7,39v-7.4h5.2v1.5h-3.5V39H69.7z M76.3,39v-7.4h1.6v5
	c1.3-1.8,2.4-3.5,3.5-5H83V39h-1.6v-4.9L77.9,39H76.3z M84.6,36.8c0-0.8,0.3-1.4,0.8-1.8c0.6-0.4,1.3-0.6,2.2-0.6
	c0.7,0,1.4,0.1,2,0.3v-0.1c0-0.5-0.2-0.9-0.5-1.2c-0.3-0.3-0.8-0.4-1.3-0.4c-0.7,0-1.4,0.2-2.1,0.5l-0.5-1.4
	c0.5-0.2,0.9-0.4,1.3-0.5c0.4-0.1,0.9-0.2,1.5-0.2c1.1,0,1.9,0.3,2.4,0.8c0.5,0.5,0.8,1.3,0.8,2.3V39h-1.7v-0.9
	c-0.6,0.7-1.4,1.1-2.4,1.1c-0.5,0-0.9-0.1-1.3-0.3c-0.4-0.2-0.7-0.4-1-0.8C84.8,37.8,84.6,37.3,84.6,36.8z M86.3,36.8
	c0,0.3,0.1,0.6,0.4,0.8c0.3,0.2,0.6,0.3,1,0.3c0.6,0,1-0.1,1.4-0.4c0.4-0.3,0.6-0.7,0.6-1.1v-0.4c-0.5-0.2-1.1-0.3-1.7-0.3
	c-0.5,0-0.9,0.1-1.2,0.3C86.5,36.1,86.3,36.4,86.3,36.8z M92.6,33.1v-1.5H99v1.5h-2.4V39h-1.7v-5.9H92.6z M100.3,39v-1.9h1.9V39
	H100.3z M104.3,39v-9.8h3.9c1.1,0,2,0.3,2.7,0.9c0.7,0.6,1,1.4,1,2.4c0,0.7-0.2,1.3-0.5,1.8c-0.4,0.5-0.8,0.9-1.4,1.1
	c-0.6,0.2-1.2,0.4-2,0.4H106V39H104.3z M106,34.3h2c0.6,0,1.2-0.2,1.5-0.5c0.4-0.3,0.6-0.8,0.6-1.3c0-0.6-0.2-1-0.6-1.3
	c-0.4-0.3-0.9-0.5-1.5-0.5h-2V34.3z M112.8,31.6h1.8l2.1,5.5l1.9-5.5h1.8l-2.9,7.6c-0.3,0.8-0.6,1.3-1,1.6c-0.4,0.3-0.8,0.5-1.4,0.5
	c-0.6,0-1.2-0.2-1.8-0.5l0.6-1.3c0.3,0.2,0.7,0.3,1,0.3c0.2,0,0.4-0.1,0.6-0.2c0.2-0.1,0.3-0.3,0.5-0.7L112.8,31.6z"/>
<path class="st0" d="M7.8,20l4.3-9.9h1.6L18,20h-1.8l-1-2.4h-4.6l-1,2.4H7.8z M11.2,16.1h3.4l-1.7-3.9L11.2,16.1z M19.5,20v-7.4h1.7
	v3h3.3v-3h1.7V20h-1.7v-3h-3.3v3H19.5z M27.5,14.1v-1.5H34v1.5h-2.4V20h-1.7v-5.9H27.5z M35.3,20v-7.4h1.6v5c1.3-1.8,2.4-3.5,3.5-5
	H42V20h-1.6v-4.9L36.9,20H35.3z M44.2,20v-7.4h6.6V20h-1.7v-5.9h-3.2V20H44.2z M51.8,20l0.1-1.4c0.1,0,0.3,0.1,0.5,0.1
	c0.2,0,0.3,0,0.4-0.1c0.1,0,0.2-0.1,0.3-0.3c0.1-0.1,0.2-0.3,0.3-0.6c0.1-0.3,0.1-0.6,0.2-1.1c0.1-0.4,0.1-1,0.1-1.7
	c0-0.7,0-1.5,0-2.4h5.6V20h-1.7v-5.9h-2.3c0,0.8,0,1.4-0.1,2c0,0.6-0.1,1.1-0.2,1.5c-0.1,0.4-0.2,0.8-0.3,1.1
	c-0.1,0.3-0.3,0.5-0.4,0.7c-0.1,0.2-0.3,0.3-0.5,0.4c-0.2,0.1-0.4,0.2-0.6,0.2c-0.2,0-0.4,0.1-0.7,0.1C52.6,20.1,52.2,20.1,51.8,20z
	 M61.1,17.8c0-0.8,0.3-1.4,0.8-1.8c0.6-0.4,1.3-0.6,2.2-0.6c0.7,0,1.4,0.1,2,0.3v-0.1c0-0.5-0.2-0.9-0.5-1.2
	c-0.3-0.3-0.8-0.4-1.3-0.4c-0.7,0-1.4,0.2-2.1,0.5l-0.5-1.4c0.5-0.2,0.9-0.4,1.3-0.5c0.4-0.1,0.9-0.2,1.5-0.2c1.1,0,1.9,0.3,2.4,0.8
	c0.5,0.5,0.8,1.3,0.8,2.3V20h-1.7v-0.9c-0.6,0.7-1.4,1.1-2.4,1.1c-0.5,0-0.9-0.1-1.3-0.3c-0.4-0.2-0.7-0.4-1-0.8
	C61.2,18.8,61.1,18.3,61.1,17.8z M62.8,17.8c0,0.3,0.1,0.6,0.4,0.8c0.3,0.2,0.6,0.3,1,0.3c0.6,0,1-0.1,1.4-0.4
	c0.4-0.3,0.6-0.7,0.6-1.1v-0.4c-0.5-0.2-1.1-0.3-1.7-0.3c-0.5,0-0.9,0.1-1.2,0.3C62.9,17.1,62.8,17.4,62.8,17.8z M69.8,20v-7.4h5.2
	v1.5h-3.5V20H69.8z M76.4,20v-7.4h1.6v5c1.3-1.8,2.4-3.5,3.5-5h1.6V20h-1.6v-4.9L78,20H76.4z M84.8,17.8c0-0.8,0.3-1.4,0.8-1.8
	c0.6-0.4,1.3-0.6,2.2-0.6c0.7,0,1.4,0.1,2,0.3v-0.1c0-0.5-0.2-0.9-0.5-1.2C89,14.1,88.6,14,88,14c-0.7,0-1.4,0.2-2.1,0.5l-0.5-1.4
	c0.5-0.2,0.9-0.4,1.3-0.5c0.4-0.1,0.9-0.2,1.5-0.2c1.1,0,1.9,0.3,2.4,0.8c0.5,0.5,0.8,1.3,0.8,2.3V20h-1.7v-0.9
	c-0.6,0.7-1.4,1.1-2.4,1.1c-0.5,0-0.9-0.1-1.3-0.3c-0.4-0.2-0.7-0.4-1-0.8C84.9,18.8,84.8,18.3,84.8,17.8z M86.5,17.8
	c0,0.3,0.1,0.6,0.4,0.8c0.3,0.2,0.6,0.3,1,0.3c0.6,0,1-0.1,1.4-0.4c0.4-0.3,0.6-0.7,0.6-1.1v-0.4c-0.5-0.2-1.1-0.3-1.7-0.3
	c-0.5,0-0.9,0.1-1.2,0.3C86.6,17.1,86.5,17.4,86.5,17.8z M92.7,14.1v-1.5h6.5v1.5h-2.4V20h-1.7v-5.9H92.7z M100.4,20v-1.9h1.9V20
	H100.4z M104.5,20v-9.8h4.4c1.1,0,2,0.3,2.6,0.9c0.4,0.4,0.7,1,0.7,1.7c0,1-0.5,1.7-1.4,2.2c0.6,0.2,1.1,0.5,1.4,0.9
	c0.3,0.4,0.5,0.9,0.5,1.5c0,0.9-0.3,1.5-1,2c-0.7,0.5-1.5,0.7-2.6,0.7H104.5z M106.2,18.5h2.9c0.6,0,1.1-0.1,1.4-0.3
	c0.3-0.2,0.5-0.6,0.5-1c0-0.4-0.2-0.7-0.5-1c-0.3-0.2-0.8-0.3-1.5-0.3h-2.7V18.5z M106.2,14.3h2.4c0.6,0,1-0.1,1.4-0.3
	c0.3-0.2,0.5-0.6,0.5-1c0-0.4-0.1-0.7-0.5-0.9c-0.3-0.2-0.7-0.3-1.3-0.3h-2.5V14.3z M113.7,10.2h1.9l3,5.7l2.7-5.7h1.9l-3.8,7.7
	c-0.4,0.8-0.9,1.4-1.4,1.8c-0.5,0.4-1.1,0.5-1.7,0.5c-0.7,0-1.3-0.2-1.9-0.5l0.7-1.3c0.4,0.2,0.8,0.3,1.2,0.3c0.2,0,0.5-0.1,0.8-0.3
	c0.3-0.2,0.5-0.4,0.8-0.8L113.7,10.2z M124,18.6l0.9-1.2c0.9,0.9,2,1.3,3.3,1.3c0.5,0,1-0.1,1.4-0.4c0.4-0.3,0.6-0.6,0.6-1.1
	c0-0.5-0.2-0.8-0.6-1.1c-0.4-0.2-1-0.4-1.6-0.4h-1.1v-1.4h1.1c0.6,0,1.1-0.1,1.5-0.4c0.4-0.3,0.5-0.6,0.5-1.1c0-0.4-0.2-0.7-0.5-1
	c-0.3-0.3-0.8-0.4-1.3-0.4c-0.6,0-1.1,0.1-1.5,0.3c-0.4,0.2-0.8,0.5-1.2,0.8l-0.9-1.1c0.5-0.5,1.1-0.8,1.7-1.1
	c0.6-0.3,1.3-0.4,2.1-0.4c1,0,1.8,0.2,2.5,0.7c0.6,0.5,1,1.1,1,1.9c0,1.1-0.6,1.8-1.7,2.3c0.6,0.2,1,0.5,1.4,0.9
	c0.3,0.4,0.5,0.9,0.5,1.5c0,0.8-0.3,1.5-1,2.1c-0.7,0.5-1.5,0.8-2.6,0.8c-0.9,0-1.7-0.1-2.4-0.4C125.2,19.5,124.6,19.1,124,18.6z"/>
<linearGradient id="SVGID_1_" gradientUnits="userSpaceOnUse" x1="239.22" y1="44.7432" x2="239.22" y2="6.747007e-02" gradientTransform="matrix(1 0 0 -1 0 52)">
	<stop  offset="0" style="stop-color:#D7D7D7"/>
	<stop  offset="0.9987" style="stop-color:#BDBCBC"/>
	<stop  offset="1" style="stop-color:#BDBCBC"/>
</linearGradient>
<path class="st1" d="M238.9,7.3c-3.4,0.1-8.6,0.5-13.6,2.4c-0.2,0.1-0.3,0.3-0.3,0.5c0,6,1.1,16.3,1.7,19.6c0,0,0,0,0,0
	c2.4,8.7,11,12.6,12.3,13.1c0.1,0,0.2,0,0.3,0c1.3-0.6,9.9-4.4,12.3-13.1c0,0,0,0,0,0c0.6-3.4,1.7-14.1,1.7-19.6
	c0-0.2-0.1-0.4-0.3-0.5c-4.9-1.9-10.1-2.3-13.5-2.4c-0.1,0-0.2,0-0.4,0C239.1,7.3,239,7.3,238.9,7.3z"/>
<path class="st2" d="M239.4,41.3c1.4-0.6,8.9-4.1,11.1-12c0,0,0,0,0,0c0.6-3.1,1.5-12.7,1.6-17.9c0-0.2-0.1-0.4-0.3-0.5
	c-4.3-1.6-9.5-2-12.4-2h-0.2c-1.6,0-8,0.4-12.4,2c-0.2,0.1-0.3,0.3-0.3,0.5c0,5.1,1,14.9,1.6,17.9c0,0,0,0,0,0
	c2.1,7.9,9.7,11.4,11,12C239.1,41.3,239.3,41.3,239.4,41.3z"/>
<linearGradient id="SVGID_2_" gradientUnits="userSpaceOnUse" x1="239.0692" y1="43.0576" x2="240.9142" y2="16.7071" gradientTransform="matrix(1 0 0 -1 0 52)">
	<stop  offset="0" style="stop-color:#60BCEC"/>
	<stop  offset="1" style="stop-color:#1E73B7"/>
</linearGradient>
<path class="st3" d="M239.1,9c-1.6,0-7.9,0.4-12.2,2c-0.2,0.1-0.3,0.2-0.3,0.4c0.1,1.4,4,7.8,9.4,12.2c5.8,4.8,13.4,5.7,13.9,5.7
	c0.2,0,0.4-0.1,0.4-0.3c0.6-3,1.5-12.4,1.5-17.6c0-0.2-0.1-0.4-0.3-0.5c-4.2-1.6-9.3-2-12.2-2L239.1,9z"/>
<path class="st4" d="M244,13.4c0.6-0.1,1.1-0.1,1.6,0c0.5,0.1,1,0.3,1.5,0.6c0.4,0.3,0.8,0.7,1.1,1.2c0.3,0.5,0.5,1,0.6,1.5
	c0.1,0.6,0.1,1.1,0,1.6c-0.1,0.5-0.3,1-0.6,1.5c-0.3,0.4-0.7,0.8-1.1,1.1c-0.5,0.3-1,0.5-1.5,0.6c-0.7,0.1-1.4,0.1-2.1-0.2
	c-0.7-0.2-1.3-0.7-1.8-1.2c-0.5-0.6-0.8-1.2-0.9-2c-0.1-0.6-0.1-1.1,0-1.6c0.1-0.5,0.3-1,0.7-1.4c0.3-0.4,0.7-0.8,1.1-1.1
	C243,13.6,243.5,13.5,244,13.4z M244.2,14c-0.6,0.1-1.1,0.3-1.6,0.7c-0.5,0.4-0.8,0.9-1,1.4c-0.2,0.6-0.3,1.2-0.2,1.8
	c0.1,0.8,0.5,1.5,1.2,2.1c0.1,0.1,0.2,0.2,0.4,0.3c0.8,0.5,1.6,0.6,2.4,0.5c0.6-0.1,1.1-0.4,1.6-0.8c0.5-0.4,0.8-0.9,1-1.5
	c0.2-0.6,0.3-1.2,0.1-1.8c-0.1-0.5-0.2-0.9-0.5-1.3c-0.2-0.4-0.6-0.7-0.9-1c-0.4-0.2-0.8-0.4-1.2-0.5C245.1,14,244.6,13.9,244.2,14z
	 M246.4,16.5l-0.2,0c-0.1,0-0.2,0-0.3-0.1c-0.2-0.4-0.6-0.6-1.1-0.7c-0.3,0-0.5,0.1-0.7,0.2c-0.2,0.1-0.4,0.3-0.5,0.6
	c-0.1,0.3-0.2,0.6-0.2,0.9c0,0.5,0.1,0.9,0.4,1.2c0.2,0.3,0.6,0.5,1,0.5c0.3,0,0.6-0.1,0.8-0.2c0.2-0.1,0.3-0.3,0.4-0.6
	c0-0.1,0.2-0.2,0.3-0.1l0.2,0.1c0.1,0,0.2,0.2,0.1,0.3c-0.1,0.2-0.2,0.4-0.3,0.6c-0.2,0.2-0.4,0.4-0.7,0.5c-0.3,0.1-0.6,0.2-0.9,0.2
	c-0.4,0-0.8-0.1-1.1-0.3c-0.3-0.2-0.6-0.5-0.8-0.9c-0.2-0.4-0.3-0.8-0.2-1.3c0-0.3,0-0.6,0.2-0.9c0.1-0.3,0.2-0.5,0.4-0.7
	c0.2-0.2,0.4-0.4,0.7-0.5c0.3-0.1,0.6-0.1,0.9-0.1c0.5,0,0.9,0.1,1.2,0.4c0.2,0.2,0.4,0.4,0.6,0.7C246.7,16.3,246.6,16.5,246.4,16.5
	z"/>
</svg>
