<?xml version="1.0" encoding="utf-8"?>
<!-- Generator: Adobe Illustrator 19.2.0, SVG Export Plug-In . SVG Version: 6.00 Build 0)  -->
<svg version="1.1" id="Layer_1" xmlns="http://www.w3.org/2000/svg" xmlns:xlink="http://www.w3.org/1999/xlink" x="0px" y="0px"
	 width="266px" height="50px" viewBox="0 0 266 50" style="enable-background:new 0 0 266 50;" xml:space="preserve">
<style type="text/css">
	.st0{fill:#CE0020;}
	.st1{fill:#636468;}
	.st2{fill:#46A6FA;}
	.st3{fill:#333C47;}
	.st4{fill:url(#SVGID_1_);}
	.st5{fill:#1E73B7;}
	.st6{fill:url(#SVGID_2_);}
	.st7{fill:#FFFFFF;}
	.st8{fill:#8BD5F5;}
	.st9{fill:#1C1C19;}
</style>
<path class="st0" d="M247.4,33.4c2.5,0,4.9,0,7.3,0c0-0.3,0.1-0.5,0.1-0.7c0-5.4,0-10.9,0-16.3c0-0.4-0.2-0.8-0.5-1.1
	c-2.1-2.1-4.2-4.2-6.3-6.3c-4.5,0-9,0-13.5,0c0,2.2,0,7,0,8h1.6c0-0.7,0-4.5,0-6.3c0.3,0,0.5,0,0.8,0c3.1,0,6.3,0,9.4,0
	c0.6,0,0.8,0.2,0.8,0.8c0,1.8,0,3.7,0,5.6h0.3V17c2,0,3.8,0,5.8,0c0,4.9,0,9.8,0,14.7c-1.9,0-3.7,0-5.7,0L247.4,33.4z M248.7,15.4
	c0-1,0-2.1,0-3c1,1,2,2.1,3,3C250.8,15.4,249.8,15.4,248.7,15.4z"/>
<path class="st1" d="M248.1,34.1v-9.8c0-0.3,0-0.6,0-0.9c0-0.4-0.2-0.8-0.4-1.1c-1.9-2-3.9-4-5.9-5.9c-0.2-0.2-0.6-0.4-0.9-0.4h-8.4
	v0c-1.2,0-2.6,0-3.4,0c-0.3,0-0.6,0-0.9,0.1c0,0.2-0.1,0.4-0.1,0.5c0,7.7,0,15.4,0,23c0,0.7,0.3,0.7,0.8,0.7c6.2,0,12.3,0,18.5,0
	c0.6,0,0.8-0.2,0.8-0.8C248.1,38.2,248.1,35.8,248.1,34.1z M242.1,19.2c1.1,1.1,2.1,2.2,3.2,3.3c-0.9,0-1.9,0-2.9,0
	c-0.1,0-0.3-0.2-0.3-0.4C242.1,21.1,242.1,20.1,242.1,19.2z M245.9,38.8c-2.6,0-5.2,0-7.8,0c-2.6,0-5.2,0-7.7,0
	c-0.7,0-0.8-0.2-0.8-0.9c0-6.5,0-13.1,0-19.6c0-0.7,0.2-0.9,0.9-0.9c3.1,0,6.3,0,9.4,0c0.7,0,0.9,0.3,0.9,0.9c0,1.5,0,3.1,0,4.6
	c0,0.7,0.2,0.9,0.9,0.9c1.5-0.1,2.9,0,4.4,0c0.6,0,0.8,0.2,0.8,0.8c0,4.4,0,8.9,0,13.3C246.7,38.6,246.5,38.8,245.9,38.8z"/>
<path class="st2" d="M169.9,38.6v2.2h-1.3v-6.3h2.5c0.5,0,0.9,0.1,1.2,0.3c0.4,0.2,0.6,0.4,0.8,0.7c0.2,0.3,0.3,0.7,0.3,1.1
	c0,0.6-0.2,1.1-0.6,1.5c-0.4,0.4-1,0.5-1.8,0.5H169.9z M169.9,37.5h1.2c0.3,0,0.6-0.1,0.8-0.2c0.2-0.2,0.3-0.4,0.3-0.7
	c0-0.3-0.1-0.6-0.3-0.8c-0.2-0.2-0.4-0.3-0.8-0.3h-1.2V37.5z"/>
<path class="st2" d="M176.3,37.5l1.1-3h1.4l-2.2,5.2l-0.2,0.3c-0.3,0.6-0.8,0.9-1.5,0.9l-0.5,0l0-1c0.1,0,0.2,0,0.3,0
	c0.2,0,0.3,0,0.4-0.1c0.1-0.1,0.2-0.2,0.3-0.4l0.2-0.4l-2.2-4.5h1.4L176.3,37.5z"/>
<path class="st3" d="M181.2,38.3h-0.8v2.6h-1.3v-6.3h1.3v2.5h0.6l1.5-2.5h1.6l-1.9,3l2.2,3.3h-1.6L181.2,38.3z"/>
<path class="st3" d="M189.6,37.9c0,0.6-0.1,1.2-0.3,1.6s-0.5,0.8-0.9,1.1c-0.4,0.3-0.9,0.4-1.4,0.4c-0.5,0-1-0.1-1.4-0.4
	c-0.4-0.3-0.7-0.6-1-1.1c-0.2-0.5-0.3-1-0.3-1.6v-0.3c0-0.6,0.1-1.2,0.3-1.6c0.2-0.5,0.5-0.8,0.9-1.1c0.4-0.3,0.9-0.4,1.4-0.4
	s1,0.1,1.4,0.4c0.4,0.3,0.7,0.6,0.9,1.1c0.2,0.5,0.3,1,0.3,1.6V37.9z M188.3,37.6c0-0.7-0.1-1.2-0.4-1.5c-0.2-0.3-0.6-0.5-1-0.5
	c-0.4,0-0.8,0.2-1,0.5c-0.2,0.3-0.4,0.8-0.4,1.5v0.3c0,0.6,0.1,1.1,0.4,1.5c0.2,0.4,0.6,0.5,1,0.5c0.4,0,0.8-0.2,1-0.5
	c0.2-0.3,0.4-0.8,0.4-1.5V37.6z"/>
<path class="st3" d="M195.3,40.9H194v-2.7h-2.5v2.7h-1.3v-6.3h1.3v2.6h2.5v-2.6h1.3V40.9z"/>
<path class="st3" d="M200.6,35.6h-1.9v5.3h-1.3v-5.3h-1.9v-1.1h5.1V35.6z"/>
<path class="st3" d="M204.8,38.2h-2.5v1.7h2.9v1H201v-6.3h4.2v1.1h-2.9v1.5h2.5V38.2z"/>
<path class="st3" d="M207.6,38.3h-0.8v2.6h-1.3v-6.3h1.3v2.5h0.6l1.5-2.5h1.6l-1.9,3l2.2,3.3h-1.6L207.6,38.3z"/>
<path class="st3" d="M215.7,38.8c0,0.7-0.3,1.2-0.8,1.6c-0.5,0.4-1,0.6-1.8,0.6c-0.8,0-1.4-0.3-1.9-0.8c-0.5-0.5-0.7-1.3-0.7-2.3
	v-0.4c0-0.6,0.1-1.1,0.3-1.6c0.2-0.5,0.5-0.8,0.9-1.1c0.4-0.2,0.9-0.4,1.4-0.4c0.7,0,1.3,0.2,1.8,0.6c0.4,0.4,0.7,0.9,0.8,1.6h-1.3
	c0-0.4-0.1-0.7-0.3-0.9c-0.2-0.2-0.5-0.3-0.9-0.3c-0.4,0-0.8,0.2-1,0.5c-0.2,0.3-0.3,0.8-0.3,1.4V38c0,0.7,0.1,1.2,0.3,1.5
	c0.2,0.3,0.5,0.5,1,0.5c0.4,0,0.7-0.1,0.9-0.3c0.2-0.2,0.3-0.5,0.3-0.9H215.7z"/>
<path class="st3" d="M220.8,35.6h-1.9v5.3h-1.3v-5.3h-1.9v-1.1h5.1V35.6z"/>
<linearGradient id="SVGID_1_" gradientUnits="userSpaceOnUse" x1="149.7135" y1="43.2207" x2="149.7135" y2="3.2774" gradientTransform="matrix(1 0 0 -1 0 52)">
	<stop  offset="0" style="stop-color:#D7D7D7"/>
	<stop  offset="0.9987" style="stop-color:#BDBCBC"/>
	<stop  offset="1" style="stop-color:#BDBCBC"/>
</linearGradient>
<path class="st4" d="M149.4,8.8c-3.1,0.1-7.7,0.4-12.1,2.1c-0.2,0.1-0.3,0.3-0.3,0.5c0,5.4,0.9,14.5,1.5,17.5c0,0,0,0,0,0
	c2.2,7.8,9.9,11.2,11,11.7c0.1,0,0.2,0,0.3,0c1.2-0.5,8.8-3.9,11-11.7c0,0,0,0,0,0c0.6-3,1.5-12.6,1.5-17.5c0-0.2-0.1-0.4-0.3-0.5
	c-4.4-1.7-9-2-12.1-2.1c-0.1,0-0.2,0-0.3,0C149.6,8.8,149.5,8.8,149.4,8.8z"/>
<path class="st5" d="M149.9,39.2c1.2-0.5,8-3.7,9.9-10.7c0,0,0,0,0,0c0.5-2.8,1.4-11.3,1.4-16c0-0.2-0.1-0.4-0.3-0.5
	c-3.9-1.5-8.5-1.8-11.1-1.8h-0.2c-1.5,0-7.2,0.4-11.1,1.8c-0.2,0.1-0.3,0.3-0.3,0.5c0,4.5,0.9,13.3,1.4,16c0,0,0,0,0,0
	c1.9,7,8.6,10.2,9.9,10.7C149.6,39.2,149.8,39.2,149.9,39.2z"/>
<linearGradient id="SVGID_2_" gradientUnits="userSpaceOnUse" x1="149.5786" y1="41.7134" x2="151.2286" y2="18.1542" gradientTransform="matrix(1 0 0 -1 0 52)">
	<stop  offset="0" style="stop-color:#60BCEC"/>
	<stop  offset="1" style="stop-color:#1E73B7"/>
</linearGradient>
<path class="st6" d="M149.6,10.3c-1.4,0-7.1,0.3-10.9,1.8c-0.2,0.1-0.3,0.2-0.3,0.4c0.1,1.2,3.6,7,8.4,10.9c5.2,4.3,12,5.1,12.4,5.1
	c0.2,0,0.3-0.1,0.4-0.3c0.5-2.7,1.3-11.1,1.4-15.7c0-0.2-0.1-0.4-0.3-0.5c-3.8-1.4-8.3-1.8-10.9-1.8L149.6,10.3z"/>
<path class="st7" d="M154,14.2c0.5-0.1,1-0.1,1.5,0c0.5,0.1,0.9,0.3,1.3,0.6c0.4,0.3,0.7,0.6,1,1c0.3,0.4,0.4,0.9,0.5,1.4
	c0.1,0.5,0.1,1,0,1.4c-0.1,0.5-0.3,0.9-0.6,1.3c-0.3,0.4-0.6,0.7-1,1c-0.4,0.3-0.9,0.4-1.4,0.5c-0.7,0.1-1.3,0.1-1.9-0.2
	c-0.6-0.2-1.1-0.6-1.6-1.1c-0.4-0.5-0.7-1.1-0.8-1.8c-0.1-0.5-0.1-1,0-1.5c0.1-0.5,0.3-0.9,0.6-1.3c0.3-0.4,0.6-0.7,1-1
	C153.1,14.5,153.5,14.3,154,14.2z M154.1,14.8c-0.5,0.1-1,0.3-1.4,0.7c-0.4,0.4-0.7,0.8-0.9,1.3c-0.2,0.5-0.2,1.1-0.2,1.6
	c0.1,0.7,0.5,1.4,1.1,1.9c0.1,0.1,0.2,0.2,0.4,0.2c0.7,0.4,1.4,0.5,2.1,0.4c0.5-0.1,1-0.3,1.5-0.7c0.4-0.4,0.7-0.8,0.9-1.3
	c0.2-0.5,0.2-1.1,0.1-1.6c-0.1-0.4-0.2-0.8-0.4-1.1c-0.2-0.4-0.5-0.6-0.8-0.9c-0.3-0.2-0.7-0.4-1.1-0.5
	C155,14.8,154.5,14.8,154.1,14.8z M156.1,17.1l-0.2,0c-0.1,0-0.2,0-0.3-0.1c-0.2-0.4-0.5-0.6-1-0.6c-0.2,0-0.5,0.1-0.7,0.2
	c-0.2,0.1-0.4,0.3-0.5,0.5c-0.1,0.2-0.2,0.5-0.2,0.8c0,0.5,0.1,0.8,0.3,1.1c0.2,0.3,0.5,0.4,0.9,0.4c0.3,0,0.5-0.1,0.7-0.2
	c0.2-0.1,0.3-0.3,0.4-0.5c0-0.1,0.2-0.2,0.3-0.1l0.2,0.1c0.1,0,0.2,0.2,0.1,0.3c-0.1,0.2-0.2,0.4-0.3,0.5c-0.2,0.2-0.4,0.4-0.6,0.5
	c-0.2,0.1-0.5,0.2-0.8,0.2c-0.4,0-0.7-0.1-1-0.3c-0.3-0.2-0.5-0.4-0.7-0.8s-0.2-0.7-0.2-1.2c0-0.3,0-0.6,0.2-0.8
	c0.1-0.2,0.2-0.5,0.4-0.6s0.4-0.3,0.6-0.4c0.2-0.1,0.5-0.1,0.8-0.1c0.4,0,0.8,0.1,1.1,0.3c0.2,0.2,0.4,0.4,0.5,0.6
	C156.4,16.9,156.3,17,156.1,17.1z"/>
<path d="M6.3,21v-9.8h4.4c1.1,0,2,0.3,2.6,0.9c0.4,0.4,0.7,1,0.7,1.7c0,1-0.5,1.7-1.4,2.2c0.6,0.2,1.1,0.5,1.4,0.9
	c0.3,0.4,0.5,0.9,0.5,1.5c0,0.9-0.3,1.5-1,2c-0.7,0.5-1.5,0.7-2.6,0.7H6.3z M8,19.5h2.9c0.6,0,1.1-0.1,1.4-0.3
	c0.3-0.2,0.5-0.6,0.5-1c0-0.4-0.2-0.7-0.5-1c-0.3-0.2-0.8-0.3-1.5-0.3H8V19.5z M8,15.3h2.4c0.6,0,1-0.1,1.4-0.3
	c0.3-0.2,0.5-0.6,0.5-1c0-0.4-0.2-0.7-0.5-0.9c-0.3-0.2-0.7-0.3-1.3-0.3H8V15.3z M15.8,17.3L15.8,17.3c0-0.7,0.2-1.4,0.5-1.9
	c0.3-0.6,0.8-1.1,1.4-1.4c0.6-0.4,1.2-0.5,2-0.5c0.7,0,1.2,0.1,1.7,0.3c0.5,0.2,0.9,0.5,1.3,0.9l-1.1,1.1c-0.3-0.3-0.6-0.5-0.9-0.7
	c-0.3-0.2-0.6-0.2-1-0.2c-0.6,0-1.1,0.2-1.5,0.7c-0.4,0.5-0.6,1-0.6,1.7v0c0,0.7,0.2,1.2,0.6,1.7c0.4,0.5,1,0.7,1.6,0.7
	c0.4,0,0.7-0.1,1-0.2c0.3-0.2,0.6-0.4,0.9-0.7l1,1c-0.4,0.5-0.8,0.8-1.3,1c-0.5,0.2-1,0.4-1.7,0.4c-0.7,0-1.4-0.2-2-0.5
	c-0.6-0.3-1-0.8-1.4-1.4C15.9,18.7,15.8,18,15.8,17.3z M23.7,17.3c0-0.7,0.2-1.3,0.5-1.9c0.3-0.6,0.7-1.1,1.3-1.4
	c0.6-0.3,1.2-0.5,1.9-0.5c0.5,0,0.9,0.1,1.3,0.2c0.4,0.1,0.7,0.3,1,0.6c0.3,0.2,0.5,0.5,0.7,0.9c0.2,0.3,0.3,0.7,0.4,1.1
	c0.1,0.4,0.1,0.8,0.1,1.2c0,0.2,0,0.4,0,0.5h-5.4c0.1,0.6,0.3,1.1,0.7,1.4c0.4,0.3,0.9,0.5,1.4,0.5c0.4,0,0.8-0.1,1.1-0.2
	c0.3-0.1,0.6-0.4,0.9-0.7l1,0.9c-0.8,0.9-1.8,1.4-3,1.4c-0.7,0-1.4-0.2-1.9-0.5c-0.6-0.3-1-0.8-1.4-1.4
	C23.9,18.7,23.7,18.1,23.7,17.3z M25.4,16.8h3.8c-0.1-0.6-0.3-1-0.6-1.4c-0.3-0.4-0.8-0.5-1.3-0.5c-0.5,0-0.9,0.2-1.3,0.5
	C25.7,15.7,25.5,16.2,25.4,16.8z M36.3,17.3L36.3,17.3c0-0.7,0.2-1.4,0.5-1.9c0.3-0.6,0.8-1.1,1.4-1.4c0.6-0.4,1.2-0.5,2-0.5
	c0.7,0,1.2,0.1,1.7,0.3c0.5,0.2,0.9,0.5,1.3,0.9l-1.1,1.1c-0.3-0.3-0.6-0.5-0.9-0.7c-0.3-0.2-0.6-0.2-1-0.2c-0.6,0-1.1,0.2-1.5,0.7
	c-0.4,0.5-0.6,1-0.6,1.7v0c0,0.7,0.2,1.2,0.6,1.7c0.4,0.5,1,0.7,1.6,0.7c0.4,0,0.7-0.1,1-0.2c0.3-0.2,0.6-0.4,0.9-0.7l1,1
	c-0.4,0.5-0.8,0.8-1.3,1c-0.5,0.2-1,0.4-1.7,0.4c-0.7,0-1.4-0.2-2-0.5c-0.6-0.3-1-0.8-1.4-1.4C36.5,18.7,36.3,18,36.3,17.3z
	 M44.7,21v-7.4h1.6v5c1.3-1.8,2.4-3.5,3.5-5h1.6V21h-1.6v-4.9L46.3,21H44.7z M53.1,17.3L53.1,17.3c0-0.7,0.2-1.4,0.5-1.9
	c0.3-0.6,0.8-1.1,1.4-1.4c0.6-0.4,1.2-0.5,2-0.5c0.7,0,1.2,0.1,1.7,0.3c0.5,0.2,0.9,0.5,1.3,0.9l-1.1,1.1c-0.3-0.3-0.6-0.5-0.9-0.7
	c-0.3-0.2-0.6-0.2-1-0.2c-0.6,0-1.1,0.2-1.5,0.7c-0.4,0.5-0.6,1-0.6,1.7v0c0,0.7,0.2,1.2,0.6,1.7c0.4,0.5,1,0.7,1.6,0.7
	c0.4,0,0.7-0.1,1-0.2c0.3-0.2,0.6-0.4,0.9-0.7l1,1c-0.4,0.5-0.8,0.8-1.3,1c-0.5,0.2-1,0.4-1.7,0.4c-0.7,0-1.4-0.2-2-0.5
	c-0.6-0.3-1-0.8-1.4-1.4C53.3,18.7,53.1,18,53.1,17.3z M60.7,15.1v-1.5h6.5v1.5h-2.4V21h-1.7v-5.9H60.7z M68.1,17.3
	c0-0.7,0.2-1.3,0.5-1.9c0.3-0.6,0.7-1.1,1.3-1.4c0.6-0.3,1.2-0.5,1.9-0.5c0.5,0,0.9,0.1,1.3,0.2c0.4,0.1,0.7,0.3,1,0.6
	c0.3,0.2,0.5,0.5,0.7,0.9c0.2,0.3,0.3,0.7,0.4,1.1c0.1,0.4,0.1,0.8,0.1,1.2c0,0.2,0,0.4,0,0.5h-5.4c0.1,0.6,0.3,1.1,0.7,1.4
	c0.4,0.3,0.9,0.5,1.4,0.5c0.4,0,0.8-0.1,1.1-0.2c0.3-0.1,0.6-0.4,0.9-0.7l1,0.9c-0.8,0.9-1.8,1.4-3,1.4c-0.7,0-1.4-0.2-1.9-0.5
	c-0.6-0.3-1-0.8-1.4-1.4C68.2,18.7,68.1,18.1,68.1,17.3z M69.8,16.8h3.8c-0.1-0.6-0.3-1-0.6-1.4c-0.3-0.4-0.8-0.5-1.3-0.5
	c-0.5,0-0.9,0.2-1.3,0.5C70.1,15.7,69.8,16.2,69.8,16.8z M76.9,21v-7.4h1.7l2.3,3.4l2.3-3.4h1.7V21h-1.7v-4.9l-2.3,3.3l-2.3-3.3V21
	H76.9z M87.1,21v-7.4h1.7v2.6h1.6c0.6,0,1.1,0.1,1.5,0.2c0.4,0.2,0.8,0.4,1,0.8c0.3,0.4,0.4,0.8,0.4,1.3c0,0.8-0.3,1.4-0.8,1.8
	C92,20.8,91.3,21,90.4,21H87.1z M88.7,19.6h1.5c0.4,0,0.8-0.1,1-0.3c0.2-0.2,0.4-0.5,0.4-0.8c0-0.3-0.1-0.6-0.4-0.8
	c-0.2-0.2-0.6-0.3-1-0.3h-1.4V19.6z M94.4,21v-7.4h1.7V21H94.4z"/>
<path class="st8" d="M210.1,7.1h-30.7c-5.2,0-9.4,4.5-9.4,10l0,0c0,5.5,4.2,10,9.4,10h30.7c5.2,0,9.4-4.5,9.4-10l0,0
	C219.5,11.6,215.3,7.1,210.1,7.1z"/>
<path class="st9" d="M178.9,16c1,0,2,0,3,0c0.5,0,0.7,0.2,0.7,0.8c0,0.7,0,1.4,0,2s-0.2,0.8-0.7,0.8c-0.4,0-0.9,0-1.3,0
	c-1.6,0-3.1,0-4.7,0c-0.7,0-0.9-0.2-0.9-0.9c0-0.6,0-1.3,0-1.9c0-0.6,0.2-0.8,0.8-0.8C176.9,16,177.9,16,178.9,16z"/>
<path class="st9" d="M178.9,22.1c-1.1,0-2.2,0-3.3,0c-0.4,0-0.5-0.1-0.5-0.4c0-0.3,0.2-0.4,0.5-0.4c2.2,0,4.4,0,6.6,0
	c0.3,0,0.5,0.2,0.5,0.4c0,0.3-0.2,0.4-0.5,0.4C181.1,22.1,180,22.1,178.9,22.1z"/>
<path class="st9" d="M176.8,20.9c-0.4,0-0.8,0-1.3,0c-0.3,0-0.4-0.1-0.4-0.4s0.2-0.4,0.4-0.4c0.8,0,1.7,0,2.5,0
	c0.3,0,0.4,0.1,0.4,0.4s-0.2,0.4-0.4,0.4C177.6,20.9,177.2,20.9,176.8,20.9z"/>
<path class="st8" d="M178.9,18.8c-0.9,0-1.8,0-2.7,0c-0.2,0-0.3-0.1-0.3-0.3c0-0.5,0-0.9,0-1.4c0-0.2,0-0.2,0.2-0.2
	c1.9,0,3.8,0,5.6,0c0.2,0,0.2,0.1,0.2,0.2c0,0.5,0,1,0,1.4c0,0.2-0.1,0.3-0.3,0.3C180.7,18.8,179.8,18.8,178.9,18.8z"/>
<path d="M176.7,12.9c0,0.2-0.1,0.4-0.2,0.5s-0.3,0.2-0.6,0.2h-0.7v-2.5h1.4v0.3h-1.1v0.8h0.4c0.2,0,0.4,0,0.5,0.1
	c0.1,0,0.2,0.1,0.3,0.2C176.7,12.6,176.7,12.7,176.7,12.9z M175.5,13.3h0.4c0.2,0,0.3,0,0.4-0.1c0.1-0.1,0.1-0.2,0.1-0.4
	c0-0.2,0-0.3-0.1-0.3c-0.1-0.1-0.3-0.1-0.5-0.1h-0.3V13.3z"/>
<path d="M178,11.1h0.3v1.4c0,0.2,0,0.5,0,0.7l0,0l1.3-2h0.3v2.4h-0.3v-1.4c0-0.2,0-0.5,0-0.7l0,0l-1.3,2H178V11.1z"/>
<path d="M182.7,11.8c0,0.2-0.1,0.4-0.2,0.6c-0.2,0.1-0.4,0.2-0.7,0.2h-0.3v1h-0.3v-2.5h0.6C182.5,11.1,182.7,11.4,182.7,11.8z
	 M181.5,12.4h0.2c0.2,0,0.4,0,0.5-0.1c0.1-0.1,0.2-0.2,0.2-0.4c0-0.2-0.1-0.3-0.2-0.4c-0.1-0.1-0.3-0.1-0.5-0.1h-0.3v1H181.5z"/>
<path d="M184.7,12.3l-0.9-1.2h0.3l0.9,1.2v-1.2h0.3v1.2l0.9-1.2h0.3l-0.9,1.2l0.9,1.3h-0.3l-0.9-1.2v1.2H185v-1.3l-1,1.3h-0.3
	L184.7,12.3z"/>
<path d="M189.1,13.6l-0.3-0.8h-0.9l-0.3,0.8h-0.3l0.9-2.4h0.2l0.9,2.4H189.1z M188.7,12.5l-0.3-0.8c0-0.1-0.1-0.2-0.1-0.4
	c0,0.1-0.1,0.2-0.1,0.4l-0.3,0.8H188.7z"/>
<path d="M193.8,13.2h-0.3l-1.1-1.2v1.2h-0.3v-2.4h0.3V12l1-1.2h0.3l-1,1.2L193.8,13.2z"/>
<path d="M196.9,12.4c0,0.4-0.1,0.7-0.3,0.9c-0.2,0.2-0.4,0.3-0.8,0.3c-0.3,0-0.6-0.1-0.8-0.3c-0.2-0.2-0.3-0.5-0.3-0.9
	s0.1-0.7,0.3-0.9c0.2-0.2,0.4-0.3,0.8-0.3c0.3,0,0.6,0.1,0.8,0.3C196.8,11.7,196.9,12,196.9,12.4z M195.1,12.4
	c0,0.3,0.1,0.6,0.2,0.7c0.1,0.2,0.3,0.3,0.6,0.3c0.3,0,0.5-0.1,0.6-0.3c0.1-0.2,0.2-0.4,0.2-0.7c0-0.3-0.1-0.6-0.2-0.7
	c-0.1-0.2-0.3-0.3-0.6-0.3c-0.3,0-0.5,0.1-0.6,0.3C195.2,11.8,195.1,12,195.1,12.4z"/>
<path d="M200,13.6h-0.3v-1.2h-1.2v1.1h-0.3v-2.4h0.3v1h1.2v-1h0.3V13.6z"/>
<path d="M202.2,13.6h-0.3v-2.2h-0.7v-0.3h1.7v0.3h-0.7V13.6z"/>
<path d="M205.4,13.6h-1.3v-2.5h1.3v0.3h-1v0.8h1v0.2h-1v0.9h1V13.6z"/>
<path d="M208.5,13.6h-0.3v-1.2H207v1.1h-0.3v-2.4h0.3v1h1.2v-1h0.3V13.6z"/>
<path d="M210.6,13.6h-0.3v-2.2h-0.7v-0.3h1.7v0.3h-0.7V13.6z"/>
<path d="M214,13.6l-0.3-0.8h-0.9l-0.3,0.8h-0.3l0.9-2.4h0.2l0.9,2.4H214z M213.6,12.5l-0.3-0.8c0-0.1-0.1-0.2-0.1-0.4
	c0,0.1-0.1,0.2-0.1,0.4l-0.3,0.8H213.6z"/>
<polygon class="st7" points="194.8,21.7 192.6,19.2 194.8,16.6 194.2,16 192.1,18.5 190,16 189.4,16.6 191.6,19.2 189.4,21.8 
	190,22.3 192.1,19.8 194.2,22.3 "/>
<g>
	<rect x="186.2" y="17" class="st7" width="0.8" height="5.2"/>
	<rect x="184" y="16.2" class="st7" width="5.1" height="0.8"/>
</g>
<g>
	<rect x="197.4" y="17" class="st7" width="0.8" height="5.2"/>
	<rect x="195.2" y="16.2" class="st7" width="5.1" height="0.8"/>
</g>
<path d="M200.7,21L200.7,21c-0.3,0-0.6,0.3-0.6,0.6l0,0c0,0.3,0.3,0.6,0.6,0.6l0,0c0.3,0,0.6-0.3,0.6-0.6l0,0
	C201.3,21.2,201,21,200.7,21z"/>
<path d="M209.9,16.2v4.1c0,0.7,0.5,1.3,1.2,1.3h1c0.7,0,1.2-0.6,1.2-1.3v-4.1h0.8v4.1c0,1.2-0.9,2.1-2,2.1h-1c-1.1,0-2-0.9-2-2.1
	v-4.1H209.9z"/>
<path d="M207.4,22.4l0.6-0.6l-1.8-2.1h0.1c0.8,0,1.4-0.7,1.4-1.5v-0.5c0-0.8-0.6-1.5-1.4-1.5h-2.6l0,0h-0.8l0,0v3.5v2.5h0.8v-2.5
	h1.4L207.4,22.4z M203.7,17.1h2.6c0.3,0,0.6,0.3,0.6,0.7v0.5c0,0.4-0.3,0.7-0.6,0.7h-2.6C203.7,19,203.7,17.1,203.7,17.1z"/>
</svg>
