<?xml version="1.0" encoding="utf-8"?>
<!-- Generator: Adobe Illustrator 19.2.0, SVG Export Plug-In . SVG Version: 6.00 Build 0)  -->
<svg version="1.1" id="Layer_1" xmlns="http://www.w3.org/2000/svg" xmlns:xlink="http://www.w3.org/1999/xlink" x="0px" y="0px"
	 width="41px" height="47px" viewBox="0 0 41 47" style="enable-background:new 0 0 41 47;" xml:space="preserve">
<style type="text/css">
	.st0{opacity:0.5;fill:#00B9FF;enable-background:new    ;}
</style>
<path class="st0" d="M8.2,19.2c-0.1,2.8,0.7,5.4,2,7.8c0.4,0.7,0.3,1.1-0.2,1.7c-3.1,3.1-6.3,6.2-9.4,9.3c-0.7,0.6-0.7,1,0,1.7
	c1.3,1.2,2.6,2.5,3.9,3.8c0.6,0.6,0.9,0.6,1.6,0c3.1-3.2,6.3-6.2,9.4-9.4c0.7-0.6,1.1-0.7,1.9-0.3c11.2,5.4,24.1-2.7,23.7-15
	C40.8,10.6,34,3.5,25.8,3C17,2.5,9.5,8.5,8.3,17C8.2,17.7,8.2,18.5,8.2,19.2z M16.2,19.3c0-4.6,3.7-8.4,8.3-8.4
	c4.7,0,8.5,3.8,8.5,8.4c0,4.5-3.8,8.3-8.4,8.3C20,27.6,16.2,23.9,16.2,19.3z"/>
</svg>
