<svg width="19" height="20" viewBox="0 0 19 20" fill="none" xmlns="http://www.w3.org/2000/svg">
<path fill-rule="evenodd" clip-rule="evenodd" d="M13.861 5.47986C13.861 8.19074 11.5601 10.3928 8.74225 10.3928C5.92361 10.3928 3.62268 8.19074 3.62268 5.47986C3.62268 2.75763 5.92361 0.555542 8.74225 0.555542C11.5601 0.555542 13.861 2.75763 13.861 5.47986ZM11.2563 5.47986C11.2563 4.13657 10.1269 3.05011 8.74225 3.05011C7.35683 3.05011 6.22743 4.13576 6.22824 5.47986C6.22824 6.8118 7.35764 7.89826 8.74225 7.89826C10.1269 7.89826 11.2563 6.8118 11.2563 5.47986ZM4.19936 13.2317C2.91278 12.4345 2.34889 11.9678 2.84554 10.9916C3.13801 10.4374 3.93848 9.96991 4.99901 10.7752C4.99901 10.7752 6.43142 11.873 8.74369 11.873C11.0552 11.873 12.4884 10.7752 12.4884 10.7752C13.5497 9.97396 14.3469 10.4374 14.6427 10.9916C15.132 11.9678 14.5681 12.4337 13.2815 13.235L13.2824 13.2358C12.2016 13.8969 10.7133 14.1586 9.7305 14.2574C9.59418 14.1261 10.7834 15.2666 11.8733 16.3119C12.7331 17.1365 13.5311 17.9018 13.5675 17.9365C14.6686 19.0221 12.8773 20.7195 11.7641 19.6711C11.0227 18.9465 9.94095 17.9058 8.80818 16.816L8.75261 16.7625L5.74114 19.667C4.62876 20.7114 2.83662 18.9994 3.94982 17.9324C7.26832 14.7404 7.76089 14.2666 7.77461 14.2534C7.76744 14.2603 7.63593 14.3868 7.77471 14.2534C7.77468 14.2534 7.77464 14.2534 7.77461 14.2534C6.804 14.1545 5.29307 13.9074 4.19936 13.2317Z" fill="white"/>
</svg>
