<svg width="16" height="16" viewBox="0 0 16 16" fill="none" xmlns="http://www.w3.org/2000/svg">
<path fill-rule="evenodd" clip-rule="evenodd" d="M8 15C11.866 15 15 11.866 15 8C15 4.13401 11.866 1 8 1C4.13401 1 1 4.13401 1 8C1 11.866 4.13401 15 8 15ZM8 16C12.4183 16 16 12.4183 16 8C16 3.58172 12.4183 0 8 0C3.58172 0 0 3.58172 0 8C0 12.4183 3.58172 16 8 16Z" fill="white"/>
<path d="M7.36 13.176V11.964C6.296 11.828 5.352 11.448 4.528 10.824L5.464 9.456C6.152 9.976 6.804 10.3 7.42 10.428V8.52C6.524 8.28 5.868 7.968 5.452 7.584C5.044 7.192 4.84 6.648 4.84 5.952C4.84 5.296 5.068 4.76 5.524 4.344C5.98 3.928 6.592 3.68 7.36 3.6V2.904H8.608V3.624C9.416 3.736 10.16 4.032 10.84 4.512L10.036 5.916C9.524 5.572 9.028 5.336 8.548 5.208V7.02C9.468 7.268 10.132 7.596 10.54 8.004C10.948 8.404 11.152 8.944 11.152 9.624C11.152 10.28 10.92 10.816 10.456 11.232C10 11.648 9.384 11.9 8.608 11.988V13.176H7.36ZM7.42 6.72V5.1C6.868 5.172 6.592 5.428 6.592 5.868C6.592 6.06 6.648 6.224 6.76 6.36C6.88 6.488 7.1 6.608 7.42 6.72ZM8.548 10.488C9.116 10.4 9.4 10.136 9.4 9.696C9.4 9.488 9.336 9.32 9.208 9.192C9.088 9.056 8.868 8.928 8.548 8.808V10.488Z" fill="#FFCE0D"/>
</svg>
