<svg width="17" height="18" viewBox="0 0 17 18" fill="none" xmlns="http://www.w3.org/2000/svg">
<path d="M7.71457 16.9959C6.03909 16.9959 4.36763 16.9638 2.69216 17.0039C1.30195 17.0361 -0.0159262 15.678 0.000145503 14.316C0.0363069 10.957 0.0322889 7.59396 0.000145503 4.23095C-0.0119083 2.94522 1.21758 1.53894 2.67207 1.56305C3.76896 1.57912 4.86987 1.56305 5.96677 1.56707C6.38062 1.56707 6.69 1.78805 6.81455 2.14967C6.93107 2.49119 6.83866 2.88495 6.54133 3.08183C6.37258 3.19433 6.15159 3.27067 5.9507 3.27469C4.84577 3.29478 3.74084 3.28272 2.63591 3.28674C2.51135 3.28674 2.38278 3.29879 2.25822 3.3229C1.96893 3.37915 1.8042 3.568 1.75196 3.84925C1.72785 3.98184 1.71982 4.11443 1.71982 4.24703C1.71982 7.58191 1.71982 10.9168 1.71982 14.2517C1.71982 15.0753 1.93277 15.2883 2.75243 15.2883C6.05516 15.2883 9.35388 15.2883 12.6566 15.2883C12.7651 15.2883 12.8696 15.2923 12.9781 15.2803C13.4923 15.232 13.7174 14.991 13.7254 14.4727C13.7294 13.8499 13.7254 13.2271 13.7254 12.6043C13.7254 12.082 13.7254 11.5597 13.7254 11.0373C13.7254 10.5311 14.083 10.1534 14.5611 10.1453C15.0553 10.1373 15.437 10.4989 15.441 11.0172C15.4491 12.1623 15.4571 13.3075 15.441 14.4526C15.4169 15.7825 14.1714 16.9919 12.8414 16.9959C11.1298 16.9999 9.42219 16.9959 7.71457 16.9959Z" fill="black"/>
<path d="M16.9998 2.80453C16.9877 3.41526 16.8069 3.84116 16.4373 4.21081C14.2917 6.34433 12.1542 8.4899 10.0207 10.6315C9.83181 10.8243 9.61886 10.9489 9.35367 11.0132C8.3291 11.2703 7.30855 11.5435 6.28799 11.8087C5.56477 11.9976 5.01431 11.4471 5.19914 10.7199C5.47236 9.66314 5.73754 8.61044 6.02683 7.55774C6.07906 7.37292 6.19156 7.18809 6.32416 7.05148C7.30051 6.05906 8.28892 5.07868 9.27332 4.09429C10.4827 2.88087 11.6921 1.66746 12.9015 0.450028C13.4962 -0.144625 14.7297 -0.152661 15.3484 0.441992C15.7583 0.839767 16.156 1.24156 16.5578 1.64737C16.8953 1.99693 16.9918 2.43488 16.9998 2.80453ZM7.2081 9.79975C7.74248 9.65912 8.24071 9.53456 8.73491 9.39394C8.82331 9.36983 8.9117 9.30152 8.98001 9.23322C10.2497 7.96757 11.5153 6.69791 12.781 5.42824C12.8211 5.38806 12.8573 5.33985 12.8854 5.31172C12.4796 4.90591 12.0818 4.51617 11.6801 4.1184C11.6881 4.11438 11.676 4.1184 11.664 4.12643C10.3501 5.44029 9.03224 6.75416 7.71838 8.07204C7.67418 8.11623 7.62998 8.1765 7.61391 8.23677C7.48132 8.74705 7.34873 9.25733 7.2081 9.79975ZM14.143 1.6996C13.7533 2.09336 13.3595 2.48712 12.9979 2.85275C13.3837 3.23847 13.7774 3.63223 14.1591 4.01393C14.5368 3.63625 14.9265 3.24651 15.3082 2.86079C14.9225 2.4831 14.5328 2.08934 14.143 1.6996Z" fill="black"/>
</svg>
