<svg width="75" height="75" viewBox="0 0 75 75" fill="none" xmlns="http://www.w3.org/2000/svg">
<path fill-rule="evenodd" clip-rule="evenodd" d="M60.5236 8.67881C59.9186 8.20414 59.0157 7.9284 58.2913 8.01832C58.23 8.02593 58.1683 8.02975 58.1065 8.02975H56.6172C55.7888 8.02975 55.1172 7.35818 55.1172 6.52975C55.1172 5.70132 55.7888 5.02975 56.6172 5.02975H58.0219C59.6302 4.86217 61.3297 5.45063 62.4885 6.40962C62.5234 6.43851 62.5569 6.46896 62.5891 6.50089C63.7617 7.66548 64.4218 9.29214 64.0746 11.1198V64.0693C64.0746 65.8379 63.6514 67.4341 62.5277 68.578C61.3988 69.7272 59.8245 70.1547 58.1065 70.1547H56.6172C55.7888 70.1547 55.1172 69.4832 55.1172 68.6547C55.1172 67.8263 55.7888 67.1547 56.6172 67.1547H58.1065C59.3673 67.1547 60.027 66.8427 60.3875 66.4757C60.7532 66.1035 61.0746 65.407 61.0746 64.0693V10.9672C61.0746 10.8571 61.0868 10.7472 61.1108 10.6397C61.2768 9.89772 61.0651 9.24134 60.5236 8.67881Z" fill="#434343"/>
<path fill-rule="evenodd" clip-rule="evenodd" d="M7.46798 5.07147C6.64838 5.07147 5.98926 5.74085 5.98926 6.52981V68.6548C5.98926 69.4438 6.64838 70.1131 7.46798 70.1131H49.1701C49.9897 70.1131 50.6488 69.4438 50.6488 68.6548V6.52981C50.6488 5.74085 49.9897 5.07147 49.1701 5.07147H7.46798ZM2.98926 6.52981C2.98926 4.0646 5.01099 2.07147 7.46798 2.07147H49.1701C51.6271 2.07147 53.6488 4.0646 53.6488 6.52981V68.6548C53.6488 71.12 51.6271 73.1131 49.1701 73.1131H7.46798C5.01099 73.1131 2.98926 71.12 2.98926 68.6548V6.52981Z" fill="#434343"/>
<path fill-rule="evenodd" clip-rule="evenodd" d="M11.9258 14.4465C11.9258 13.618 12.5974 12.9465 13.4258 12.9465H41.7237C42.5521 12.9465 43.2237 13.618 43.2237 14.4465C43.2237 15.2749 42.5521 15.9465 41.7237 15.9465H13.4258C12.5974 15.9465 11.9258 15.2749 11.9258 14.4465Z" fill="#0EC479"/>
<path fill-rule="evenodd" clip-rule="evenodd" d="M11.9258 29.0923C11.9258 28.2639 12.5974 27.5923 13.4258 27.5923H41.7237C42.5521 27.5923 43.2237 28.2639 43.2237 29.0923C43.2237 29.9207 42.5521 30.5923 41.7237 30.5923H13.4258C12.5974 30.5923 11.9258 29.9207 11.9258 29.0923Z" fill="#434343"/>
<path fill-rule="evenodd" clip-rule="evenodd" d="M11.9258 44.0923C11.9258 43.2639 12.5974 42.5923 13.4258 42.5923H41.7237C42.5521 42.5923 43.2237 43.2639 43.2237 44.0923C43.2237 44.9207 42.5521 45.5923 41.7237 45.5923H13.4258C12.5974 45.5923 11.9258 44.9207 11.9258 44.0923Z" fill="#434343"/>
<path fill-rule="evenodd" clip-rule="evenodd" d="M11.9258 59.0923C11.9258 58.2639 12.5974 57.5923 13.4258 57.5923H41.7237C42.5521 57.5923 43.2237 58.2639 43.2237 59.0923C43.2237 59.9207 42.5521 60.5923 41.7237 60.5923H13.4258C12.5974 60.5923 11.9258 59.9207 11.9258 59.0923Z" fill="#434343"/>
<path fill-rule="evenodd" clip-rule="evenodd" d="M11.9258 21.8423C11.9258 21.0139 12.5974 20.3423 13.4258 20.3423H32.7875C33.6159 20.3423 34.2875 21.0139 34.2875 21.8423C34.2875 22.6707 33.6159 23.3423 32.7875 23.3423H13.4258C12.5974 23.3423 11.9258 22.6707 11.9258 21.8423Z" fill="#434343"/>
<path fill-rule="evenodd" clip-rule="evenodd" d="M11.9258 36.4881C11.9258 35.6597 12.5974 34.9881 13.4258 34.9881H32.7875C33.6159 34.9881 34.2875 35.6597 34.2875 36.4881C34.2875 37.3165 33.6159 37.9881 32.7875 37.9881H13.4258C12.5974 37.9881 11.9258 37.3165 11.9258 36.4881Z" fill="#0EC479"/>
<path fill-rule="evenodd" clip-rule="evenodd" d="M11.9258 51.4881C11.9258 50.6597 12.5974 49.9881 13.4258 49.9881H32.7875C33.6159 49.9881 34.2875 50.6597 34.2875 51.4881C34.2875 52.3166 33.6159 52.9881 32.7875 52.9881H13.4258C12.5974 52.9881 11.9258 52.3166 11.9258 51.4881Z" fill="#0EC479"/>
<path fill-rule="evenodd" clip-rule="evenodd" d="M69.4597 11.6372C68.8546 11.1625 67.9518 10.8868 67.2274 10.9767C66.4053 11.0788 65.6561 10.495 65.5541 9.67292C65.452 8.85081 66.0357 8.10161 66.8578 7.99955C68.4954 7.79626 70.2418 8.38908 71.4245 9.36799C71.4595 9.39688 71.493 9.42733 71.5252 9.45926C72.6978 10.6239 73.3579 12.2505 73.0107 14.0782V61.173C73.1859 62.8288 72.5408 64.4208 71.3762 65.5774C70.188 66.7576 68.5497 67.3951 66.8578 67.185C66.0357 67.083 65.452 66.3338 65.5541 65.5117C65.6561 64.6895 66.4053 64.1058 67.2274 64.2079C67.9186 64.2937 68.6632 64.0437 69.2622 63.4488C69.8611 62.854 70.1074 62.1209 70.0225 61.4463C70.0146 61.3841 70.0107 61.3216 70.0107 61.259V13.9256C70.0107 13.8154 70.0229 13.7056 70.0469 13.5981C70.2129 12.8561 70.0012 12.1997 69.4597 11.6372Z" fill="#434343"/>
</svg>
