<svg width="16" height="16" viewBox="0 0 16 16" fill="none" xmlns="http://www.w3.org/2000/svg">
<path fill-rule="evenodd" clip-rule="evenodd" d="M8 15C11.866 15 15 11.866 15 8C15 4.13401 11.866 1 8 1C4.13401 1 1 4.13401 1 8C1 11.866 4.13401 15 8 15ZM8 16C12.4183 16 16 12.4183 16 8C16 3.58172 12.4183 0 8 0C3.58172 0 0 3.58172 0 8C0 12.4183 3.58172 16 8 16Z" fill="white"/>
<path d="M6.978 9.668L6.656 7.4L6.726 7.33C8.35933 7.26466 9.176 6.83066 9.176 6.028C9.176 5.71066 9.064 5.468 8.84 5.3C8.616 5.12266 8.29867 5.034 7.888 5.034C7.132 5.034 6.432 5.356 5.788 6L4.5 4.586C5.41467 3.578 6.558 3.074 7.93 3.074C8.95667 3.074 9.778 3.33066 10.394 3.844C11.01 4.35733 11.318 5.076 11.318 6C11.318 7.50266 10.3987 8.44066 8.56 8.814L8.406 9.668H6.978ZM6.516 13V10.76H8.784V13H6.516Z" fill="#FFCE0D"/>
</svg>
