<svg width="61" height="19" viewBox="0 0 61 19" fill="none" xmlns="http://www.w3.org/2000/svg">
<path d="M0 0H61L55 9.5L61 19H0V0Z" fill="#FF0D0D"/>
<path d="M12.5 4L14.1164 7.2752L17.7308 7.80041L15.1154 10.3498L15.7328 13.9496L12.5 12.25L9.26718 13.9496L9.88459 10.3498L7.26919 7.80041L10.8836 7.2752L12.5 4Z" fill="white"/>
<path d="M20.4805 6.96875V5.59766H27.2949V6.96875H24.6348V14H23.1465V6.96875H20.4805Z" fill="white"/>
<path d="M28.4902 9.79883C28.4902 9.21289 28.5996 8.65625 28.8184 8.12891C29.0371 7.59766 29.3379 7.13672 29.7207 6.74609C30.1035 6.35156 30.5703 6.03906 31.1211 5.80859C31.6719 5.57422 32.2617 5.45703 32.8906 5.45703C33.5234 5.45703 34.1133 5.57227 34.6602 5.80273C35.207 6.0293 35.6699 6.33789 36.0488 6.72852C36.4316 7.11914 36.7305 7.58008 36.9453 8.11133C37.1641 8.64258 37.2734 9.20508 37.2734 9.79883C37.2734 10.3848 37.1641 10.9434 36.9453 11.4746C36.7266 12.0059 36.4258 12.4688 36.043 12.8633C35.6602 13.2539 35.1914 13.5664 34.6367 13.8008C34.0859 14.0312 33.4961 14.1465 32.8672 14.1465C32.0273 14.1465 31.2715 13.9512 30.5996 13.5605C29.9277 13.166 29.4082 12.6387 29.041 11.9785C28.6738 11.3184 28.4902 10.5918 28.4902 9.79883ZM30.0371 9.79883C30.0371 10.3418 30.1562 10.8418 30.3945 11.2988C30.6367 11.752 30.9766 12.1133 31.4141 12.3828C31.8555 12.6523 32.3477 12.7871 32.8906 12.7871C33.4336 12.7871 33.9219 12.6543 34.3555 12.3887C34.793 12.1191 35.1309 11.7578 35.3691 11.3047C35.6074 10.8516 35.7266 10.3496 35.7266 9.79883C35.7266 9.25586 35.6055 8.75781 35.3633 8.30469C35.1211 7.84766 34.7793 7.48438 34.3379 7.21484C33.9004 6.94531 33.4102 6.81055 32.8672 6.81055C32.3242 6.81055 31.834 6.94531 31.3965 7.21484C30.9629 7.48047 30.627 7.83984 30.3887 8.29297C30.1543 8.74609 30.0371 9.24805 30.0371 9.79883Z" fill="white"/>
<path d="M39.0547 14V5.59766H45.9102V14H44.4336V6.93359H40.5312V14H39.0547Z" fill="white"/>
</svg>
