<svg width="41" height="12" viewBox="0 0 41 12" fill="none" xmlns="http://www.w3.org/2000/svg">
<path d="M0 0H41L37.0952 6L41 12H0V0Z" fill="#FF0D0D"/>
<path d="M13.3604 3.72656V2.69824H18.4712V3.72656H16.4761V9H15.3599V3.72656H13.3604Z" fill="white"/>
<path d="M19.3677 5.84912C19.3677 5.40967 19.4497 4.99219 19.6138 4.59668C19.7778 4.19824 20.0034 3.85254 20.2905 3.55957C20.5776 3.26367 20.9277 3.0293 21.3408 2.85645C21.7539 2.68066 22.1963 2.59277 22.668 2.59277C23.1426 2.59277 23.585 2.6792 23.9951 2.85205C24.4053 3.02197 24.7524 3.25342 25.0366 3.54639C25.3237 3.83936 25.5479 4.18506 25.709 4.5835C25.873 4.98193 25.9551 5.40381 25.9551 5.84912C25.9551 6.28857 25.873 6.70752 25.709 7.10596C25.5449 7.50439 25.3193 7.85156 25.0322 8.14746C24.7451 8.44043 24.3936 8.6748 23.9775 8.85059C23.5645 9.02344 23.1221 9.10986 22.6504 9.10986C22.0205 9.10986 21.4536 8.96338 20.9497 8.67041C20.4458 8.37451 20.0562 7.979 19.7808 7.48389C19.5054 6.98877 19.3677 6.44385 19.3677 5.84912ZM20.5278 5.84912C20.5278 6.25635 20.6172 6.63135 20.7959 6.97412C20.9775 7.31396 21.2324 7.58496 21.5605 7.78711C21.8916 7.98926 22.2607 8.09033 22.668 8.09033C23.0752 8.09033 23.4414 7.99072 23.7666 7.7915C24.0947 7.58936 24.3481 7.31836 24.5269 6.97852C24.7056 6.63867 24.7949 6.26221 24.7949 5.84912C24.7949 5.44189 24.7041 5.06836 24.5225 4.72852C24.3408 4.38574 24.0845 4.11328 23.7534 3.91113C23.4253 3.70898 23.0576 3.60791 22.6504 3.60791C22.2432 3.60791 21.8755 3.70898 21.5474 3.91113C21.2222 4.11035 20.9702 4.37988 20.7915 4.71973C20.6157 5.05957 20.5278 5.43604 20.5278 5.84912Z" fill="white"/>
<path d="M27.291 9V2.69824H32.4326V9H31.3252V3.7002H28.3984V9H27.291Z" fill="white"/>
<path d="M6.5 2L7.52862 4.08422L9.8287 4.41844L8.16435 6.04078L8.55725 8.33156L6.5 7.25L4.44275 8.33156L4.83565 6.04078L3.1713 4.41844L5.47138 4.08422L6.5 2Z" fill="white"/>
</svg>
