<svg width="19" height="20" viewBox="0 0 19 20" fill="none" xmlns="http://www.w3.org/2000/svg">
<path d="M19.0002 4.8318C18.335 5.12361 17.6261 5.31704 16.8871 5.41095C17.6474 4.95702 18.2276 4.2437 18.5004 3.38392C17.7916 3.80654 17.009 4.10507 16.1749 4.27166C15.5018 3.55498 14.5425 3.11111 13.496 3.11111C11.4656 3.11111 9.83104 4.75913 9.83104 6.77945C9.83104 7.07015 9.85564 7.34966 9.91602 7.61576C6.86708 7.46706 4.16921 6.00576 2.35684 3.77971C2.04043 4.32868 1.85484 4.95702 1.85484 5.63345C1.85484 6.90356 2.5089 8.02944 3.48384 8.68127C2.89463 8.67009 2.31659 8.49902 1.82688 8.22957C1.82688 8.24075 1.82688 8.25529 1.82688 8.26982C1.82688 10.052 3.09811 11.5323 4.76513 11.8733C4.46661 11.9549 4.14126 11.9941 3.80361 11.9941C3.56881 11.9941 3.33179 11.9806 3.10929 11.9315C3.58447 13.3838 4.93284 14.4516 6.53613 14.4862C5.28838 15.4623 3.7041 16.0504 1.989 16.0504C1.68824 16.0504 1.39979 16.037 1.11133 16.0001C2.73586 17.0477 4.66115 17.6458 6.73738 17.6458C13.486 17.6458 17.1756 12.0556 17.1756 7.20991C17.1756 7.04779 17.17 6.89126 17.1621 6.73585C17.89 6.21931 18.5016 5.57419 19.0002 4.8318Z" fill="white"/>
</svg>
