<svg width="20" height="20" viewBox="0 0 20 20" fill="none" xmlns="http://www.w3.org/2000/svg">
<path d="M18.8494 14.1235C18.7983 14.0379 18.4821 13.3508 16.9605 11.9386C15.3675 10.4597 15.5815 10.6999 17.5002 8.14283C18.6687 6.58554 19.1359 5.63452 18.9897 5.22796C18.8506 4.84042 17.9911 4.94265 17.9911 4.94265L15.1333 4.9593C15.1333 4.9593 14.9217 4.93077 14.7636 5.02468C14.6103 5.1174 14.5116 5.33138 14.5116 5.33138C14.5116 5.33138 14.0587 6.5368 13.4548 7.56152C12.1816 9.72389 11.6716 9.83801 11.4636 9.70368C10.9798 9.39103 11.101 8.44596 11.101 7.7755C11.101 5.67969 11.4184 4.80595 10.4817 4.58008C10.1702 4.50519 9.94196 4.45526 9.14667 4.44694C8.1267 4.43624 7.26247 4.4505 6.77388 4.68945C6.44816 4.84874 6.19733 5.20418 6.35068 5.22439C6.53969 5.24936 6.96765 5.3397 7.19471 5.64878C7.48833 6.04702 7.47763 6.94336 7.47763 6.94336C7.47763 6.94336 7.64644 9.41006 7.08415 9.71676C6.6978 9.92717 6.1688 9.49802 5.03352 7.53536C4.45221 6.53085 4.01237 5.41935 4.01237 5.41935C4.01237 5.41935 3.92796 5.2125 3.77699 5.10195C3.59392 4.96762 3.33715 4.92482 3.33715 4.92482L0.619615 4.94147C0.619615 4.94147 0.211867 4.95335 0.0620815 5.13048C-0.0710609 5.28859 0.0513825 5.61431 0.0513825 5.61431C0.0513825 5.61431 2.17928 10.5917 4.58773 13.1012C6.79766 15.4015 9.30596 15.2505 9.30596 15.2505H10.4424C10.4424 15.2505 10.786 15.2124 10.9607 15.0234C11.1224 14.8499 11.1165 14.5241 11.1165 14.5241C11.1165 14.5241 11.0939 12.999 11.8024 12.7743C12.5002 12.5532 13.3965 14.2484 14.3464 14.901C15.0644 15.3943 15.61 15.2862 15.61 15.2862L18.1504 15.2505C18.1504 15.2505 19.4795 15.1685 18.8494 14.1235Z" fill="white"/>
</svg>
