<svg width="75" height="75" viewBox="0 0 75 75" fill="none" xmlns="http://www.w3.org/2000/svg">
<path fill-rule="evenodd" clip-rule="evenodd" d="M6.56266 9.9798C5.71817 9.9798 5.021 10.677 5.021 11.5215V69.3131C5.021 70.1576 5.71817 70.8548 6.56266 70.8548H55.2293C56.0738 70.8548 56.771 70.1576 56.771 69.3131V60.1881C56.771 59.3597 57.4426 58.6881 58.271 58.6881C59.0994 58.6881 59.771 59.3597 59.771 60.1881V69.3131C59.771 71.8145 57.7307 73.8548 55.2293 73.8548H6.56266C4.06132 73.8548 2.021 71.8145 2.021 69.3131V11.5215C2.021 9.02012 4.06132 6.9798 6.56266 6.9798H9.60433C10.4328 6.9798 11.1043 7.65137 11.1043 8.4798C11.1043 9.30822 10.4328 9.9798 9.60433 9.9798H6.56266Z" fill="#454545"/>
<path fill-rule="evenodd" clip-rule="evenodd" d="M50.6875 8.4798C50.6875 7.65137 51.3591 6.9798 52.1875 6.9798H55.2292C57.7305 6.9798 59.7708 9.02012 59.7708 11.5215V16.084C59.7708 16.9124 59.0993 17.584 58.2708 17.584C57.4424 17.584 56.7708 16.9124 56.7708 16.084V11.5215C56.7708 10.677 56.0737 9.9798 55.2292 9.9798H52.1875C51.3591 9.9798 50.6875 9.30822 50.6875 8.4798Z" fill="#454545"/>
<path fill-rule="evenodd" clip-rule="evenodd" d="M27.8335 6.95892C27.8335 5.20193 29.139 3.89642 30.896 3.89642C32.652 3.89642 33.9571 5.20052 33.9585 6.95607C33.9585 6.95702 33.9585 6.95797 33.9585 6.95892C33.9585 7.78735 34.6301 8.45892 35.4585 8.45892H43.5189C43.8071 8.45892 43.9864 8.48881 44.0981 8.52372C44.1943 8.55377 44.2431 8.58776 44.2833 8.62791C44.4891 8.83373 44.6043 9.07132 44.6043 9.39227V11.5423H17.1875V9.39232C17.1875 9.07137 17.3028 8.83379 17.5086 8.62796C17.5708 8.56571 17.6804 8.49262 17.8026 8.4495C17.877 8.42326 17.9197 8.42023 17.9317 8.41966C18.0435 8.44578 18.158 8.45898 18.2729 8.45898H26.3333C26.5033 8.45898 26.6666 8.43072 26.8189 8.37866C27.4091 8.17693 27.8335 7.61749 27.8335 6.95892ZM25.0112 5.45898C25.6581 2.79971 28.0021 0.896423 30.896 0.896423C33.7899 0.896423 36.1339 2.79968 36.7808 5.45892H43.5189C44.4619 5.45892 45.5446 5.64662 46.4046 6.50659C47.1113 7.21326 47.6043 8.19238 47.6043 9.39227V13.0423C47.6043 13.6636 47.2266 14.1967 46.6882 14.4244C46.5417 14.4864 46.3832 14.5257 46.2173 14.5381C46.1799 14.5409 46.1422 14.5423 46.1042 14.5423H15.6945L15.6875 14.5423C14.8591 14.5423 14.1875 13.8707 14.1875 13.0423V13.0423V9.39232C14.1875 8.19244 14.6806 7.21332 15.3873 6.50664C15.7812 6.11265 16.28 5.80553 16.8042 5.62053C17.2658 5.45761 17.8331 5.36028 18.4218 5.45898H25.0112Z" fill="#454545"/>
<path fill-rule="evenodd" clip-rule="evenodd" d="M9.604 14.5839C10.4324 14.5839 11.104 15.2555 11.104 16.0839V64.7714H50.6873V63.2298C50.6873 62.4013 51.3589 61.7298 52.1873 61.7298C53.0158 61.7298 53.6873 62.4013 53.6873 63.2298V66.2714C53.6873 67.0998 53.0158 67.7714 52.1873 67.7714H9.604C8.77558 67.7714 8.104 67.0998 8.104 66.2714V16.0839C8.104 15.2555 8.77558 14.5839 9.604 14.5839Z" fill="#454545"/>
<path fill-rule="evenodd" clip-rule="evenodd" d="M15.5 38.0923C15.5 37.2639 16.1716 36.5923 17 36.5923H31C31.8284 36.5923 32.5 37.2639 32.5 38.0923C32.5 38.9207 31.8284 39.5923 31 39.5923H17C16.1716 39.5923 15.5 38.9207 15.5 38.0923Z" fill="#454545"/>
<path fill-rule="evenodd" clip-rule="evenodd" d="M15.5 54.0923C15.5 53.2639 16.1716 52.5923 17 52.5923H32C32.8284 52.5923 33.5 53.2639 33.5 54.0923C33.5 54.9207 32.8284 55.5923 32 55.5923H17C16.1716 55.5923 15.5 54.9207 15.5 54.0923Z" fill="#454545"/>
<path fill-rule="evenodd" clip-rule="evenodd" d="M15.5 30.0923C15.5 29.2639 16.1716 28.5923 17 28.5923H36C36.8284 28.5923 37.5 29.2639 37.5 30.0923C37.5 30.9207 36.8284 31.5923 36 31.5923H17C16.1716 31.5923 15.5 30.9207 15.5 30.0923Z" fill="#454545"/>
<path fill-rule="evenodd" clip-rule="evenodd" d="M15.5 46.0923C15.5 45.2639 16.1716 44.5923 17 44.5923H29C29.8284 44.5923 30.5 45.2639 30.5 46.0923C30.5 46.9207 29.8284 47.5923 29 47.5923H17C16.1716 47.5923 15.5 46.9207 15.5 46.0923Z" fill="#454545"/>
<path fill-rule="evenodd" clip-rule="evenodd" d="M15.5 23.0923C15.5 22.2639 16.1716 21.5923 17 21.5923H43C43.8284 21.5923 44.5 22.2639 44.5 23.0923C44.5 23.9207 43.8284 24.5923 43 24.5923H17C16.1716 24.5923 15.5 23.9207 15.5 23.0923Z" fill="#454545"/>
<path fill-rule="evenodd" clip-rule="evenodd" d="M73.9703 16.5C73.9703 16.0204 73.741 15.5697 73.3533 15.2874C72.9656 15.0051 72.4663 14.9252 72.0098 15.0724C66.7579 16.7666 54.0257 21.9712 45.0205 29.3391C39.1564 34.137 37.5385 39.505 38.1066 44.1207C38.5374 47.6208 40.2247 50.6279 42.095 52.4938C41.0525 54.4202 40.2479 56.0828 39.6015 57.4185C39.2472 58.1506 38.9405 58.7844 38.6682 59.3095C38.2869 60.045 38.5739 60.9503 39.3093 61.3316C40.0448 61.713 40.9501 61.4259 41.3315 60.6905C41.6147 60.1442 41.9296 59.4941 42.29 58.7502C42.896 57.4992 43.6307 55.9826 44.56 54.2469C47.003 55.3682 50.4042 55.529 53.7896 54.6381C57.6712 53.6166 61.7368 51.1693 64.7064 46.8498C70.3921 38.5797 73.9703 25.7781 73.9703 16.5ZM46.0319 51.6153C47.6713 52.2849 50.2051 52.4793 53.0261 51.7369C56.2694 50.8834 59.7039 48.8307 62.2343 45.1502C67.1291 38.0305 70.4183 27.1199 70.9071 18.6265C65.0625 20.7568 54.5268 25.4374 46.9202 31.6609C41.7843 35.863 40.6522 40.245 41.0841 43.7543C41.39 46.2395 42.4821 48.3449 43.6483 49.7487C47.0177 44.0527 52.3071 36.7054 60.9964 28.8851C61.6121 28.3309 62.5606 28.3808 63.1148 28.9966C63.669 29.6123 63.619 30.5608 63.0033 31.115C54.4187 38.8411 49.2872 46.0447 46.0319 51.6153Z" fill="#1073D8"/>
</svg>
