<svg width="16" height="16" viewBox="0 0 16 16" fill="none" xmlns="http://www.w3.org/2000/svg">
<path fill-rule="evenodd" clip-rule="evenodd" d="M1 1C1 0.488794 1.4195 0 2 0H9C9.5805 0 10 0.488794 10 1C10 1.51121 9.5805 2 9 2H3.10219L3 13C3 13.5112 2.5805 14 2 14C1.4195 14 1 13.5112 1 13V1ZM4 3.9163C4 3.41024 4.3936 3 4.87912 3H10.6484C10.8815 3 11.1051 3.09654 11.27 3.26838L13.7425 5.84547C13.9074 6.01731 14 6.25037 14 6.49339V15.0837C14 15.5898 13.6064 16 13.1209 16H4.87912C4.3936 16 4 15.5898 4 15.0837V3.9163ZM5.75824 4.8326V14.1674H12.2418V8.28125H9V4.8326H5.75824ZM11 5.57866V6.28125H11.6741L11 5.57866Z" fill="#FFCE0D"/>
</svg>
