<svg xmlns="http://www.w3.org/2000/svg" width="40" height="40" fill="none" viewBox="0 0 40 40">
    <g clip-path="url(#clip0)">
        <path fill="#FFD408" d="M20.02 0C31.063 0 39.722 8.818 40 19.384 40.318 31.182 30.983 39.762 20.616 40 8.858 40.278.278 30.983 0 20.655-.318 8.898 9.176-.08 20.02 0zm1.231 37.855c.953-.159 1.708-.238 2.423-.397 3.297-.715 6.157-2.225 8.66-4.529.238-.198.238-.357.119-.635-1.35-2.9-3.377-5.084-6.237-6.554-2.462-1.271-5.044-1.708-7.785-1.43-1.51.159-2.98.596-4.37 1.27-2.979 1.47-5.124 3.735-6.514 6.754-.08.198-.08.357.12.516.396.318.754.675 1.151.993 3.138 2.502 6.713 3.813 10.685 3.972.636.08 1.311.04 1.748.04zm5.919-22.84c-.04-3.972-3.138-7.15-7.11-7.19-3.973-.04-7.23 3.178-7.23 7.11 0 3.933 3.218 7.19 7.11 7.19 3.973.04 7.23-3.178 7.23-7.11z"/>
    </g>
    <defs>
        <clipPath id="clip0">
            <path fill="#fff" d="M0 0H40V40H0z"/>
        </clipPath>
    </defs>
</svg>
