<svg width="18" height="18" viewBox="0 0 18 18" fill="none" xmlns="http://www.w3.org/2000/svg">
<path fill-rule="evenodd" clip-rule="evenodd" d="M13.522 4.58667C13.9131 4.37142 14.3047 4.15618 14.7393 3.89791C14.8696 3.81182 14.9565 3.85488 15 4.07009V8.84826C15 8.89129 14.9565 8.93435 14.9565 8.97738C14.9131 9.06347 14.8262 9.10653 14.7393 9.06347C14.7061 9.04705 14.6792 9.03689 14.6562 9.02822C14.6191 9.01416 14.5923 9.00399 14.5654 8.97738C14.0869 8.71902 13.6084 8.44989 13.1299 8.18075C12.6519 7.9118 12.1738 7.64288 11.6958 7.38467C11.3525 7.17205 10.9663 6.95947 10.5801 6.74685L10.5654 6.73898C10.522 6.73898 10.4785 6.69592 10.4351 6.65289C10.3916 6.60983 10.3916 6.52374 10.4351 6.48071C10.457 6.45916 10.479 6.44839 10.501 6.43762C10.5225 6.42688 10.5439 6.41613 10.5654 6.39462C10.7827 6.26547 10.9893 6.14709 11.1958 6.02871C11.4023 5.91033 11.6089 5.79196 11.8262 5.66281C11.8262 5.61978 11.8696 5.61978 11.8696 5.61978C11.8696 5.59738 11.8579 5.57501 11.8408 5.55261C11.8247 5.53195 11.8037 5.51129 11.7827 5.49063C11.0435 4.67276 10.2178 4.15618 9.17432 3.85488C8.43506 3.63964 7.73926 3.68267 7.04346 3.89791C6.17432 4.15618 5.52197 4.67276 4.91309 5.27539C4.60889 5.61978 4.34814 5.96414 4.13037 6.3085C4.13037 6.35156 4.08691 6.35156 4.08691 6.39462C3.84766 6.22238 3.6084 6.06088 3.36914 5.89941C3.13037 5.73803 2.89111 5.57666 2.65234 5.40454C2.70459 5.34008 2.75684 5.27178 2.81006 5.20196C2.93457 5.03851 3.06543 4.86657 3.21777 4.71579C3.78271 4.02706 4.43506 3.4244 5.17432 2.90786C5.78271 2.52044 6.43506 2.21911 7.17432 2.08996C7.73926 2.00387 8.34814 1.96084 8.95654 2.04693C9.82617 2.13302 10.6523 2.39129 11.3916 2.8648C12 3.25222 12.5654 3.68267 13.0869 4.19924C13.2178 4.3284 13.3481 4.50058 13.4785 4.6297C13.4785 4.58667 13.522 4.58667 13.522 4.58667ZM12.0869 11.7754C12.3911 11.431 12.6523 11.0436 12.9131 10.6562L12.9565 10.5701L12.9668 10.5765C13.4414 10.8757 13.9165 11.1752 14.3911 11.5171C14.3672 11.5526 14.3433 11.5914 14.3184 11.6316C14.2529 11.7377 14.1816 11.8539 14.0869 11.9476C13.478 12.6794 12.8262 13.3251 12.0435 13.8847C11.3477 14.3582 10.6089 14.7025 9.78271 14.8317C9.21729 14.9178 8.65234 14.9178 8.08691 14.8747C7.47803 14.8317 6.86963 14.6595 6.3042 14.4012C5.82617 14.186 5.39111 13.8847 4.95654 13.5833C4.47803 13.239 4.08691 12.8946 3.73926 12.4641L3.60889 12.335C3.58691 12.335 3.57617 12.3458 3.56543 12.3565C3.55469 12.3673 3.54395 12.378 3.52197 12.378C3.13037 12.6363 2.73926 12.8516 2.34766 13.0668H2.3042C2.13037 13.1529 2.04346 13.1529 2 12.9807V8.20254C2 8.15951 2.04346 8.11645 2.04346 8.07339C2.08691 7.9873 2.17383 7.94427 2.26074 7.9873L2.52197 8.11645C2.88428 8.32156 3.25049 8.53048 3.61963 8.74093C4.49023 9.23724 5.37549 9.74209 6.26074 10.2257C6.3042 10.2257 6.39111 10.2688 6.43457 10.3118C6.51221 10.3503 6.55518 10.3973 6.56348 10.4452C6.57422 10.5047 6.53125 10.5655 6.43457 10.6131C6.18896 10.7755 5.9043 10.8995 5.6543 11.0575L5.60889 11.0866C5.43457 11.1728 5.3042 11.2588 5.13037 11.3449C5.17383 11.3449 5.17383 11.388 5.17383 11.388C5.91309 12.2489 6.82617 12.8085 7.86963 13.1098C8.60889 13.3251 9.3042 13.282 10 13.0668C10.8262 12.8516 11.522 12.378 12.0869 11.7754Z" fill="#00B9FF"/>
</svg>
