<svg width="16" height="16" viewBox="0 0 16 16" fill="none" xmlns="http://www.w3.org/2000/svg">
<path d="M3.19478 6.33924C3.16289 7.43089 3.44988 8.45926 3.97602 9.3927C4.13546 9.67748 4.10357 9.81986 3.88036 10.0414C2.65269 11.2438 1.44096 12.4778 0.197349 13.6802C-0.0577516 13.9333 -0.0736954 14.0757 0.197349 14.3289C0.723493 14.8035 1.21775 15.3098 1.71201 15.816C1.95116 16.0692 2.07871 16.0533 2.31787 15.816C3.52959 14.582 4.77321 13.3796 5.98494 12.1614C6.24004 11.9082 6.41542 11.8766 6.73429 12.0348C11.1029 14.139 16.1252 10.9748 15.9976 6.19685C15.9179 2.96936 13.2553 0.184861 10.0825 0.0108294C6.63863 -0.179023 3.70498 2.14667 3.24261 5.46908C3.19478 5.75386 3.21072 6.03864 3.19478 6.33924ZM6.31975 6.37088C6.31975 4.56728 7.75469 3.11175 9.55634 3.09593C11.3739 3.09593 12.8726 4.56728 12.8726 6.35506C12.8726 8.12701 11.3899 9.59837 9.60417 9.59837C7.78658 9.59837 6.3357 8.15866 6.31975 6.37088Z" fill="#FFCE0D"/>
</svg>
