<svg width="15" height="18" viewBox="0 0 15 18" fill="none" xmlns="http://www.w3.org/2000/svg">
<path d="M7.05445 -5.10176e-07C5.30017 0.0492977 2.66253 0.24649 0.1493 1.19548C0.0373248 1.23245 0 1.34338 0 1.4543C0 4.47381 0.534995 9.63779 0.858479 11.3386C0.858479 11.3509 0.858478 11.3632 0.87092 11.3632C2.11509 15.7508 6.48213 17.698 7.15398 17.9815C7.21619 18.0062 7.2784 18.0062 7.32817 17.9815C8.01246 17.698 12.3671 15.7631 13.6112 11.3632C13.6112 11.3509 13.6112 11.3386 13.6237 11.3386C13.9472 9.63779 14.4822 4.25197 14.4822 1.4543C14.4822 1.34338 14.4448 1.24478 14.3329 1.19548C11.8196 0.24649 9.19443 0.0492977 7.44014 -5.10176e-07C7.39038 -5.10176e-07 7.32817 -5.10176e-07 7.25352 -5.10176e-07C7.19131 -5.10176e-07 7.10422 -5.10176e-07 7.05445 -5.10176e-07Z" fill="#F08A00"/>
<path d="M7.34772 17.1342C8.04446 16.8384 11.8765 15.0514 12.9838 11.0829C12.9838 11.0705 12.9838 11.0705 12.9963 11.0582C13.2949 9.50533 13.7801 4.67411 13.805 2.02433C13.805 1.91341 13.7303 1.80249 13.6308 1.76552C11.4286 0.939772 8.77852 0.74258 7.29796 0.74258H7.19842C6.36483 0.74258 3.1051 0.939772 0.86559 1.76552C0.753615 1.80249 0.691406 1.91341 0.691406 2.02433C0.71629 4.57551 1.20152 9.50533 1.50012 11.0582C1.50012 11.0705 1.50012 11.0705 1.50012 11.0829C2.59499 15.0514 6.42704 16.8384 7.12377 17.1342C7.19842 17.1589 7.27307 17.1589 7.34772 17.1342Z" fill="#1E73B7"/>
<path d="M7.19113 0.875553C6.38241 0.875553 3.17245 1.06042 0.982711 1.87384C0.870736 1.91082 0.820967 1.98476 0.833409 2.09568C0.908059 2.78586 2.88629 6.01489 5.62347 8.25796C8.59704 10.6859 12.4415 11.1296 12.6904 11.1296C12.7775 11.1296 12.8894 11.0556 12.9019 10.9817C13.188 9.47809 13.6484 4.72081 13.6733 2.13266C13.6733 2.02174 13.6111 1.92314 13.4991 1.87384C11.3467 1.06042 8.74634 0.86323 7.29066 0.86323L7.19113 0.875553Z" fill="url(#paint0_linear)"/>
<path d="M9.69549 3.06997C9.98174 3.02066 10.2555 3.03298 10.5293 3.09463C10.8031 3.15627 11.0521 3.26722 11.2761 3.41517C11.5001 3.57543 11.6868 3.76036 11.8361 3.9946C11.9855 4.22884 12.085 4.47541 12.1348 4.75896C12.1846 5.04251 12.1722 5.31374 12.1224 5.57264C12.0602 5.84386 11.9481 6.09043 11.7988 6.31234C11.637 6.53425 11.4503 6.73151 11.2139 6.87945C10.9774 7.02739 10.7285 7.12601 10.4422 7.17533C10.0689 7.23697 9.70793 7.21231 9.35946 7.0767C9.01098 6.95342 8.71229 6.74383 8.46337 6.46028C8.22691 6.17673 8.06511 5.84386 8.00289 5.47401C7.9531 5.19046 7.96555 4.91923 8.02778 4.64801C8.09001 4.38911 8.20202 4.14254 8.36381 3.92063C8.5256 3.69872 8.72473 3.51379 8.94875 3.36585C9.16033 3.21791 9.40924 3.11928 9.69549 3.06997ZM9.75772 3.41517C9.44658 3.46448 9.17277 3.58776 8.93631 3.78502C8.69984 3.98227 8.5256 4.22884 8.41359 4.51239C8.30158 4.79595 8.27669 5.10416 8.32647 5.41237C8.40115 5.83153 8.60027 6.17673 8.93631 6.46028C8.99853 6.50959 9.06076 6.55891 9.13544 6.59589C9.52125 6.83013 9.93195 6.9041 10.3551 6.83013C10.6662 6.78082 10.94 6.64521 11.189 6.44795C11.4254 6.2507 11.5997 6.00413 11.7117 5.70825C11.8237 5.41237 11.8486 5.11649 11.7863 4.80827C11.749 4.57404 11.6619 4.36445 11.5374 4.1672C11.413 3.96994 11.2512 3.80967 11.0645 3.68639C10.8778 3.56311 10.6787 3.47681 10.4547 3.42749C10.2306 3.37818 9.99418 3.36585 9.75772 3.41517ZM10.9027 4.66033L10.8156 4.67266C10.7534 4.68499 10.6911 4.66033 10.6538 4.59869C10.5418 4.38911 10.3427 4.27815 10.0689 4.26583C9.93195 4.26583 9.8075 4.30281 9.69549 4.36445C9.58348 4.43842 9.49636 4.53705 9.43413 4.67266C9.3719 4.80827 9.33457 4.95622 9.33457 5.14114C9.33457 5.40004 9.39679 5.60962 9.52125 5.76989C9.64571 5.91783 9.81994 6.00413 10.044 6.00413C10.1933 6.00413 10.3302 5.96714 10.4671 5.88085C10.5667 5.80688 10.6414 5.70825 10.6911 5.59729C10.716 5.53565 10.7907 5.49867 10.8654 5.52332L10.9649 5.56031C11.0272 5.58496 11.0645 5.64661 11.0396 5.70825C11.0023 5.8192 10.94 5.9055 10.8654 5.9918C10.7658 6.10276 10.6414 6.18906 10.5045 6.2507C10.3676 6.31234 10.2058 6.337 10.044 6.337C9.81994 6.337 9.63326 6.28768 9.45902 6.18906C9.29723 6.09043 9.16033 5.94249 9.07321 5.75756C8.98609 5.57264 8.93631 5.35072 8.94875 5.09183C8.94875 4.93156 8.97364 4.77129 9.03587 4.63568C9.08565 4.50006 9.16033 4.37678 9.25989 4.27815C9.35946 4.17953 9.48391 4.09323 9.62081 4.04391C9.75772 3.9946 9.91951 3.96994 10.0937 3.96994C10.3302 3.96994 10.5293 4.03159 10.7036 4.15487C10.828 4.24117 10.9276 4.35212 10.9898 4.50006C11.0272 4.56171 10.9774 4.64801 10.9027 4.66033Z" fill="white"/>
<defs>
<linearGradient id="paint0_linear" x1="7.16023" y1="0.851846" x2="8.0795" y2="14.1232" gradientUnits="userSpaceOnUse">
<stop stop-color="#60BCEC"/>
<stop offset="1" stop-color="#1E73B7"/>
</linearGradient>
</defs>
</svg>
