<svg width="28" height="18" viewBox="0 0 28 18" fill="none" xmlns="http://www.w3.org/2000/svg">
<rect y="2.79999" width="28" height="11.2" rx="3" fill="#81D0F5"/>
<path d="M5.05428 7.8595C5.62945 7.8595 6.20095 7.8595 6.77612 7.8595C7.07286 7.8595 7.19376 7.98776 7.19376 8.31036C7.19376 8.69125 7.19376 9.07604 7.19376 9.45694C7.19376 9.77566 7.07652 9.90781 6.77612 9.91558C6.53067 9.92335 6.28887 9.91558 6.04342 9.91558C5.15686 9.91558 4.27396 9.91558 3.3874 9.91558C2.98808 9.91558 2.88916 9.80675 2.88916 9.39087C2.88916 9.03329 2.88916 8.6796 2.88916 8.32202C2.88916 7.9761 3.00273 7.8595 3.33245 7.8595C3.90761 7.8595 4.48278 7.8595 5.05428 7.8595Z" fill="#1C1C19"/>
<path d="M5.04671 11.2918C4.42391 11.2918 3.80479 11.2918 3.182 11.2918C2.97684 11.2918 2.89258 11.2219 2.89258 11.0586C2.89258 10.8954 2.98051 10.8176 3.17833 10.8176C4.42758 10.8176 5.67683 10.8176 6.92608 10.8176C7.11292 10.8176 7.22282 10.907 7.22282 11.0547C7.22282 11.2024 7.11658 11.2918 6.92974 11.2918C6.29962 11.2918 5.67316 11.2918 5.04671 11.2918Z" fill="#1C1C19"/>
<path d="M3.84499 10.5957C3.60687 10.5957 3.36874 10.5957 3.13427 10.5957C2.9914 10.5957 2.89981 10.5296 2.89248 10.3702C2.88516 10.1992 2.98041 10.1215 3.13061 10.1215C3.60687 10.1176 4.07945 10.1176 4.55571 10.1215C4.70225 10.1215 4.80482 10.1914 4.80849 10.3586C4.80849 10.5257 4.71324 10.5957 4.55937 10.5957C4.32125 10.5957 4.08311 10.5957 3.84499 10.5957Z" fill="#1C1C19"/>
<path d="M5.02827 9.42175C4.51538 9.42175 4.00616 9.41786 3.49327 9.42563C3.36139 9.42952 3.33208 9.38288 3.33574 9.25073C3.34673 8.98644 3.34307 8.72214 3.33574 8.45395C3.33574 8.36067 3.36139 8.33347 3.44931 8.33347C4.50806 8.33735 5.57047 8.33735 6.62922 8.33347C6.7208 8.33347 6.74278 8.36845 6.74278 8.45783C6.73912 8.72991 6.73546 9.00198 6.74278 9.27405C6.74645 9.39842 6.70981 9.42563 6.59991 9.42175C6.07603 9.41786 5.55215 9.42175 5.02827 9.42175Z" fill="#8BD5F5"/>
<path d="M19.8948 8.33757C20.1073 8.33757 20.3197 8.33369 20.5358 8.33757C20.763 8.34146 20.9169 8.48527 20.9352 8.72625C20.9425 8.84674 20.9425 8.97112 20.9242 9.0916C20.8986 9.28594 20.7557 9.41808 20.5725 9.41808C20.1219 9.42197 19.6713 9.41808 19.2207 9.42197C19.1218 9.42197 19.0998 9.3831 19.0998 9.28594C19.1035 9.01387 19.1071 8.7418 19.0998 8.46972C19.0961 8.35313 19.1401 8.3298 19.239 8.3298C19.4551 8.34146 19.675 8.33757 19.8948 8.33757Z" fill="#8BD5F5"/>
<path d="M3.78285 6.05766C3.78285 6.19423 3.74401 6.2951 3.66632 6.36025C3.58924 6.4254 3.47271 6.45798 3.31674 6.45798H2.93311V5.08411H3.70576V5.226H3.08549V5.67049H3.28896C3.40429 5.67049 3.49811 5.68459 3.57042 5.71278C3.64272 5.74034 3.69621 5.78138 3.73086 5.83588C3.76552 5.89039 3.78285 5.96432 3.78285 6.05766ZM3.08549 6.31984H3.29972C3.41325 6.31984 3.49572 6.29948 3.54711 6.25876C3.5991 6.21804 3.62509 6.151 3.62509 6.05766C3.62509 5.9687 3.5988 5.90542 3.54621 5.86783C3.49363 5.83024 3.4019 5.81145 3.27103 5.81145H3.08549V6.31984Z" fill="black"/>
<path d="M4.51953 5.08411H4.66205V5.8481C4.66205 5.98906 4.65787 6.11654 4.64951 6.23057H4.65668L5.39168 5.08411H5.55841V6.45798H5.41499V5.7015C5.41499 5.57558 5.42007 5.44339 5.43023 5.30494H5.42216L4.68626 6.45798H4.51953V5.08411Z" fill="black"/>
<path d="M7.20788 5.48443C7.20788 5.62351 7.16246 5.73063 7.07163 5.80581C6.9814 5.88036 6.85202 5.91764 6.68351 5.91764H6.52934V6.45798H6.37695V5.08411H6.71667C7.04414 5.08411 7.20788 5.21754 7.20788 5.48443ZM6.52934 5.78044H6.66647C6.80153 5.78044 6.89923 5.75757 6.95959 5.71184C7.01994 5.6661 7.05012 5.59281 7.05012 5.49195C7.05012 5.4011 7.02173 5.33345 6.96496 5.28896C6.90819 5.24449 6.81976 5.22224 6.69964 5.22224H6.52934V5.78044Z" fill="black"/>
<path d="M8.29794 5.75131L7.7825 5.08411H7.95284L8.46282 5.74943V5.08411H8.60982V5.74943L9.12075 5.08411H9.29108L8.77479 5.74943L9.30718 6.45798H9.13148L8.60982 5.76165V6.45798H8.46282V5.76165L7.94202 6.45798H7.76367L8.29794 5.75131Z" fill="black"/>
<path d="M10.7754 6.45816L10.6123 6.02119H10.087L9.92564 6.45816H9.77148L10.2896 5.07864H10.4177L10.9332 6.45816H10.7754ZM10.5647 5.87741L10.4124 5.45172C10.3926 5.39784 10.3723 5.33175 10.3514 5.25344C10.3383 5.31358 10.3194 5.37967 10.2949 5.45172L10.1408 5.87741H10.5647Z" fill="black"/>
<path d="M13.4801 6.2634H13.2954L12.6896 5.56707V6.2634H12.5371V4.88953H12.6896V5.55485L13.2802 4.88953H13.455L12.8751 5.55673L13.4801 6.2634Z" fill="black"/>
<path d="M15.2286 5.76935C15.2286 5.98925 15.1754 6.16216 15.069 6.28808C14.9632 6.41401 14.8159 6.47696 14.6271 6.47696C14.4341 6.47696 14.285 6.41526 14.1798 6.29184C14.0752 6.16779 14.0229 5.99301 14.0229 5.76747C14.0229 5.54382 14.0755 5.3706 14.1807 5.2478C14.2859 5.12439 14.4352 5.06268 14.6289 5.06268C14.8171 5.06268 14.9641 5.12533 15.0699 5.25063C15.1757 5.37592 15.2286 5.54883 15.2286 5.76935ZM14.1843 5.76935C14.1843 5.95542 14.2219 6.09669 14.2973 6.19317C14.3731 6.28902 14.4831 6.33694 14.6271 6.33694C14.7723 6.33694 14.8819 6.28902 14.9561 6.19317C15.0302 6.09732 15.0672 5.95604 15.0672 5.76935C15.0672 5.58454 15.0302 5.44453 14.9561 5.3493C14.8826 5.25345 14.7735 5.20552 14.6289 5.20552C14.4837 5.20552 14.3731 5.25376 14.2973 5.35024C14.2219 5.44609 14.1843 5.58579 14.1843 5.76935Z" fill="black"/>
<path d="M16.9754 6.45798H16.823V5.81145H16.1328V6.45798H15.9805V5.08411H16.1328V5.66861H16.823V5.08411H16.9754V6.45798Z" fill="black"/>
<path d="M18.1978 6.45798H18.0454V5.226H17.6304V5.08411H18.6128V5.226H18.1978V6.45798Z" fill="black"/>
<path d="M20.001 6.45798H19.2705V5.08411H20.001V5.226H19.4229V5.66861H19.9661V5.80957H19.4229V6.31515H20.001V6.45798Z" fill="black"/>
<path d="M21.746 6.45798H21.5936V5.81145H20.9034V6.45798H20.751V5.08411H20.9034V5.66861H21.5936V5.08411H21.746V6.45798Z" fill="black"/>
<path d="M22.9688 6.45798H22.8164V5.226H22.4014V5.08411H23.3838V5.226H22.9688V6.45798Z" fill="black"/>
<path d="M24.8643 6.45816L24.7011 6.02119H24.1759L24.0145 6.45816H23.8604L24.3784 5.07864H24.5066L25.022 6.45816H24.8643ZM24.6536 5.87741L24.5012 5.45172C24.4816 5.39784 24.4612 5.33175 24.4403 5.25344C24.4272 5.31358 24.4084 5.37967 24.3839 5.45172L24.2296 5.87741H24.6536Z" fill="black"/>
<path d="M13.682 7.84402L14.0148 8.15652L11.3044 11.4039L10.9717 11.0914L13.682 7.84402Z" fill="white"/>
<path d="M10.9639 8.16582L11.295 7.85129L14.023 11.082L13.6919 11.3965L10.9639 8.16582Z" fill="white"/>
<path d="M9.15527 8.41821H9.59977V11.3411H9.15527V8.41821Z" fill="white"/>
<path d="M10.8 7.94656V8.41799H7.91113V7.94656H10.8Z" fill="white"/>
<path d="M15.4663 8.41821H15.9107V11.3411H15.4663V8.41821Z" fill="white"/>
<path d="M17.1111 7.94656V8.41799H14.2222V7.94656H17.1111Z" fill="white"/>
<path d="M17.3558 10.6335H17.3558C17.1717 10.6335 17.0225 10.7918 17.0225 10.9871V10.9871C17.0225 11.1824 17.1717 11.3407 17.3558 11.3407H17.3558C17.5399 11.3407 17.6891 11.1824 17.6891 10.9871V10.9871C17.6891 10.7918 17.5399 10.6335 17.3558 10.6335Z" fill="black"/>
<path d="M18.6221 7.94656H19.0666V11.3409H18.6221V7.94656Z" fill="black"/>
<path d="M19.8037 9.87715L20.132 9.55939L21.4661 11.1103L21.1378 11.428L19.8037 9.87715Z" fill="black"/>
<path fill-rule="evenodd" clip-rule="evenodd" d="M20.5332 8.41799H19.0666V9.45513H20.5332C20.7295 9.45513 20.8887 9.28629 20.8887 9.07799V8.79513C20.8887 8.58685 20.7295 8.41799 20.5332 8.41799ZM18.6221 7.94656V9.92656H20.5332C20.975 9.92656 21.3332 9.54665 21.3332 9.07799V8.79513C21.3332 8.32648 20.975 7.94656 20.5332 7.94656H18.6221Z" fill="black"/>
<path fill-rule="evenodd" clip-rule="evenodd" d="M22.5772 7.94656V10.2566C22.5772 10.6471 22.8757 10.9637 23.2439 10.9637H23.8217C24.1899 10.9637 24.4884 10.6471 24.4884 10.2566V7.94656H24.9328V10.2566C24.9328 10.9075 24.4353 11.4352 23.8217 11.4352H23.2439C22.6303 11.4352 22.1328 10.9075 22.1328 10.2566V7.94656H22.5772Z" fill="black"/>
</svg>
