<svg width="15" height="18" viewBox="0 0 15 18" fill="none" xmlns="http://www.w3.org/2000/svg">
<path d="M7.28135 0.999525C3.27641 1.02384 -0.0246276 4.45178 -0.000355275 8.58477C0.0239171 12.7177 3.3735 16.0242 7.54835 15.9999C11.7232 15.9756 14.9999 12.6692 14.9999 8.48752C14.9999 4.23298 11.6261 0.975213 7.28135 0.999525ZM7.57262 14.6141C4.17449 14.6384 1.35889 11.8426 1.38317 8.48752C1.40744 5.1082 4.19876 2.38529 7.62116 2.38529C10.8251 2.38529 13.5921 5.18114 13.5921 8.46321C13.6164 11.8426 10.9222 14.5898 7.57262 14.6141Z" fill="#E11E27"/>
<path d="M8.88393 6.32408C9.51504 7.15068 10.049 6.95619 10.7286 6.61582C10.1218 4.84107 8.64124 4.06309 6.69943 4.45208C4.73337 4.86538 3.68966 6.61582 3.88384 9.16855C4.02947 11.1378 5.413 12.5236 7.28196 12.6208C9.22372 12.718 10.3889 11.8914 10.7043 10.1167C10.316 9.99515 9.90339 9.84925 9.46649 9.70343C9.24804 10.0438 9.10238 10.3112 8.90824 10.5543C8.03443 11.6727 6.55379 11.5754 5.92271 10.3355C5.3159 9.16855 5.29164 7.90434 5.87417 6.71307C6.48098 5.5218 8.08299 5.25437 8.88393 6.32408Z" fill="#E11E27"/>
</svg>
