<svg width="37" height="18" viewBox="0 0 37 18" fill="none" xmlns="http://www.w3.org/2000/svg">
<path d="M0.907137 8.85615V10.4099H0V6H1.71751C2.04811 6 2.3384 6.06058 2.58836 6.18173C2.84035 6.30288 3.03387 6.47552 3.16893 6.69965C3.30399 6.92176 3.37152 7.17517 3.37152 7.45988C3.37152 7.89199 3.22336 8.23323 2.92703 8.48361C2.63271 8.73197 2.2245 8.85615 1.70239 8.85615H0.907137ZM0.907137 8.12016H1.71751C1.9574 8.12016 2.13983 8.06362 2.26482 7.95054C2.39182 7.83747 2.45532 7.67593 2.45532 7.46594C2.45532 7.24988 2.39182 7.07522 2.26482 6.94195C2.13782 6.80869 1.96244 6.74004 1.73868 6.736H0.907137V8.12016Z" fill="#46A6FA"/>
<path d="M5.36695 8.08381L6.16825 6H7.14796L5.60885 9.63758L5.48488 9.87686C5.25709 10.2746 4.90834 10.4735 4.43865 10.4735L4.12115 10.4614L4.11208 9.73147C4.16046 9.73955 4.23908 9.74359 4.34793 9.74359C4.47493 9.74359 4.57673 9.72138 4.65334 9.67696C4.73195 9.63253 4.79747 9.55076 4.84988 9.43162L4.96176 9.14389L3.41661 6H4.39329L5.36695 8.08381Z" fill="#46A6FA"/>
<path d="M8.84578 8.66837H8.32266V10.4705H7.41553V6.06058H8.32266V7.82636H8.73692L9.81339 6.06058H10.9201L9.56242 8.14741L11.0622 10.4705H9.9797L8.84578 8.66837Z" fill="#333C47"/>
<path d="M14.6512 8.36549C14.6512 8.79962 14.5746 9.18023 14.4214 9.50734C14.2682 9.83445 14.0484 10.0869 13.7622 10.2645C13.4779 10.4422 13.1514 10.5311 12.7825 10.5311C12.4176 10.5311 12.092 10.4432 11.8058 10.2676C11.5195 10.0919 11.2978 9.84152 11.1406 9.51643C10.9833 9.18932 10.9037 8.81375 10.9017 8.38972V8.17165C10.9017 7.73752 10.9793 7.35589 11.1345 7.02676C11.2917 6.69561 11.5125 6.4422 11.7967 6.26653C12.083 6.08884 12.4095 6 12.7764 6C13.1433 6 13.4689 6.08884 13.7531 6.26653C14.0394 6.4422 14.2601 6.69561 14.4153 7.02676C14.5726 7.35589 14.6512 7.73651 14.6512 8.16862V8.36549ZM13.7319 8.16559C13.7319 7.70319 13.6493 7.35185 13.484 7.11157C13.3187 6.87128 13.0828 6.75114 12.7764 6.75114C12.472 6.75114 12.2372 6.87027 12.0719 7.10854C11.9066 7.34478 11.8229 7.69209 11.8209 8.15044V8.36549C11.8209 8.81577 11.9036 9.16509 12.0689 9.41345C12.2342 9.66181 12.472 9.78599 12.7825 9.78599C13.0869 9.78599 13.3207 9.66686 13.484 9.42859C13.6473 9.18831 13.7299 8.83899 13.7319 8.38063V8.16559Z" fill="#333C47"/>
<path d="M18.6121 10.4705H17.7049V8.58053H15.936V10.4705H15.0289V6.06058H15.936V7.84756H17.7049V6.06058H18.6121V10.4705Z" fill="#333C47"/>
<path d="M22.3492 6.79657H21.0006V10.4705H20.0934V6.79657H18.763V6.06058H22.3492V6.79657Z" fill="#333C47"/>
<path d="M25.2366 8.55933H23.4949V9.74056H25.539V10.4705H22.5878V6.06058H25.533V6.79657H23.4949V7.84756H25.2366V8.55933Z" fill="#333C47"/>
<path d="M27.226 8.66837H26.7029V10.4705H25.7958V6.06058H26.7029V7.82636H27.1172L28.1936 6.06058H29.3003L27.9427 8.14741L29.4425 10.4705H28.3599L27.226 8.66837Z" fill="#333C47"/>
<path d="M32.8712 9.00153C32.8369 9.47605 32.6615 9.8496 32.345 10.1222C32.0305 10.3948 31.6153 10.5311 31.0992 10.5311C30.5348 10.5311 30.0903 10.3413 29.7657 9.96166C29.4432 9.58003 29.2819 9.05706 29.2819 8.39275V8.12318C29.2819 7.69915 29.3565 7.3256 29.5057 7.00253C29.6549 6.67946 29.8675 6.43211 30.1437 6.26048C30.4219 6.08683 30.7444 6 31.1113 6C31.6193 6 32.0285 6.1363 32.339 6.40889C32.6494 6.68148 32.8288 7.06412 32.8772 7.5568H31.9701C31.9479 7.27209 31.8683 7.06614 31.7312 6.93893C31.5961 6.8097 31.3895 6.74508 31.1113 6.74508C30.8089 6.74508 30.5821 6.85412 30.431 7.07219C30.2818 7.28825 30.2052 7.62444 30.2012 8.08078V8.41395C30.2012 8.89048 30.2727 9.23879 30.4158 9.45888C30.561 9.67898 30.7888 9.78902 31.0992 9.78902C31.3794 9.78902 31.5881 9.72542 31.7251 9.59821C31.8642 9.46898 31.9439 9.27009 31.964 9.00153H32.8712Z" fill="#333C47"/>
<path d="M36.4087 6.79657H35.0601V10.4705H34.153V6.79657H32.8225V6.06058H36.4087V6.79657Z" fill="#333C47"/>
</svg>
