<svg width="16" height="16" viewBox="0 0 16 16" fill="none" xmlns="http://www.w3.org/2000/svg">
<path fill-rule="evenodd" clip-rule="evenodd" d="M3.94211 8.95709L5.34911 7.46578L8.49977 10.8052C7.7086 11.6183 6.44538 11.6104 5.66339 10.7815L3.94211 8.95709ZM9.92941 12.3206L9.95205 12.2967L14.9515 6.99772C15.741 6.16088 15.741 4.80411 14.9515 3.96727L11.8006 0.627625C11.0111 -0.209209 9.73106 -0.209208 8.94154 0.627625L2.51256 7.44187C1.72304 8.2787 1.72304 9.63548 2.51256 10.4723L4.23384 12.2967C4.4654 12.5422 4.71806 12.7516 4.98564 12.9251H1.73347C1.15564 12.9251 0.68721 13.3896 0.68721 13.9625C0.68721 14.5355 1.15564 15 1.73347 15H14.9537C15.5316 15 16 14.5355 16 13.9625C16 13.3896 15.5316 12.9251 14.9537 12.9251H9.20026C9.45913 12.7573 9.70405 12.5558 9.92941 12.3206ZM10.3711 2.14285L6.77867 5.95056L9.9295 9.2902L13.5219 5.48249L10.3711 2.14285ZM0.119031 3.82262C0.383066 3.31296 1.00109 3.13492 1.49942 3.42496L2.56825 4.04703C3.06658 4.33707 3.25652 4.98535 2.99248 5.49501C2.72845 6.00466 2.11042 6.1827 1.61209 5.89267L0.543266 5.2706C0.0449325 4.98056 -0.145004 4.33228 0.119031 3.82262ZM4.89846 1.59791C4.76614 1.04016 4.20651 0.708584 3.64848 0.857313C3.09045 1.00604 2.74535 1.57875 2.87767 2.1365L3.19793 3.48641C3.33025 4.04416 3.88988 4.37573 4.44791 4.22701C5.00593 4.07828 5.35104 3.50556 5.21872 2.94781L4.89846 1.59791Z" fill="#FFCE0D"/>
</svg>
