<svg width="63" height="18" viewBox="0 0 63 18" fill="none" xmlns="http://www.w3.org/2000/svg">
<path d="M40.1771 16.016V17.0133H39.5948V14.1826H40.6973C40.9095 14.1826 41.0958 14.2215 41.2563 14.2993C41.418 14.377 41.5423 14.4879 41.629 14.6317C41.7157 14.7743 41.759 14.937 41.759 15.1197C41.759 15.3971 41.6639 15.6161 41.4737 15.7768C41.2848 15.9363 41.0227 16.016 40.6876 16.016H40.1771ZM40.1771 15.5435H40.6973C40.8513 15.5435 40.9684 15.5072 41.0486 15.4347C41.1301 15.3621 41.1709 15.2584 41.1709 15.1236C41.1709 14.9849 41.1301 14.8728 41.0486 14.7873C40.9671 14.7017 40.8545 14.6576 40.7109 14.655H40.1771V15.5435Z" fill="#46A6FA"/>
<path d="M43.0399 15.5202L43.5542 14.1826H44.1831L43.1951 16.5176L43.1156 16.6711C42.9693 16.9265 42.7455 17.0541 42.444 17.0541L42.2402 17.0464L42.2344 16.5778C42.2654 16.583 42.3159 16.5856 42.3858 16.5856C42.4673 16.5856 42.5326 16.5713 42.5818 16.5428C42.6323 16.5143 42.6743 16.4618 42.708 16.3854L42.7798 16.2007L41.7879 14.1826H42.4149L43.0399 15.5202Z" fill="#46A6FA"/>
<path d="M45.2728 15.8954H44.937V17.0522H44.3547V14.2215H44.937V15.3549H45.2029L45.8939 14.2215H46.6043L45.7328 15.561L46.6955 17.0522H46.0007L45.2728 15.8954Z" fill="#333C47"/>
<path d="M48.9993 15.701C48.9993 15.9797 48.9501 16.224 48.8517 16.434C48.7534 16.6439 48.6124 16.8059 48.4286 16.92C48.2462 17.0341 48.0365 17.0911 47.7997 17.0911C47.5655 17.0911 47.3566 17.0347 47.1728 16.9219C46.9891 16.8092 46.8467 16.6485 46.7458 16.4398C46.6449 16.2298 46.5938 15.9887 46.5925 15.7166V15.5766C46.5925 15.2979 46.6423 15.053 46.7419 14.8417C46.8429 14.6291 46.9845 14.4665 47.167 14.3537C47.3507 14.2396 47.5604 14.1826 47.7959 14.1826C48.0314 14.1826 48.2403 14.2396 48.4228 14.3537C48.6065 14.4665 48.7482 14.6291 48.8479 14.8417C48.9488 15.053 48.9993 15.2973 48.9993 15.5746V15.701ZM48.4092 15.5727C48.4092 15.2759 48.3561 15.0504 48.25 14.8961C48.1439 14.7419 47.9925 14.6648 47.7959 14.6648C47.6005 14.6648 47.4497 14.7412 47.3436 14.8942C47.2375 15.0458 47.1838 15.2688 47.1825 15.563V15.701C47.1825 15.99 47.2356 16.2143 47.3417 16.3737C47.4478 16.5331 47.6005 16.6128 47.7997 16.6128C47.9951 16.6128 48.1452 16.5363 48.25 16.3834C48.3549 16.2292 48.4079 16.0049 48.4092 15.7107V15.5727Z" fill="#333C47"/>
<path d="M51.5417 17.0522H50.9594V15.839H49.824V17.0522H49.2417V14.2215H49.824V15.3686H50.9594V14.2215H51.5417V17.0522Z" fill="#333C47"/>
<path d="M53.9406 14.6939H53.0749V17.0522H52.4926V14.6939H51.6386V14.2215H53.9406V14.6939Z" fill="#333C47"/>
<path d="M55.794 15.8254H54.676V16.5837H55.9881V17.0522H54.0937V14.2215H55.9842V14.6939H54.676V15.3686H55.794V15.8254Z" fill="#333C47"/>
<path d="M57.071 15.8954H56.7352V17.0522H56.1529V14.2215H56.7352V15.3549H57.0011L57.6921 14.2215H58.4024L57.531 15.561L58.4937 17.0522H57.7988L57.071 15.8954Z" fill="#333C47"/>
<path d="M60.6945 16.1093C60.6725 16.4139 60.56 16.6536 60.3568 16.8286C60.1549 17.0036 59.8884 17.0911 59.5571 17.0911C59.1948 17.0911 58.9095 16.9692 58.7012 16.7256C58.4941 16.4806 58.3906 16.1449 58.3906 15.7185V15.5455C58.3906 15.2733 58.4385 15.0335 58.5342 14.8261C58.63 14.6188 58.7665 14.46 58.9438 14.3498C59.1224 14.2383 59.3294 14.1826 59.5649 14.1826C59.891 14.1826 60.1536 14.2701 60.3529 14.4451C60.5522 14.6201 60.6674 14.8657 60.6984 15.1819H60.1161C60.1019 14.9992 60.0508 14.867 59.9628 14.7853C59.8761 14.7024 59.7435 14.6609 59.5649 14.6609C59.3708 14.6609 59.2252 14.7309 59.1282 14.8709C59.0324 15.0095 58.9833 15.2253 58.9807 15.5183V15.7321C58.9807 16.038 59.0266 16.2616 59.1185 16.4029C59.2116 16.5441 59.3579 16.6148 59.5571 16.6148C59.737 16.6148 59.8709 16.5739 59.9589 16.4923C60.0482 16.4093 60.0993 16.2817 60.1122 16.1093H60.6945Z" fill="#333C47"/>
<path d="M62.9653 14.6939H62.0996V17.0522H61.5173V14.6939H60.6633V14.2215H62.9653V14.6939Z" fill="#333C47"/>
<path d="M29.1965 13.6625C30.523 13.6625 31.8313 13.6625 33.1215 13.6625C33.1397 13.508 33.1579 13.399 33.1579 13.299C33.1579 10.3643 33.167 7.42957 33.1488 4.49484C33.1488 4.29495 33.0307 4.05872 32.8853 3.91335C31.7677 2.76853 30.632 1.6328 29.5054 0.49707C27.0794 0.49707 24.6626 0.49707 22.2367 0.49707C22.2367 1.6964 22.2458 4.28587 22.2549 4.79468H23.1271C23.1271 4.40398 23.1089 2.37784 23.1089 1.36931C23.2907 1.36931 23.3997 1.36023 23.5178 1.36023C25.2078 1.36023 26.9068 1.36931 28.5968 1.35114C28.933 1.35114 29.042 1.45108 29.0329 1.78726C29.0147 2.76853 29.0238 3.75889 29.0238 4.79468H29.1601V4.83102C30.2141 4.83102 31.2226 4.83102 32.2675 4.83102C32.2675 7.50226 32.2675 10.1281 32.2675 12.7902C31.2589 12.7902 30.2504 12.7902 29.1874 12.7902L29.1965 13.6625ZM29.9051 3.94061C29.9051 3.37728 29.9051 2.83213 29.9051 2.29607C30.4594 2.85939 31.0045 3.41363 31.5315 3.94061C31.05 3.94061 30.4957 3.94061 29.9051 3.94061Z" fill="#CE0020"/>
<path d="M29.6067 14.0738V8.80397C29.6067 8.64042 29.6067 8.47688 29.5976 8.31333C29.5976 8.11344 29.4976 7.86813 29.3613 7.72275C28.3165 6.65062 27.2534 5.58758 26.1813 4.54271C26.0632 4.42459 25.8633 4.34282 25.6816 4.32465H21.1205V4.31556C20.4481 4.31556 19.7122 4.30648 19.2579 4.31556C19.0943 4.31556 18.9399 4.33373 18.7763 4.34282C18.7582 4.47002 18.7491 4.54271 18.7491 4.61539C18.7491 8.75854 18.7491 12.9108 18.74 17.0539C18.74 17.4083 18.9035 17.4355 19.1852 17.4355C22.5106 17.4264 25.8451 17.4264 29.1705 17.4355C29.5158 17.4355 29.6157 17.3265 29.6067 16.9903C29.5976 16.2816 29.6067 14.9823 29.6067 14.0738ZM26.3358 5.98736C26.9263 6.59611 27.4897 7.16852 28.0621 7.75001C27.5714 7.75001 27.0263 7.7591 26.4811 7.74093C26.4266 7.74093 26.3448 7.62281 26.3448 7.55012C26.3358 7.03223 26.3358 6.51434 26.3358 5.98736ZM28.3892 16.5996C26.9809 16.5815 25.5725 16.5905 24.1642 16.5905C22.7741 16.5905 21.3749 16.5815 19.9848 16.5996C19.6213 16.6087 19.5305 16.4815 19.5305 16.1272C19.5395 12.6019 19.5395 9.06746 19.5305 5.54215C19.5305 5.1878 19.6304 5.06969 19.9938 5.06969C21.6929 5.08786 23.3829 5.08786 25.0819 5.06969C25.4544 5.06969 25.5453 5.21506 25.5453 5.55124C25.5362 6.38713 25.5544 7.21395 25.5362 8.04984C25.5271 8.41328 25.6361 8.55865 26.0178 8.54957C26.8082 8.52231 27.5896 8.54957 28.3801 8.54048C28.7072 8.53139 28.8344 8.64042 28.8344 8.98569C28.8253 11.3753 28.8253 13.7739 28.8344 16.1635C28.8344 16.4906 28.7253 16.6087 28.3892 16.5996Z" fill="#636468"/>
<path d="M6.4781 0.784371C4.86715 0.830147 2.445 1.01325 0.137102 1.89445C0.0342753 1.92878 0 2.03178 0 2.13478C0 4.93859 0.491286 9.73369 0.788342 11.313C0.788342 11.3244 0.788341 11.3359 0.799766 11.3359C1.94229 15.41 5.95254 17.2182 6.5695 17.4814C6.62663 17.5043 6.68376 17.5043 6.72946 17.4814C7.35785 17.2182 11.3567 15.4214 12.4992 11.3359C12.4992 11.3244 12.4992 11.313 12.5106 11.313C12.8077 9.73369 13.299 4.7326 13.299 2.13478C13.299 2.03178 13.2647 1.94023 13.1619 1.89445C10.854 1.01325 8.44324 0.830147 6.83229 0.784371C6.78658 0.784371 6.72946 0.784371 6.66091 0.784371C6.60378 0.784371 6.5238 0.784371 6.4781 0.784371Z" fill="url(#paint0_linear)"/>
<path d="M6.74738 16.6947C7.3872 16.4201 10.9062 14.7607 11.923 11.0757C11.923 11.0642 11.923 11.0642 11.9344 11.0528C12.2086 9.61083 12.6542 5.12473 12.6771 2.66424C12.6771 2.56124 12.6085 2.45824 12.5171 2.42391C10.4949 1.65715 8.06128 1.47405 6.70168 1.47405H6.61028C5.84479 1.47405 2.85138 1.65715 0.794841 2.42391C0.692014 2.45824 0.634888 2.56124 0.634888 2.66424C0.657738 5.03317 1.10332 9.61083 1.37753 11.0528C1.37753 11.0642 1.37753 11.0642 1.37753 11.0757C2.38295 14.7607 5.90192 16.4201 6.54173 16.6947C6.61028 16.7176 6.67883 16.7176 6.74738 16.6947Z" fill="#1E73B7"/>
<path d="M6.60331 1.59664C5.86067 1.59664 2.91296 1.7683 0.902123 2.52362C0.799296 2.55795 0.753594 2.62661 0.765019 2.72961C0.833571 3.37048 2.65018 6.36885 5.16373 8.45168C7.89436 10.7062 11.4248 11.1182 11.6533 11.1182C11.7332 11.1182 11.8361 11.0495 11.8475 10.9808C12.1103 9.58465 12.533 5.16721 12.5559 2.76394C12.5559 2.66095 12.4987 2.56939 12.3959 2.52362C10.4193 1.7683 8.03146 1.5852 6.69471 1.5852L6.60331 1.59664Z" fill="url(#paint1_linear)"/>
<path d="M8.90271 3.63598C9.16549 3.5902 9.41684 3.60165 9.6682 3.65887C9.91955 3.71609 10.1481 3.81909 10.3537 3.95642C10.5594 4.10519 10.7307 4.27685 10.8678 4.49429C11.005 4.71173 11.0964 4.94061 11.1421 5.20383C11.1878 5.46704 11.1763 5.71881 11.1306 5.95914C11.0735 6.21091 10.9707 6.43979 10.8336 6.64579C10.685 6.85178 10.5137 7.03489 10.2966 7.17222C10.0795 7.30955 9.851 7.4011 9.58822 7.44688C9.24547 7.5041 8.91413 7.48121 8.59423 7.35533C8.27432 7.24088 8.00012 7.04633 7.77161 6.78312C7.55453 6.5199 7.406 6.21091 7.34888 5.86759C7.30318 5.60437 7.3146 5.3526 7.37173 5.10083C7.42885 4.8605 7.53168 4.63162 7.68021 4.42563C7.82874 4.21963 8.01154 4.04797 8.2172 3.91064C8.41142 3.77331 8.63993 3.68176 8.90271 3.63598ZM8.95983 3.95642C8.6742 4.00219 8.42285 4.11663 8.20577 4.29974C7.98869 4.48285 7.82874 4.71173 7.72591 4.97494C7.62308 5.23816 7.60023 5.52426 7.64593 5.81037C7.71449 6.19947 7.89729 6.5199 8.20577 6.78312C8.2629 6.8289 8.32002 6.87467 8.38857 6.909C8.74276 7.12644 9.11979 7.19511 9.50825 7.12644C9.79388 7.08067 10.0452 6.95478 10.2737 6.77167C10.4908 6.58857 10.6508 6.35969 10.7536 6.08503C10.8564 5.81037 10.8793 5.53571 10.8221 5.2496C10.7879 5.03216 10.7079 4.83761 10.5936 4.65451C10.4794 4.4714 10.3309 4.32263 10.1595 4.20819C9.98811 4.09374 9.8053 4.01364 9.59965 3.96786C9.39399 3.92208 9.17691 3.91064 8.95983 3.95642ZM10.011 5.11227L9.93098 5.12372C9.87385 5.13516 9.81673 5.11227 9.78245 5.05505C9.67962 4.8605 9.49682 4.75751 9.24547 4.74606C9.11979 4.74606 9.00554 4.78039 8.90271 4.83761C8.79988 4.90628 8.71991 4.99783 8.66278 5.12372C8.60565 5.2496 8.57138 5.38693 8.57138 5.5586C8.57138 5.79892 8.6285 5.99347 8.74276 6.14225C8.85701 6.27958 9.01696 6.35969 9.22262 6.35969C9.35972 6.35969 9.4854 6.32535 9.61107 6.24524C9.70247 6.17658 9.77103 6.08503 9.81673 5.98203C9.83958 5.92481 9.90813 5.89048 9.97668 5.91336L10.0681 5.9477C10.1252 5.97058 10.1595 6.02781 10.1366 6.08503C10.1024 6.18802 10.0452 6.26813 9.97668 6.34824C9.88528 6.45124 9.77103 6.53135 9.64535 6.58857C9.51967 6.64579 9.37114 6.66868 9.22262 6.66868C9.01696 6.66868 8.84558 6.6229 8.68563 6.53135C8.5371 6.43979 8.41142 6.30246 8.33145 6.1308C8.25147 5.95914 8.20577 5.75315 8.2172 5.51282C8.2172 5.36404 8.24005 5.21527 8.29717 5.08939C8.34287 4.9635 8.41142 4.84906 8.50283 4.75751C8.59423 4.66595 8.70848 4.58584 8.83416 4.54007C8.95983 4.49429 9.10836 4.4714 9.26832 4.4714C9.4854 4.4714 9.6682 4.52862 9.82815 4.64306C9.9424 4.72317 10.0338 4.82617 10.0909 4.9635C10.1252 5.02072 10.0795 5.10083 10.011 5.11227Z" fill="white"/>
<path d="M58.4286 0H43.5714C41.0467 0 39 2.23857 39 4.99999V5.00001C39 7.76143 41.0467 10 43.5714 10H58.4286C60.9533 10 63 7.76143 63 5.00001V4.99999C63 2.23857 60.9533 0 58.4286 0Z" fill="#8BD5F5"/>
<path d="M43.0459 4.44971C43.5517 4.44971 44.0544 4.44971 44.5602 4.44971C44.8212 4.44971 44.9275 4.56252 44.9275 4.84625C44.9275 5.18125 44.9275 5.51967 44.9275 5.85468C44.9275 6.13499 44.8244 6.25122 44.5602 6.25805C44.3443 6.26489 44.1317 6.25805 43.9158 6.25805C43.1361 6.25805 42.3595 6.25805 41.5798 6.25805C41.2286 6.25805 41.1416 6.16234 41.1416 5.79657C41.1416 5.48207 41.1416 5.17099 41.1416 4.8565C41.1416 4.55226 41.2415 4.44971 41.5315 4.44971C42.0373 4.44971 42.5432 4.44971 43.0459 4.44971Z" fill="#1C1C19"/>
<path d="M43.0392 7.46833C42.4915 7.46833 41.947 7.46833 41.3992 7.46833C41.2188 7.46833 41.1447 7.4068 41.1447 7.2632C41.1447 7.11964 41.222 7.05127 41.396 7.05127C42.4947 7.05127 43.5934 7.05127 44.6922 7.05127C44.8565 7.05127 44.9531 7.12989 44.9531 7.25979C44.9531 7.38967 44.8597 7.46833 44.6954 7.46833C44.1412 7.46833 43.5902 7.46833 43.0392 7.46833Z" fill="#1C1C19"/>
<path d="M41.9818 6.85614C41.7723 6.85614 41.5629 6.85614 41.3567 6.85614C41.231 6.85614 41.1505 6.79803 41.144 6.65787C41.1376 6.50746 41.2214 6.43909 41.3535 6.43909C41.7723 6.43567 42.188 6.43567 42.6068 6.43909C42.7357 6.43909 42.8259 6.50062 42.8292 6.64762C42.8292 6.79461 42.7454 6.85614 42.6101 6.85614C42.4006 6.85614 42.1912 6.85614 41.9818 6.85614Z" fill="#1C1C19"/>
<path d="M43.0224 5.82385C42.5713 5.82385 42.1235 5.82044 41.6724 5.82727C41.5564 5.83069 41.5306 5.78967 41.5338 5.67345C41.5435 5.44099 41.5403 5.20854 41.5338 4.97267C41.5338 4.89062 41.5564 4.8667 41.6337 4.8667C42.5649 4.87012 43.4993 4.87012 44.4305 4.8667C44.511 4.8667 44.5304 4.89746 44.5304 4.97608C44.5271 5.21538 44.5239 5.45466 44.5304 5.69395C44.5336 5.80334 44.5014 5.82727 44.4047 5.82385C43.9439 5.82044 43.4832 5.82385 43.0224 5.82385Z" fill="#8BD5F5"/>
<path d="M56.0981 4.87012C56.2849 4.87012 56.4718 4.8667 56.6619 4.87012C56.8617 4.87353 56.997 5.00002 57.0131 5.21196C57.0196 5.31793 57.0196 5.42732 57.0034 5.53329C56.9809 5.70421 56.8552 5.82044 56.6941 5.82044C56.2978 5.82385 55.9015 5.82044 55.5052 5.82385C55.4182 5.82385 55.3989 5.78967 55.3989 5.70421C55.4021 5.46492 55.4053 5.22564 55.3989 4.98634C55.3956 4.88379 55.4343 4.86328 55.5213 4.86328C55.7114 4.87353 55.9047 4.87012 56.0981 4.87012Z" fill="#8BD5F5"/>
<path d="M41.9278 2.86552C41.9278 2.98565 41.8936 3.07436 41.8253 3.13166C41.7575 3.18896 41.655 3.21761 41.5178 3.21761H41.1804V2.00928H41.86V2.13407H41.3144V2.52501H41.4934C41.5948 2.52501 41.6773 2.53741 41.7409 2.5622C41.8045 2.58645 41.8516 2.62254 41.8821 2.67047C41.9125 2.71841 41.9278 2.78343 41.9278 2.86552ZM41.3144 3.09612H41.5029C41.6027 3.09612 41.6752 3.07821 41.7204 3.0424C41.7662 3.00658 41.789 2.94763 41.789 2.86552C41.789 2.78728 41.7659 2.73163 41.7197 2.69857C41.6734 2.66551 41.5927 2.64898 41.4776 2.64898H41.3144V3.09612Z" fill="black"/>
<path d="M42.5756 2.00928H42.7009V2.68122C42.7009 2.80519 42.6972 2.91732 42.6899 3.0176H42.6962L43.3426 2.00928H43.4893V3.21761H43.3631V2.55228C43.3631 2.44153 43.3676 2.32527 43.3765 2.2035H43.3694L42.7222 3.21761H42.5756V2.00928Z" fill="black"/>
<path d="M44.9398 2.36137C44.9398 2.48369 44.8998 2.57791 44.82 2.64402C44.7406 2.70959 44.6268 2.74238 44.4786 2.74238H44.343V3.21761H44.209V2.00928H44.5078C44.7958 2.00928 44.9398 2.12664 44.9398 2.36137ZM44.343 2.62171H44.4636C44.5824 2.62171 44.6683 2.6016 44.7214 2.56138C44.7745 2.52115 44.801 2.45669 44.801 2.36798C44.801 2.28808 44.7761 2.22857 44.7261 2.18945C44.6762 2.15033 44.5984 2.13077 44.4928 2.13077H44.343V2.62171Z" fill="black"/>
<path d="M45.8985 2.59609L45.4452 2.00928H45.595L46.0435 2.59443V2.00928H46.1728V2.59443L46.6222 2.00928H46.772L46.3179 2.59443L46.7861 3.21761H46.6316L46.1728 2.60518V3.21761H46.0435V2.60518L45.5855 3.21761H45.4286L45.8985 2.59609Z" fill="black"/>
<path d="M48.0775 3.21769L47.9341 2.83337H47.4721L47.3302 3.21769H47.1946L47.6502 2.00439H47.763L48.2163 3.21769H48.0775ZM47.8923 2.70692L47.7582 2.33252C47.7409 2.28513 47.723 2.227 47.7046 2.15813C47.6931 2.21102 47.6765 2.26915 47.655 2.33252L47.5194 2.70692H47.8923Z" fill="black"/>
<path d="M50.4558 3.04623H50.2934L49.7605 2.43379V3.04623H49.6265V1.83789H49.7605V2.42305L50.28 1.83789H50.4338L49.9237 2.4247L50.4558 3.04623Z" fill="black"/>
<path d="M51.994 2.61176C51.994 2.80516 51.9472 2.95724 51.8536 3.06798C51.7606 3.17874 51.631 3.23411 51.465 3.23411C51.2952 3.23411 51.1641 3.17984 51.0716 3.07129C50.9796 2.96219 50.9336 2.80847 50.9336 2.6101C50.9336 2.4134 50.9798 2.26105 51.0723 2.15305C51.1649 2.04451 51.2962 1.99023 51.4665 1.99023C51.6321 1.99023 51.7614 2.04534 51.8544 2.15553C51.9474 2.26573 51.994 2.41781 51.994 2.61176ZM51.0755 2.61176C51.0755 2.77541 51.1086 2.89965 51.1749 2.98451C51.2416 3.06881 51.3383 3.11096 51.465 3.11096C51.5927 3.11096 51.6891 3.06881 51.7543 2.98451C51.8195 2.9002 51.852 2.77595 51.852 2.61176C51.852 2.44922 51.8195 2.32607 51.7543 2.24231C51.6896 2.15801 51.5937 2.11586 51.4665 2.11586C51.3388 2.11586 51.2416 2.15829 51.1749 2.24314C51.1086 2.32744 51.0755 2.45031 51.0755 2.61176Z" fill="black"/>
<path d="M53.5306 3.21761H53.3966V2.64898H52.7895V3.21761H52.6555V2.00928H52.7895V2.52335H53.3966V2.00928H53.5306V3.21761Z" fill="black"/>
<path d="M54.6062 3.21761H54.4722V2.13407H54.1072V2.00928H54.9712V2.13407H54.6062V3.21761Z" fill="black"/>
<path d="M56.1908 3.21761H55.5483V2.00928H56.1908V2.13407H55.6823V2.52335H56.1601V2.64733H55.6823V3.09199H56.1908V3.21761Z" fill="black"/>
<path d="M57.726 3.21761H57.5919V2.64898H56.9849V3.21761H56.8508V2.00928H56.9849V2.52335H57.5919V2.00928H57.726V3.21761Z" fill="black"/>
<path d="M58.8015 3.21761H58.6675V2.13407H58.3025V2.00928H59.1665V2.13407H58.8015V3.21761Z" fill="black"/>
<path d="M60.4693 3.21769L60.3258 2.83337H59.8638L59.7219 3.21769H59.5863L60.042 2.00439H60.1547L60.608 3.21769H60.4693ZM60.284 2.70692L60.15 2.33252C60.1327 2.28513 60.1147 2.227 60.0964 2.15813C60.0848 2.21102 60.0683 2.26915 60.0467 2.33252L59.9111 2.70692H60.284Z" fill="black"/>
<path d="M50.6342 4.43652L50.927 4.71137L48.5431 7.56746L48.2505 7.29261L50.6342 4.43652Z" fill="white"/>
<path d="M48.2427 4.7195L48.5339 4.44287L50.9332 7.28431L50.642 7.5609L48.2427 4.7195Z" fill="white"/>
<path d="M46.6528 4.94141H47.0438V7.51209H46.6528V4.94141Z" fill="white"/>
<path d="M48.0994 4.52637V4.94099H45.5586V4.52637H48.0994Z" fill="white"/>
<path d="M52.2029 4.94141H52.5938V7.51209H52.2029V4.94141Z" fill="white"/>
<path d="M53.6495 4.52637V4.94099H51.1086V4.52637H53.6495Z" fill="white"/>
<path d="M53.8643 6.89014H53.8643C53.7024 6.89014 53.5712 7.02936 53.5712 7.20111V7.20111C53.5712 7.37285 53.7024 7.51208 53.8643 7.51208H53.8643C54.0263 7.51208 54.1575 7.37285 54.1575 7.20111V7.20111C54.1575 7.02936 54.0263 6.89014 53.8643 6.89014Z" fill="black"/>
<path d="M54.9788 4.52637H55.3697V7.51169H54.9788V4.52637Z" fill="black"/>
<path d="M56.0181 6.2243L56.3068 5.94482L57.4802 7.30887L57.1914 7.5883L56.0181 6.2243Z" fill="black"/>
<path fill-rule="evenodd" clip-rule="evenodd" d="M56.6596 4.94099H55.3697V5.85317H56.6596C56.8323 5.85317 56.9723 5.70467 56.9723 5.52147V5.27269C56.9723 5.0895 56.8323 4.94099 56.6596 4.94099ZM54.9788 4.52637V6.2678H56.6596C57.0482 6.2678 57.3632 5.93366 57.3632 5.52147V5.27269C57.3632 4.86051 57.0482 4.52637 56.6596 4.52637H54.9788Z" fill="black"/>
<path fill-rule="evenodd" clip-rule="evenodd" d="M58.4572 4.52637V6.55804C58.4572 6.90153 58.7197 7.17998 59.0435 7.17998H59.5517C59.8755 7.17998 60.138 6.90153 60.138 6.55804V4.52637H60.5289V6.55804C60.5289 7.13052 60.0914 7.59462 59.5517 7.59462H59.0435C58.5038 7.59462 58.0663 7.13052 58.0663 6.55804V4.52637H58.4572Z" fill="black"/>
<defs>
<linearGradient id="paint0_linear" x1="6.64794" y1="0.782673" x2="6.64794" y2="21.6739" gradientUnits="userSpaceOnUse">
<stop stop-color="#D7D7D7"/>
<stop offset="0.9987" stop-color="#BDBCBC"/>
<stop offset="1" stop-color="#BDBCBC"/>
</linearGradient>
<linearGradient id="paint1_linear" x1="6.57493" y1="1.57463" x2="7.43799" y2="13.8966" gradientUnits="userSpaceOnUse">
<stop stop-color="#60BCEC"/>
<stop offset="1" stop-color="#1E73B7"/>
</linearGradient>
</defs>
</svg>
