<svg width="15" height="18" viewBox="0 0 15 18" fill="none" xmlns="http://www.w3.org/2000/svg">
<path d="M7.05445 -5.10176e-07C5.30017 0.0492977 2.66253 0.24649 0.1493 1.19548C0.0373248 1.23245 0 1.34338 0 1.4543C0 4.47381 0.534995 9.63779 0.858479 11.3386C0.858479 11.3509 0.858478 11.3632 0.87092 11.3632C2.11509 15.7508 6.48213 17.698 7.15398 17.9815C7.21619 18.0062 7.2784 18.0062 7.32817 17.9815C8.01246 17.698 12.3671 15.7631 13.6112 11.3632C13.6112 11.3509 13.6112 11.3386 13.6237 11.3386C13.9472 9.63779 14.4822 4.25197 14.4822 1.4543C14.4822 1.34338 14.4448 1.24478 14.3329 1.19548C11.8196 0.24649 9.19443 0.0492977 7.44014 -5.10176e-07C7.39038 -5.10176e-07 7.32817 -5.10176e-07 7.25352 -5.10176e-07C7.19131 -5.10176e-07 7.10422 -5.10176e-07 7.05445 -5.10176e-07Z" fill="url(#paint0_linear)"/>
<path d="M7.34797 17.1343C8.0447 16.8386 11.8768 15.0515 12.9841 11.083C12.9841 11.0707 12.9841 11.0707 12.9965 11.0583C13.2951 9.50545 13.7803 4.67423 13.8052 2.02445C13.8052 1.91353 13.7306 1.80261 13.631 1.76564C11.4289 0.939895 8.77876 0.742702 7.2982 0.742702H7.19867C6.36507 0.742702 3.10534 0.939895 0.865835 1.76564C0.753859 1.80261 0.69165 1.91353 0.69165 2.02445C0.716534 4.57563 1.20176 9.50545 1.50036 11.0583C1.50036 11.0707 1.50036 11.0707 1.50036 11.083C2.59523 15.0515 6.42728 16.8386 7.12402 17.1343C7.19867 17.159 7.27332 17.159 7.34797 17.1343Z" fill="#1E73B7"/>
<path d="M7.19125 0.87537C6.38254 0.87537 3.17257 1.06024 0.982833 1.87366C0.870858 1.91063 0.82109 1.98458 0.833531 2.0955C0.908182 2.78568 2.88641 6.01471 5.62359 8.25777C8.59716 10.6857 12.4417 11.1294 12.6905 11.1294C12.7776 11.1294 12.8896 11.0554 12.902 10.9815C13.1882 9.4779 13.6485 4.72063 13.6734 2.13248C13.6734 2.02155 13.6112 1.92296 13.4992 1.87366C11.3468 1.06024 8.74646 0.863046 7.29078 0.863046L7.19125 0.87537Z" fill="url(#paint1_linear)"/>
<path d="M9.69537 3.07018C9.98162 3.02087 10.2554 3.0332 10.5292 3.09484C10.803 3.15648 11.0519 3.26744 11.276 3.41538C11.5 3.57565 11.6867 3.76057 11.836 3.99481C11.9854 4.22905 12.0849 4.47562 12.1347 4.75918C12.1845 5.04273 12.172 5.31395 12.1223 5.57285C12.06 5.84407 11.948 6.09064 11.7987 6.31255C11.6369 6.53447 11.4502 6.73172 11.2137 6.87966C10.9773 7.0276 10.7284 7.12623 10.4421 7.17554C10.0687 7.23718 9.70781 7.21253 9.35933 7.07691C9.01086 6.95363 8.71216 6.74405 8.46325 6.46049C8.22678 6.17694 8.06499 5.84407 8.00276 5.47422C7.95298 5.19067 7.96543 4.91944 8.02766 4.64822C8.08988 4.38932 8.20189 4.14275 8.36369 3.92084C8.52548 3.69893 8.72461 3.51401 8.94863 3.36607C9.16021 3.21812 9.40912 3.1195 9.69537 3.07018ZM9.75759 3.41538C9.44645 3.46469 9.17265 3.58798 8.93618 3.78523C8.69972 3.98249 8.52548 4.22905 8.41347 4.51261C8.30146 4.79616 8.27657 5.10437 8.32635 5.41258C8.40102 5.83175 8.60015 6.17694 8.93618 6.46049C8.99841 6.50981 9.06064 6.55912 9.13531 6.59611C9.52113 6.83035 9.93183 6.90432 10.355 6.83035C10.6661 6.78103 10.9399 6.64542 11.1888 6.44817C11.4253 6.25091 11.5995 6.00434 11.7116 5.70846C11.8236 5.41258 11.8485 5.1167 11.7862 4.80849C11.7489 4.57425 11.6618 4.36467 11.5373 4.16741C11.4129 3.97016 11.2511 3.80989 11.0644 3.6866C10.8777 3.56332 10.6786 3.47702 10.4545 3.42771C10.2305 3.37839 9.99406 3.36607 9.75759 3.41538ZM10.9026 4.66055L10.8155 4.67288C10.7532 4.6852 10.691 4.66055 10.6537 4.59891C10.5417 4.38932 10.3425 4.27837 10.0687 4.26604C9.93183 4.26604 9.80738 4.30302 9.69537 4.36467C9.58336 4.43864 9.49624 4.53726 9.43401 4.67288C9.37178 4.80849 9.33444 4.95643 9.33444 5.14136C9.33444 5.40025 9.39667 5.60983 9.52113 5.7701C9.64558 5.91804 9.81982 6.00434 10.0438 6.00434C10.1932 6.00434 10.3301 5.96736 10.467 5.88106C10.5666 5.80709 10.6412 5.70846 10.691 5.59751C10.7159 5.53586 10.7906 5.49888 10.8653 5.52354L10.9648 5.56052C11.027 5.58518 11.0644 5.64682 11.0395 5.70846C11.0022 5.81942 10.9399 5.90572 10.8653 5.99202C10.7657 6.10297 10.6412 6.18927 10.5043 6.25091C10.3674 6.31255 10.2056 6.33721 10.0438 6.33721C9.81982 6.33721 9.63314 6.2879 9.4589 6.18927C9.29711 6.09064 9.16021 5.9427 9.07309 5.75778C8.98597 5.57285 8.93618 5.35094 8.94863 5.09204C8.94863 4.93177 8.97352 4.7715 9.03575 4.63589C9.08553 4.50028 9.16021 4.37699 9.25977 4.27837C9.35933 4.17974 9.48379 4.09344 9.62069 4.04413C9.75759 3.99481 9.91939 3.97016 10.0936 3.97016C10.3301 3.97016 10.5292 4.0318 10.7035 4.15508C10.8279 4.24138 10.9275 4.35234 10.9897 4.50028C11.027 4.56192 10.9773 4.64822 10.9026 4.66055Z" fill="white"/>
<defs>
<linearGradient id="paint0_linear" x1="7.2394" y1="-0.00182779" x2="7.2394" y2="22.4965" gradientUnits="userSpaceOnUse">
<stop stop-color="#D7D7D7"/>
<stop offset="0.9987" stop-color="#BDBCBC"/>
<stop offset="1" stop-color="#BDBCBC"/>
</linearGradient>
<linearGradient id="paint1_linear" x1="7.16035" y1="0.851663" x2="8.07963" y2="14.123" gradientUnits="userSpaceOnUse">
<stop stop-color="#60BCEC"/>
<stop offset="1" stop-color="#1E73B7"/>
</linearGradient>
</defs>
</svg>
