<svg width="63" height="18" viewBox="0 0 63 18" fill="none" xmlns="http://www.w3.org/2000/svg">
<path d="M20.8904 9.83997V11.365H20V7.03662H21.6858C22.0102 7.03662 22.2952 7.09608 22.5405 7.21499C22.7878 7.3339 22.9778 7.50335 23.1103 7.72334C23.2429 7.94134 23.3092 8.19007 23.3092 8.46951C23.3092 8.89363 23.1638 9.22856 22.8729 9.47432C22.584 9.71809 22.1834 9.83997 21.6709 9.83997H20.8904ZM20.8904 9.11758H21.6858C21.9212 9.11758 22.1003 9.06209 22.2229 8.9511C22.3476 8.84012 22.4099 8.68157 22.4099 8.47546C22.4099 8.2634 22.3476 8.09196 22.2229 7.96116C22.0983 7.83036 21.9262 7.76297 21.7065 7.75901H20.8904V9.11758Z" fill="#46A6FA"/>
<path d="M25.2677 9.08191L26.0542 7.03662H27.0158L25.5052 10.607L25.3835 10.8418C25.1599 11.2322 24.8176 11.4274 24.3566 11.4274L24.045 11.4156L24.0361 10.6991C24.0835 10.707 24.1607 10.711 24.2676 10.711C24.3922 10.711 24.4921 10.6892 24.5673 10.6456C24.6445 10.602 24.7088 10.5217 24.7602 10.4048L24.87 10.1224L23.3534 7.03662H24.3121L25.2677 9.08191Z" fill="#46A6FA"/>
<path d="M28.6824 9.65566H28.1689V11.4245H27.2786V7.09608H28.1689V8.82922H28.5755L29.6321 7.09608H30.7183L29.3858 9.14434L30.8578 11.4245H29.7953L28.6824 9.65566Z" fill="#333C47"/>
<path d="M34.3804 9.35838C34.3804 9.78448 34.3053 10.1581 34.1549 10.4791C34.0045 10.8002 33.7888 11.0479 33.5079 11.2223C33.2289 11.3967 32.9084 11.4839 32.5463 11.4839C32.1882 11.4839 31.8686 11.3977 31.5877 11.2253C31.3067 11.0529 31.0891 10.8071 30.9347 10.488C30.7804 10.167 30.7022 9.79835 30.7003 9.38216V9.16812C30.7003 8.74202 30.7764 8.36744 30.9288 8.0444C31.0831 7.71937 31.2998 7.47065 31.5788 7.29823C31.8597 7.12382 32.1803 7.03662 32.5404 7.03662C32.9005 7.03662 33.22 7.12382 33.499 7.29823C33.7799 7.47065 33.9966 7.71937 34.149 8.0444C34.3033 8.36744 34.3804 8.74103 34.3804 9.16515V9.35838ZM33.4782 9.16217C33.4782 8.70833 33.3971 8.36348 33.2348 8.12764C33.0726 7.8918 32.8411 7.77388 32.5404 7.77388C32.2416 7.77388 32.0111 7.89081 31.8488 8.12467C31.6866 8.35654 31.6045 8.69743 31.6025 9.14731V9.35838C31.6025 9.80033 31.6836 10.1432 31.8459 10.387C32.0081 10.6307 32.2416 10.7526 32.5463 10.7526C32.8451 10.7526 33.0746 10.6357 33.2348 10.4018C33.3951 10.166 33.4762 9.82313 33.4782 9.37324V9.16217Z" fill="#333C47"/>
<path d="M38.2681 11.4245H37.3777V9.56945H35.6415V11.4245H34.7512V7.09608H35.6415V8.85003H37.3777V7.09608H38.2681V11.4245Z" fill="#333C47"/>
<path d="M41.9361 7.81847H40.6125V11.4245H39.7221V7.81847H38.4162V7.09608H41.9361V7.81847Z" fill="#333C47"/>
<path d="M44.7702 9.54864H43.0607V10.708H45.067V11.4245H42.1703V7.09608H45.0611V7.81847H43.0607V8.85003H44.7702V9.54864Z" fill="#333C47"/>
<path d="M46.7228 9.65566H46.2094V11.4245H45.319V7.09608H46.2094V8.82922H46.616L47.6725 7.09608H48.7588L47.4262 9.14434L48.8983 11.4245H47.8358L46.7228 9.65566Z" fill="#333C47"/>
<path d="M52.2636 9.98267C52.2299 10.4484 52.0578 10.815 51.7472 11.0826C51.4385 11.3502 51.0309 11.4839 50.5244 11.4839C49.9704 11.4839 49.5341 11.2976 49.2156 10.925C48.899 10.5505 48.7407 10.0372 48.7407 9.38513V9.12055C48.7407 8.70436 48.8139 8.33772 48.9603 8.02062C49.1067 7.70352 49.3155 7.46074 49.5865 7.29228C49.8596 7.12184 50.1762 7.03662 50.5363 7.03662C51.0349 7.03662 51.4365 7.1704 51.7412 7.43795C52.0459 7.7055 52.222 8.08106 52.2695 8.56464H51.3792C51.3574 8.2852 51.2792 8.08305 51.1447 7.95819C51.0121 7.83135 50.8093 7.76793 50.5363 7.76793C50.2395 7.76793 50.0169 7.87495 49.8685 8.08899C49.7221 8.30105 49.6469 8.63103 49.6429 9.07893V9.40594C49.6429 9.87366 49.7132 10.2155 49.8537 10.4316C49.9961 10.6476 50.2197 10.7556 50.5244 10.7556C50.7994 10.7556 51.0042 10.6932 51.1388 10.5683C51.2753 10.4415 51.3534 10.2463 51.3732 9.98267H52.2636Z" fill="#333C47"/>
<path d="M55.7357 7.81847H54.4121V11.4245H53.5217V7.81847H52.2158V7.09608H55.7357V7.81847Z" fill="#333C47"/>
<path d="M11.4458 13.1524C12.771 13.1524 14.0781 13.1524 15.367 13.1524C15.3852 12.9981 15.4033 12.8892 15.4033 12.7893C15.4033 9.85751 15.4124 6.92567 15.3943 3.99383C15.3943 3.79414 15.2763 3.55814 15.131 3.41291C14.0146 2.26922 12.88 1.13461 11.7544 0C9.33091 0 6.91645 0 4.49292 0C4.49292 1.19815 4.502 3.78507 4.51107 4.29337H5.38246C5.38246 3.90307 5.3643 1.87892 5.3643 0.871382C5.54584 0.871382 5.65476 0.862305 5.77276 0.862305C7.46106 0.862305 9.15844 0.871382 10.8467 0.853228C11.1826 0.853228 11.2915 0.953074 11.2824 1.28892C11.2643 2.26922 11.2734 3.25861 11.2734 4.29337H11.4095V4.32968C12.4624 4.32968 13.47 4.32968 14.5138 4.32968C14.5138 6.99829 14.5138 9.62151 14.5138 12.281C13.5063 12.281 12.4987 12.281 11.4367 12.281L11.4458 13.1524ZM12.1538 3.44014C12.1538 2.87738 12.1538 2.33276 12.1538 1.79723C12.7075 2.35999 13.2521 2.91368 13.7786 3.44014C13.2975 3.44014 12.7438 3.44014 12.1538 3.44014Z" fill="#CE0020"/>
<path d="M11.856 13.5632V8.29857C11.856 8.13518 11.856 7.9718 11.8469 7.80842C11.8469 7.60872 11.747 7.36365 11.6109 7.21842C10.567 6.14734 9.50505 5.08535 8.43398 4.0415C8.31598 3.9235 8.11629 3.84181 7.93475 3.82366H3.37815V3.81458C2.70646 3.81458 1.97123 3.8055 1.51738 3.81458C1.354 3.81458 1.19969 3.83273 1.03631 3.84181C1.01815 3.96889 1.00908 4.0415 1.00908 4.11412C1.00908 8.25318 1.00908 12.4013 1 16.5404C1 16.8944 1.16338 16.9216 1.44477 16.9216C4.76691 16.9125 8.09813 16.9125 11.4203 16.9216C11.7652 16.9216 11.865 16.8127 11.856 16.4769C11.8469 15.7689 11.856 14.4709 11.856 13.5632ZM8.58829 5.48473C9.17828 6.09288 9.74105 6.66473 10.3129 7.24565C9.82274 7.24565 9.27813 7.25472 8.73352 7.23657C8.67905 7.23657 8.59736 7.11857 8.59736 7.04596C8.58829 6.52857 8.58829 6.01119 8.58829 5.48473ZM10.6397 16.0865C9.23274 16.0684 7.82583 16.0775 6.41891 16.0775C5.03014 16.0775 3.6323 16.0684 2.24354 16.0865C1.88046 16.0956 1.78969 15.9685 1.78969 15.6145C1.79877 12.0927 1.79877 8.5618 1.78969 5.03996C1.78969 4.68596 1.88954 4.56796 2.25261 4.56796C3.94999 4.58612 5.63829 4.58612 7.33567 4.56796C7.70783 4.56796 7.7986 4.71319 7.7986 5.04904C7.78952 5.88411 7.80767 6.71011 7.78952 7.54519C7.78044 7.90826 7.88936 8.05349 8.27059 8.04441C9.06028 8.01718 9.8409 8.04442 10.6306 8.03534C10.9574 8.02626 11.0844 8.13518 11.0844 8.48011C11.0754 10.8673 11.0754 13.2636 11.0844 15.6509C11.0844 15.9776 10.9755 16.0956 10.6397 16.0865Z" fill="#636468"/>
</svg>
