<svg width="30" height="18" viewBox="0 0 30 18" fill="none" xmlns="http://www.w3.org/2000/svg">
<rect y="3" width="30" height="12" rx="3" fill="#81D0F5"/>
<path d="M5.41523 8.4209C6.03148 8.4209 6.64381 8.4209 7.26006 8.4209C7.57799 8.4209 7.70753 8.55832 7.70753 8.90397C7.70753 9.31207 7.70753 9.72434 7.70753 10.1324C7.70753 10.4739 7.58192 10.6155 7.26006 10.6238C6.99708 10.6322 6.73801 10.6238 6.47503 10.6238C5.52513 10.6238 4.57918 10.6238 3.62928 10.6238C3.20144 10.6238 3.09546 10.5072 3.09546 10.0617C3.09546 9.67853 3.09546 9.29958 3.09546 8.91646C3.09546 8.54583 3.21714 8.4209 3.57041 8.4209C4.18666 8.4209 4.80291 8.4209 5.41523 8.4209Z" fill="#1C1C19"/>
<path d="M5.407 12.0984C4.73972 12.0984 4.07637 12.0984 3.40909 12.0984C3.18928 12.0984 3.099 12.0234 3.099 11.8485C3.099 11.6736 3.19321 11.5903 3.40517 11.5903C4.74364 11.5903 6.08212 11.5903 7.42061 11.5903C7.62079 11.5903 7.73854 11.6861 7.73854 11.8444C7.73854 12.0026 7.62472 12.0984 7.42453 12.0984C6.7494 12.0984 6.0782 12.0984 5.407 12.0984Z" fill="#1C1C19"/>
<path d="M4.11948 11.3525C3.86434 11.3525 3.60921 11.3525 3.35799 11.3525C3.20492 11.3525 3.10678 11.2817 3.09893 11.111C3.09108 10.9277 3.19314 10.8444 3.35407 10.8444C3.86434 10.8403 4.37068 10.8403 4.88096 10.8444C5.03797 10.8444 5.14787 10.9194 5.15179 11.0985C5.15179 11.2775 5.04974 11.3525 4.88488 11.3525C4.62975 11.3525 4.37461 11.3525 4.11948 11.3525Z" fill="#1C1C19"/>
<path d="M5.38735 10.0947C4.83782 10.0947 4.29223 10.0906 3.74271 10.0989C3.6014 10.1031 3.57 10.0531 3.57392 9.9115C3.5857 9.62832 3.58177 9.34515 3.57392 9.0578C3.57392 8.95785 3.6014 8.92871 3.69561 8.92871C4.82997 8.93287 5.96827 8.93287 7.10265 8.92871C7.20077 8.92871 7.22432 8.96619 7.22432 9.06196C7.2204 9.35347 7.21647 9.64498 7.22432 9.93648C7.22825 10.0697 7.189 10.0989 7.07124 10.0947C6.50995 10.0906 5.94865 10.0947 5.38735 10.0947Z" fill="#8BD5F5"/>
<path d="M21.3157 8.93313C21.5434 8.93313 21.771 8.92897 22.0026 8.93313C22.246 8.93729 22.4108 9.09138 22.4305 9.34957C22.4383 9.47866 22.4383 9.61193 22.4186 9.74101C22.3912 9.94923 22.2381 10.0908 22.0418 10.0908C21.5591 10.095 21.0762 10.0908 20.5935 10.095C20.4875 10.095 20.464 10.0533 20.464 9.94923C20.4679 9.65773 20.4718 9.36623 20.464 9.07472C20.46 8.94979 20.5071 8.9248 20.6131 8.9248C20.8446 8.93729 21.0802 8.93313 21.3157 8.93313Z" fill="#8BD5F5"/>
<path d="M4.05302 6.49035C4.05302 6.63669 4.0114 6.74476 3.92817 6.81456C3.84558 6.88436 3.72073 6.91927 3.55362 6.91927H3.14258V5.44727H3.97043V5.59929H3.30584V6.07554H3.52385C3.64742 6.07554 3.74794 6.09064 3.82541 6.12085C3.90288 6.15038 3.96019 6.19434 3.99732 6.25274C4.03445 6.31114 4.05302 6.39035 4.05302 6.49035ZM3.30584 6.77127H3.53538C3.65702 6.77127 3.74538 6.74945 3.80044 6.70582C3.85614 6.66219 3.88399 6.59037 3.88399 6.49035C3.88399 6.39504 3.85582 6.32724 3.79948 6.28697C3.74314 6.2467 3.64486 6.22656 3.50464 6.22656H3.30584V6.77127Z" fill="black"/>
<path d="M4.84253 5.44727H4.99523V6.26583C4.99523 6.41686 4.99075 6.55345 4.98179 6.67562H4.98947L5.77698 5.44727H5.95561V6.91927H5.80195V6.10876C5.80195 5.97384 5.8074 5.83222 5.81828 5.68388H5.80963L5.02116 6.91927H4.84253V5.44727Z" fill="black"/>
<path d="M7.72279 5.87618C7.72279 6.0252 7.67414 6.13997 7.57682 6.22052C7.48014 6.3004 7.34152 6.34033 7.16097 6.34033H6.99579V6.91927H6.83252V5.44727H7.1965C7.54736 5.44727 7.72279 5.59023 7.72279 5.87618ZM6.99579 6.19334H7.14272C7.28742 6.19334 7.3921 6.16883 7.45677 6.11984C7.52144 6.07083 7.55377 5.9923 7.55377 5.88424C7.55377 5.78691 7.52335 5.71442 7.46253 5.66675C7.4017 5.6191 7.30695 5.59527 7.17826 5.59527H6.99579V6.19334Z" fill="black"/>
<path d="M8.89042 6.16212L8.33817 5.44727H8.52067L9.06709 6.16011V5.44727H9.22459V6.16011L9.772 5.44727H9.9545L9.40134 6.16011L9.97175 6.91927H9.7835L9.22459 6.1732V6.91927H9.06709V6.1732L8.50908 6.91927H8.31799L8.89042 6.16212Z" fill="black"/>
<path d="M11.5451 6.91946L11.3703 6.45128H10.8076L10.6346 6.91946H10.4695L11.0246 5.44141H11.1619L11.7141 6.91946H11.5451ZM11.3194 6.29723L11.1561 5.84113C11.135 5.7834 11.1132 5.71259 11.0908 5.62868C11.0767 5.69312 11.0566 5.76393 11.0303 5.84113L10.8651 6.29723H11.3194Z" fill="black"/>
<path d="M14.4432 6.71078H14.2454L13.5962 5.9647V6.71078H13.4329V5.23877H13.5962V5.95161L14.229 5.23877H14.4164L13.7949 5.95363L14.4432 6.71078Z" fill="black"/>
<path d="M16.3163 6.18146C16.3163 6.41707 16.2593 6.60233 16.1453 6.73724C16.032 6.87216 15.8741 6.93962 15.6719 6.93962C15.465 6.93962 15.3053 6.87351 15.1926 6.74127C15.0805 6.60836 15.0245 6.4211 15.0245 6.17945C15.0245 5.93982 15.0809 5.75422 15.1935 5.62266C15.3063 5.49043 15.4663 5.42432 15.6738 5.42432C15.8755 5.42432 16.033 5.49144 16.1463 5.62568C16.2596 5.75993 16.3163 5.94519 16.3163 6.18146ZM15.1974 6.18146C15.1974 6.38082 15.2377 6.53218 15.3185 6.63555C15.3997 6.73825 15.5175 6.7896 15.6719 6.7896C15.8275 6.7896 15.9449 6.73825 16.0243 6.63555C16.1037 6.53285 16.1434 6.38149 16.1434 6.18146C16.1434 5.98345 16.1037 5.83343 16.0243 5.7314C15.9455 5.62871 15.8287 5.57736 15.6738 5.57736C15.5182 5.57736 15.3997 5.62904 15.3185 5.73241C15.2377 5.8351 15.1974 5.98479 15.1974 6.18146Z" fill="black"/>
<path d="M18.1879 6.91927H18.0247V6.22656H17.2852V6.91927H17.1219V5.44727H17.2852V6.07352H18.0247V5.44727H18.1879V6.91927Z" fill="black"/>
<path d="M19.4977 6.91927H19.3344V5.59929H18.8898V5.44727H19.9424V5.59929H19.4977V6.91927Z" fill="black"/>
<path d="M21.4295 6.91927H20.6469V5.44727H21.4295V5.59929H20.8101V6.07352H21.3921V6.22455H20.8101V6.76624H21.4295V6.91927Z" fill="black"/>
<path d="M23.2994 6.91927H23.1361V6.22656H22.3966V6.91927H22.2333V5.44727H22.3966V6.07352H23.1361V5.44727H23.2994V6.91927Z" fill="black"/>
<path d="M24.6094 6.91927H24.4461V5.59929H24.0015V5.44727H25.054V5.59929H24.6094V6.91927Z" fill="black"/>
<path d="M26.6404 6.91946L26.4655 6.45128H25.9028L25.7299 6.91946H25.5647L26.1198 5.44141H26.2571L26.8094 6.91946H26.6404ZM26.4146 6.29723L26.2514 5.84113C26.2303 5.7834 26.2084 5.71259 26.1861 5.62868C26.172 5.69312 26.1519 5.76393 26.1256 5.84113L25.9604 6.29723H26.4146Z" fill="black"/>
<path d="M14.6595 8.4043L15.0161 8.73911L12.1121 12.2184L11.7556 11.8836L14.6595 8.4043Z" fill="white"/>
<path d="M11.7472 8.74911L12.1019 8.41211L15.0249 11.8736L14.6701 12.2105L11.7472 8.74911Z" fill="white"/>
<path d="M9.80933 9.01953H10.2856V12.1512H9.80933V9.01953Z" fill="white"/>
<path d="M11.5717 8.51416V9.01926H8.47644V8.51416H11.5717Z" fill="white"/>
<path d="M16.5712 9.01953H17.0473V12.1512H16.5712V9.01953Z" fill="white"/>
<path d="M18.3334 8.51416V9.01926H15.2382V8.51416H18.3334Z" fill="white"/>
<path d="M18.5953 11.3931H18.5953C18.3981 11.3931 18.2382 11.5627 18.2382 11.7719V11.7719C18.2382 11.9811 18.3981 12.1507 18.5953 12.1507H18.5953C18.7926 12.1507 18.9524 11.9811 18.9524 11.7719V11.7719C18.9524 11.5627 18.7926 11.3931 18.5953 11.3931Z" fill="black"/>
<path d="M19.9524 8.51416H20.4286V12.1509H19.9524V8.51416Z" fill="black"/>
<path d="M21.2185 10.5827L21.5703 10.2422L22.9997 11.9039L22.6479 12.2443L21.2185 10.5827Z" fill="black"/>
<path fill-rule="evenodd" clip-rule="evenodd" d="M22.0001 9.01926H20.4286V10.1305H22.0001C22.2104 10.1305 22.381 9.94958 22.381 9.72641V9.42334C22.381 9.20018 22.2104 9.01926 22.0001 9.01926ZM19.9524 8.51416V10.6356H22.0001C22.4734 10.6356 22.8571 10.2285 22.8571 9.72641V9.42334C22.8571 8.92122 22.4734 8.51416 22.0001 8.51416H19.9524Z" fill="black"/>
<path fill-rule="evenodd" clip-rule="evenodd" d="M24.1899 8.51416V10.9892C24.1899 11.4076 24.5097 11.7468 24.9042 11.7468H25.5232C25.9177 11.7468 26.2376 11.4076 26.2376 10.9892V8.51416H26.7137V10.9892C26.7137 11.6866 26.1807 12.2519 25.5232 12.2519H24.9042C24.2467 12.2519 23.7137 11.6866 23.7137 10.9892V8.51416H24.1899Z" fill="black"/>
</svg>
