<svg width="73" height="12" viewBox="0 0 73 12" fill="none" xmlns="http://www.w3.org/2000/svg">
<path d="M73 0H0V12H73L69.0213 6L73 0Z" fill="#FF4343"/>
<path d="M6.86572 9V3.39844H11.0415V4.28906H7.84229V5.57422H9.40479C10.0272 5.57422 10.5207 5.72396 10.8853 6.02344C11.2524 6.32292 11.436 6.73958 11.436 7.27344C11.436 7.82812 11.2511 8.25521 10.8813 8.55469C10.5116 8.85156 10.0024 9 9.354 9H6.86572ZM7.84229 8.12109H9.13916C9.58447 8.12109 9.9139 8.05599 10.1274 7.92578C10.3436 7.79297 10.4517 7.5612 10.4517 7.23047C10.4517 6.96224 10.354 6.75781 10.1587 6.61719C9.96338 6.47656 9.68213 6.40625 9.31494 6.40625H7.84229V8.12109Z" fill="white"/>
<path d="M12.8454 9V3.39844H16.9978V4.28125H13.8298V5.73438H16.6384V6.61719H13.8298V8.12109H17.0368V9H12.8454Z" fill="white"/>
<path d="M18.2587 6.19922C18.2587 5.80339 18.3303 5.42839 18.4735 5.07422C18.6168 4.72005 18.8134 4.41276 19.0634 4.15234C19.3134 3.89193 19.6194 3.6862 19.9813 3.53516C20.3433 3.38151 20.7313 3.30469 21.1454 3.30469C21.6272 3.30469 22.0386 3.38021 22.3798 3.53125C22.7235 3.67969 23.0425 3.89453 23.3368 4.17578L22.7079 4.90234C22.4631 4.67839 22.2157 4.50651 21.9657 4.38672C21.7157 4.26693 21.4397 4.20703 21.1376 4.20703C20.7886 4.20703 20.4722 4.29557 20.1884 4.47266C19.9045 4.64974 19.6832 4.89062 19.5243 5.19531C19.3681 5.4974 19.2899 5.83203 19.2899 6.19922C19.2899 6.75391 19.4657 7.22526 19.8173 7.61328C20.1688 7.9987 20.609 8.19141 21.1376 8.19141C21.4605 8.19141 21.7431 8.13151 21.9853 8.01172C22.23 7.89193 22.484 7.70964 22.747 7.46484L23.3798 8.10547C23.1715 8.32161 22.9644 8.4987 22.7587 8.63672C22.5556 8.77474 22.3134 8.88672 22.0321 8.97266C21.7535 9.05599 21.4449 9.09766 21.1063 9.09766C20.5725 9.09766 20.0868 8.97005 19.6493 8.71484C19.2144 8.45964 18.8733 8.11068 18.6259 7.66797C18.3811 7.22526 18.2587 6.73568 18.2587 6.19922Z" fill="white"/>
<path d="M24.711 9V3.39844H29.2813V9H28.297V4.28906H25.6954V9H24.711Z" fill="white"/>
<path d="M30.3392 8.97656L30.4368 8.16797C30.5306 8.19922 30.6373 8.21484 30.7571 8.21484C30.8483 8.21484 30.9277 8.20573 30.9954 8.1875C31.0657 8.16667 31.1399 8.1263 31.2181 8.06641C31.2988 8.00391 31.3678 7.91927 31.4251 7.8125C31.485 7.70312 31.5423 7.55599 31.597 7.37109C31.6543 7.18359 31.6998 6.96224 31.7337 6.70703C31.7702 6.44922 31.7988 6.13542 31.8196 5.76562C31.8405 5.39323 31.8509 4.97266 31.8509 4.50391V3.39844H35.6907V9H34.7063V4.28906H32.7728V4.79297C32.7728 5.49349 32.7467 6.09635 32.6946 6.60156C32.6425 7.10677 32.5696 7.51823 32.4759 7.83594C32.3847 8.15104 32.2636 8.40104 32.1126 8.58594C31.9616 8.76823 31.8001 8.89323 31.6282 8.96094C31.459 9.02865 31.2558 9.0625 31.0188 9.0625C30.7897 9.0625 30.5631 9.03385 30.3392 8.97656Z" fill="white"/>
<path d="M36.9556 9L39.4204 3.35938H40.3345L42.7954 9H41.7563L41.1899 7.64844H38.5415L37.9634 9H36.9556ZM38.9009 6.77734H40.8306L39.8618 4.53516L38.9009 6.77734Z" fill="white"/>
<path d="M43.6579 4.3125V3.39844H48.2009V4.3125H46.4274V9H45.4353V4.3125H43.6579Z" fill="white"/>
<path d="M49.5438 9V3.39844H50.5282V5.72656H53.2001V3.39844H54.1845V9H53.2001V6.64062H50.5282V9H49.5438Z" fill="white"/>
<path d="M55.6759 6.19922C55.6759 5.80859 55.7488 5.4375 55.8946 5.08594C56.0405 4.73177 56.241 4.42448 56.4962 4.16406C56.7514 3.90104 57.0626 3.69271 57.4298 3.53906C57.797 3.38281 58.1902 3.30469 58.6095 3.30469C59.0313 3.30469 59.4246 3.38151 59.7892 3.53516C60.1537 3.6862 60.4623 3.89193 60.7149 4.15234C60.9702 4.41276 61.1694 4.72005 61.3126 5.07422C61.4584 5.42839 61.5313 5.80339 61.5313 6.19922C61.5313 6.58984 61.4584 6.96224 61.3126 7.31641C61.1668 7.67057 60.9662 7.97917 60.711 8.24219C60.4558 8.5026 60.1433 8.71094 59.7735 8.86719C59.4063 9.02083 59.0131 9.09766 58.5938 9.09766C58.034 9.09766 57.53 8.96745 57.0821 8.70703C56.6342 8.44401 56.2879 8.09245 56.0431 7.65234C55.7983 7.21224 55.6759 6.72786 55.6759 6.19922ZM56.7071 6.19922C56.7071 6.5612 56.7866 6.89453 56.9454 7.19922C57.1069 7.5013 57.3334 7.74219 57.6251 7.92188C57.9194 8.10156 58.2475 8.19141 58.6095 8.19141C58.9715 8.19141 59.297 8.10286 59.586 7.92578C59.8777 7.74609 60.103 7.50521 60.2618 7.20312C60.4207 6.90104 60.5001 6.56641 60.5001 6.19922C60.5001 5.83724 60.4194 5.50521 60.2579 5.20312C60.0965 4.89844 59.8686 4.65625 59.5743 4.47656C59.2827 4.29688 58.9558 4.20703 58.5938 4.20703C58.2319 4.20703 57.905 4.29688 57.6134 4.47656C57.3243 4.65365 57.1004 4.89323 56.9415 5.19531C56.7853 5.4974 56.7071 5.83203 56.7071 6.19922Z" fill="white"/>
</svg>
