<svg width="16" height="16" viewBox="0 0 16 16" fill="none" xmlns="http://www.w3.org/2000/svg">
<path fill-rule="evenodd" clip-rule="evenodd" d="M13.8536 1.17563C14.1591 1.36844 14.3633 1.69665 14.4075 2.06639L14.9909 6.93593C15.0708 7.60308 14.6173 8.21152 13.9779 8.29491C13.3386 8.37831 12.7555 7.90508 12.6756 7.23793L12.5264 5.99234L9.59624 11.3431C9.44059 11.6273 9.1818 11.8341 8.87828 11.9169C8.57475 11.9997 8.25207 11.9514 7.98306 11.783L5.96868 10.5218L3.10004 14.513C2.71345 15.0508 1.98219 15.1599 1.46673 14.7565C0.95127 14.353 0.846805 13.59 1.2334 13.0521L4.73335 8.18257C5.09206 7.6835 5.75426 7.54814 6.26691 7.86911L8.16163 9.05538L10.6336 4.54134L8.99294 5.18334C8.38964 5.41941 7.71717 5.10045 7.49093 4.47092C7.26469 3.84138 7.57036 3.13967 8.17366 2.90359L12.8403 1.07752C13.1746 0.94668 13.548 0.982833 13.8536 1.17563Z" fill="#FFCE0D"/>
</svg>
