<svg width="19" height="18" viewBox="0 0 19 18" fill="none" xmlns="http://www.w3.org/2000/svg">
<path opacity="0.75" fill-rule="evenodd" clip-rule="evenodd" d="M7.73716 3.67573C8.11035 3.26861 8.08285 2.63604 7.67573 2.26285C7.26861 1.88966 6.63604 1.91716 6.26285 2.32428L3.32672 5.52732L1.73106 3.81768C1.35423 3.41393 0.721436 3.39211 0.317686 3.76895C-0.0860652 4.14578 -0.107886 4.77857 0.268948 5.18232L2.60228 7.68232C2.79247 7.8861 3.05909 8.00124 3.33783 7.99999C3.61657 7.99874 3.88214 7.8812 4.07049 7.67573L7.73716 3.67573ZM7.73716 10.6757C8.11035 10.2686 8.08285 9.63604 7.67573 9.26285C7.26861 8.88966 6.63604 8.91716 6.26285 9.32428L3.32672 12.5273L1.73106 10.8177C1.35423 10.4139 0.721436 10.3921 0.317686 10.7689C-0.0860652 11.1458 -0.107886 11.7786 0.268948 12.1823L2.60228 14.6823C2.79247 14.8861 3.05909 15.0012 3.33783 15C3.61657 14.9987 3.88214 14.8812 4.07049 14.6757L7.73716 10.6757ZM10 6C10 5.44772 10.4477 5 11 5H18C18.5523 5 19 5.44772 19 6C19 6.55228 18.5523 7 18 7H11C10.4477 7 10 6.55228 10 6ZM11 11C10.4477 11 10 11.4477 10 12C10 12.5523 10.4477 13 11 13H18C18.5523 13 19 12.5523 19 12C19 11.4477 18.5523 11 18 11H11Z" fill="#A8A8A8"/>
</svg>
