<svg xmlns="http://www.w3.org/2000/svg" width="19" height="18" fill="none" viewBox="0 0 19 18">
    <path fill="#fff" fill-rule="evenodd" d="M7.737 3.676c.373-.407.346-1.04-.061-1.413s-1.04-.346-1.413.061L3.327 5.527 1.73 3.817C1.354 3.415.721 3.393.318 3.77c-.404.377-.426 1.01-.05 1.413l2.334 2.5c.19.204.457.32.736.318.279-.001.544-.119.732-.324l3.667-4zm0 7c.373-.407.346-1.04-.061-1.413s-1.04-.346-1.413.061l-2.936 3.203-1.596-1.71c-.377-.403-1.01-.425-1.413-.048-.404.377-.426 1.01-.05 1.413l2.334 2.5c.19.204.457.32.736.318.279-.001.544-.119.732-.324l3.667-4zM10 6c0-.552.448-1 1-1h7c.552 0 1 .448 1 1s-.448 1-1 1h-7c-.552 0-1-.448-1-1zm1 5c-.552 0-1 .448-1 1s.448 1 1 1h7c.552 0 1-.448 1-1s-.448-1-1-1h-7z" clip-rule="evenodd" opacity=".75"/>
</svg>
