<svg width="21" height="21" viewBox="0 0 21 21" fill="none" xmlns="http://www.w3.org/2000/svg">
<path d="M11 19C12.1038 19 12.9991 18.1047 12.9991 17H9.00096C9.00096 18.1047 9.89627 19 11 19ZM17.731 14.3216C17.1272 13.6728 15.9975 12.6969 15.9975 9.5C15.9975 7.07188 14.295 5.12813 11.9994 4.65125V4C11.9994 3.44781 11.5519 3 11 3C10.4481 3 10.0006 3.44781 10.0006 4V4.65125C7.70502 5.12813 6.00252 7.07188 6.00252 9.5C6.00252 12.6969 4.87283 13.6728 4.26908 14.3216C4.08158 14.5231 3.99846 14.7641 4.00002 15C4.00346 15.5125 4.40565 16 5.00315 16H16.9969C17.5944 16 17.9969 15.5125 18 15C18.0016 14.7641 17.9185 14.5228 17.731 14.3216V14.3216Z" fill="#333333"/>
</svg>
