<svg width="18" height="18" viewBox="0 0 18 18" fill="none" xmlns="http://www.w3.org/2000/svg">
<path fill-rule="evenodd" clip-rule="evenodd" d="M7.75 6.18939L9.46973 4.46967L10.5304 5.53033L7.00006 9.06066L3.46973 5.53033L4.53039 4.46967L6.25 6.18928V1H7.75V6.18939Z" fill="#FFCE0D"/>
<path fill-rule="evenodd" clip-rule="evenodd" d="M16.0836 4.25H13.4091L11.098 10.0278H3.05106L2.74726 6.38217L1.25244 6.50674L1.67086 11.5278H10.498L9.798 13.2778H2.36133V14.7778H10.8135L14.4247 5.75H16.0836V4.25ZM4.16667 16.9167C4.16667 17.515 3.68164 18 3.08333 18C2.48502 18 2 17.515 2 16.9167C2 16.3184 2.48502 15.8333 3.08333 15.8333C3.68164 15.8333 4.16667 16.3184 4.16667 16.9167ZM9.22201 18C9.82031 18 10.3053 17.515 10.3053 16.9167C10.3053 16.3184 9.82031 15.8333 9.22201 15.8333C8.6237 15.8333 8.13867 16.3184 8.13867 16.9167C8.13867 17.515 8.6237 18 9.22201 18Z" fill="white"/>
</svg>
