<svg width="17" height="17" viewBox="0 0 17 17" fill="none" xmlns="http://www.w3.org/2000/svg">
<path d="M7.21191 10.5366C7.21191 9.85303 7.29492 9.30859 7.46094 8.90332C7.62695 8.49805 7.92969 8.1001 8.36914 7.70947C8.81348 7.31396 9.10889 6.99414 9.25537 6.75C9.40186 6.50098 9.4751 6.23975 9.4751 5.96631C9.4751 5.14111 9.09424 4.72852 8.33252 4.72852C7.97119 4.72852 7.68066 4.84082 7.46094 5.06543C7.24609 5.28516 7.13379 5.59033 7.12402 5.98096H5C5.00977 5.04834 5.31006 4.31836 5.90088 3.79102C6.49658 3.26367 7.30713 3 8.33252 3C9.36768 3 10.1709 3.25146 10.7422 3.75439C11.3135 4.25244 11.5991 4.95801 11.5991 5.87109C11.5991 6.28613 11.5063 6.6792 11.3208 7.05029C11.1353 7.4165 10.8105 7.82422 10.3467 8.27344L9.75342 8.8374C9.38232 9.19385 9.16992 9.61133 9.11621 10.0898L9.08691 10.5366H7.21191ZM6.99951 12.7852C6.99951 12.458 7.10938 12.1895 7.3291 11.9795C7.55371 11.7646 7.83936 11.6572 8.18604 11.6572C8.53271 11.6572 8.81592 11.7646 9.03564 11.9795C9.26025 12.1895 9.37256 12.458 9.37256 12.7852C9.37256 13.1074 9.2627 13.3735 9.04297 13.5835C8.82812 13.7935 8.54248 13.8984 8.18604 13.8984C7.82959 13.8984 7.5415 13.7935 7.32178 13.5835C7.10693 13.3735 6.99951 13.1074 6.99951 12.7852Z" fill="#1073D8"/>
</svg>
