<svg width="16" height="16" viewBox="0 0 16 16" fill="none" xmlns="http://www.w3.org/2000/svg">
<path d="M6.80697 15.9925C5.32861 15.9925 3.85379 15.9641 2.37543 15.9996C1.14878 16.0279 -0.0140525 14.8299 0.000128385 13.6284C0.0320355 10.6654 0.0284902 7.6988 0.000128385 4.73222C-0.0105073 3.59805 1.07433 2.35754 2.35771 2.37881C3.32556 2.39299 4.29695 2.37881 5.2648 2.38235C5.62996 2.38235 5.90294 2.57729 6.01284 2.89628C6.11565 3.19754 6.03411 3.54488 5.77176 3.71855C5.62286 3.8178 5.42788 3.88514 5.25062 3.88868C4.27568 3.9064 3.30074 3.89577 2.3258 3.89931C2.2159 3.89931 2.10245 3.90995 1.99255 3.93121C1.73729 3.98083 1.59194 4.14742 1.54585 4.39552C1.52458 4.51248 1.51749 4.62944 1.51749 4.7464C1.51749 7.68817 1.51749 10.6299 1.51749 13.5717C1.51749 14.2983 1.70538 14.4861 2.42861 14.4861C5.34279 14.4861 8.25343 14.4861 11.1676 14.4861C11.2633 14.4861 11.3555 14.4897 11.4512 14.479C11.905 14.4365 12.1035 14.2239 12.1106 13.7666C12.1142 13.2173 12.1106 12.6679 12.1106 12.1185C12.1106 11.6578 12.1106 11.197 12.1106 10.7363C12.1106 10.2897 12.4262 9.95652 12.848 9.94943C13.2841 9.94235 13.6209 10.2613 13.6245 10.7185C13.6315 11.7287 13.6386 12.7388 13.6245 13.7489C13.6032 14.9221 12.5042 15.9889 11.3307 15.9925C9.82042 15.996 8.31369 15.9925 6.80697 15.9925Z" fill="#FFCE0D"/>
<path d="M14.9998 3.47394C14.9892 4.01267 14.8296 4.38837 14.5035 4.71444C12.6103 6.59647 10.7243 8.48912 8.84175 10.3782C8.67512 10.5484 8.48723 10.6582 8.25324 10.7149C7.34921 10.9418 6.44872 11.1828 5.54823 11.4167C4.91009 11.5833 4.42439 11.0977 4.58747 10.4562C4.82855 9.52406 5.06253 8.59545 5.31779 7.66685C5.36388 7.50381 5.46314 7.34077 5.58014 7.22026C6.44163 6.34482 7.31376 5.48001 8.18234 4.61166C9.24945 3.54128 10.3166 2.4709 11.3837 1.39698C11.9084 0.872423 12.9968 0.865335 13.5427 1.38989C13.9043 1.74078 14.2553 2.09521 14.6098 2.45318C14.9076 2.76153 14.9927 3.14786 14.9998 3.47394ZM6.36009 9.64456C6.8316 9.52051 7.27121 9.41064 7.70728 9.28659C7.78527 9.26532 7.86327 9.20507 7.92354 9.14482C9.04383 8.02836 10.1606 6.90837 11.2773 5.78837C11.3128 5.75292 11.3447 5.71039 11.3695 5.68558C11.0114 5.32761 10.6605 4.98381 10.3059 4.63292C10.313 4.62938 10.3024 4.63292 10.2917 4.64001C9.13246 5.799 7.96962 6.95798 6.81033 8.12051C6.77134 8.1595 6.73234 8.21267 6.71816 8.26583C6.60116 8.71596 6.48417 9.16608 6.36009 9.64456ZM12.4792 2.49926C12.1353 2.8466 11.7878 3.19394 11.4688 3.51647C11.8091 3.85672 12.1565 4.20406 12.4933 4.54077C12.8266 4.20761 13.1705 3.86381 13.5073 3.52356C13.1669 3.19039 12.823 2.84305 12.4792 2.49926Z" fill="#FFCE0D"/>
</svg>
