<svg width="9" height="12" viewBox="0 0 9 12" fill="none" xmlns="http://www.w3.org/2000/svg">
<path d="M8.42373 10.9932C8.25119 10.9932 8.08881 10.9932 7.91627 10.9932C7.91627 10.8288 7.91627 10.6952 7.91627 10.5514C7.92642 10.1507 7.88583 9.75 7.79449 9.34931C7.51031 8.13699 6.93181 7.14041 5.83571 6.49315C5.75452 6.44178 5.68348 6.33904 5.64288 6.24658C5.56169 6.03082 5.72408 5.57877 5.92706 5.46575C6.62734 5.02397 7.1145 4.40753 7.45957 3.66781C7.76404 2.98973 7.91627 2.27055 7.91627 1.53082C7.91627 1.35616 7.91627 1.19178 7.91627 1.00685C8.10911 1.00685 8.28164 1.00685 8.46432 1.00685C8.55567 1.00685 8.59626 0.976027 8.59626 0.883562C8.58611 0.626712 8.59626 0.369863 8.59626 0.123288C8.59626 0.0821918 8.58611 0.0410959 8.57596 0C5.73422 0 2.88234 0 0.0405963 0C0.0202981 0.0308219 0 0.0821918 0 0.123288C0 0.369863 0 0.606164 0 0.85274C0 1.00685 0 1.00685 0.152236 1.00685C0.32477 1.00685 0.497304 1.00685 0.669839 1.00685C0.669839 1.15068 0.669839 1.27397 0.669839 1.39726C0.659689 2.00342 0.740882 2.58904 0.923565 3.16438C1.22804 4.07877 1.73549 4.84932 2.54742 5.38356C2.76055 5.5274 2.87219 5.71233 2.93308 5.93836C3.00412 6.18493 2.92293 6.39041 2.7301 6.50342C2.01966 6.91438 1.51221 7.51027 1.15699 8.25C0.832224 8.92808 0.679988 9.65753 0.669839 10.4178C0.669839 10.6027 0.669839 10.7979 0.669839 10.9932C0.477006 10.9932 0.294323 10.9932 0.11164 10.9932C0.0304472 10.9932 0 11.024 0 11.1062C0 11.363 0 11.6301 0 11.887C0 11.9281 0.0101491 11.9589 0.0202981 12C2.86204 12 5.71393 12 8.55567 12C8.56581 11.9589 8.57596 11.9075 8.57596 11.8664C8.57596 11.6301 8.57596 11.3938 8.57596 11.1473C8.58611 10.9932 8.58611 10.9932 8.42373 10.9932ZM7.40882 10.726C7.40882 10.7466 7.39867 10.7671 7.39867 10.7979C5.32826 10.7979 3.25785 10.7979 1.17729 10.7979C1.17729 10.5719 1.16714 10.3459 1.17729 10.1301C1.23819 9.28767 1.49191 8.50685 1.98922 7.81849C2.24294 7.46918 2.55757 7.18151 2.93308 6.96575C3.36949 6.7089 3.54202 6.2774 3.41009 5.78425C3.33904 5.53767 3.21725 5.32192 3.06502 5.12671C3.04472 5.09589 3.01427 5.07534 2.97368 5.05479C2.1922 4.60274 1.71519 3.89384 1.42087 3.05137C1.21789 2.47603 1.15699 1.86986 1.17729 1.2637C1.17729 1.24315 1.18744 1.2226 1.18744 1.20205C3.25785 1.20205 5.32826 1.20205 7.39867 1.20205C7.39867 1.43836 7.40882 1.66438 7.39867 1.88014C7.33778 2.71233 7.0942 3.4726 6.60704 4.15068C6.34317 4.51027 6.0184 4.81849 5.63273 5.04452C5.57184 5.07534 5.52109 5.12671 5.4805 5.18836C5.25722 5.49658 5.09483 5.82534 5.12528 6.21575C5.15573 6.52397 5.29781 6.77055 5.55154 6.91438C6.44466 7.42808 6.95211 8.21918 7.23629 9.19521C7.38852 9.68836 7.41897 10.2123 7.40882 10.726Z" fill="#626262"/>
<path d="M6.08945 9.58906C5.85602 9.15755 5.55155 8.78769 5.12529 8.54111C4.79037 8.34591 4.54679 8.06851 4.38441 7.71919C4.36411 7.6781 4.32351 7.64728 4.29307 7.61646C4.26262 7.64728 4.23217 7.6781 4.21187 7.71919C4.06979 8.04796 3.84651 8.32536 3.54204 8.50002C3.26801 8.6644 3.01428 8.85961 2.82145 9.11646C2.40534 9.6507 2.18206 10.2569 2.08057 10.9247C2.06027 11.0685 2.07042 11.0891 2.22266 11.0891C2.91279 11.0891 3.60293 11.0891 4.29307 11.0891C4.99335 11.0891 5.70379 11.0891 6.40407 11.0891C6.49541 11.0891 6.53601 11.0582 6.52586 10.9555C6.44467 10.4726 6.31273 10.0206 6.08945 9.58906Z" fill="#626262"/>
<path d="M3.68416 4.61301C3.90744 4.86986 4.09012 5.14726 4.21191 5.47603C4.22206 5.50685 4.26265 5.53767 4.2931 5.55822C4.3134 5.5274 4.354 5.50685 4.36414 5.47603C4.47578 5.18836 4.62802 4.92123 4.831 4.68493C4.88175 4.62329 4.93249 4.56164 4.99339 4.53082C5.52114 4.25342 5.8865 3.82192 6.15038 3.28767C6.18083 3.22603 6.21127 3.17466 6.23157 3.10274C6.24172 3.07192 6.21127 3.03082 6.20112 3C6.15038 3.02055 6.11993 3.02055 6.08949 3.03082C5.93725 3.08219 5.78501 3.13356 5.64293 3.17466C4.80055 3.45205 3.96833 3.72945 3.12596 4.00685C2.99402 4.04795 2.98387 4.08904 3.08536 4.17123C3.22745 4.28425 3.38984 4.38699 3.54207 4.48973C3.59282 4.53082 3.65371 4.56164 3.68416 4.61301Z" fill="#626262"/>
</svg>
