<svg width="20" height="20" viewBox="0 0 20 20" fill="none" xmlns="http://www.w3.org/2000/svg">
<path fill-rule="evenodd" clip-rule="evenodd" d="M9.30861 0.287663C9.69045 -0.0958877 10.3095 -0.0958877 10.6914 0.287663L13.7136 3.32338C14.0955 3.70693 14.0955 4.32879 13.7136 4.71234C13.3318 5.09589 12.7127 5.09589 12.3308 4.71234L10 2.3711L7.66917 4.71234C7.28733 5.09589 6.66823 5.09589 6.28638 4.71234C5.90454 4.32879 5.90454 3.70693 6.28638 3.32338L9.30861 0.287663Z" fill="#FFCE0D"/>
<path fill-rule="evenodd" clip-rule="evenodd" d="M10 20C9.74068 20 9.49198 19.8965 9.30861 19.7123L6.28638 16.6766C5.90454 16.2931 5.90454 15.6712 6.28638 15.2877C6.66823 14.9041 7.28733 14.9041 7.66917 15.2877L10 17.6289L12.3308 15.2877C12.7127 14.9041 13.3318 14.9041 13.7136 15.2877C14.0955 15.6712 14.0955 16.2931 13.7136 16.6766L10.6914 19.7123C10.508 19.8965 10.2593 20 10 20Z" fill="#FFCE0D"/>
<path fill-rule="evenodd" clip-rule="evenodd" d="M19.7123 9.30861C20.0959 9.69045 20.0959 10.3095 19.7123 10.6914L16.6766 13.7136C16.2931 14.0955 15.6712 14.0955 15.2877 13.7136C14.9041 13.3318 14.9041 12.7127 15.2877 12.3308L17.6289 10L15.2877 7.66917C14.9041 7.28732 14.9041 6.66823 15.2877 6.28638C15.6712 5.90454 16.2931 5.90454 16.6766 6.28638L19.7123 9.30861Z" fill="#FFCE0D"/>
<path fill-rule="evenodd" clip-rule="evenodd" d="M-1.74846e-07 10C-1.86181e-07 9.74068 0.103475 9.49198 0.287663 9.30861L3.32338 6.28638C3.70693 5.90454 4.32879 5.90454 4.71234 6.28638C5.09589 6.66823 5.09589 7.28732 4.71234 7.66917L2.3711 10L4.71234 12.3308C5.09589 12.7127 5.09589 13.3318 4.71234 13.7136C4.32879 14.0955 3.70693 14.0955 3.32338 13.7136L0.287663 10.6914C0.103475 10.508 -1.6351e-07 10.2593 -1.74846e-07 10Z" fill="#FFCE0D"/>
<path fill-rule="evenodd" clip-rule="evenodd" d="M10 11.6471C10.9096 11.6471 11.6471 10.9096 11.6471 10C11.6471 9.09035 10.9096 8.35294 10 8.35294C9.09035 8.35294 8.35294 9.09035 8.35294 10C8.35294 10.9096 9.09035 11.6471 10 11.6471ZM10 14C12.2091 14 14 12.2091 14 10C14 7.79086 12.2091 6 10 6C7.79086 6 6 7.79086 6 10C6 12.2091 7.79086 14 10 14Z" fill="#FFCE0D"/>
</svg>
