<svg width="20" height="20" viewBox="0 0 20 20" fill="none" xmlns="http://www.w3.org/2000/svg">
<path fill-rule="evenodd" clip-rule="evenodd" d="M1 10.1764C1 8.84446 2.07978 7.76468 3.41176 7.76468C4.74375 7.76468 5.82353 8.84446 5.82353 10.1764V12.0588C5.82353 13.3908 4.74375 14.4706 3.41176 14.4706C2.07978 14.4706 1 13.3908 1 12.0588V10.1764ZM3.41176 9.76468C3.18435 9.76468 3 9.94903 3 10.1764V12.0588C3 12.2862 3.18435 12.4706 3.41176 12.4706C3.63918 12.4706 3.82353 12.2862 3.82353 12.0588V10.1764C3.82353 9.94903 3.63918 9.76468 3.41176 9.76468Z" fill="#FFCE0D"/>
<path fill-rule="evenodd" clip-rule="evenodd" d="M14.1763 10.1764C14.1763 8.84446 15.2561 7.76468 16.588 7.76468C17.92 7.76468 18.9998 8.84446 18.9998 10.1764V12.0588C18.9998 13.3908 17.92 14.4706 16.588 14.4706C15.2561 14.4706 14.1763 13.3908 14.1763 12.0588V10.1764ZM16.588 9.76468C16.3606 9.76468 16.1763 9.94903 16.1763 10.1764V12.0588C16.1763 12.2862 16.3606 12.4706 16.588 12.4706C16.8154 12.4706 16.9998 12.2862 16.9998 12.0588V10.1764C16.9998 9.94903 16.8154 9.76468 16.588 9.76468Z" fill="#FFCE0D"/>
<path fill-rule="evenodd" clip-rule="evenodd" d="M4.40201 5.27408C3.35665 6.60796 3 8.23379 3 9.30003V11.05H1V9.30003C1 7.91636 1.44335 5.86733 2.79799 4.13883C4.18911 2.36377 6.4881 1 10 1C13.4925 1 15.789 2.29007 17.1877 3.98981C18.5509 5.64642 19 7.61456 19 8.95004V11.05C19 12.4062 18.5002 14.3863 17.0071 16.043C15.4823 17.7349 13.0017 19 9.2381 19V17.0994C12.484 17.0994 14.3844 16.0313 15.4881 14.8066C16.6236 13.5467 17 12.0269 17 11.05V8.95004C17 7.95228 16.6491 6.42055 15.6123 5.16061C14.611 3.94379 12.9075 2.90062 10 2.90062C7.1119 2.90062 5.4109 3.98675 4.40201 5.27408Z" fill="#FFCE0D"/>
<path d="M11 18C11 19.1046 10.1046 20 9 20C7.89543 20 7 19.1046 7 18C7 16.8954 7.89543 16 9 16C10.1046 16 11 16.8954 11 18Z" fill="#FFCE0D"/>
</svg>
