<svg width="21" height="21" viewBox="0 0 21 21" fill="none" xmlns="http://www.w3.org/2000/svg">
<path fill-rule="evenodd" clip-rule="evenodd" d="M14.3309 0.986059C14.6188 0.966693 14.9011 1.07265 15.1051 1.2767L19.7773 5.94883C19.9813 6.15288 20.0873 6.43513 20.0679 6.72305C20.0485 7.01096 19.9057 7.27648 19.6762 7.45137L14.0651 11.4512C13.6258 11.7859 12.9983 11.7011 12.6636 11.2618C12.3289 10.8225 12.4137 10.195 12.853 9.86032L17.554 6.55395L14.5 3.5L11.1397 8.14704C10.805 8.58634 10.1776 8.67113 9.73827 8.33643C9.29896 8.00172 9.21417 7.37426 9.54888 6.93495L13.6026 1.37776C13.7775 1.14822 14.043 1.00542 14.3309 0.986059ZM7.31371 13.6863C7.70424 14.0769 7.70424 14.71 7.31371 15.1006L2.01863 20.3956C1.62811 20.7862 0.994941 20.7862 0.604417 20.3956C0.213892 20.0051 0.213892 19.372 0.604417 18.9814L5.8995 13.6863C6.29002 13.2958 6.92319 13.2958 7.31371 13.6863Z" fill="#FFCE0D"/>
<path fill-rule="evenodd" clip-rule="evenodd" d="M9.51737 7.10465C9.89566 6.91389 10.3525 6.98866 10.6516 7.29028L13.7122 10.377C14.0161 10.6835 14.0872 11.1536 13.8878 11.5376L10.7287 17.6908C10.6075 17.9242 10.3991 18.0993 10.1495 18.1774L1.27387 20.9554C0.930791 21.0628 0.556951 20.9728 0.298941 20.7208C0.0409317 20.4687 -0.0601214 20.0947 0.0354064 19.7454L2.48386 10.794C2.55794 10.5232 2.7425 10.2968 2.99165 10.1712L9.51737 7.10465ZM4.26193 11.7465L2.40776 18.5253L9.17723 16.4065L11.8118 11.2633L9.76278 9.19682L4.26193 11.7465Z" fill="#FFCE0D"/>
<path d="M8 14.5C8 15.3284 7.32843 16 6.5 16C5.67157 16 5 15.3284 5 14.5C5 13.6716 5.67157 13 6.5 13C7.32843 13 8 13.6716 8 14.5Z" fill="#FFCE0D"/>
</svg>
