<svg width="20" height="20" viewBox="0 0 20 20" fill="none" xmlns="http://www.w3.org/2000/svg">
<path fill-rule="evenodd" clip-rule="evenodd" d="M16 3H4V16H16V3ZM4 1C2.89543 1 2 1.89543 2 3V16C2 17.1046 2.89543 18 4 18H16C17.1046 18 18 17.1046 18 16V3C18 1.89543 17.1046 1 16 1H4Z" fill="#FFCE0D"/>
<path fill-rule="evenodd" clip-rule="evenodd" d="M6 6C6 5.44772 6.44772 5 7 5H13C13.5523 5 14 5.44772 14 6C14 6.55228 13.5523 7 13 7H7C6.44772 7 6 6.55228 6 6Z" fill="#FFCE0D"/>
<path fill-rule="evenodd" clip-rule="evenodd" d="M6 9.5C6 8.94772 6.44772 8.5 7 8.5H13C13.5523 8.5 14 8.94772 14 9.5C14 10.0523 13.5523 10.5 13 10.5H7C6.44772 10.5 6 10.0523 6 9.5Z" fill="#FFCE0D"/>
<path fill-rule="evenodd" clip-rule="evenodd" d="M6 13C6 12.4477 6.44772 12 7 12H13C13.5523 12 14 12.4477 14 13C14 13.5523 13.5523 14 13 14H7C6.44772 14 6 13.5523 6 13Z" fill="#FFCE0D"/>
</svg>
