<svg width="20" height="20" viewBox="0 0 20 20" fill="none" xmlns="http://www.w3.org/2000/svg">
<path fill-rule="evenodd" clip-rule="evenodd" d="M9.72331 1.00017C10.0382 0.994497 10.3385 1.13265 10.5388 1.37533L17.7646 10.1329C18.0185 10.4407 18.0717 10.867 17.9013 11.2276C17.7308 11.5882 17.3672 11.8182 16.9677 11.8182H13.871V16.9697C13.871 17.5387 13.4088 18 12.8387 18H7.16129C6.59119 18 6.12903 17.5387 6.12903 16.9697V11.8182H3.03226C2.63954 11.8182 2.28083 11.5958 2.10684 11.2443C1.93285 10.8929 1.97372 10.4734 2.21228 10.162L8.92195 1.40445C9.11329 1.15471 9.40839 1.00584 9.72331 1.00017ZM9.77188 3.68732L5.12112 9.75758H7.16129C7.73139 9.75758 8.19355 10.2189 8.19355 10.7879V15.9394H11.8064V10.7879C11.8064 10.2189 12.2686 9.75758 12.8387 9.75758H14.7804L9.77188 3.68732Z" fill="#FFCE0D"/>
</svg>
