<svg width="20" height="20" viewBox="0 0 20 20" fill="none" xmlns="http://www.w3.org/2000/svg">
<path fill-rule="evenodd" clip-rule="evenodd" d="M10.0926 15.8889C13.4574 15.8889 16.1852 13.1611 16.1852 9.7963C16.1852 6.43145 13.4574 3.7037 10.0926 3.7037C6.72775 3.7037 4 6.43145 4 9.7963C4 13.1611 6.72775 15.8889 10.0926 15.8889ZM10.0926 17.8889C14.562 17.8889 18.1852 14.2657 18.1852 9.7963C18.1852 5.32688 14.562 1.7037 10.0926 1.7037C5.62318 1.7037 2 5.32688 2 9.7963C2 14.2657 5.62318 17.8889 10.0926 17.8889Z" fill="#FFCE0D"/>
<path fill-rule="evenodd" clip-rule="evenodd" d="M4 1.3099C4.4074 1.7231 4.4074 2.39302 4 2.80622L1.78087 5.50001C1.37347 5.9132 0.712949 5.9132 0.30555 5.50001C-0.10185 5.08681 -0.10185 4.41688 0.30555 4.00368L2.52468 1.3099C2.93208 0.896701 3.5926 0.896701 4 1.3099Z" fill="#FFCE0D"/>
<path fill-rule="evenodd" clip-rule="evenodd" d="M16 1.3099C15.5926 1.7231 15.5926 2.39302 16 2.80622L18.2191 5.50001C18.6265 5.9132 19.2871 5.9132 19.6945 5.50001C20.1018 5.08681 20.1018 4.41688 19.6945 4.00368L17.4753 1.3099C17.0679 0.896701 16.4074 0.896701 16 1.3099Z" fill="#FFCE0D"/>
<path fill-rule="evenodd" clip-rule="evenodd" d="M7.06323 15.4716C7.62608 15.7785 7.82163 16.4628 7.5 17L6.19314 19.4354C5.8715 19.9725 5.15449 20.1592 4.59163 19.8522C4.02878 19.5453 3.83322 18.8609 4.15486 18.3238L5.46172 15.8884C5.78335 15.3512 6.50037 15.1646 7.06323 15.4716Z" fill="#FFCE0D"/>
<path fill-rule="evenodd" clip-rule="evenodd" d="M13.5228 15.2044C12.9834 15.577 12.8377 16.332 13.1973 16.8909L14.8493 19.4583C15.209 20.0172 15.9378 20.1682 16.4772 19.7956C17.0166 19.423 17.1623 18.668 16.8027 18.1091L15.1507 15.5417C14.791 14.9828 14.0622 14.8318 13.5228 15.2044Z" fill="#FFCE0D"/>
<path fill-rule="evenodd" clip-rule="evenodd" d="M14.4444 6.68254C14.8039 7.10187 14.7553 7.73317 14.336 8.09259L9.41005 12.3148C9.01331 12.6549 8.42164 12.6321 8.05215 12.2627L6.29289 10.5034C5.90237 10.1129 5.90237 9.47971 6.29289 9.08919C6.68342 8.69866 7.31658 8.69866 7.70711 9.08919L8.81156 10.1936L13.0344 6.57407C13.4537 6.21465 14.085 6.26321 14.4444 6.68254Z" fill="#FFCE0D"/>
</svg>
