<svg width="20" height="20" viewBox="0 0 20 20" fill="none" xmlns="http://www.w3.org/2000/svg">
<path fill-rule="evenodd" clip-rule="evenodd" d="M1 10.0012C1 9.44894 1.44772 9.00122 2 9.00122H6.5C7.05228 9.00122 7.5 9.44894 7.5 10.0012V18.0012C7.5 18.5535 7.05228 19.0012 6.5 19.0012H2C1.44772 19.0012 1 18.5535 1 18.0012V10.0012ZM3 11.0012V17.0012H5.5V11.0012H3Z" fill="#FFCE0D"/>
<path fill-rule="evenodd" clip-rule="evenodd" d="M10.534 3.0831V6.14419C10.534 6.65237 10.3825 7.14867 10.1959 7.57916C10.0051 8.01939 9.74863 8.45603 9.47425 8.86216C8.92588 9.6738 8.2525 10.4418 7.71999 10.9853C7.32652 11.387 6.68858 11.387 6.2951 10.9853C5.90163 10.5837 5.90163 9.9325 6.2951 9.53086C6.77014 9.04596 7.3562 8.37404 7.81538 7.69439C8.04477 7.35487 8.22912 7.033 8.35315 6.74687C8.4814 6.451 8.51887 6.25309 8.51887 6.14419V2.03035C8.51887 1.46235 8.96996 1.00189 9.52642 1.00189C9.56354 1.00189 9.60659 1.00152 9.65484 1.00111C10.0747 0.997554 10.8883 0.990653 11.6161 1.19199C12.0335 1.30744 12.5179 1.51405 12.9064 1.90973C13.3225 2.33347 13.5566 2.90157 13.5566 3.5731V7.17271H16.0755C17.3459 7.17271 18.2901 8.0512 18.7161 9.18183C19.1403 10.3077 19.0998 11.7375 18.5223 13.2112C18.355 13.638 18.2058 14.0545 18.0552 14.475C17.9838 14.6743 17.9121 14.8745 17.838 15.0771C17.6157 15.6851 17.3759 16.3021 17.0904 16.8486C16.5189 17.9425 15.623 19 14.0604 19H7.00755C6.45109 19 6 18.5395 6 17.9715C6 17.4035 6.45109 16.9431 7.00755 16.9431H14.0604C14.5129 16.9431 14.8764 16.715 15.3124 15.8806C15.5307 15.4628 15.7317 14.955 15.9502 14.3577C16.0145 14.1818 16.0811 13.9962 16.1498 13.8044C16.3056 13.3694 16.4728 12.9029 16.6513 12.4473C17.0814 11.3498 17.0408 10.4656 16.8353 9.92022C16.6316 9.3796 16.3164 9.22963 16.0755 9.22963H12.5491C11.9926 9.22963 11.5415 8.76917 11.5415 8.20117V3.5731C11.5415 3.42505 11.5043 3.38731 11.4845 3.36721C11.4841 3.36677 11.4837 3.36635 11.4833 3.36593C11.4363 3.31808 11.3224 3.24185 11.0891 3.17731C10.9139 3.12886 10.7256 3.1003 10.534 3.0831Z" fill="#FFCE0D"/>
</svg>
