<svg width="20" height="20" viewBox="0 0 20 20" fill="none" xmlns="http://www.w3.org/2000/svg">
<path fill-rule="evenodd" clip-rule="evenodd" d="M1 7C1 5.34315 2.34315 4 4 4H16C17.6569 4 19 5.34315 19 7V16C19 17.6569 17.6569 19 16 19H4C2.34315 19 1 17.6569 1 16V7ZM4 6C3.44772 6 3 6.44772 3 7V16C3 16.5523 3.44772 17 4 17H16C16.5523 17 17 16.5523 17 16V7C17 6.44772 16.5523 6 16 6H4Z" fill="#FFCE0D"/>
<path fill-rule="evenodd" clip-rule="evenodd" d="M6 3C6 1.89543 6.89543 1 8 1H12C13.1046 1 14 1.89543 14 3V5H12V3H8V5H6V3Z" fill="#FFCE0D"/>
<path fill-rule="evenodd" clip-rule="evenodd" d="M18.2247 10.9744L11.7247 12.4744L11.275 10.5256L17.775 9.0256L18.2247 10.9744ZM7.75732 12.4701L1.75732 10.9701L2.2424 9.02985L8.2424 10.5299L7.75732 12.4701Z" fill="#FFCE0D"/>
<path d="M7 12C7 10.8954 7.89543 10 9 10H10C11.1046 10 12 10.8954 12 12V12C12 13.1046 11.1046 14 10 14H9C7.89543 14 7 13.1046 7 12V12Z" fill="#FFCE0D"/>
</svg>
