<svg width="20" height="20" viewBox="0 0 20 20" fill="none" xmlns="http://www.w3.org/2000/svg">
<path fill-rule="evenodd" clip-rule="evenodd" d="M11.4277 19.76C11.0639 20.0711 10.5307 20.0808 10.1559 19.7831L2.3781 13.6066C1.9456 13.2632 1.87342 12.6341 2.21687 12.2016C2.56033 11.7691 3.18936 11.697 3.62186 12.0404L10.7542 17.7043L17.35 12.0635C17.7698 11.7046 18.401 11.7539 18.76 12.1736C19.1189 12.5933 19.0697 13.2246 18.6499 13.5835L11.4277 19.76Z" fill="#FFCE0D"/>
<path d="M9.21275 7.99162C9.08867 7.97094 9.02146 7.89856 9.01112 7.77448V6.14591C9.0318 6.02183 9.09901 5.95462 9.21275 5.94428H12.9817V4.34674L11.0585 4.31572V2.76471H9.55397V4.2847C8.31316 4.29504 7.548 4.78102 7.25847 5.74265C7.18609 6.00115 7.1499 6.27516 7.1499 6.56469V7.37121C7.1499 8.76712 7.86854 9.51678 9.30581 9.62018C9.42989 9.63052 9.5488 9.63569 9.66254 9.63569H11.2291C11.3531 9.65637 11.4204 9.72358 11.4307 9.83732V11.5434C11.41 11.6675 11.3428 11.7347 11.2291 11.7451H7.36704V13.3426L9.55397 13.3891V14.8936H11.0585V13.4046C12.2889 13.3529 13.0127 12.8049 13.2299 11.7606C13.2712 11.5538 13.2919 11.3418 13.2919 11.1247V10.1941C13.2712 8.7361 12.444 8.00196 10.8103 7.99162H9.21275Z" fill="#FFCE0D"/>
<path fill-rule="evenodd" clip-rule="evenodd" d="M3 1.0163C3 0.455015 3.4408 0 3.98456 0H17.0154C17.5592 0 18 0.455015 18 1.0163V9.9837C18 10.545 17.5592 11 17.0154 11C16.4717 11 16.0309 10.545 16.0309 9.9837V2.03261H4.96911V9.9837C4.96911 10.545 4.52831 11 3.98456 11C3.4408 11 3 10.545 3 9.9837V1.0163Z" fill="#FFCE0D"/>
</svg>
