<svg width="20" height="20" viewBox="0 0 20 20" fill="none" xmlns="http://www.w3.org/2000/svg">
<path fill-rule="evenodd" clip-rule="evenodd" d="M1 0L5.80396 3.29973L10.0393 0.754246L13.7451 3.29973L19 0.14147V11.1423C19 12.0787 18.5091 12.9832 17.929 13.7504C17.3291 14.5439 16.5231 15.3338 15.6663 16.0655C13.95 17.5311 11.9076 18.8655 10.5448 19.6518L9.94133 20L9.37385 19.5998C8.0292 18.6516 6.01032 17.1249 4.31764 15.6188C3.47381 14.8679 2.68579 14.0999 2.10052 13.3962C1.80829 13.0449 1.54755 12.687 1.35537 12.3374C1.17241 12.0045 1 11.5878 1 11.1423V0ZM9.96074 3.20284L5.72545 5.74833L3.11765 3.95709V11.1323C3.11766 11.1323 3.11763 11.1323 3.11765 11.1323C3.11888 11.1322 3.13082 11.2098 3.22758 11.3858C3.33526 11.5817 3.50881 11.8292 3.75426 12.1243C4.24436 12.7135 4.94531 13.4028 5.75589 14.1241C7.15014 15.3647 8.79413 16.6344 10.0555 17.5493C11.2951 16.7943 12.9001 15.7043 14.2602 14.5428C15.0578 13.8617 15.7408 13.1817 16.2162 12.5529C16.7115 11.8978 16.8824 11.4277 16.8824 11.1423V3.81562L13.6666 5.74833L9.96074 3.20284Z" fill="#FFCE0D"/>
<path fill-rule="evenodd" clip-rule="evenodd" d="M15 8.29892L9.066 14L6 11.0543L7.35199 9.75543L9.066 11.4022L13.648 7L15 8.29892Z" fill="#FFCE0D"/>
</svg>
