<svg width="20" height="21" viewBox="0 0 20 21" fill="none" xmlns="http://www.w3.org/2000/svg">
<path fill-rule="evenodd" clip-rule="evenodd" d="M13.5052 6.31701L9.25258 11.1771L6 7.45987L7.50515 6.14286L9.25258 8.13991L12 5L13.5052 6.31701Z" fill="#FFCE0D"/>
<path fill-rule="evenodd" clip-rule="evenodd" d="M7.57632 0.918332C8.56611 -0.306111 10.4329 -0.306111 11.4227 0.918332C11.5524 1.07877 11.7645 1.14767 11.9637 1.09411C13.4842 0.685298 14.9944 1.78258 15.0755 3.35496C15.0861 3.56098 15.2172 3.74138 15.4098 3.81515C16.8802 4.37812 17.4571 6.15356 16.5984 7.47327C16.4859 7.64619 16.4859 7.86918 16.5984 8.0421C17.4571 9.36182 16.8802 11.1373 15.4098 11.7002C15.2172 11.774 15.0861 11.9544 15.0755 12.1604C14.9944 13.7328 13.4842 14.8301 11.9637 14.4213C11.7645 14.3677 11.5524 14.4366 11.4227 14.597C10.4329 15.8215 8.56611 15.8215 7.57632 14.597C7.44663 14.4366 7.23456 14.3677 7.03533 14.4213C5.51487 14.8301 4.00459 13.7328 3.92354 12.1604C3.91292 11.9544 3.78186 11.774 3.5892 11.7002C2.11882 11.1373 1.54195 9.36182 2.4006 8.0421C2.51311 7.86918 2.51311 7.64619 2.4006 7.47327C1.54195 6.15356 2.11882 4.37812 3.58919 3.81515C3.78186 3.74138 3.91292 3.56098 3.92354 3.35496C4.00459 1.78258 5.51487 0.685298 7.03533 1.09411C7.23456 1.14767 7.44663 1.07877 7.57632 0.918332ZM9.90509 2.14511C9.69635 1.88689 9.30267 1.88689 9.09394 2.14511C8.47896 2.90588 7.47333 3.23263 6.52864 2.97863C6.20799 2.89241 5.88949 3.12382 5.8724 3.45541C5.82205 4.43236 5.20053 5.2878 4.28696 5.63758C3.97688 5.7563 3.85522 6.13072 4.0363 6.40903C4.5698 7.229 4.5698 8.28638 4.0363 9.10634C3.85522 9.38466 3.97688 9.75907 4.28696 9.8778C5.20053 10.2276 5.82205 11.083 5.8724 12.06C5.88949 12.3916 6.20799 12.623 6.52864 12.5368C7.47333 12.2827 8.47896 12.6095 9.09394 13.3703C9.30267 13.6285 9.69635 13.6285 9.90509 13.3703C10.5201 12.6095 11.5257 12.2827 12.4704 12.5368C12.791 12.623 13.1095 12.3916 13.1266 12.06C13.177 11.083 13.7985 10.2276 14.7121 9.8778C15.0221 9.75907 15.1438 9.38466 14.9627 9.10634C14.4292 8.28638 14.4292 7.229 14.9627 6.40903C15.1438 6.13072 15.0221 5.7563 14.7121 5.63758C13.7985 5.2878 13.177 4.43236 13.1266 3.45541C13.1095 3.12382 12.791 2.89241 12.4704 2.97863C11.5257 3.23263 10.5201 2.90588 9.90509 2.14511Z" fill="#FFCE0D"/>
<path fill-rule="evenodd" clip-rule="evenodd" d="M4.96738 11.2088C5.402 11.4665 5.54693 12.0327 5.29109 12.4736L3.58858 15.5153L5.34581 15.4834C5.66901 15.4775 5.97065 15.6451 6.13894 15.924L6.88137 17.1543L7.9073 14.1089C8.13578 13.6529 8.68548 13.4696 9.13509 13.6995C9.5847 13.9294 9.76397 14.4854 9.53549 14.9414L7.76801 19.4666C7.61803 19.7659 7.32007 19.9601 6.98927 19.9741C6.65846 19.9882 6.34663 19.8199 6.17427 19.5343L4.85121 17.3418L1.99081 17.3938C1.66081 17.3997 1.35386 17.225 1.18794 16.9367C1.02202 16.6484 1.02295 16.2913 1.19037 16.0028L3.71717 11.5406C3.97302 11.0997 4.53275 10.9512 4.96738 11.2088Z" fill="#FFCE0D"/>
<path fill-rule="evenodd" clip-rule="evenodd" d="M14.7952 10L18.8518 16.0363C19.0448 16.3479 19.0497 16.7526 18.8641 17.0694C18.6786 17.3863 18.3374 17.5562 17.9929 17.5032L15.4867 17.1178L14.7952 19.3506C14.6898 19.691 14.4151 19.9384 14.0852 19.9901C13.7553 20.0417 13.4265 19.8889 13.2353 19.5949L10 14.5368L11.4457 13.4476L13.6755 16.9597L14.0454 15.7653C14.1803 15.3299 14.5851 15.0606 15.0073 15.1255L16.2889 15.3226L14.0501 12.0536L14.7952 10Z" fill="#FFCE0D"/>
</svg>
